<?xml version="1.0" encoding="utf-8"?>
<!-- Generator: Adobe Illustrator 18.1.1, SVG Export Plug-In . SVG Version: 6.00 Build 0)  -->
<!DOCTYPE svg PUBLIC "-//W3C//DTD SVG 1.1//EN" "http://www.w3.org/Graphics/SVG/1.1/DTD/svg11.dtd">
<svg version="1.1" id="レイヤー_1" xmlns="http://www.w3.org/2000/svg" xmlns:xlink="http://www.w3.org/1999/xlink" x="0px"
	 y="0px" viewBox="0 0 54 74.2" enable-background="new 0 0 54 74.2" xml:space="preserve">
<g>
	<g>
		<g>
			<g>
				<path fill="#17A28F" d="M54,27c0,14-12.9,25.6-24.9,46c-0.9,1.6-3.2,1.6-4.1,0C14.6,54.2,0,40.9,0,27C0,12.1,12.1,0,27,0
					C41.9,0,54,12.1,54,27z"/>
			</g>
		</g>
		<g>
			<g>
				
					<circle fill="none" stroke="#000000" stroke-width="1.5331" stroke-linecap="round" stroke-linejoin="round" stroke-miterlimit="10" cx="27" cy="19.6" r="0.9"/>
				
					<path fill="none" stroke="#000000" stroke-width="1.6256" stroke-linecap="round" stroke-linejoin="round" stroke-miterlimit="10" d="
					M31.1,32.3V27c0-2.2-1.8-4-4-4c-2.2,0-4,1.8-4,4v5.3"/>
				
					<line fill="none" stroke="#000000" stroke-width="1.5331" stroke-linecap="round" stroke-linejoin="round" stroke-miterlimit="10" x1="25.8" y1="23.5" x2="25.8" y2="39.7"/>
				
					<line fill="none" stroke="#000000" stroke-width="1.5331" stroke-linecap="round" stroke-linejoin="round" stroke-miterlimit="10" x1="28.3" y1="39.7" x2="28.3" y2="23.5"/>
			</g>
			
				<rect x="25.8" y="23.5" stroke="#000000" stroke-width="1.5331" stroke-linecap="round" stroke-linejoin="round" stroke-miterlimit="10" width="2.5" height="7.7"/>
		</g>
		<g>
			
				<line fill="none" stroke="#040000" stroke-width="2.25" stroke-linecap="round" stroke-linejoin="round" stroke-miterlimit="10" x1="18.9" y1="41.6" x2="18.9" y2="17.6"/>
			
				<line fill="none" stroke="#040000" stroke-width="2.25" stroke-linecap="round" stroke-linejoin="round" stroke-miterlimit="10" x1="35.1" y1="34.1" x2="35.1" y2="17.6"/>
			
				<path fill="none" stroke="#040000" stroke-width="2.25" stroke-linecap="round" stroke-linejoin="round" stroke-miterlimit="10" d="
				M40.8,32.4C40.8,38.2,36,43,30.2,43"/>
		</g>
	</g>
</g>
</svg>
