<?xml version="1.0" encoding="utf-8"?>
<!-- Generator: Adobe Illustrator 18.1.1, SVG Export Plug-In . SVG Version: 6.00 Build 0)  -->
<!DOCTYPE svg PUBLIC "-//W3C//DTD SVG 1.1//EN" "http://www.w3.org/Graphics/SVG/1.1/DTD/svg11.dtd">
<svg version="1.1" id="レイヤー_1" xmlns="http://www.w3.org/2000/svg" xmlns:xlink="http://www.w3.org/1999/xlink" x="0px"
	 y="0px" viewBox="0 0 54 74.2" enable-background="new 0 0 54 74.2" xml:space="preserve">
<g>
	<g>
		<g>
			<path fill="#F4C81E" d="M54,27c0,14-12.9,25.6-24.9,46c-0.9,1.6-3.2,1.6-4.1,0C14.6,54.2,0,40.9,0,27C0,12.1,12.1,0,27,0
				C41.9,0,54,12.1,54,27z"/>
		</g>
	</g>
	<g>
		<g>
			<g>
				<path fill="#040000" d="M17.6,40.5c-3.9,0-5.4-2.7-3.5-6.1l9.4-16.3c1.9-3.3,5.1-3.3,7,0l9.4,16.3c1.9,3.3,0.4,6.1-3.5,6.1H17.6
					z"/>
			</g>
			<g>
				<g>
					<rect x="25.9" y="32.8" fill="#F4C81E" width="2.6" height="2.6"/>
				</g>
				<g>
					<rect x="25.9" y="23" fill="#F4C81E" width="2.6" height="7.2"/>
				</g>
			</g>
		</g>
	</g>
</g>
</svg>
