<?xml version="1.0" encoding="utf-8"?>
<!-- Generator: Adobe Illustrator 18.1.1, SVG Export Plug-In . SVG Version: 6.00 Build 0)  -->
<!DOCTYPE svg PUBLIC "-//W3C//DTD SVG 1.1//EN" "http://www.w3.org/Graphics/SVG/1.1/DTD/svg11.dtd">
<svg version="1.1" id="レイヤー_1" xmlns="http://www.w3.org/2000/svg" xmlns:xlink="http://www.w3.org/1999/xlink" x="0px"
	 y="0px" viewBox="0 0 54 74.2" enable-background="new 0 0 54 74.2" xml:space="preserve">
<g>
	<g>
		<g>
			<path fill="#003E74" d="M54,27c0,14-12.9,25.6-24.9,46c-0.9,1.6-3.2,1.6-4.1,0C14.6,54.2,0,40.9,0,27C0,12.1,12.1,0,27,0
				C41.9,0,54,12.1,54,27z"/>
		</g>
	</g>
	<g>
		<g>
			<path fill="none" stroke="#FFFFFF" stroke-width="3" stroke-linecap="round" stroke-linejoin="round" stroke-miterlimit="10" d="
				M27.9,35.6c5.5,0,10.4-2.9,13.1-7.3c-2.7-4.4-7.6-7.3-13.1-7.3c-5.5,0-10.4,2.9-13.1,7.3C17.5,32.7,22.4,35.6,27.9,35.6z"/>
		</g>
		<circle fill="#FFFFFF" cx="27.9" cy="28.4" r="3.9"/>
	</g>
	<g>
		<rect x="10.1" y="17.6" fill="#003E74" width="8" height="22.3"/>
		
			<line fill="none" stroke="#FFFFFF" stroke-width="3" stroke-linecap="round" stroke-linejoin="round" stroke-miterlimit="10" x1="18.1" y1="39.9" x2="18.1" y2="17.6"/>
	</g>
</g>
</svg>
