<?xml version="1.0" encoding="utf-8"?>
<!-- Generator: Adobe Illustrator 18.1.1, SVG Export Plug-In . SVG Version: 6.00 Build 0)  -->
<!DOCTYPE svg PUBLIC "-//W3C//DTD SVG 1.1//EN" "http://www.w3.org/Graphics/SVG/1.1/DTD/svg11.dtd">
<svg version="1.1" id="レイヤー_1" xmlns="http://www.w3.org/2000/svg" xmlns:xlink="http://www.w3.org/1999/xlink" x="0px"
	 y="0px" viewBox="0 0 54 74.2" enable-background="new 0 0 54 74.2" xml:space="preserve">
<g>
	<g>
		<path fill="#040000" d="M54,27c0,14-12.9,25.6-24.9,46c-0.9,1.6-3.2,1.6-4.1,0C14.6,54.2,0,40.9,0,27C0,12.1,12.1,0,27,0
			C41.9,0,54,12.1,54,27z"/>
	</g>
	<g>
		<path fill="#F4C81E" d="M20.5,13.5c0.2-0.3,0.6-0.3,0.8,0l1,1.6c0.2,0.3,0.7,0.5,1.1,0.4l1.7-0.7c0.4-0.2,0.7,0.1,0.6,0.5
			l-0.1,1.8c0,0.4,0.3,0.8,0.7,0.9l1.8,0.4c0.4,0.1,0.5,0.4,0.2,0.7l-1.2,1.4c-0.3,0.3-0.3,0.8,0,1.1l1.2,1.4
			c0.3,0.3,0.2,0.6-0.2,0.7l-1.8,0.4c-0.4,0.1-0.7,0.5-0.7,0.9l0.1,1.8c0,0.4-0.3,0.6-0.6,0.5l-1.7-0.7c-0.4-0.2-0.9,0-1.1,0.4
			l-1,1.6c-0.2,0.3-0.6,0.3-0.8,0l-1-1.6c-0.2-0.3-0.7-0.5-1.1-0.4l-1.7,0.7c-0.4,0.2-0.7-0.1-0.6-0.5l0.1-1.8
			c0-0.4-0.3-0.8-0.7-0.9l-1.8-0.4c-0.4-0.1-0.5-0.4-0.2-0.7l1.2-1.4c0.3-0.3,0.3-0.8,0-1.1l-1.2-1.4c-0.3-0.3-0.2-0.6,0.2-0.7
			l1.8-0.4c0.4-0.1,0.7-0.5,0.7-0.9l-0.1-1.8c0-0.4,0.3-0.6,0.6-0.5l1.7,0.7c0.4,0.2,0.9,0,1.1-0.4L20.5,13.5z"/>
	</g>
	<g>
		<path fill="#F4C81E" d="M33.5,26.5c0.2-0.3,0.6-0.3,0.8,0l1,1.6c0.2,0.3,0.7,0.5,1.1,0.4l1.7-0.7c0.4-0.2,0.7,0.1,0.6,0.5
			l-0.1,1.8c0,0.4,0.3,0.8,0.7,0.9l1.8,0.4c0.4,0.1,0.5,0.4,0.2,0.7l-1.2,1.4c-0.3,0.3-0.3,0.8,0,1.1l1.2,1.4
			c0.3,0.3,0.2,0.6-0.2,0.7l-1.8,0.4c-0.4,0.1-0.7,0.5-0.7,0.9l0.1,1.8c0,0.4-0.3,0.6-0.6,0.5l-1.7-0.7c-0.4-0.2-0.9,0-1.1,0.4
			l-1,1.6c-0.2,0.3-0.6,0.3-0.8,0l-1-1.6c-0.2-0.3-0.7-0.5-1.1-0.4l-1.7,0.7c-0.4,0.2-0.7-0.1-0.6-0.5l0.1-1.8
			c0-0.4-0.3-0.8-0.7-0.9l-1.8-0.4c-0.4-0.1-0.5-0.4-0.2-0.7l1.2-1.4c0.3-0.3,0.3-0.8,0-1.1l-1.2-1.4c-0.3-0.3-0.2-0.6,0.2-0.7
			l1.8-0.4c0.4-0.1,0.7-0.5,0.7-0.9l-0.1-1.8c0-0.4,0.3-0.6,0.6-0.5l1.7,0.7c0.4,0.2,0.9,0,1.1-0.4L33.5,26.5z"/>
	</g>
</g>
</svg>
