<?xml version="1.0" encoding="utf-8"?>
<!-- Generator: Adobe Illustrator 18.1.1, SVG Export Plug-In . SVG Version: 6.00 Build 0)  -->
<!DOCTYPE svg PUBLIC "-//W3C//DTD SVG 1.1//EN" "http://www.w3.org/Graphics/SVG/1.1/DTD/svg11.dtd">
<svg version="1.1" id="レイヤー_1" xmlns="http://www.w3.org/2000/svg" xmlns:xlink="http://www.w3.org/1999/xlink" x="0px"
	 y="0px" viewBox="0 0 54 74.2" enable-background="new 0 0 54 74.2" xml:space="preserve">
<g>
	<g>
		<defs>
			<path id="SVGID_3_" d="M54,27c0,14-12.9,25.6-24.9,46c-0.9,1.6-3.2,1.6-4.1,0C14.6,54.2,0,40.9,0,27C0,12.1,12.1,0,27,0
				C41.9,0,54,12.1,54,27z"/>
		</defs>
		<use xlink:href="#SVGID_3_"  overflow="visible" fill="#989898"/>
		<clipPath id="SVGID_1_">
			<use xlink:href="#SVGID_3_"  overflow="visible"/>
		</clipPath>
	</g>
</g>
<g>
	<g>
		<circle fill="#FFFFFF" cx="27.4" cy="22.2" r="6.5"/>
		<polygon fill="#989898" points="20,18.8 20.8,15.6 24.1,14.7 29.7,20.3 28.8,23.5 25.5,24.4 		"/>
		<rect x="24.5" y="26.2" fill="#FFFFFF" width="5.8" height="21.2"/>
	</g>
	
		<line fill="none" stroke="#979797" stroke-width="7" stroke-linecap="round" stroke-linejoin="round" stroke-miterlimit="10" x1="21" y1="40.3" x2="34.1" y2="32.8"/>
	
		<line fill="none" stroke="#FFFFFF" stroke-width="1.3405" stroke-linecap="round" stroke-linejoin="round" stroke-miterlimit="10" x1="21" y1="40.3" x2="34.1" y2="32.8"/>
</g>
</svg>
