<?xml version="1.0" encoding="utf-8"?>
<!-- Generator: Adobe Illustrator 18.1.1, SVG Export Plug-In . SVG Version: 6.00 Build 0)  -->
<!DOCTYPE svg PUBLIC "-//W3C//DTD SVG 1.1//EN" "http://www.w3.org/Graphics/SVG/1.1/DTD/svg11.dtd">
<svg version="1.1" id="レイヤー_1" xmlns="http://www.w3.org/2000/svg" xmlns:xlink="http://www.w3.org/1999/xlink" x="0px"
	 y="0px" viewBox="0 0 54 74.2" enable-background="new 0 0 54 74.2" xml:space="preserve">
<g>
	<g>
		<g>
			<path fill="#040000" d="M54,27c0,14-12.9,25.6-24.9,46c-0.9,1.6-3.2,1.6-4.1,0C14.6,54.2,0,40.9,0,27C0,12.1,12.1,0,27,0
				C41.9,0,54,12.1,54,27z"/>
		</g>
	</g>
	<g>
		<g>
			<path fill="none" stroke="#FFFFFF" stroke-width="2.2171" stroke-linejoin="round" stroke-miterlimit="10" d="M31.8,21h-5.6v14.9
				h5.6c4.1,0,7.5-3.3,7.5-7.5S35.9,21,31.8,21z"/>
		</g>
		<g>
			<g>
				<line fill="none" stroke="#FFFFFF" stroke-width="2.0665" stroke-linejoin="round" x1="20.8" y1="21.1" x2="19.2" y2="20.1"/>
				
					<line fill="none" stroke="#FFFFFF" stroke-width="2.0665" stroke-linejoin="round" stroke-dasharray="2.2351,2.2351" x1="17.3" y1="18.9" x2="14.5" y2="17"/>
				<line fill="none" stroke="#FFFFFF" stroke-width="2.0665" stroke-linejoin="round" x1="13.6" y1="16.4" x2="12" y2="15.4"/>
			</g>
		</g>
		<g>
			<g>
				<line fill="none" stroke="#FFFFFF" stroke-width="2.0665" stroke-linejoin="round" x1="20.8" y1="35.8" x2="19.2" y2="36.8"/>
				
					<line fill="none" stroke="#FFFFFF" stroke-width="2.0665" stroke-linejoin="round" stroke-dasharray="2.2351,2.2351" x1="17.3" y1="38" x2="14.5" y2="39.8"/>
				<line fill="none" stroke="#FFFFFF" stroke-width="2.0665" stroke-linejoin="round" x1="13.6" y1="40.5" x2="12" y2="41.5"/>
			</g>
		</g>
	</g>
</g>
</svg>
