<?xml version="1.0" encoding="utf-8"?>
<!-- Generator: Adobe Illustrator 18.1.1, SVG Export Plug-In . SVG Version: 6.00 Build 0)  -->
<!DOCTYPE svg PUBLIC "-//W3C//DTD SVG 1.1//EN" "http://www.w3.org/Graphics/SVG/1.1/DTD/svg11.dtd">
<svg version="1.1" id="レイヤー_1" xmlns="http://www.w3.org/2000/svg" xmlns:xlink="http://www.w3.org/1999/xlink" x="0px"
	 y="0px" viewBox="0 0 54 74.2" enable-background="new 0 0 54 74.2" xml:space="preserve">
<g>
	<g>
		<g>
			<path fill="#E2232A" d="M1140,410c0,14-12.9,25.6-24.9,46c-0.9,1.6-3.2,1.6-4.1,0c-10.4-18.7-25-32-25-46c0-14.9,12.1-27,27-27
				C1127.9,383,1140,395.1,1140,410z"/>
		</g>
	</g>
	<g>
		<g>
			
				<circle fill="none" stroke="#FFFFFF" stroke-width="3" stroke-linecap="round" stroke-linejoin="round" stroke-miterlimit="10" cx="1113" cy="410.2" r="17.2"/>
		</g>
		<g>
			<path d="M1110.8,404.9c1.2,0,2.1-1,2.1-2.1s-1-2.1-2.1-2.1s-2.1,1-2.1,2.1S1109.6,404.9,1110.8,404.9z"/>
			<path d="M1113.4,408.8c2.1-1,3.6-3.1,3.6-5.6V399c0-0.6-0.5-1-1-1s-1,0.5-1,1v4.2c0,1.6-0.9,2.9-2.2,3.6c-0.1,0-0.2-0.1-0.3-0.1
				c-0.3,0-0.6,0.2-0.8,0.4c-0.3,0.1-0.5,0.1-0.8,0.1c-0.3,0-0.5,0-0.8-0.1c-0.2-0.3-0.5-0.4-0.8-0.4c-0.1,0-0.2,0-0.3,0.1
				c-1.3-0.7-2.2-2-2.2-3.6V399c0-0.6-0.5-1-1-1s-1,0.5-1,1v4.2c0,2.5,1.5,4.6,3.6,5.6v7.3l5.1-3.8V408.8z"/>
		</g>
		
			<line fill="none" stroke="#FFFFFF" stroke-width="3" stroke-linecap="round" stroke-linejoin="round" stroke-miterlimit="10" x1="1100" y1="421.4" x2="1127.2" y2="401.6"/>
	</g>
</g>
<g>
	<g>
		<g>
			<path fill="#E2232A" d="M54,27c0,14-12.9,25.6-24.9,46c-0.9,1.6-3.2,1.6-4.1,0C14.6,54.2,0,40.9,0,27C0,12.1,12.1,0,27,0
				C41.9,0,54,12.1,54,27z"/>
		</g>
	</g>
	<g>
		<g>
			
				<circle fill="none" stroke="#FFFFFF" stroke-width="3" stroke-linecap="round" stroke-linejoin="round" stroke-miterlimit="10" cx="27" cy="27.2" r="17.2"/>
		</g>
		<g>
			<path d="M24.8,21.9c1.2,0,2.1-1,2.1-2.1s-1-2.1-2.1-2.1s-2.1,1-2.1,2.1S23.6,21.9,24.8,21.9z"/>
			<path d="M27.4,25.8c2.1-1,3.6-3.1,3.6-5.6V16c0-0.6-0.5-1-1-1s-1,0.5-1,1v4.2c0,1.6-0.9,2.9-2.2,3.6c-0.1,0-0.2-0.1-0.3-0.1
				c-0.3,0-0.6,0.2-0.8,0.4c-0.3,0.1-0.5,0.1-0.8,0.1c-0.3,0-0.5,0-0.8-0.1c-0.2-0.3-0.5-0.4-0.8-0.4c-0.1,0-0.2,0-0.3,0.1
				c-1.3-0.7-2.2-2-2.2-3.6V16c0-0.6-0.5-1-1-1s-1,0.5-1,1v4.2c0,2.5,1.5,4.6,3.6,5.6V33l5.1-3.8V25.8z"/>
		</g>
		
			<line fill="none" stroke="#FFFFFF" stroke-width="3" stroke-linecap="round" stroke-linejoin="round" stroke-miterlimit="10" x1="14" y1="38.4" x2="41.2" y2="18.6"/>
	</g>
</g>
</svg>
