<?xml version="1.0" encoding="utf-8"?>
<!-- Generator: Adobe Illustrator 18.1.1, SVG Export Plug-In . SVG Version: 6.00 Build 0)  -->
<!DOCTYPE svg PUBLIC "-//W3C//DTD SVG 1.1//EN" "http://www.w3.org/Graphics/SVG/1.1/DTD/svg11.dtd">
<svg version="1.1" id="レイヤー_1" xmlns="http://www.w3.org/2000/svg" xmlns:xlink="http://www.w3.org/1999/xlink" x="0px"
	 y="0px" viewBox="0 0 54 74.2" enable-background="new 0 0 54 74.2" xml:space="preserve">
<g>
	<g>
		<g>
			<path fill="#7E1A8E" d="M54,27c0,14-12.9,25.6-24.9,46c-0.9,1.6-3.2,1.6-4.1,0C14.6,54.2,0,40.9,0,27C0,12.1,12.1,0,27,0
				C41.9,0,54,12.1,54,27z"/>
		</g>
	</g>
	<g>
		<g>
			<g>
				
					<rect x="24.8" y="24.2" fill="none" stroke="#FFFFFF" stroke-width="3" stroke-linecap="round" stroke-linejoin="round" stroke-miterlimit="10" width="14.6" height="18.2"/>
				
					<line fill="none" stroke="#FFFFFF" stroke-width="3" stroke-linecap="round" stroke-linejoin="round" stroke-miterlimit="10" x1="39.4" y1="37.3" x2="24.8" y2="37.3"/>
			</g>
			<g>
				
					<line fill="none" stroke="#FFFFFF" stroke-width="3" stroke-linecap="round" stroke-linejoin="round" stroke-miterlimit="10" x1="39.4" y1="19.1" x2="24.8" y2="19.1"/>
			</g>
			<g>
				<g>
					
						<line fill="none" stroke="#FFFFFF" stroke-width="3" stroke-linecap="round" stroke-linejoin="round" stroke-miterlimit="10" x1="19.8" y1="19.1" x2="14.6" y2="19.1"/>
				</g>
				<g>
					
						<line fill="none" stroke="#FFFFFF" stroke-width="3" stroke-linecap="round" stroke-linejoin="round" stroke-miterlimit="10" x1="19.8" y1="27.8" x2="14.6" y2="27.8"/>
				</g>
				<g>
					
						<line fill="none" stroke="#FFFFFF" stroke-width="3" stroke-linecap="round" stroke-linejoin="round" stroke-miterlimit="10" x1="19.8" y1="36.6" x2="14.6" y2="41.6"/>
				</g>
			</g>
		</g>
		<g>
			
				<line fill="none" stroke="#FFFFFF" stroke-width="3" stroke-linecap="round" stroke-linejoin="round" stroke-miterlimit="10" x1="29.5" y1="32.9" x2="29.5" y2="19.1"/>
			
				<line fill="none" stroke="#FFFFFF" stroke-width="3" stroke-linecap="round" stroke-linejoin="round" stroke-miterlimit="10" x1="34.7" y1="32.9" x2="34.7" y2="19.1"/>
		</g>
	</g>
</g>
</svg>
