<?xml version="1.0" encoding="utf-8"?>
<!-- Generator: Adobe Illustrator 18.1.1, SVG Export Plug-In . SVG Version: 6.00 Build 0)  -->
<!DOCTYPE svg PUBLIC "-//W3C//DTD SVG 1.1//EN" "http://www.w3.org/Graphics/SVG/1.1/DTD/svg11.dtd">
<svg version="1.1" id="レイヤー_1" xmlns="http://www.w3.org/2000/svg" xmlns:xlink="http://www.w3.org/1999/xlink" x="0px"
	 y="0px" viewBox="0 0 54 74.2" enable-background="new 0 0 54 74.2" xml:space="preserve">
<g>
	<g>
		<g>
			<g>
				<path fill="#4FC8FF" d="M54,27c0,14-12.9,25.6-24.9,46c-0.9,1.6-3.2,1.6-4.1,0C14.6,54.2,0,40.9,0,27C0,12.1,12.1,0,27,0
					C41.9,0,54,12.1,54,27z"/>
			</g>
		</g>
	</g>
	<g>
		
			<line fill="none" stroke="#040000" stroke-width="3" stroke-linecap="round" stroke-linejoin="round" stroke-miterlimit="10" x1="20.7" y1="22.2" x2="16.7" y2="24.6"/>
		
			<line fill="none" stroke="#040000" stroke-width="3" stroke-linecap="round" stroke-linejoin="round" stroke-miterlimit="10" x1="33.4" y1="22.2" x2="37.4" y2="24.6"/>
	</g>
	<g>
		<path fill="none" stroke="#040000" stroke-width="3" stroke-linecap="round" stroke-linejoin="round" stroke-miterlimit="10" d="
			M37.4,37.6c-1.7,0-1.7-2-3.4-2c-1.7,0-1.7,2-3.4,2c-1.7,0-1.7-2-3.4-2c-1.7,0-1.7,2-3.4,2c-1.7,0-1.7-2-3.4-2c-1.7,0-1.7,2-3.4,2"
			/>
	</g>
</g>
</svg>
