<?xml version="1.0" encoding="utf-8"?>
<!-- Generator: Adobe Illustrator 18.1.1, SVG Export Plug-In . SVG Version: 6.00 Build 0)  -->
<!DOCTYPE svg PUBLIC "-//W3C//DTD SVG 1.1//EN" "http://www.w3.org/Graphics/SVG/1.1/DTD/svg11.dtd">
<svg version="1.1" id="レイヤー_1" xmlns="http://www.w3.org/2000/svg" xmlns:xlink="http://www.w3.org/1999/xlink" x="0px"
	 y="0px" viewBox="0 0 54 74.2" enable-background="new 0 0 54 74.2" xml:space="preserve">
<g>
	<g>
		<g>
			<g>
				<g>
					<path fill="#F4C81E" d="M54,27c0,14-12.9,25.6-24.9,46c-0.9,1.6-3.2,1.6-4.1,0C14.6,54.2,0,40.9,0,27C0,12.1,12.1,0,27,0
						C41.9,0,54,12.1,54,27z"/>
				</g>
			</g>
		</g>
	</g>
	<g>
		<g>
			<path fill="#231815" stroke="#231815" stroke-width="0.5" stroke-miterlimit="10" d="M27,38.7c-3.7,0-7.1-1.8-9.2-4.8
				c-0.3-0.4-0.2-1,0.2-1.3c0.4-0.3,1-0.2,1.3,0.2c1.7,2.5,4.6,4,7.6,4c5.1,0,9.3-4.2,9.3-9.3c0-0.5,0.4-1,1-1c0.5,0,1,0.4,1,1
				C38.3,33.7,33.2,38.7,27,38.7z"/>
			<path fill="#231815" stroke="#231815" stroke-width="0.5" stroke-miterlimit="10" d="M39.8,33.4c-0.4,0-0.7-0.2-0.9-0.6l-1.8-4.1
				l-3.3,3c-0.4,0.4-1,0.3-1.4-0.1c-0.4-0.4-0.3-1,0.1-1.4l4.3-3.9c0.2-0.2,0.5-0.3,0.9-0.2c0.3,0.1,0.6,0.3,0.7,0.6l2.3,5.3
				c0.2,0.5,0,1.1-0.5,1.3C40.1,33.4,40,33.4,39.8,33.4z"/>
		</g>
		<g>
			<path fill="#231815" stroke="#231815" stroke-width="0.5" stroke-miterlimit="10" d="M16.7,28.5c-0.5,0-1-0.4-1-1
				c0-6.2,5-11.2,11.2-11.2c3.8,0,7.3,1.9,9.4,5.1c0.3,0.4,0.2,1-0.3,1.3c-0.4,0.3-1,0.2-1.3-0.3c-1.7-2.7-4.7-4.2-7.8-4.2
				c-5.1,0-9.3,4.2-9.3,9.3C17.7,28,17.3,28.5,16.7,28.5z"/>
			<path fill="#231815" stroke="#231815" stroke-width="0.5" stroke-miterlimit="10" d="M16.5,28.9c-0.1,0-0.1,0-0.2,0
				c-0.3-0.1-0.6-0.3-0.7-0.6L13.3,23c-0.2-0.5,0-1.1,0.5-1.3c0.5-0.2,1.1,0,1.3,0.5l1.8,4.1l3.3-3c0.4-0.4,1-0.3,1.4,0.1
				c0.4,0.4,0.3,1-0.1,1.4l-4.3,3.9C17,28.8,16.7,28.9,16.5,28.9z"/>
		</g>
	</g>
</g>
</svg>
