<?xml version="1.0" encoding="utf-8"?>
<!-- Generator: Adobe Illustrator 18.1.1, SVG Export Plug-In . SVG Version: 6.00 Build 0)  -->
<!DOCTYPE svg PUBLIC "-//W3C//DTD SVG 1.1//EN" "http://www.w3.org/Graphics/SVG/1.1/DTD/svg11.dtd">
<svg version="1.1" id="レイヤー_1" xmlns="http://www.w3.org/2000/svg" xmlns:xlink="http://www.w3.org/1999/xlink" x="0px"
	 y="0px" viewBox="0 0 54 74.2" enable-background="new 0 0 54 74.2" xml:space="preserve">
<g>
	<g>
		<path fill="#E2232A" d="M54,27c0,14-12.9,25.6-24.9,46c-0.9,1.6-3.2,1.6-4.1,0C14.6,54.2,0,40.9,0,27C0,12.1,12.1,0,27,0
			C41.9,0,54,12.1,54,27z"/>
	</g>
	<g>
		<g>
			
				<circle fill="#FFFFFF" stroke="#FFFFFF" stroke-width="2.3806" stroke-linecap="round" stroke-linejoin="round" stroke-miterlimit="10" cx="27" cy="14.1" r="1.3"/>
			
				<path fill="none" stroke="#FFFFFF" stroke-width="2.3806" stroke-linecap="round" stroke-linejoin="round" stroke-miterlimit="10" d="
				M34.1,32.3L34,25.8c-0.1-3.4-2.8-6.3-6.1-6.3c-3.5,0-6.3,2.9-6.2,6.3l0.1,1.5c0.1,1.2-0.2,2.3-0.8,3.3l-1,1.5"/>
		</g>
		
			<polyline fill="#FFFFFF" stroke="#FFFFFF" stroke-width="2.2451" stroke-linecap="round" stroke-linejoin="round" stroke-miterlimit="10" points="
			29.5,20.1 29.9,30.6 26.3,30.6 25.6,20.8 		"/>
		<g>
			
				<path fill="none" stroke="#FFFFFF" stroke-width="2.2451" stroke-linecap="round" stroke-linejoin="round" stroke-miterlimit="10" d="
				M25.6,20.8c0,0,0.1,2.2,0.3,4.9c0.2,2.7-0.2,6.1-0.9,7.6c-0.7,1.5-1.4,4.2-1.6,5.9c-0.2,1.8-0.3,3.2-0.3,3.2"/>
		</g>
		<g>
			
				<path fill="none" stroke="#FFFFFF" stroke-width="2.2451" stroke-linecap="round" stroke-linejoin="round" stroke-miterlimit="10" d="
				M29.5,20.1c0,0,0.1,2.2,0.3,5c0.1,2.7,0.3,6.6,0.3,8.5c0,2,0.6,4.7,1.2,6s1.2,2.4,1.2,2.4"/>
		</g>
	</g>
</g>
</svg>
