<?xml version="1.0" encoding="utf-8"?>
<!-- Generator: Adobe Illustrator 18.1.1, SVG Export Plug-In . SVG Version: 6.00 Build 0)  -->
<!DOCTYPE svg PUBLIC "-//W3C//DTD SVG 1.1//EN" "http://www.w3.org/Graphics/SVG/1.1/DTD/svg11.dtd">
<svg version="1.1" id="レイヤー_1" xmlns="http://www.w3.org/2000/svg" xmlns:xlink="http://www.w3.org/1999/xlink" x="0px"
	 y="0px" viewBox="0 0 54 74.2" enable-background="new 0 0 54 74.2" xml:space="preserve">
<g>
	<g>
		<g>
			<g>
				<g>
					<path fill="#C6287F" d="M54,27c0,14-12.9,25.6-24.9,46c-0.9,1.6-3.2,1.6-4.1,0C14.6,54.2,0,40.9,0,27C0,12.1,12.1,0,27,0
						C41.9,0,54,12.1,54,27z"/>
				</g>
			</g>
		</g>
	</g>
	<g>
		<g>
			
				<circle fill="none" stroke="#000000" stroke-width="1.5331" stroke-linecap="round" stroke-linejoin="round" stroke-miterlimit="10" cx="27.5" cy="18.6" r="0.9"/>
			
				<path fill="none" stroke="#000000" stroke-width="1.6256" stroke-linecap="round" stroke-linejoin="round" stroke-miterlimit="10" d="
				M31.5,31.3V26c0-2.2-1.8-4-4-4c-2.2,0-4,1.8-4,4v5.3"/>
			
				<line fill="none" stroke="#000000" stroke-width="1.5331" stroke-linecap="round" stroke-linejoin="round" stroke-miterlimit="10" x1="26.2" y1="22.5" x2="26.2" y2="38.7"/>
			
				<line fill="none" stroke="#000000" stroke-width="1.5331" stroke-linecap="round" stroke-linejoin="round" stroke-miterlimit="10" x1="28.7" y1="38.7" x2="28.7" y2="22.5"/>
		</g>
		
			<rect x="26.2" y="22.5" stroke="#000000" stroke-width="1.5331" stroke-linecap="round" stroke-linejoin="round" stroke-miterlimit="10" width="2.5" height="7.7"/>
	</g>
	<g>
		
			<line fill="none" stroke="#040000" stroke-width="2.25" stroke-linecap="round" stroke-linejoin="round" stroke-miterlimit="10" x1="19.3" y1="40.6" x2="19.3" y2="16.6"/>
		
			<line fill="none" stroke="#040000" stroke-width="2.25" stroke-linecap="round" stroke-linejoin="round" stroke-miterlimit="10" x1="35.6" y1="33.1" x2="35.6" y2="16.6"/>
		
			<path fill="none" stroke="#040000" stroke-width="2.25" stroke-linecap="round" stroke-linejoin="round" stroke-miterlimit="10" d="
			M41.2,31.4c0,5.9-4.8,10.6-10.6,10.6"/>
	</g>
</g>
</svg>
