<?xml version="1.0" encoding="utf-8"?>
<!-- Generator: Adobe Illustrator 18.1.1, SVG Export Plug-In . SVG Version: 6.00 Build 0)  -->
<!DOCTYPE svg PUBLIC "-//W3C//DTD SVG 1.1//EN" "http://www.w3.org/Graphics/SVG/1.1/DTD/svg11.dtd">
<svg version="1.1" id="レイヤー_1" xmlns="http://www.w3.org/2000/svg" xmlns:xlink="http://www.w3.org/1999/xlink" x="0px"
	 y="0px" viewBox="0 0 54 74.2" enable-background="new 0 0 54 74.2" xml:space="preserve">
<g>
	<g>
		<path fill="#989898" d="M54,27c0,14-12.9,25.6-24.9,46c-0.9,1.6-3.2,1.6-4.1,0C14.6,54.2,0,40.9,0,27C0,12.1,12.1,0,27,0
			C41.9,0,54,12.1,54,27z"/>
	</g>
	<g>
		<path fill="#FFFFFF" d="M27,9.8c-4.3,0-7.7,3.5-7.7,7.7v24.3c0,4.3,3.5,7.7,7.7,7.7s7.7-3.5,7.7-7.7V17.5
			C34.7,13.3,31.3,9.8,27,9.8z"/>
		<g>
			<circle fill="#E2232A" cx="27" cy="17.5" r="5.1"/>
			<g>
				<path fill="#F4C81E" d="M27,26.5c1.7,0,3.1,1.4,3.1,3.1s-1.4,3.1-3.1,3.1s-3.1-1.4-3.1-3.1S25.3,26.5,27,26.5 M27,24.5
					c-2.8,0-5.1,2.3-5.1,5.1s2.3,5.1,5.1,5.1c2.8,0,5.1-2.3,5.1-5.1S29.9,24.5,27,24.5L27,24.5z"/>
			</g>
			<g>
				<path fill="#17A28F" d="M27,38.7c1.7,0,3.1,1.4,3.1,3.1S28.8,45,27,45s-3.1-1.4-3.1-3.1S25.3,38.7,27,38.7 M27,36.7
					c-2.8,0-5.1,2.3-5.1,5.1c0,2.8,2.3,5.1,5.1,5.1c2.8,0,5.1-2.3,5.1-5.1C32.2,39,29.9,36.7,27,36.7L27,36.7z"/>
			</g>
		</g>
	</g>
</g>
</svg>
