<?xml version="1.0" encoding="utf-8"?>
<!-- Generator: Adobe Illustrator 18.1.1, SVG Export Plug-In . SVG Version: 6.00 Build 0)  -->
<!DOCTYPE svg PUBLIC "-//W3C//DTD SVG 1.1//EN" "http://www.w3.org/Graphics/SVG/1.1/DTD/svg11.dtd">
<svg version="1.1" id="レイヤー_1" xmlns="http://www.w3.org/2000/svg" xmlns:xlink="http://www.w3.org/1999/xlink" x="0px"
	 y="0px" viewBox="0 0 54 74.2" enable-background="new 0 0 54 74.2" xml:space="preserve">
<g>
	<defs>
		<path id="SVGID_5_" d="M54,27c0,14-12.9,25.6-24.9,46c-0.9,1.6-3.2,1.6-4.1,0C14.6,54.2,0,40.9,0,27C0,12.1,12.1,0,27,0
			C41.9,0,54,12.1,54,27z"/>
	</defs>
	<use xlink:href="#SVGID_5_"  overflow="visible" fill="#F4C81E"/>
	<clipPath id="SVGID_1_">
		<use xlink:href="#SVGID_5_"  overflow="visible"/>
	</clipPath>
	<g clip-path="url(#SVGID_1_)">
		
			<line fill="none" stroke="#040000" stroke-width="2.529" stroke-linecap="round" stroke-linejoin="round" stroke-miterlimit="10" x1="27" y1="41.5" x2="27" y2="14.5"/>
		
			<polyline fill="none" stroke="#040000" stroke-width="2.529" stroke-linecap="round" stroke-linejoin="round" stroke-miterlimit="10" points="
			31.7,16.8 27,12.2 22.4,16.8 		"/>
	</g>
	<g clip-path="url(#SVGID_1_)">
		<defs>
			<rect id="SVGID_7_" x="-6.4" y="23.8" width="68.8" height="7.3"/>
		</defs>
		<use xlink:href="#SVGID_7_"  overflow="visible" fill="#FFFFFF"/>
		<clipPath id="SVGID_2_">
			<use xlink:href="#SVGID_7_"  overflow="visible"/>
		</clipPath>
		<g clip-path="url(#SVGID_2_)">
			
				<line fill="none" stroke="#040000" stroke-width="3" stroke-linecap="round" stroke-linejoin="round" stroke-miterlimit="10" x1="8.1" y1="22.3" x2="-2.8" y2="33.2"/>
			
				<line fill="none" stroke="#040000" stroke-width="3" stroke-linecap="round" stroke-linejoin="round" stroke-miterlimit="10" x1="16.5" y1="22.3" x2="5.5" y2="33.2"/>
			
				<line fill="none" stroke="#040000" stroke-width="3" stroke-linecap="round" stroke-linejoin="round" stroke-miterlimit="10" x1="24.8" y1="22.3" x2="13.9" y2="33.2"/>
			
				<line fill="none" stroke="#040000" stroke-width="3" stroke-linecap="round" stroke-linejoin="round" stroke-miterlimit="10" x1="33.2" y1="22.3" x2="22.3" y2="33.2"/>
			
				<line fill="none" stroke="#040000" stroke-width="3" stroke-linecap="round" stroke-linejoin="round" stroke-miterlimit="10" x1="41.6" y1="22.3" x2="30.7" y2="33.2"/>
			
				<line fill="none" stroke="#040000" stroke-width="3" stroke-linecap="round" stroke-linejoin="round" stroke-miterlimit="10" x1="50" y1="22.3" x2="39.1" y2="33.2"/>
			
				<line fill="none" stroke="#040000" stroke-width="3" stroke-linecap="round" stroke-linejoin="round" stroke-miterlimit="10" x1="58.4" y1="22.3" x2="47.5" y2="33.2"/>
		</g>
	</g>
</g>
</svg>
