<svg xmlns="http://www.w3.org/2000/svg" xmlns:xlink="http://www.w3.org/1999/xlink" viewBox="0 0 498 140"><defs><path id="a" d="M-.5-.5h498.9v141H-.5z"/></defs><clipPath id="b"><use xlink:href="#a" overflow="visible"/></clipPath><g clip-path="url(#b)"><path fill="#007B7E" d="M349.3 27.6l148 148.1H323.2"/><path d="M151.9 196.3c-3.8 0-7-3.1-7-7V33.6c0-3.8 3.1-7 7-7h196.2c3.8 0 7 3.1 7 7v155.8c0 3.8-3.1 7-7 7H151.9z"/><defs><path id="c" d="M164 45.3h172v111.6H164z"/></defs><use xlink:href="#c" overflow="visible" fill="#FFF"/><clipPath id="d"><use xlink:href="#c" overflow="visible"/></clipPath><g clip-path="url(#d)"><path fill="#1CA08C" d="M199.2 69c1.2 4.7-2.7 8.1-6.5 14.2-.6.9-1.9.9-2.5 0-3-5-6.8-8.7-6.8-12.5 0-4.6 3.9-8.3 8.6-7.9 3.5.2 6.4 2.8 7.2 6.2z"/><g fill="none" stroke="#D7D7D6" stroke-width="4" stroke-miterlimit="10"><path d="M210.4 70h72M210.4 84.5H249"/></g></g><g clip-path="url(#d)"><path fill="#1CA08C" d="M199.2 103c1.2 4.7-2.7 8.1-6.5 14.2-.6.9-1.9.9-2.5 0-3-5-6.8-8.7-6.8-12.5 0-4.6 3.9-8.3 8.6-7.9 3.5.2 6.4 2.8 7.2 6.2z"/><g fill="none" stroke="#D7D7D6" stroke-width="4" stroke-miterlimit="10"><path d="M210.4 104h72M210.4 118.5H249"/></g></g></g></svg>