<svg xmlns="http://www.w3.org/2000/svg" xmlns:xlink="http://www.w3.org/1999/xlink" viewBox="0 0 498 140"><defs><path id="a" d="M-1-.5h499.9v141H-1z"/></defs><clipPath id="b"><use xlink:href="#a" overflow="visible"/></clipPath><g clip-path="url(#b)"><path fill="#007B31" d="M345.4 27.6l148 148.1H319.3"/><path d="M142.3 196.3c-3.8 0-7-3.1-7-7V33.6c0-3.8 3.1-7 7-7h196.2c3.8 0 7 3.1 7 7v155.8c0 3.8-3.1 7-7 7H142.3z"/><defs><path id="c" d="M154.4 45.3h172v111.6h-172z"/></defs><use xlink:href="#c" overflow="visible" fill="#FFF"/><clipPath id="d"><use xlink:href="#c" overflow="visible"/></clipPath><g clip-path="url(#d)"><path fill="none" stroke="#D7D7D6" stroke-width="4" stroke-miterlimit="10" d="M141 70.5h37c3.8 0 9.2 2.2 11.9 4.9l93.1 93.1M292 35.5l-113 113"/><path fill="none" stroke="#D7D7D6" stroke-width="4" stroke-miterlimit="10" d="M343 106.5h-81c-3.8 0-9.2 2.2-11.9 4.9L206 155.5"/></g><g clip-path="url(#d)"><linearGradient id="e" gradientUnits="userSpaceOnUse" x1="210.03" y1="75.709" x2="229.232" y2="75.709"><stop offset="0" stop-color="#3B9D00"/><stop offset="1" stop-color="#3BAA00"/></linearGradient><path fill="url(#e)" d="M229 70.5c1.4 5.7-3.2 9.7-7.8 17.1-.7 1.1-2.3 1.1-3 0-3.6-6-8.1-10.4-8.1-15 0-5.5 4.7-10 10.4-9.6 4 .3 7.5 3.5 8.5 7.5z"/><linearGradient id="f" gradientUnits="userSpaceOnUse" x1="287.373" y1="75.709" x2="306.575" y2="75.709"><stop offset="0" stop-color="#3B9D00"/><stop offset="1" stop-color="#3BAA00"/></linearGradient><path fill="url(#f)" d="M306.3 70.5c1.4 5.7-3.2 9.7-7.8 17.1-.7 1.1-2.3 1.1-3 0-3.6-6-8.1-10.4-8.1-15 0-5.5 4.7-10 10.4-9.6 4.1.3 7.5 3.5 8.5 7.5z"/><g><linearGradient id="g" gradientUnits="userSpaceOnUse" x1="167.829" y1="106.608" x2="187.031" y2="106.608"><stop offset="0" stop-color="#3B9D00"/><stop offset="1" stop-color="#3BAA00"/></linearGradient><path fill="url(#g)" d="M186.8 101.4c1.4 5.7-3.2 9.7-7.8 17.1-.7 1.1-2.3 1.1-3 0-3.6-6-8.1-10.4-8.1-15 0-5.5 4.7-10 10.4-9.6 4 .3 7.5 3.5 8.5 7.5z"/></g></g></g></svg>