<svg xmlns="http://www.w3.org/2000/svg" xmlns:xlink="http://www.w3.org/1999/xlink" viewBox="0 0 500 140"><defs><path id="a" d="M-.5-.5h501v141H-.5z"/></defs><clipPath id="b"><use xlink:href="#a" overflow="visible"/></clipPath><path clip-path="url(#b)" fill="#007B31" d="M464.1 38.3l-105.5 73.9 153.5 153.5 105.4-73.9"/><g clip-path="url(#b)"><text transform="translate(49.084 87.175)"><tspan x="0" y="0" fill="#FFF" font-family="'HelveticaNeue-Medium'" font-size="36.75">MAP</tspan><tspan x="81.7" y="0" opacity=".5" fill="#FFF" font-family="'HelveticaNeue-Medium'" font-size="36.75"> ON</tspan><tspan x="146.4" y="0" opacity=".5" fill="#FFF" font-family="'HelveticaNeue-Medium'" font-size="36.75" letter-spacing="-6">L</tspan><tspan x="160.9" y="0" opacity=".5" fill="#FFF" font-family="'HelveticaNeue-Medium'" font-size="36.75">Y</tspan></text></g><path clip-path="url(#b)" fill="#FFF" d="M364.8 114.3c-5.5 0-10-4.5-10-10V45.2c0-5.5 4.5-10 10-10h92c5.5 0 10 4.5 10 10v59.1c0 5.5-4.5 10-10 10h-92z"/><g clip-path="url(#b)"><path fill="#007B31" d="M407.7 53.1c1 4-2.3 6.9-5.5 12.1-.5.8-1.7.8-2.1 0-2.6-4.2-5.8-7.4-5.8-10.7 0-3.9 3.3-7.1 7.4-6.8 2.8.3 5.3 2.5 6 5.4zM452.5 53.1c1 4-2.3 6.9-5.5 12.1-.5.8-1.7.8-2.1 0-2.6-4.2-5.8-7.4-5.8-10.7 0-3.9 3.3-7.1 7.4-6.8 2.9.3 5.3 2.5 6 5.4zM452.5 93.8c1 4-2.3 6.9-5.5 12.1-.5.8-1.7.8-2.1 0-2.6-4.2-5.8-7.4-5.8-10.7 0-3.9 3.3-7.1 7.4-6.8 2.9.3 5.3 2.5 6 5.4zM377.7 75c1 4-2.3 6.9-5.5 12.1-.5.8-1.7.8-2.1 0-2.6-4.2-5.8-7.4-5.8-10.7 0-3.9 3.3-7.1 7.4-6.8 2.9.3 5.3 2.5 6 5.4z"/></g><path clip-path="url(#b)" fill="#D7D7D6" d="M431 80h35.8v-2.8H431c-3.1 0-7.2 1.7-9.4 3.9l-7.6 7.6-10-10.1 43.4-43.4h-4L402 76.6l-21-21c-2.2-2.2-6.3-3.9-9.4-3.9h-16.8v2.8h16.8c2.4 0 5.7 1.4 7.4 3.1l21 21-35.7 35.7h4L402 80.6l10 10.1-23.6 23.6h4L414 92.7l21.6 21.6h4L416 90.7l7.6-7.6c1.7-1.7 5.1-3.1 7.4-3.1z"/></svg>