<svg xmlns="http://www.w3.org/2000/svg" xmlns:xlink="http://www.w3.org/1999/xlink" viewBox="0 0 500 140"><defs><path id="a" d="M-.2-.5h500.3v141H-.2z"/></defs><clipPath id="b"><use xlink:href="#a" overflow="visible"/></clipPath><path clip-path="url(#b)" fill="#007B31" d="M141.8 38.3L35.1 111l153.5 153.5 106.7-72.7"/><g clip-path="url(#b)"><text transform="translate(246.523 87.175)" fill="#FFF" font-family="'HelveticaNeue-Medium'" font-size="36.75">MAP &amp; LIST</text></g><g clip-path="url(#b)"><path fill="#FFF" d="M42.5 114.3c-5.5 0-10-4.5-10-10V45.2c0-5.5 4.5-10 10-10h92c5.5 0 10 4.5 10 10v59.1c0 5.5-4.5 10-10 10h-92z"/><g fill="#007B31"><path d="M69.5 84.4h38.3v2.8H69.5zM69.5 94.6h38.3v2.8H69.5zM69.5 104.8h38.3v2.8H69.5z"/></g><path fill="#D7D7D6" d="M49.3 51.7H32.5v2.8h16.8c2.4 0 5.7 1.4 7.4 3.1l18.1 18.1h4L58.7 55.6c-2.2-2.2-6.3-3.9-9.4-3.9zM84.7 75.6l40.5-40.4h-4L80.7 75.6"/><path fill="#007B31" d="M79.9 65.2c3.2-5.2 6.5-8.1 5.5-12.1-.7-2.9-3.2-5.1-6.1-5.3-4-.3-7.4 2.8-7.4 6.8 0 3.3 3.2 6.4 5.8 10.7.6.7 1.7.7 2.2-.1zM122.6 65.2c.5.8 1.6.8 2.1 0 3.2-5.2 6.5-8.1 5.5-12.1-.7-2.9-3.2-5.1-6.1-5.3-4-.3-7.4 2.8-7.4 6.8.2 3.2 3.4 6.4 5.9 10.6zM49.4 69.7c-3.7-.3-6.9 2.4-7.3 6h13.5c0-.2-.1-.4-.1-.6-.7-3-3.1-5.2-6.1-5.4z"/><path fill="#007B31" d="M32.5 74.2h112V77h-112z"/></g></svg>