<svg xmlns="http://www.w3.org/2000/svg" viewBox="0 0 398 408"><g fill="#359E17"><path d="M38.2 335.6c-.1.3-.4.5-.7.6-3 4.5-8.3 9.7-13.1 13.4 2.1 1.7 4.8 4.1 6.3 5.8l-4 3.5c-4-4.5-10.3-9.7-15.6-12.8l3.1-3.2c2.1 1.1 4.5 2.7 6.6 4.2 3.7-2.8 7.4-6.5 9.5-9.4h-23v-4.2h26.6l.6-.4 3.7 2.5zM49.6 338.6c1 2.1 2.1 5.4 2.5 7.6l-3.5 1c-.5-2.2-1.4-5.3-2.4-7.6l3.4-1zm20.7.8c-.1.3-.4.5-.9.5-2.9 10.5-8.4 16.7-16.6 20-.5-.7-1.6-2.1-2.4-2.8 7.6-2.9 13-8.5 15.4-19.1l4.5 1.4zm-12.2-2.3c.7 2.2 1.4 5.6 1.7 7.8l-3.6.7c-.3-2.4-1-5.6-1.7-7.9l3.6-.6zM80.6 333.3h22.3l.3-.2 4 2.8c-.2.2-.4.4-.6.5-3.2 13.3-9.2 19.8-20.1 24-.6-1.1-2-2.8-2.9-3.7 9.7-3.6 15.7-9.8 17.5-19.1H80.6v-4.3zm27.3-6c2.1 0 3.8 1.7 3.8 3.8 0 2.1-1.7 3.8-3.8 3.8-2.1 0-3.8-1.7-3.8-3.8-.1-2.2 1.7-3.8 3.8-3.8zm2.5 3.9c0-1.4-1.1-2.5-2.5-2.5s-2.5 1.1-2.5 2.5 1.1 2.5 2.5 2.5c1.4-.1 2.5-1.2 2.5-2.5zM132.7 336.5c-.1.3-.6.6-1.1.6-1.5 12.2-5 19.2-11.2 19.2-3.9 0-6.7-3.3-6.7-9.3 0-9.1 7.3-15.8 16.4-15.8 10.1 0 15.2 6 15.2 13.7 0 8.4-4.3 12.7-13.3 15-.7-1.1-1.7-2.6-2.9-3.8 8.1-1.6 11.4-5.5 11.4-11.2 0-5.7-4-9.6-10.5-9.6-.6 0-1.2.1-1.8.1l4.5 1.1zm-5.6-.7c-5.4 1.3-8.9 6-8.9 11 0 3 .9 5.1 2.5 5.1 3.4 0 5.8-7.8 6.4-16.1zM169 345.8c.6 1.7 1.4 3.3 2.4 4.7 2-1.3 4.2-2.9 5.7-4.2l3.9 3.1c-.2.2-.6.3-1.1.2-1.6 1.1-4 2.6-6.2 3.7 2.2 2.1 5 3.7 8.6 4.6-1 .9-2.2 2.7-2.8 3.8-7.6-2.3-11.8-7.3-14.4-14.8-1.4 1.2-3.1 2.2-4.8 3.2l.9.1c-.1.3-.4.6-1 .7v5.2c2.8-.4 5.7-.8 8.6-1.2l.2 3.6c-5.3 1-10.9 1.9-14.5 2.5-.1.3-.3.5-.6.6l-1.6-4.5c1.1-.1 2.3-.3 3.7-.4v-4.4c-1.6.7-3.3 1.3-4.9 1.8-.6-1-1.9-2.6-2.7-3.5 4.1-1 8.4-2.7 11.8-4.8h-11.3v-3.6H163v-2.1h-10.2v-3.5H163v-2h-12.1V331H163v-3l5.3.3c0 .4-.3.6-1 .7v2h12.5v3.6h-12.5v2h11v3.5h-11v2.1h14.4v3.6H169zM194.7 347.7c-.1.2-.5.4-1 .4-1.6 3.7-4.1 7.8-6.7 10.4-.9-.7-2.6-1.9-3.7-2.5 2.5-2.3 4.9-6.3 6.2-10l5.2 1.7zm22.3-4.2h-13.9v13.4c0 4-1.4 4.8-9.1 4.8-.2-1.3-.9-3.1-1.5-4.3 1.6 0 3.3.1 4.4.1 1.4 0 1.8 0 1.8-.7v-13.3H185v-4.3h32v4.3zm-3.3-13.2v4.2h-25.4v-4.2h25.4zm-.5 28.2c-.8-3-3.3-7.6-5.7-11l4.1-1.7c2.4 3.3 5.1 7.7 6.1 10.7l-4.5 2zM224.4 333.9h24.3v4.3h-10v14.6h12.5v4.2h-29.3v-4.2h12.2v-14.6h-9.7v-4.3zM262 349.1v-17.5l5.6.3c0 .4-.4.6-1 .7v16.5H262zm21.1-19.1c0 .4-.3.6-1 .7v11.2c0 7.6-2.5 14.6-12.5 18.7-.7-.9-2.4-2.6-3.4-3.3 9.4-3.6 11.3-9.5 11.3-15.4v-12.1l5.6.2zM323.2 332.6c-.1.2-.4.4-.7.5-1.6 4-4.6 8.6-7.5 11.5-.9-.7-2.8-1.9-4-2.4 2.2-1.9 4.3-4.8 5.3-7h-23.1V331h25.7l.5-.3 3.8 1.9zm-13.6 6.9c0 .4-.4.6-1 .7-.9 7.8-3.8 15.9-11 20.2-1-.8-2.7-2.2-3.9-2.9 6.8-3.6 9.5-10.7 10-18.7l5.9.7zM358.2 334v22.8c0 4.4-1.8 5-8.9 5-.1-1.2-.8-3.1-1.4-4.2 1.2.1 2.6.1 3.7.1 2.2 0 2.4 0 2.4-.8v-18.6h-8.7c-.1 1.1-.2 2.4-.4 3.5 3.1 2.9 7 6.6 9 9.1l-3.6 2.7c-1.4-2-4.1-5-6.7-7.6-1.4 3.1-3.8 6.1-7.8 8.4-.6-.8-1.7-2.1-2.7-2.9v10.2h-4.3V334H341v-6l5.3.3c0 .4-.3.6-1 .7v5h12.9zm-25.2 4.2V351c6.4-3.4 7.7-8.5 7.9-12.8H333zM372.3 330.9c-.1.4-.4.6-1.1.7-1.4 6.3-1.9 12.7-1.9 15.7 0 2 0 3.8.2 5 .4-1 1.8-4.1 2.3-5.2l2.1 3.3c-1.2 2.5-2.4 4.5-3 6.2-.2.6-.3 1.2-.3 1.7 0 .4.1.9.2 1.2l-4.5.7c-1.1-3.4-1.6-8-1.6-12.7 0-4.8.7-11.5 1.7-17.4l5.9.8zm21.4 26.6c-1.3.1-2.7.1-4.1.1-2.3 0-4.5-.1-6.1-.3-5-.7-6.9-3.3-6.9-6.3 0-2.6 1.2-4.8 3.1-7.1l4.3 1.5c-1.6 1.6-2.6 3.2-2.6 5 0 2.7 3.2 3 7.4 3 1.7 0 3.6-.1 5.1-.2l-.2 4.3zm-16.3-23.1c4.1-.1 10.8-.6 15.1-1.3l.4 4.4c-4.3.7-11.2 1.1-15.3 1.2l-.2-4.3zM81.2 401.7c1.9 0 5.8-.4 7.9-.7.1 1.5.1 3 .2 4.5-2 .3-5.8.5-7.7.5h-8c-6.2 0-9-2.6-9-8.3V377l5.7.3c-.1.4-.3.7-1.1.8v10.5c4.6-1.5 11.3-4.2 15.5-6.6l3 4.2c-.1.1-.4.1-.6.1-.2 0-.4 0-.6-.1-3.4 1.7-11.3 4.8-17.4 6.5v4.8c0 2.9 1.3 3.9 4.6 3.9h7.5zm7.8-26.9c2.1 0 3.8 1.7 3.8 3.9s-1.7 3.9-3.8 3.9-3.9-1.7-3.9-3.9c.1-2.2 1.9-3.9 3.9-3.9zm2.5 3.9c0-1.4-1.1-2.5-2.5-2.5s-2.5 1.1-2.5 2.5 1.1 2.5 2.5 2.5c1.5 0 2.5-1.2 2.5-2.5zM100 378.2c3.6 1.1 7.8 3 10.4 4.7L108 387c-2.6-1.7-6.8-3.7-10.2-4.9l2.2-3.9zm-1.2 24.2c12-3.7 20.3-10.7 24.4-20.5 1.3 1.1 2.9 1.9 4.2 2.6-4.4 9.7-12.9 17.3-24.7 21.5-.1.4-.3.8-.6.9l-3.3-4.5zM145.7 376.6c-.1.5-.5.7-1.2.7-.3 1.7-.9 4.8-1.2 6.9.9-.1 2.2-.2 2.9-.2 5.9 0 7.7 4.1 7.7 9.7-.1 7.9-2.4 13.5-7.8 13.5-1.4 0-3.6-.7-6.4-2.9.6-1.1 1.1-2.6 1.5-3.8 2.4 1.7 3.8 2.1 4.8 2.1 1.5 0 2.2-1.2 2.8-3.2.5-1.6.7-4.5.7-5.8 0-3.5-1.1-5.3-3.6-5.3-.9 0-2.1.1-3.4.2-1.6 6.5-3.6 12.9-6.6 18.6l-4.1-2c2.9-5.3 4.7-10.2 6.2-16.1-1.3.2-3.8.6-5.4.9l-.4-4.4 6.6-.7c.5-2.6.9-5.6 1.2-8.6l5.7.4zm9 5.2c-.7-1.5-2.7-3.8-4.1-5l2.1-1.5c1.6 1.3 3.4 3.4 4.2 4.9l-2.2 1.6zm4.7 14.3c-.9-4.6-3.2-9.2-5.9-11.7l3.8-2.4c3.3 3 5.9 7.8 6.8 12.4l-4.7 1.7zm.9-15.7c-.7-1.5-2.7-3.8-4.1-5l2.1-1.4c1.6 1.3 3.4 3.4 4.2 4.9l-2.2 1.5zM190.9 386.9l-.3 1.2c5.2 1.4 7.4 5 7.4 9 0 5.7-4.3 9.5-13.4 10.7-.3-.9-1.2-2.6-1.9-3.6 6.4-.7 10.6-2.8 10.6-7 0-1.2-.4-4-4.2-5.2-1.6 3.6-4 6.9-6.7 9.3.1.5.3.9.5 1.2l-3.7 2.4c-.2-.4-.4-.7-.5-1.2-1.8 1-3.7 1.6-5.7 1.6-3.1 0-5.2-2-5.2-5.3 0-4.9 3.8-8.8 8.8-10.9-.1-1.5-.1-3.1-.1-4.7-2.7.1-5.6.1-7 .1l-.2-4.2h7.3c.1-1.5.1-3.3.2-4.8l5.6.4c-.1.4-.4.6-1 .7-.1 1-.2 2.4-.3 3.5 3.9-.2 8.8-.6 12.7-1.5l.4 4.3c-3.9.7-9 1.1-13.3 1.2 0 1.2-.1 2.5-.1 3.6 1.5-.4 3.7-.6 5.3-.5.1-.5.2-1.1.3-1.6l4.5 1.3zm-13.2 12.8c-.4-1.9-.6-4.1-.8-6.5-2.8 1.4-4.7 3.6-4.7 6 0 2 1.5 2 2 1.9 1-.1 2.3-.6 3.5-1.4zm7.2-8.4c-.5-.1-2.4.1-4 .5.1 1.8.2 3.4.5 4.8 1.4-1.5 2.6-3.3 3.5-5.3zM209 396c-.7-2.5-.9-5.6-1-7.7 0-2.6.3-6.5 1-10.8l5.6.7c-.1.4-.5.6-.9.6-.8 2.9-1.4 8.1-1.2 10.1.7-1.6 1.9-3.6 2.7-4.8.5.8 1.5 2.3 2 2.8-2.3 3.4-3.8 6-3.8 7.5 0 .2 0 .5.1.9l-4.5.7zm20.5-19.5c0 .4-.3.7-.9.9.3 2.8.6 7.6.6 12.1 0 6.9-2.2 13.4-13.6 18-.6-.9-2.3-2.7-3.2-3.6 9.8-3.8 11.8-9.5 11.8-14.4 0-5-.5-9.9-.9-13.3l6.2.3zM240.6 379.8c2.2.1 5.6.1 8.3.1 1.1 0 2.3 0 3.4-.1 0-1.5-.1-3.3-.1-4.3l5.6.2c0 .4-.4.6-.9.7v3.2c3.7-.2 7.4-.5 10.8-1.2l.4 4.1c-3.3.6-6.9.9-11.2 1.1 0 1.7 0 3.3.1 5 3.2-.2 6.7-.7 9-1.2l.4 4c-2.4.5-5.9.9-9.3 1 0 1.7.1 3.3.2 4.6 3.2 1.1 6.6 2.8 9.6 5l-2.7 3.9c-2.2-2-4.5-3.5-6.8-4.6v1c-.1 2.9-2.5 4.9-7.4 4.9-4.7 0-7.9-2.3-7.9-5.7 0-3.6 3.8-5.7 8.1-5.7.9 0 1.8 0 2.7.2 0-1.1-.1-2.3-.1-3.6H250c-4.8-.1-7.9-.8-7.8-3.4 0-1.5 1.1-2.9 3.7-4.4l3 1.6c-1.3.6-2.2 1.2-2.2 1.7 0 .6.5.9 4 .9h1.9l-.2-5.1h-3.5c-2.5 0-6.1-.1-8.3-.1v-3.8zm12.3 20c-1.1-.3-2.2-.5-3.2-.5-2.2 0-3.9.9-3.9 2.3s1.7 2.2 4.1 2.2c2.1 0 3-.9 3-2.6v-1.4zM306.1 387.4c-1.9.1-4.5.5-7.2.9 0 2.9-.1 5.5-.5 7.2-.5 2.3-2.2 3.7-4.8 3.7-.9 0-2.9-.2-5.2-1.4.2-.9.4-2.5.5-3.6 1.5.9 3.1 1.2 3.8 1.2.7 0 1.5-.5 1.6-1.3.2-1.1.2-3.1.2-5.1-3.3.5-6.7 1.1-9.3 1.6 0 3.2.1 6.3.2 7.9.3 3.3 1.6 4.3 5.1 4.5h2c2.7 0 6.7-.2 9.3-.7l.1 4.2c-2.8.3-6.2.4-9 .4-5.9 0-11.2-.3-11.9-8.2-.2-1.6-.2-4.5-.3-7.4-2.1.4-4.9 1-6.3 1.3l-.7-4.2c1.6-.2 4.5-.7 6.9-1.1 0-3.1-.1-6.5-.1-8.8l5.7.4c0 .4-.3.7-1 .8-.1 1.7-.1 4.4-.1 6.8 2.7-.5 6-1 9.1-1.5-.1-2.9-.2-6.4-.5-8.9l5.5.2c0 .4-.2.6-.8.8.1 2.1.2 4.8.2 7.1 2.5-.4 5.1-.8 6.9-1.1l.6 4.3zM309.4 405.4c2.2-6.4 6.7-19.5 7.9-22.8.7-2 1.9-5.5 2.1-6.6l6.1 1.5c-.2.5-.6.9-1.5.9-1.5 3.3-4.3 10.8-5.6 14.3 2-1.9 4.5-2.9 6.5-2.9 3 0 4.6 2 4.6 5.2 0 .6-.1 3.8-.1 4.5 0 2.1.8 3 2.3 3 2.7 0 4.7-3.2 6.3-8.9 1.3.9 2.8 1.9 4.2 2.5-2.2 6.9-5.5 11.1-10.7 11.1-4.3 0-6.9-2.3-6.9-6.1 0-.6.1-3.8.1-4.5 0-1.6-.5-2.4-1.4-2.4-3.3 0-6.8 4.9-7.8 7.9-.5 1.4-1.1 3.2-1.6 5l-4.5-1.7z"/></g><path fill="#A8D499" d="M398 282.3c0 5.5-4.5 10-10 10H10c-5.5 0-10-4.5-10-10v-272C0 4.8 4.5.3 10 .3h378c5.5 0 10 4.5 10 10v272z"/><path fill="#359E17" d="M94.6 41.3c0 5.5-5.1 10.1-9.8 18.1-.4.6-1.3.6-1.6 0-4.1-7.4-9.8-12.6-9.8-18.1 0-5.9 4.8-10.6 10.6-10.6 5.9 0 10.6 4.7 10.6 10.6zM184 28.3c0 5.5-5.1 10.1-9.8 18.1-.4.6-1.3.6-1.6 0-4.1-7.4-9.8-12.6-9.8-18.1 0-5.9 4.8-10.6 10.6-10.6 5.8-.1 10.6 4.7 10.6 10.6zM317.9 79.2c0 5.5-5.1 10.1-9.8 18.1-.4.6-1.3.6-1.6 0-4.1-7.4-9.8-12.6-9.8-18.1 0-5.9 4.8-10.6 10.6-10.6 5.9 0 10.6 4.8 10.6 10.6zM98.6 180.3c0 5.5-5.1 10.1-9.8 18.1-.4.6-1.3.6-1.6 0-4.1-7.4-9.8-12.6-9.8-18.1 0-5.9 4.8-10.6 10.6-10.6 5.9 0 10.6 4.7 10.6 10.6zM58.6 248.3c0 5.5-5.1 10.1-9.8 18.1-.4.6-1.3.6-1.6 0-4.1-7.4-9.8-12.6-9.8-18.1 0-5.9 4.8-10.6 10.6-10.6 5.9 0 10.6 4.7 10.6 10.6zM356 31.6c0 5.5-5.1 10.1-9.8 18.1-.4.6-1.3.6-1.6 0-4.1-7.4-9.8-12.6-9.8-18.1 0-5.9 4.8-10.6 10.6-10.6S356 25.8 356 31.6zM366.6 165.7c0 5.5-5.1 10.1-9.8 18.1-.4.6-1.3.6-1.6 0-4.1-7.4-9.8-12.6-9.8-18.1 0-5.9 4.8-10.6 10.6-10.6 5.9 0 10.6 4.7 10.6 10.6zM310.6 260.3c0 5.5-5.1 10.1-9.8 18.1-.4.6-1.3.6-1.6 0-4.1-7.4-9.8-12.6-9.8-18.1 0-5.9 4.8-10.6 10.6-10.6 5.9 0 10.6 4.7 10.6 10.6z"/><path fill="#FFF" d="M331 105.3v10.5c0 1.1-.9 2-2 2h-59.5v9H329c1.1 0 2 .9 2 2v99.5c0 6.5 3.8 15.6 8.4 20.2l5 5c.7.7.8 1.8.2 2.6l-27.5 36.1h11.3l22.3-29.3c.7-1 2.1-1.1 3-.2l29.8 29.5h4.3c2.4 0 4.5-.8 6.2-2.2l-35.3-34.9c-.7-.7-.8-1.8-.2-2.6l39.2-51.6V186l-45.4 59.6c-.7 1-2.1 1.1-3 .2l-3.8-3.8c-3.2-3.1-5.8-9.4-5.8-13.8v-99.5c0-1.1.9-2 2-2h56v-9h-56c-1.1 0-2-.9-2-2v-10.5c0-4.5 2.5-11.4 5.4-14.8L398 27.8v-14l-59.5 70.9c-4.2 5-7.5 14-7.5 20.6zM30.5 156.8v11.5c0 6.7 4 15.5 9 20l83.8 74c.8.7.9 1.9.3 2.7l-21.1 27.3h11.4l16.4-21.1c.7-.9 2-1 2.9-.3l24.2 21.4H171l-32.5-28.7c-.8-.7-.9-1.9-.3-2.7l35-45.1h-11.4l-30.2 39c-.7.9-2 1-2.9.3l-83.2-73.5c-3.2-2.8-6-9-6-13.2v-11.5c0-1.1.9-2 2-2h87v-9h-87c-1.1 0-2-.9-2-2V45.3c0-6.5-3.8-15.6-8.4-20.3L6.9.8c-3 1-5.4 3.4-6.4 6.4l24.2 24.2c3.2 3.2 5.8 9.4 5.8 13.9v98.5c0 1.1-.9 2-2 2H0v9h28.5c1.1 0 2 .8 2 2zM220.7 215.8l35.4 76.5h9.9l-35.4-76.5M165.4 74.8L131 .3h-9.9l34.4 74.5M269.5 80.3v11.4L340.4.3H329l-60.1 77.5c.4.7.6 1.6.6 2.5z"/><path fill="#359E17" d="M227.9 117.8h-15.3c-5.5 0-12.9 2.1-16.4 4.7s-8.3.6-10.6-4.3l-22.1-47.9h-9.9l24.7 53.3c2.3 5 .6 11.7-3.9 15l-1.7 1.2c-4.4 3.3-12.6 5.9-18.1 5.9H124v9h33.5c5.5 0 13.6-2.7 18.1-5.9l2.6-1.9c4.4-3.3 9.9-1.8 12.2 3.1l4.2 9c2.3 5 1.4 12.6-1.9 17l-34.3 44.2h11.4l27.1-35c3.4-4.3 8-3.8 10.3 1.2l15.6 33.8h9.9l-19.3-41.8c-2.3-5-1.4-12.6 1.9-17l20.8-26.8c3.4-4.3 10.6-7.9 16.1-7.9H274v-9h-14.7c-5.5 0-7.2-3.6-3.9-7.9l18.6-24v-5.6c0-2.4-.8-4.5-2.2-6.2L244 109.9c-3.4 4.3-10.6 7.9-16.1 7.9zm-3.1 16.9l-13.7 17.6c-3.4 4.3-8 3.8-10.3-1.2l-3-6.5c-2.3-5-1.5-11.1 1.8-13.5 3.3-2.4 10.5-4.4 16-4.4h5.4c5.4.1 7.1 3.6 3.8 8z"/><path d="M303.2 150.9l-3.6 3.5c-.8.8-.8 2 0 2.8l4.4 4.5c1.2 1.3.3 3.4-1.4 3.4h-22c-1.1 0-2-.9-2-2V80.3c0-8-6.5-14.5-14.5-14.5h-34.5c-1.1 0-2-.9-2-2v-21c0-1.8 2.1-2.7 3.4-1.4l4.5 4.4c.8.8 2.1.8 2.8 0l3.5-3.6c.8-.8.8-2.1 0-2.8l-17.3-16.9c-.8-.8-2-.8-2.8 0l-17.3 16.9c-.8.8-.8 2 0 2.8l3.5 3.6c.8.8 2 .8 2.8 0l4.5-4.4c1.3-1.2 3.4-.3 3.4 1.4v21c0 1.1-.9 2-2 2H134c-8 0-14.5 6.5-14.5 14.5v35.5c0 1.1-.9 2-2 2H96.1c-1.8 0-2.7-2.1-1.4-3.4l4.4-4.5c.8-.8.8-2.1 0-2.8l-3.6-3.5c-.8-.8-2.1-.8-2.8 0l-16.9 17.3c-.8.8-.8 2 0 2.8L92.7 141c.8.8 2 .8 2.8 0l3.6-3.5c.8-.8.8-2 0-2.8l-4.4-4.5c-1.2-1.3-.3-3.4 1.4-3.4h21.4c1.1 0 2 .9 2 2v81.5c0 8 6.5 14.5 14.5 14.5h35.1c1.1 0 2 .9 2 2v22.4c0 1.8-2.1 2.7-3.4 1.4l-4.5-4.4c-.8-.8-2.1-.8-2.8 0l-3.5 3.6c-.8.8-.8 2.1 0 2.8l17.3 16.9c.8.8 2 .8 2.8 0l17.3-16.9c.8-.8.8-2 0-2.8l-3.5-3.6c-.8-.8-2-.8-2.8 0l-4.5 4.4c-1.3 1.2-3.4.3-3.4-1.4v-22.4c0-1.1.9-2 2-2H264c8 0 14.5-6.5 14.5-14.5v-34.1c0-1.1.9-2 2-2h22c1.8 0 2.7 2.1 1.4 3.4l-4.4 4.5c-.8.8-.8 2.1 0 2.8l3.6 3.5c.8.8 2.1.8 2.8 0l16.9-17.3c.8-.8.8-2 0-2.8L306 151c-.8-.8-2-.8-2.8-.1zm-33.7 59.4c0 3-2.5 5.5-5.5 5.5H134c-3 0-5.5-2.5-5.5-5.5v-130c0-3 2.5-5.5 5.5-5.5h130c3 0 5.5 2.5 5.5 5.5v130z"/></svg>