<svg xmlns="http://www.w3.org/2000/svg" xmlns:xlink="http://www.w3.org/1999/xlink" viewBox="0 0 498 414"><text transform="translate(-576.04 1287.98)"><tspan x="0" y="0" font-family="'KozGoPro-Light-83pv-RKSJ-H'" font-size="21">文字だけ写真なし</tspan><tspan x="0" y="73.5" font-family="'KozGoPro-Light-83pv-RKSJ-H'" font-size="21">リストでは塊として表示するか、単体で表示するか</tspan><tspan x="0" y="110.2" font-family="'KozGoPro-Light-83pv-RKSJ-H'" font-size="21">タイトルは住所にするか状況にするか</tspan></text><path fill="#FFF" d="M1718.7 1521h500v2000h-500z"/><path fill="#FDFDFD" d="M1719 2057.2h500.2v121.2H1719z"/><text transform="translate(1835.71 2003.984)"><tspan x="0" y="0" fill="#626161" font-family="'HelveticaNeueCE-Thin'" font-size="32" letter-spacing="1">HOME</tspan><tspan x="0" y="122" fill="#626161" font-family="'HelveticaNeueCE-Thin'" font-size="32" letter-spacing="1">SAFETY MAP</tspan><tspan x="0" y="244" fill="#626161" font-family="'HelveticaNeueCE-Thin'" font-size="32" letter-spacing="1">CONSEPT</tspan><tspan x="0" y="366" fill="#626161" font-family="'HelveticaNeueCE-Thin'" font-size="32" letter-spacing="1">HELP</tspan><tspan x="0" y="488.7" fill="#626161" font-family="'KozGoPro-ExtraLight-83pv-RKSJ-H'" font-size="32" letter-spacing="1">運営</tspan></text><path fill="#FF77D6" d="M1780.3 1980.7l10.3 7.8v14.4H1770v-14.4l10.3-7.8m0-8c-.6 0-1.2.2-1.6.5l-14.2 10.7c-.9.7-1.6 2.1-1.6 3.2v20.9c0 1.1.9 2 2 2h30.7c1.1 0 2-.9 2-2v-21c0-1.1-.7-2.5-1.6-3.2l-14.2-10.7c-.3-.2-.9-.4-1.5-.4z"/><circle fill="#DDB588" cx="1780.3" cy="2359.1" r="23.3"/><path fill="#FFF" d="M1782.2 2363.2l-3.8-.1c.1-2.9 1.8-4.7 3-6 1-1.1 1.6-1.7 1.6-2.6 0-1.5-1.2-2.7-2.7-2.7-1.5 0-2.7 1.2-2.7 2.7h-3.8c0-3.6 3-6.6 6.6-6.6 3.6 0 6.6 3 6.6 6.6 0 2.5-1.5 4-2.7 5.2-1.3 1.4-2 2.2-2.1 3.5z"/><circle fill="#FFF" cx="1780.3" cy="2368" r="2.7"/><path fill="#38D4EA" d="M1758.3 2248.6c1.3 1.5 3.7 1.6 5 .1l11.3-11.6c.8-.9 2.3-.3 2.3.9v22.4c0 1.8 1.3 3.4 3.1 3.5 2 .2 3.7-1.4 3.7-3.4V2238c0-1.2 1.5-1.8 2.3-.9l11.3 11.6c1.4 1.4 3.7 1.4 5-.1 1.2-1.3 1-3.4-.2-4.7l-19.4-20c-.6-.7-1.5-1-2.5-1-.9 0-1.8.4-2.5 1l-19.4 20c-1 1.3-1.2 3.3 0 4.7z"/><g fill="#DDB588"><path d="M1780.3 2476.5c-5.1 0-9.3-4.2-9.3-9.3s4.2-9.3 9.3-9.3c5.1 0 9.3 4.2 9.3 9.3s-4.2 9.3-9.3 9.3zm0-12.5c-1.8 0-3.3 1.5-3.3 3.3 0 1.8 1.5 3.3 3.3 3.3s3.3-1.5 3.3-3.3c0-1.8-1.5-3.3-3.3-3.3zM1795.2 2500.5c-1.7 0-3-1.3-3-3 0-6.6-5.3-11.9-11.9-11.9s-11.9 5.3-11.9 11.9c0 1.7-1.3 3-3 3s-3-1.3-3-3c0-9.9 8-17.9 17.9-17.9s17.9 8 17.9 17.9c0 1.6-1.3 3-3 3z"/></g><path fill="#1EA139" d="M1780.3 2099c6.4 0 11.6 5.2 11.6 11.6 0 4.3-3.3 9-7.9 15.5-1.2 1.7-2.4 3.4-3.7 5.3-1.3-1.9-2.6-3.7-3.8-5.4-4.3-6.1-8-11.3-8-15.4.2-6.4 5.4-11.6 11.8-11.6m0-7c-10.3 0-18.6 8.3-18.6 18.6 0 9.6 10.1 18.8 17.3 31.7.3.6.9.8 1.4.8.6 0 1.1-.3 1.4-.8 8.2-14.1 17.2-22.1 17.2-31.7 0-10.3-8.4-18.6-18.7-18.6z"/><defs><path id="a" d="M1718.7 1521h500v415h-500z"/></defs><use xlink:href="#a" overflow="visible" fill="#FDFDFD"/><clipPath id="b"><use xlink:href="#a" overflow="visible"/></clipPath><g clip-path="url(#b)"><path fill="#FF77D6" d="M2126 1746.3c0 83.5-77 152.1-147.9 273.5-5.6 9.5-19.3 9.4-24.6-.2-61.7-111.2-148.6-190.3-148.6-273.2 0-88.5 71.9-160.3 160.6-160.3 88.6-.1 160.5 71.6 160.5 160.2z"/><g fill="#040000"><path d="M1897.4 1775.6c4 0 6.5 2.3 7.7 5.2 1.3 3.1.9 6.8-2.3 9 3.6 1.5 4.9 4.9 4.9 7.9 0 4.8-3.1 9.6-9.2 9.6h-14.3v-31.7h13.2zm-8.7 12.6h8.6c5 0 5.1-8.2.1-8.2h-8.7v8.2zm0 14.7h9.8c3.1 0 4.6-2.6 4.6-5.1s-1.5-5-4.6-5h-9.8v10.1zM1914.7 1775.6h3.8v31.7h-3.8zM1929.5 1780.2c2.8-2.9 6.7-4.7 11-4.7 7.2 0 13 4.5 14.8 11.7h-4.5c-1.7-4.8-5.6-7.2-10.2-7.2-3 0-5.8 1.3-7.8 3.4-2 2.1-3.3 4.9-3.3 8.2 0 3.2 1.3 6 3.3 8.1 2 2.1 4.8 3.4 7.8 3.4 4.8 0 8.9-2.8 10.5-7.6h4.5c-1.8 7.2-7.6 12.1-15 12.1-4.3 0-8.2-1.8-11-4.7-2.7-2.9-4.5-6.9-4.5-11.3-.1-4.5 1.7-8.5 4.4-11.4zM1961 1775.6l8.7 13.9 8.7-13.9h5.4l-11.8 18.8v12.9h-4.6v-12.9l-11.7-18.8h5.3zM1988 1780.2c2.8-2.9 6.7-4.7 11-4.7 7.2 0 13 4.5 14.8 11.7h-4.5c-1.7-4.8-5.6-7.2-10.2-7.2-3 0-5.8 1.3-7.8 3.4-2 2.1-3.3 4.9-3.3 8.2 0 3.2 1.3 6 3.3 8.1 2 2.1 4.8 3.4 7.8 3.4 4.8 0 8.9-2.8 10.5-7.6h4.5c-1.8 7.2-7.6 12.1-15 12.1-4.3 0-8.2-1.8-11-4.7-2.7-2.9-4.5-6.9-4.5-11.3-.1-4.5 1.7-8.5 4.4-11.4zM2023.5 1802.7h14.9v4.6h-19.5v-31.7h4.6v27.1zM2046.6 1802.7h14.7v4.6H2042v-31.7h19.3v4.6h-14.7v8.9h14.4v4.6h-14.4v9zM1934.4 1888.8h-4.6v-31.7h3.7l10.5 15.4 10.5-15.4h3.6v31.7h-4.5v-22.3l-8.3 12.3h-2.6l-8.3-12.3v22.3zM1981 1879.5h-11.4c-1.2 2.9-2.8 6.7-3.8 9.3h-4.9l12.7-32.1h3.4l12.7 32.1h-4.9l-3.8-9.3zm-9.7-4.3h7.9l-3.9-11.2-4 11.2zM2003.5 1857.1c6.8 0 10.3 5.3 10.3 10.6s-3.4 10.6-10.3 10.6h-7v10.6h-4.6v-31.7h11.6zm0 16.7c3.9 0 5.8-3 5.8-6s-1.9-6-5.8-6h-7v12h7z"/></g><g fill="#040000" stroke="#FFF" stroke-width="3" stroke-miterlimit="10"><path d="M1906.7 1823.6c-.7-3.2-4.2-4.6-7.3-4.5-2.4.1-5 .9-6.5 2.7-.7.9-1 2.1-.9 3.3.3 3.7 4.3 4.1 8.1 4.5 4.9.6 11 1.9 12.3 7.6.2.8.3 1.6.3 2.3 0 6.9-6.8 10.9-13.2 10.9-5.5 0-12.2-3.3-12.8-9.6l-.1-1 5.2-.1.1.8v-.2c.4 3.3 4.4 5 7.7 5 3.8 0 8-2.1 8-5.8 0-.4-.1-.8-.2-1.2-.6-2.7-4.3-3.2-7.8-3.5-5.6-.6-12.1-1.8-12.6-9.2v.1c-.2-2.4.4-4.8 1.9-6.8 2.4-3.1 6.7-4.7 10.8-4.7 5.5 0 11.2 2.9 12.1 9.4h-5.1zM1937.1 1839.6h-12.8c-1.4 3.3-3.2 7.5-4.3 10.5h-5.6l14.3-36.1h3.8l14.3 36.1h-5.5l-4.2-10.5zm-10.8-4.9h8.9l-4.4-12.6-4.5 12.6zM1954.5 1850.1h-5.1v-35.6h21.2v5.1h-16.1v10h14.3v5.2h-14.3v15.3zM1979.4 1844.9h16.6v5.1h-21.8v-35.6h21.7v5.1h-16.5v10h16.2v5.2h-16.2v10.2zM2009.3 1850.2v-30.6h-10.8v-5.2h26.7v5.2h-10.8v30.6h-5.1zM2032.3 1814.4l9.7 15.6 9.7-15.6h6.1l-13.2 21.1v14.5h-5.2v-14.5l-13.2-21.1h6.1z"/></g><path fill="#040000" d="M2035.8 1684.3c-7.3-2.6-14.2-2.4-20.5-.7l-18.9-43.3c-.8-1.9-2.7-3.1-4.7-3.1h-22.1c-1.5 0-2.7 1.2-2.7 2.7v4.9c0 1.5 1.2 2.7 2.7 2.7h17c1.1 0 2 .6 2.4 1.6l5.5 12.6c.8 1.8-.5 3.7-2.4 3.7h-38.6c-1.1 0-2-.6-2.4-1.6l-3.5-8h7.4c1.5 0 2.7-1.2 2.7-2.7v-4.9c0-1.5-1.2-2.7-2.7-2.7h-26.3c-1.5 0-2.7 1.2-2.7 2.7v4.9c0 1.5 1.2 2.7 2.7 2.7h6c1.1 0 2 .6 2.4 1.6l5 11.6c.4.9.3 1.9-.3 2.6l-11.1 15c-5.3-2.9-11.3-4.4-17.8-4.2-19.2.5-34.9 16.9-34.5 36.1.4 19.3 16.1 34.8 35.5 34.8 17.1 0 31.3-12.1 34.7-28.2.3-1.3 1.3-2.2 2.6-2.2h17.8c1.7 0 3.2-.8 4.2-2.2l26.3-37.7c1.2-1.7 3.8-1.4 4.6.5l1.8 4.2c-11.3 7-18.4 20.2-16.5 34.9 2 15.5 14.4 28.1 29.9 30.3 22.5 3.3 41.8-14.7 40.7-36.9-.6-14.3-10.5-26.9-24.2-31.7zm-86.5 1.2l10.3 23.6c.8 1.8-.5 3.7-2.4 3.7h-5.9c-1.3 0-2.4-.9-2.6-2.2-1.3-6.1-4.1-11.7-8.1-16.2-.9-1-1-2.4-.2-3.4l4.5-6c1-1.7 3.6-1.4 4.4.5zm-14.4 18.5c1.1 1.6 2 3.4 2.7 5.3.6 1.7-.7 3.5-2.5 3.5H1924l6.6-8.9c1.1-1.4 3.3-1.4 4.3.1zm-21 39.1c-14.1 0-25.5-11.5-25.3-25.7.2-13.1 10.9-24.2 24.1-24.8 3-.1 5.8.2 8.4 1 1.7.5 2.4 2.7 1.3 4.1l-12.6 17c-1.2 1.6-1.3 3.6-.5 5.3.9 1.7 2.6 2.8 4.6 2.8h21.2c1.8 0 3.2 1.8 2.5 3.5-3.5 9.9-12.8 16.8-23.7 16.8zm54.2-40l-10.3-23.7c-.8-1.8.5-3.7 2.4-3.7h26.9c2.2 0 3.4 2.4 2.2 4.2l-16.6 23.7c-1.2 1.7-3.8 1.4-4.6-.5zm53.9 39.9c-11.5-1.1-21-10.3-22.5-21.8-1.1-8.5 2.1-16.3 7.7-21.6 1.3-1.3 3.5-.7 4.2.9l7.4 17c.6 1.3 2.2 2 3.5 1.4l4.5-2c1.3-.6 2-2.2 1.4-3.5l-7.4-17c-.7-1.7.4-3.6 2.2-3.7 2.6-.2 5.4.1 8.2.8 9.7 2.6 17.1 11 18.4 20.9 2.3 16.3-11.3 30.2-27.6 28.6z"/><path fill="#FFF" d="M2065.9 1690.4c.8-1.2 2-1.2 2.8 0l3.5 5.6c.8 1.2 2.5 1.8 3.9 1.3l6.1-2.5c1.4-.6 2.4.2 2.3 1.6l-.5 6.6c-.1 1.5 1 2.9 2.4 3.3l6.4 1.6c1.4.3 1.8 1.5.9 2.7l-4.2 5c-.9 1.1-.9 2.9 0 4.1l4.2 5c.9 1.1.6 2.3-.9 2.7l-6.4 1.6c-1.4.3-2.5 1.8-2.4 3.3l.5 6.6c.1 1.5-.9 2.2-2.3 1.6l-6.1-2.5c-1.4-.6-3.1 0-3.9 1.3l-3.5 5.6c-.8 1.2-2 1.2-2.8 0l-3.5-5.6c-.8-1.2-2.5-1.8-3.9-1.3l-6.1 2.5c-1.4.6-2.4-.2-2.3-1.6l.5-6.6c.1-1.5-1-2.9-2.4-3.3l-6.4-1.6c-1.4-.3-1.8-1.5-.9-2.7l4.2-5c.9-1.1.9-2.9 0-4.1l-4.2-5c-.9-1.1-.6-2.3.9-2.7l6.4-1.6c1.4-.3 2.5-1.8 2.4-3.3l-.5-6.6c-.1-1.5.9-2.2 2.3-1.6l6.1 2.5c1.4.6 3.1 0 3.9-1.3l3.5-5.6z"/></g><g fill="none" stroke="#9DA29E" stroke-width=".3" stroke-miterlimit="10"><path opacity=".6" d="M1718.7 2057.2h500.5M1718.7 1936h500.5M1718.7 2299.6h500.5M1718.7 2178.4h500.5M1718.7 2542h500.5M1718.7 2420.8h500.5"/></g><g><text transform="translate(-1358.04 1324.73)"><tspan x="0" y="0" font-family="'KozGoPro-Light-83pv-RKSJ-H'" font-size="21">坂</tspan><tspan x="0" y="36.8" font-family="'KozGoPro-Light-83pv-RKSJ-H'" font-size="21">交通量</tspan><tspan x="0" y="73.5" font-family="'KozGoPro-Light-83pv-RKSJ-H'" font-size="21">道幅</tspan><tspan x="0" y="110.2" font-family="'KozGoPro-Light-83pv-RKSJ-H'" font-size="21">見通し</tspan><tspan x="0" y="147" font-family="'KozGoPro-Light-83pv-RKSJ-H'" font-size="21">暗い</tspan><tspan x="0" y="183.8" font-family="'KozGoPro-Light-83pv-RKSJ-H'" font-size="21">歩行者</tspan><tspan x="0" y="220.5" font-family="'KozGoPro-Light-83pv-RKSJ-H'" font-size="21">通学路</tspan><tspan x="0" y="257.2" font-family="'KozGoPro-Light-83pv-RKSJ-H'" font-size="21">時間帯</tspan><tspan x="0" y="294" font-family="'KozGoPro-Light-83pv-RKSJ-H'" font-size="21">事故多発</tspan><tspan x="0" y="330.8" font-family="'KozGoPro-Light-83pv-RKSJ-H'" font-size="21">重大事故</tspan><tspan x="0" y="367.5" font-family="'KozGoPro-Light-83pv-RKSJ-H'" font-size="21">ヒヤリハット</tspan></text></g><g><path opacity=".6" fill="none" stroke="#283429" stroke-width=".3" stroke-miterlimit="10" d="M-304.2 1750h997.4"/><text transform="translate(-155.165 1609.98)"><tspan x="0" y="0" fill="#626262" font-family="'HelveticaNeue-Roman'" font-size="24">2014</tspan><tspan x="53.4" y="0" font-family="'HelveticaNeue-Roman'" font-size="24"> 11/12 </tspan><tspan x="128.1" y="0" fill="#626262" font-family="'HelveticaNeue-Roman'" font-size="24">10:00</tspan></text><text transform="translate(-155.165 1655.98)" font-family="'KozGoPr6N-Regular-83pv-RKSJ-H'" font-size="32">自動車と出会いがしら衝突</text><text transform="translate(-155.165 1697.98)"><tspan x="0" y="0" fill="#929292" font-family="'KozGoPr6N-Regular-83pv-RKSJ-H'" font-size="19">草津市野路東</tspan><tspan x="0" y="30" fill="#929292" font-family="'KozGoPr6N-Regular-83pv-RKSJ-H'" font-size="19">坂</tspan><tspan x="19" y="30" fill="#929292" font-family="'Helvetica'" font-size="19"> </tspan><tspan x="24.3" y="30" fill="#929292" font-family="'KozGoPr6N-Regular-83pv-RKSJ-H'" font-size="19">見通し</tspan><tspan x="81.3" y="30" fill="#929292" font-family="'Helvetica'" font-size="19"> </tspan><tspan x="86.6" y="30" fill="#929292" font-family="'KozGoPr6N-Regular-83pv-RKSJ-H'" font-size="19">暗い</tspan><tspan x="124.6" y="30" fill="#929292" font-family="'Helvetica'" font-size="19"> </tspan><tspan x="129.8" y="30" fill="#929292" font-family="'KozGoPr6N-Regular-83pv-RKSJ-H'" font-size="19">事故多発</tspan></text><text transform="translate(-155.165 1895.98)"><tspan x="0" y="0" fill="#929292" font-family="'KozGoPr6N-Regular-83pv-RKSJ-H'" font-size="19">草津市野路東</tspan><tspan x="0" y="30" fill="#929292" font-family="'KozGoPr6N-Regular-83pv-RKSJ-H'" font-size="19">坂</tspan><tspan x="19" y="30" fill="#929292" font-family="'Helvetica'" font-size="19"> </tspan><tspan x="24.3" y="30" fill="#929292" font-family="'KozGoPr6N-Regular-83pv-RKSJ-H'" font-size="19">見通し</tspan><tspan x="81.3" y="30" fill="#929292" font-family="'Helvetica'" font-size="19"> </tspan><tspan x="86.6" y="30" fill="#929292" font-family="'KozGoPr6N-Regular-83pv-RKSJ-H'" font-size="19">暗い</tspan><tspan x="124.6" y="30" fill="#929292" font-family="'Helvetica'" font-size="19"> </tspan><tspan x="129.8" y="30" fill="#929292" font-family="'KozGoPr6N-Regular-83pv-RKSJ-H'" font-size="19">事故多発</tspan></text><text transform="translate(-155.165 2105.98)"><tspan x="0" y="0" fill="#929292" font-family="'KozGoPr6N-Regular-83pv-RKSJ-H'" font-size="19">草津市野路東</tspan><tspan x="0" y="30" fill="#929292" font-family="'KozGoPr6N-Regular-83pv-RKSJ-H'" font-size="19">坂</tspan><tspan x="19" y="30" fill="#929292" font-family="'Helvetica'" font-size="19"> </tspan><tspan x="24.3" y="30" fill="#929292" font-family="'KozGoPr6N-Regular-83pv-RKSJ-H'" font-size="19">見通し</tspan><tspan x="81.3" y="30" fill="#929292" font-family="'Helvetica'" font-size="19"> </tspan><tspan x="86.6" y="30" fill="#929292" font-family="'KozGoPr6N-Regular-83pv-RKSJ-H'" font-size="19">暗い</tspan><tspan x="124.6" y="30" fill="#929292" font-family="'Helvetica'" font-size="19"> </tspan><tspan x="129.8" y="30" fill="#929292" font-family="'KozGoPr6N-Regular-83pv-RKSJ-H'" font-size="19">事故多発</tspan></text><text transform="translate(-155.165 2317.98)"><tspan x="0" y="0" fill="#929292" font-family="'KozGoPr6N-Regular-83pv-RKSJ-H'" font-size="19">草津市野路東</tspan><tspan x="0" y="30" fill="#929292" font-family="'KozGoPr6N-Regular-83pv-RKSJ-H'" font-size="19">坂</tspan><tspan x="19" y="30" fill="#929292" font-family="'Helvetica'" font-size="19"> </tspan><tspan x="24.3" y="30" fill="#929292" font-family="'KozGoPr6N-Regular-83pv-RKSJ-H'" font-size="19">見通し</tspan><tspan x="81.3" y="30" fill="#929292" font-family="'Helvetica'" font-size="19"> </tspan><tspan x="86.6" y="30" fill="#929292" font-family="'KozGoPr6N-Regular-83pv-RKSJ-H'" font-size="19">暗い</tspan><tspan x="124.6" y="30" fill="#929292" font-family="'Helvetica'" font-size="19"> </tspan><tspan x="129.8" y="30" fill="#929292" font-family="'KozGoPr6N-Regular-83pv-RKSJ-H'" font-size="19">事故多発</tspan></text><text transform="translate(-155.165 2533.98)"><tspan x="0" y="0" fill="#929292" font-family="'KozGoPr6N-Regular-83pv-RKSJ-H'" font-size="19">草津市野路東</tspan><tspan x="0" y="30" fill="#929292" font-family="'KozGoPr6N-Regular-83pv-RKSJ-H'" font-size="19">坂</tspan><tspan x="19" y="30" fill="#929292" font-family="'Helvetica'" font-size="19"> </tspan><tspan x="24.3" y="30" fill="#929292" font-family="'KozGoPr6N-Regular-83pv-RKSJ-H'" font-size="19">見通し</tspan><tspan x="81.3" y="30" fill="#929292" font-family="'Helvetica'" font-size="19"> </tspan><tspan x="86.6" y="30" fill="#929292" font-family="'KozGoPr6N-Regular-83pv-RKSJ-H'" font-size="19">暗い</tspan><tspan x="124.6" y="30" fill="#929292" font-family="'Helvetica'" font-size="19"> </tspan><tspan x="129.8" y="30" fill="#929292" font-family="'KozGoPr6N-Regular-83pv-RKSJ-H'" font-size="19">事故多発</tspan></text><text transform="translate(-155.165 2741.98)"><tspan x="0" y="0" fill="#929292" font-family="'KozGoPr6N-Regular-83pv-RKSJ-H'" font-size="19">草津市野路東</tspan><tspan x="0" y="30" fill="#929292" font-family="'KozGoPr6N-Regular-83pv-RKSJ-H'" font-size="19">坂</tspan><tspan x="19" y="30" fill="#929292" font-family="'Helvetica'" font-size="19"> </tspan><tspan x="24.3" y="30" fill="#929292" font-family="'KozGoPr6N-Regular-83pv-RKSJ-H'" font-size="19">見通し</tspan><tspan x="81.3" y="30" fill="#929292" font-family="'Helvetica'" font-size="19"> </tspan><tspan x="86.6" y="30" fill="#929292" font-family="'KozGoPr6N-Regular-83pv-RKSJ-H'" font-size="19">暗い</tspan><tspan x="124.6" y="30" fill="#929292" font-family="'Helvetica'" font-size="19"> </tspan><tspan x="129.8" y="30" fill="#929292" font-family="'KozGoPr6N-Regular-83pv-RKSJ-H'" font-size="19">事故多発</tspan></text><text transform="translate(-155.165 2953.98)"><tspan x="0" y="0" fill="#929292" font-family="'KozGoPr6N-Regular-83pv-RKSJ-H'" font-size="19">草津市野路東</tspan><tspan x="0" y="30" fill="#929292" font-family="'KozGoPr6N-Regular-83pv-RKSJ-H'" font-size="19">坂</tspan><tspan x="19" y="30" fill="#929292" font-family="'Helvetica'" font-size="19"> </tspan><tspan x="24.3" y="30" fill="#929292" font-family="'KozGoPr6N-Regular-83pv-RKSJ-H'" font-size="19">見通し</tspan><tspan x="81.3" y="30" fill="#929292" font-family="'Helvetica'" font-size="19"> </tspan><tspan x="86.6" y="30" fill="#929292" font-family="'KozGoPr6N-Regular-83pv-RKSJ-H'" font-size="19">暗い</tspan><tspan x="124.6" y="30" fill="#929292" font-family="'Helvetica'" font-size="19"> </tspan><tspan x="129.8" y="30" fill="#929292" font-family="'KozGoPr6N-Regular-83pv-RKSJ-H'" font-size="19">事故多発</tspan></text><g><path opacity=".6" fill="none" stroke="#283429" stroke-width=".3" stroke-miterlimit="10" d="M-304.2 1968h997.4"/><text transform="translate(-155.165 1811.98)"><tspan x="0" y="0" fill="#626262" font-family="'HelveticaNeue-Roman'" font-size="24">2014</tspan><tspan x="53.4" y="0" font-family="'HelveticaNeue-Roman'" font-size="24"> 11/12 </tspan><tspan x="128.1" y="0" fill="#626262" font-family="'HelveticaNeue-Roman'" font-size="24">10:00</tspan></text><text transform="translate(-155.165 1857.98)" font-family="'KozGoPr6N-Regular-83pv-RKSJ-H'" font-size="32">自転車同士</text></g><g><path opacity=".6" fill="none" stroke="#283429" stroke-width=".3" stroke-miterlimit="10" d="M-304.2 2170h997.4"/><text transform="translate(-155.165 2025.984)"><tspan x="0" y="0" fill="#626262" font-family="'HelveticaNeue-Roman'" font-size="24">2014</tspan><tspan x="53.4" y="0" font-family="'HelveticaNeue-Roman'" font-size="24"> 11/12 </tspan><tspan x="128.1" y="0" fill="#626262" font-family="'HelveticaNeue-Roman'" font-size="24">10:00</tspan></text><text transform="translate(-155.165 2071.984)" font-family="'KozGoPr6N-Regular-83pv-RKSJ-H'" font-size="32">物損</text></g><g><path opacity=".6" fill="none" stroke="#283429" stroke-width=".3" stroke-miterlimit="10" d="M-304.2 2384h997.4"/><text transform="translate(-155.165 2229.988)"><tspan x="0" y="0" fill="#626262" font-family="'HelveticaNeue-Roman'" font-size="24">2014</tspan><tspan x="53.4" y="0" font-family="'HelveticaNeue-Roman'" font-size="24"> 11/12 </tspan><tspan x="128.1" y="0" fill="#626262" font-family="'HelveticaNeue-Roman'" font-size="24">10:00</tspan></text><text transform="translate(-155.165 2275.988)" font-family="'KozGoPr6N-Regular-83pv-RKSJ-H'" font-size="32">車と衝突で重症</text></g><g><path opacity=".6" fill="none" stroke="#283429" stroke-width=".3" stroke-miterlimit="10" d="M-304.2 2598h997.4"/><text transform="translate(-155.165 2445.99)"><tspan x="0" y="0" fill="#626262" font-family="'HelveticaNeue-Roman'" font-size="24">2014</tspan><tspan x="53.4" y="0" font-family="'HelveticaNeue-Roman'" font-size="24"> 11/12 </tspan><tspan x="128.1" y="0" fill="#626262" font-family="'HelveticaNeue-Roman'" font-size="24">10:00</tspan></text><text transform="translate(-155.165 2491.99)" font-family="'KozGoPr6N-Regular-83pv-RKSJ-H'" font-size="32">刑事事件</text></g><g><path opacity=".6" fill="none" stroke="#283429" stroke-width=".3" stroke-miterlimit="10" d="M-304.2 2812h997.4"/><text transform="translate(-155.165 2653.994)"><tspan x="0" y="0" fill="#626262" font-family="'HelveticaNeue-Roman'" font-size="24">2014</tspan><tspan x="53.4" y="0" font-family="'HelveticaNeue-Roman'" font-size="24"> 11/12 </tspan><tspan x="128.1" y="0" fill="#626262" font-family="'HelveticaNeue-Roman'" font-size="24">10:00</tspan></text><text transform="translate(-155.165 2699.994)" font-family="'KozGoPr6N-Regular-83pv-RKSJ-H'" font-size="32">盗難</text></g><g><path opacity=".6" fill="none" stroke="#283429" stroke-width=".3" stroke-miterlimit="10" d="M-304.2 2972h997.4"/><text transform="translate(-155.165 2877.996)"><tspan x="0" y="0" fill="#626262" font-family="'HelveticaNeue-Roman'" font-size="24">2014</tspan><tspan x="53.4" y="0" font-family="'HelveticaNeue-Roman'" font-size="24"> 11/12 </tspan><tspan x="128.1" y="0" fill="#626262" font-family="'HelveticaNeue-Roman'" font-size="24">10:00</tspan></text><text transform="translate(-155.165 2923.996)" font-family="'KozGoPr6N-Regular-83pv-RKSJ-H'" font-size="32">自転車同士</text></g></g><g><path fill="#1EA139" d="M543 1521h150v150H543z"/><g fill="#FFF"><path d="M580.5 1560h75v9.9h-75zM580.5 1591h75v9.9h-75zM580.5 1622.1h75v9.9h-75z"/></g></g><g><image overflow="visible" width="339" height="509" xlink:href="../../../../_design/rf_562405493.jpg" transform="matrix(.404 0 0 .404 514.96 1766.353)"/></g><g><image overflow="visible" width="507" height="338" xlink:href="../../../../_design/rf_144315204.jpg" transform="translate(485.96 2211.26) scale(.4083)"/></g><g><image overflow="visible" width="359" height="479" xlink:href="../../../../_design/rf_562796319.jpg" transform="translate(506.96 2400.693) scale(.4095)"/></g><g><path fill="#A19A9A" d="M-208.7 1837.8c0 14-12.9 25.6-24.9 46-.9 1.6-3.2 1.6-4.1 0-10.4-18.7-25-32-25-46 0-14.9 12.1-27 27-27s27 12.1 27 27z"/><g fill="none" stroke="#000" stroke-width="3" stroke-linecap="round" stroke-linejoin="round" stroke-miterlimit="10"><path d="M-244.8 1850c3.4-2.4 5.6-6.3 5.6-10.8 0-4.5-2.2-8.4-5.6-10.8M-226.6 1828.5c-3.4 2.4-5.6 6.3-5.6 10.8 0 4.5 2.2 8.4 5.6 10.8"/></g></g><g><path fill="#A19A9A" d="M-208.7 2686.5c0 14-12.9 25.6-24.9 46-.9 1.6-3.2 1.6-4.1 0-10.4-18.7-25-32-25-46 0-14.9 12.1-27 27-27s27 12.1 27 27z"/><g fill="none" stroke="#000" stroke-width="3" stroke-linecap="round" stroke-linejoin="round" stroke-miterlimit="10"><path d="M-244.8 2698.8c3.4-2.4 5.6-6.3 5.6-10.8s-2.2-8.4-5.6-10.8M-226.6 2677.2c-3.4 2.4-5.6 6.3-5.6 10.8s2.2 8.4 5.6 10.8"/></g></g><g><path d="M-208.7 1625.6c0 14-12.9 25.6-24.9 46-.9 1.6-3.2 1.6-4.1 0-10.4-18.7-25-32-25-46 0-14.9 12.1-27 27-27s27 12.1 27 27z"/><g fill="none" stroke="#FFCF00" stroke-width="3" stroke-linecap="round" stroke-linejoin="round" stroke-miterlimit="10"><path d="M-246.4 1620.6h19.2M-246.4 1632.3h19.2M-229.2 1624.7l4.1-4.1-4.1-4.1M-242.3 1628.1l-4.1 4.2 4.1 4.1"/></g></g><g><path fill="#00407A" d="M-208.7 2474.3c0 14-12.9 25.6-24.9 46-.9 1.6-3.2 1.6-4.1 0-10.4-18.7-25-32-25-46 0-14.9 12.1-27 27-27s27 12.1 27 27z"/><path fill="none" stroke="#FFF" stroke-width="3" stroke-linecap="round" stroke-linejoin="round" stroke-miterlimit="10" d="M-234.9 2482.9c5.5 0 10.4-2.9 13.1-7.3-2.7-4.4-7.6-7.3-13.1-7.3s-10.4 2.9-13.1 7.3c2.8 4.4 7.6 7.3 13.1 7.3z"/><circle fill="#FFF" cx="-234.9" cy="2475.7" r="3.9"/><g><path fill="#00407A" d="M-252.7 2464.9h8v22.3h-8z"/><path fill="none" stroke="#FFF" stroke-width="3" stroke-linecap="round" stroke-linejoin="round" stroke-miterlimit="10" d="M-244.7 2487.3v-22.4"/></g></g><g><path fill="#8D7EE2" d="M-208.7 2262.1c0 14-12.9 25.6-24.9 46-.9 1.6-3.2 1.6-4.1 0-10.4-18.7-25-32-25-46 0-14.9 12.1-27 27-27 14.9.1 27 12.1 27 27z"/><g fill="none" stroke="#000" stroke-width="3" stroke-linecap="round" stroke-linejoin="round" stroke-miterlimit="10"><ellipse cx="-235.7" cy="2270.2" rx="8.4" ry="2.7"/><path d="M-244.2 2270.2l12.8-17.4 4.1 17.4"/></g></g><g><path fill="#FFCF00" d="M-208.7 2050c0 14-12.9 25.6-24.9 46-.9 1.6-3.2 1.6-4.1 0-10.4-18.7-25-32-25-46 0-14.9 12.1-27 27-27s27 12.1 27 27z"/><path d="M-245.2 2063.4c-3.9 0-5.4-2.7-3.5-6.1l9.4-16.3c1.9-3.3 5.1-3.3 7 0l9.4 16.3c1.9 3.3.4 6.1-3.5 6.1h-18.8z"/><path fill="#FFCF00" d="M-236.9 2055.8h2.6v2.6h-2.6zM-236.9 2046h2.6v7.2h-2.6z"/></g><g><defs><path id="c" d="M-304.9 2881H194v141h-498.9z"/></defs><use xlink:href="#c" overflow="visible" fill="#1EA18D"/><clipPath id="d"><use xlink:href="#c" overflow="visible"/></clipPath><g clip-path="url(#d)"><path fill="#007B7E" d="M44.8 2909.1l148.1 148H18.7"/><path d="M-152.5 3077.8c-3.8 0-7-3.1-7-7V2915c0-3.8 3.1-7 7-7H43.7c3.8 0 7 3.1 7 7v155.8c0 3.8-3.1 7-7 7h-196.2z"/><defs><path id="e" d="M-140.4 2926.7h172v111.6h-172z"/></defs><use xlink:href="#e" overflow="visible" fill="#FFF"/><clipPath id="f"><use xlink:href="#e" overflow="visible"/></clipPath><g clip-path="url(#f)"><path fill="#1CA08C" d="M-105.2 2950.5c1.2 4.7-2.7 8.1-6.5 14.2-.6.9-1.9.9-2.5 0-3-5-6.8-8.7-6.8-12.5 0-4.6 3.9-8.3 8.6-7.9 3.5.2 6.3 2.8 7.2 6.2z"/><g fill="none" stroke="#D7D7D6" stroke-width="4" stroke-miterlimit="10"><path d="M-94 2951.5h72M-94 2966h38.5"/></g></g><g clip-path="url(#f)"><path fill="#1CA08C" d="M-105.2 2984.5c1.2 4.7-2.7 8.1-6.5 14.2-.6.9-1.9.9-2.5 0-3-5-6.8-8.7-6.8-12.5 0-4.6 3.9-8.3 8.6-7.9 3.5.2 6.3 2.8 7.2 6.2z"/><g fill="none" stroke="#D7D7D6" stroke-width="4" stroke-miterlimit="10"><path d="M-94 2985.5h72M-94 3000h38.5"/></g></g></g><g><defs><path id="g" d="M194 2881h499.9v141H194z"/></defs><linearGradient id="h" gradientUnits="userSpaceOnUse" x1="194.011" y1="2951.48" x2="693.96" y2="2951.48"><stop offset="0" stop-color="#3B9D00"/><stop offset="1" stop-color="#3BAA00"/></linearGradient><use xlink:href="#g" overflow="visible" fill="url(#h)"/><clipPath id="i"><use xlink:href="#g" overflow="visible"/></clipPath><g opacity=".2" clip-path="url(#i)"><path fill="#007B31" d="M540.3 2909.1l148.1 148H514.2"/><path d="M337.3 3077.8c-3.8 0-7-3.1-7-7V2915c0-3.8 3.1-7 7-7h196.2c3.8 0 7 3.1 7 7v155.8c0 3.8-3.1 7-7 7H337.3z"/><defs><path id="j" d="M349.4 2926.7h172v111.6h-172z"/></defs><use xlink:href="#j" overflow="visible" fill="#FFF"/><clipPath id="k"><use xlink:href="#j" overflow="visible"/></clipPath><g clip-path="url(#k)"><path fill="none" stroke="#D7D7D6" stroke-width="4" stroke-miterlimit="10" d="M336 2952h37c3.8 0 9.2 2.2 11.9 4.9L478 3050M487 2917l-113 113"/><path fill="none" stroke="#D7D7D6" stroke-width="4" stroke-miterlimit="10" d="M538 2988h-81c-3.8 0-9.2 2.2-11.9 4.9L401 3037"/></g><g clip-path="url(#k)"><linearGradient id="l" gradientUnits="userSpaceOnUse" x1="405.016" y1="2957.189" x2="424.217" y2="2957.189"><stop offset="0" stop-color="#3B9D00"/><stop offset="1" stop-color="#3BAA00"/></linearGradient><path fill="url(#l)" d="M424 2952c1.4 5.7-3.2 9.7-7.8 17.1-.7 1.1-2.3 1.1-3 0-3.6-6-8.1-10.4-8.1-15 0-5.5 4.7-10 10.4-9.6 4 .3 7.5 3.5 8.5 7.5z"/><linearGradient id="m" gradientUnits="userSpaceOnUse" x1="482.359" y1="2957.189" x2="501.56" y2="2957.189"><stop offset="0" stop-color="#3B9D00"/><stop offset="1" stop-color="#3BAA00"/></linearGradient><path fill="url(#m)" d="M501.3 2952c1.4 5.7-3.2 9.7-7.8 17.1-.7 1.1-2.3 1.1-3 0-3.6-6-8.1-10.4-8.1-15 0-5.5 4.7-10 10.4-9.6 4.1.3 7.5 3.5 8.5 7.5z"/><g><linearGradient id="n" gradientUnits="userSpaceOnUse" x1="362.815" y1="2988.088" x2="382.017" y2="2988.088"><stop offset="0" stop-color="#3B9D00"/><stop offset="1" stop-color="#3BAA00"/></linearGradient><path fill="url(#n)" d="M381.8 2982.9c1.4 5.7-3.2 9.7-7.8 17.1-.7 1.1-2.3 1.1-3 0-3.6-6-8.1-10.4-8.1-15 0-5.5 4.7-10 10.4-9.6 4 .3 7.5 3.5 8.5 7.5z"/></g></g></g><path opacity=".6" fill="none" stroke="#283429" stroke-width=".3" stroke-miterlimit="10" d="M193.3 3021v-140"/></g></g><g><path opacity=".8" fill="#1EA139" d="M-31 644.5H971v1500H-31z"/><linearGradient id="o" gradientUnits="userSpaceOnUse" x1="345.995" y1="1394.512" x2="473.495" y2="1394.512"><stop offset="0" stop-opacity="0"/><stop offset=".859" stop-opacity=".172"/><stop offset="1" stop-opacity=".2"/></linearGradient><path fill="url(#o)" d="M346 644.5h127.5v1500H346z"/><path fill="#FFF" d="M471.5 644.5h500v1501h-500z"/><path fill="#FDFDFD" d="M471.7 1180.7h500.2v121.2H471.7z"/><text transform="translate(588.495 1127.515)"><tspan x="0" y="0" fill="#626161" font-family="'HelveticaNeueCE-Thin'" font-size="32" letter-spacing="1">HOME</tspan><tspan x="0" y="122" fill="#626161" font-family="'HelveticaNeueCE-Thin'" font-size="32" letter-spacing="1">SAFETY MAP</tspan><tspan x="0" y="244" fill="#626161" font-family="'HelveticaNeueCE-Thin'" font-size="32" letter-spacing="1">CONSEPT</tspan><tspan x="0" y="366" fill="#626161" font-family="'HelveticaNeueCE-Thin'" font-size="32" letter-spacing="1">HELP</tspan><tspan x="0" y="488.7" fill="#626161" font-family="'KozGoPro-ExtraLight-83pv-RKSJ-H'" font-size="32" letter-spacing="1">運営</tspan></text><path fill="#1EA139" d="M533.1 1104.3l10.3 7.8v14.4h-20.7v-14.4l10.4-7.8m0-8.1c-.6 0-1.2.2-1.6.5l-14.2 10.7c-.9.7-1.6 2.1-1.6 3.2v20.9c0 1.1.9 2 2 2h30.7c1.1 0 2-.9 2-2v-20.9c0-1.1-.7-2.5-1.6-3.2l-14.2-10.7c-.3-.3-.9-.5-1.5-.5z"/><circle fill="#1EA139" cx="533.1" cy="1482.6" r="23.3"/><path fill="#FFF" d="M535 1486.8l-3.8-.1c.1-2.9 1.8-4.7 3-6 1-1.1 1.6-1.7 1.6-2.6 0-1.5-1.2-2.7-2.7-2.7-1.5 0-2.7 1.2-2.7 2.7h-3.8c0-3.6 3-6.6 6.6-6.6 3.6 0 6.6 3 6.6 6.6 0 2.5-1.5 4-2.7 5.2-1.3 1.3-2 2.1-2.1 3.5z"/><circle fill="#FFF" cx="533.1" cy="1491.5" r="2.7"/><path fill="#1EA139" d="M511 1372.1c1.3 1.5 3.7 1.6 5 .1l11.3-11.6c.8-.9 2.3-.3 2.3.9v22.4c0 1.8 1.3 3.4 3.1 3.5 2 .2 3.7-1.4 3.7-3.4v-22.5c0-1.2 1.5-1.8 2.3-.9l11.3 11.6c1.4 1.4 3.7 1.4 5-.1 1.2-1.3 1-3.4-.2-4.7l-19.4-20c-.6-.7-1.5-1-2.5-1-.9 0-1.8.4-2.5 1l-19.4 20c-1 1.3-1.1 3.4 0 4.7z"/><g fill="#1EA139"><path d="M533.1 1600.1c-5.1 0-9.3-4.2-9.3-9.3s4.2-9.3 9.3-9.3c5.1 0 9.3 4.2 9.3 9.3s-4.2 9.3-9.3 9.3zm0-12.6c-1.8 0-3.3 1.5-3.3 3.3 0 1.8 1.5 3.3 3.3 3.3s3.3-1.5 3.3-3.3c0-1.8-1.5-3.3-3.3-3.3zM548 1624c-1.7 0-3-1.3-3-3 0-6.6-5.3-11.9-11.9-11.9s-11.9 5.3-11.9 11.9c0 1.7-1.3 3-3 3s-3-1.3-3-3c0-9.9 8-17.9 17.9-17.9s17.9 8 17.9 17.9c0 1.7-1.3 3-3 3z"/></g><path fill="#1EA139" d="M533.1 1222.5c6.4 0 11.6 5.2 11.6 11.6 0 4.3-3.3 9-7.9 15.5-1.2 1.7-2.4 3.4-3.7 5.3-1.3-1.9-2.6-3.7-3.8-5.4-4.3-6.1-8-11.3-8-15.4.2-6.4 5.4-11.6 11.8-11.6m0-7c-10.3 0-18.6 8.3-18.6 18.6 0 9.6 10.1 18.8 17.3 31.7.3.6.9.8 1.4.8.6 0 1.1-.3 1.4-.8 8.2-14.1 17.2-22.1 17.2-31.7-.1-10.3-8.4-18.6-18.7-18.6z"/><g><defs><path id="p" d="M472.5 644.5h499v415h-499z"/></defs><use xlink:href="#p" overflow="visible" fill="#FDFDFD"/><clipPath id="q"><use xlink:href="#p" overflow="visible"/></clipPath><g clip-path="url(#q)"><path fill="#1EA139" d="M878.8 869.8c0 83.5-77 152.1-147.9 273.5-5.6 9.5-19.3 9.4-24.6-.2-61.7-111.2-148.6-190.3-148.6-273.2 0-88.5 71.9-160.3 160.6-160.3 88.5-.1 160.5 71.7 160.5 160.2z"/><g fill="#FFF"><path d="M650.2 899.2c4 0 6.5 2.3 7.7 5.2 1.3 3.1.9 6.8-2.3 9 3.6 1.5 4.9 4.9 4.9 7.9 0 4.8-3.1 9.6-9.2 9.6H637v-31.7h13.2zm-8.7 12.6h8.6c5 0 5.1-8.2.1-8.2h-8.7v8.2zm0 14.6h9.8c3.1 0 4.6-2.6 4.6-5.1s-1.5-5-4.6-5h-9.8v10.1zM667.5 899.2h3.8v31.7h-3.8zM682.3 903.7c2.8-2.9 6.7-4.7 11-4.7 7.2 0 13 4.5 14.8 11.7h-4.5c-1.7-4.8-5.6-7.2-10.2-7.2-3 0-5.8 1.3-7.8 3.4-2 2.1-3.3 4.9-3.3 8.2 0 3.2 1.3 6 3.3 8.1 2 2.1 4.8 3.4 7.8 3.4 4.8 0 8.9-2.8 10.5-7.6h4.5c-1.8 7.2-7.6 12.1-15 12.1-4.3 0-8.2-1.8-11-4.7-2.7-2.9-4.5-6.9-4.5-11.3-.1-4.5 1.7-8.5 4.4-11.4zM713.8 899.2l8.7 13.9 8.7-13.9h5.4L724.8 918v12.9h-4.6V918l-11.7-18.8h5.3zM740.8 903.7c2.8-2.9 6.7-4.7 11-4.7 7.2 0 13 4.5 14.8 11.7H762c-1.7-4.8-5.6-7.2-10.2-7.2-3 0-5.8 1.3-7.8 3.4-2 2.1-3.3 4.9-3.3 8.2 0 3.2 1.3 6 3.3 8.1 2 2.1 4.8 3.4 7.8 3.4 4.8 0 8.9-2.8 10.5-7.6h4.5c-1.8 7.2-7.6 12.1-15 12.1-4.3 0-8.2-1.8-11-4.7-2.7-2.9-4.5-6.9-4.5-11.3 0-4.5 1.8-8.5 4.5-11.4zM776.3 926.3h14.9v4.6h-19.5v-31.7h4.6v27.1zM799.4 926.3h14.7v4.6h-19.3v-31.7h19.3v4.6h-14.7v8.9h14.4v4.6h-14.4v9zM687.2 1012.4h-4.6v-31.7h3.7l10.5 15.4 10.5-15.4h3.6v31.7h-4.5V990l-8.3 12.3h-2.6l-8.3-12.3v22.4zM733.8 1003h-11.4c-1.2 2.9-2.8 6.7-3.8 9.3h-4.9l12.7-32.1h3.4l12.7 32.1h-4.9l-3.8-9.3zm-9.7-4.3h7.9l-3.9-11.2-4 11.2zM756.3 980.7c6.8 0 10.3 5.3 10.3 10.6s-3.4 10.6-10.3 10.6h-7v10.6h-4.6v-31.7h11.6zm0 16.6c3.9 0 5.8-3 5.8-6s-1.9-6-5.8-6h-7v12h7z"/></g><g fill="#FFF" stroke="#1EA139" stroke-width="3" stroke-miterlimit="10"><path d="M659.5 947.1c-.7-3.2-4.2-4.6-7.3-4.5-2.4.1-5 .9-6.5 2.7-.7.9-1 2.1-.9 3.3.3 3.7 4.3 4.1 8.1 4.5 4.9.6 11 1.9 12.3 7.6.2.8.3 1.6.3 2.3 0 6.9-6.8 10.9-13.2 10.9-5.5 0-12.2-3.3-12.8-9.6l-.1-1 5.2-.1.1.8v-.2c.4 3.3 4.4 5 7.7 5 3.8 0 8-2.1 8-5.8 0-.4-.1-.8-.2-1.2-.6-2.7-4.3-3.2-7.8-3.5-5.6-.6-12.1-1.8-12.6-9.2v.1c-.2-2.4.4-4.8 1.9-6.8 2.4-3.1 6.7-4.7 10.8-4.7 5.5 0 11.2 2.9 12.1 9.4h-5.1zM689.9 963.1h-12.8c-1.4 3.3-3.2 7.5-4.3 10.5h-5.6l14.3-36.1h3.8l14.3 36.1h-5.5l-4.2-10.5zm-10.8-4.8h8.9l-4.4-12.6-4.5 12.6zM707.2 973.6h-5.1V938h21.2v5.1h-16.1v10h14.3v5.2h-14.3v15.3zM732.2 968.4h16.6v5.1H727V938h21.7v5.1h-16.5v10h16.2v5.2h-16.2v10.1zM762.1 973.7v-30.6h-10.8v-5.2H778v5.2h-10.8v30.6h-5.1zM785.1 938l9.7 15.6 9.7-15.6h6.1l-13.2 21.1v14.5h-5.2v-14.5L779 938h6.1z"/></g><path fill="#FFF" d="M788.6 807.9c-7.3-2.6-14.2-2.4-20.5-.7l-18.9-43.3c-.8-1.9-2.7-3.1-4.7-3.1h-22.1c-1.5 0-2.7 1.2-2.7 2.7v4.9c0 1.5 1.2 2.7 2.7 2.7h17c1.1 0 2 .6 2.4 1.6l5.5 12.6c.8 1.8-.5 3.7-2.4 3.7h-38.6c-1.1 0-2-.6-2.4-1.6l-3.5-8h7.4c1.5 0 2.7-1.2 2.7-2.7v-4.9c0-1.5-1.2-2.7-2.7-2.7h-26.3c-1.5 0-2.7 1.2-2.7 2.7v4.9c0 1.5 1.2 2.7 2.7 2.7h6c1.1 0 2 .6 2.4 1.6l5 11.6c.4.9.3 1.9-.3 2.6l-11.1 15c-5.3-2.9-11.3-4.4-17.8-4.2-19.2.5-34.9 16.9-34.5 36.1.4 19.3 16.1 34.8 35.5 34.8 17.1 0 31.3-12.1 34.7-28.2.3-1.3 1.3-2.2 2.6-2.2h17.8c1.7 0 3.2-.8 4.2-2.2l26.3-37.7c1.2-1.7 3.8-1.4 4.6.5l1.8 4.2c-11.3 7-18.4 20.2-16.5 34.9 2 15.5 14.4 28.1 29.9 30.3 22.5 3.3 41.8-14.7 40.7-36.9-.7-14.4-10.5-26.9-24.2-31.7zm-86.5 1.1l10.3 23.6c-1.1 1.6-1.4 2.1-2.4 3.7h-6c-1-.8-1.6-1.3-2.6-2.1-1.3-6.2-4.2-11.8-8.2-16.3-.1-1.3-.1-2.1-.2-3.4l4.5-6c2 .2 2.5.2 4.6.5zm-14.4 18.5c1.1 1.6 2 3.4 2.7 5.3.6 1.7-.7 3.5-2.5 3.5h-11.1l6.6-8.9c1.1-1.4 3.3-1.4 4.3.1zm-21.1 39.2c-14.1 0-25.5-11.5-25.3-25.7.2-13.1 10.9-24.2 24.1-24.8 3-.1 5.8.2 8.4 1 1.7.5 2.4 2.7 1.3 4.1l-12.6 17c-1.2 1.6-1.3 3.6-.5 5.3.9 1.7 2.6 2.8 4.6 2.8h21.2c1.8 0 3.2 1.8 2.5 3.5-3.4 9.8-12.7 16.8-23.7 16.8zm54.3-40.1l-10.3-23.7c-.8-1.8.5-3.7 2.4-3.7h26.9c2.2 0 3.4 2.4 2.2 4.2l-16.6 23.7c-1.2 1.7-3.8 1.4-4.6-.5zm53.9 39.9c-11.5-1.1-21-10.3-22.5-21.8-1.1-8.5 2.1-16.3 7.7-21.6 1.3-1.3 3.5-.7 4.2.9l7.4 17c.6 1.3 2.2 2 3.5 1.4l4.5-2c1.3-.6 2-2.2 1.4-3.5l-7.4-17c-.7-1.7.4-3.6 2.2-3.7 2.6-.2 5.4.1 8.2.8 9.7 2.6 17.1 11 18.4 20.9 2.2 16.4-11.3 30.3-27.6 28.6z"/><path fill="#040000" d="M818.7 813.9c.8-1.2 2-1.2 2.8 0l3.5 5.6c.8 1.2 2.5 1.8 3.9 1.3l6.1-2.5c1.4-.6 2.4.2 2.3 1.6l-.5 6.6c-.1 1.5 1 2.9 2.4 3.3l6.4 1.6c1.4.3 1.8 1.5.9 2.7l-4.2 5c-.9 1.1-.9 2.9 0 4.1l4.2 5c.9 1.1.6 2.3-.9 2.7l-6.4 1.6c-1.4.3-2.5 1.8-2.4 3.3l.5 6.6c.1 1.5-.9 2.2-2.3 1.6l-6.1-2.5c-1.4-.6-3.1 0-3.9 1.3l-3.5 5.6c-.8 1.2-2 1.2-2.8 0l-3.5-5.6c-.8-1.2-2.5-1.8-3.9-1.3l-6.1 2.5c-1.4.6-2.4-.2-2.3-1.6l.5-6.6c.1-1.5-1-2.9-2.4-3.3l-6.4-1.6c-1.4-.3-1.8-1.5-.9-2.7l4.2-5c.9-1.1.9-2.9 0-4.1l-4.2-5c-.9-1.1-.6-2.3.9-2.7l6.4-1.6c1.4-.3 2.5-1.8 2.4-3.3l-.5-6.6c-.1-1.5.9-2.2 2.3-1.6l6.1 2.5c1.4.6 3.1 0 3.9-1.3l3.5-5.6z"/></g></g><g fill="none" stroke="#9DA29E" stroke-width=".3" stroke-miterlimit="10"><path opacity=".6" d="M471.5 1180.7H972M471.5 1059.5H972M471.5 1423.1H972M471.5 1301.9H972M471.5 1665.5H972M471.5 1544.3H972"/></g><g><path fill="#FFF" d="M141.5 2067h52v386h-52c-11 0-20-9-20-20v-346c0-11.1 8.9-20 20-20z"/><path fill="none" stroke="#1EA139" stroke-width="3" stroke-miterlimit="10" d="M152 2275.5l14.7-14.8L152 2246"/></g><g><text transform="translate(-168.18 2377.51)" fill="#FFF" font-family="'KozGoPro-Heavy-83pv-RKSJ-H'" font-size="41.423" letter-spacing="1">メニュー</text><g fill="#FFF"><path d="M-167.7 2140.5H1.9v22.5h-169.6zM-167.7 2210.7H1.9v22.5h-169.6zM-167.7 2280.9H1.9v22.5h-169.6z"/></g></g><g><g fill="#FFF"><path d="M-1647 2350.6c3.1 1.3 6.5 3 9.9 4.8 1.9-3 4.7-8.3 6.7-13.1l7.8 3.3c-.2.5-.8.7-1.7.7-1.9 3.9-4.6 8.9-7 12.5 1.9 1.2 5 3.2 7.4 5.2l-4.2 6.1c-1.8-1.7-4.3-3.8-7.1-5.7-4.1 5.5-9.6 11-15.5 14.8-1.1-1.3-3.7-3.6-5.3-4.6 5.6-3.4 11.2-8.3 15.2-13.5-3.2-1.9-6.6-3.6-9.7-5.1l3.5-5.4zM-1578.2 2368.9v6.1h-34.6v-6.1h34.6zm-4.2-21.1v6.1h-26.2v-6.1h26.2zM-1538.2 2371.2v4.9h-28.3v-4.9h15.7c.6-3.6 1.2-9.2 1.7-12.6h-14.3v-4.9h16l.9-.3 4 1.7c-.1.3-.4.6-.7.7-.5 3.8-1.7 11.6-2.3 15.4h7.3zM-1526.8 2357h34.6v6.3h-32.8c-.3.4-.9.7-1.5.8l-.3-7.1z"/></g><g fill="#FFF"><path d="M-1658.7 2139.5h169.6v22.5h-169.6zM-1658.7 2209.7h169.6v22.5h-169.6zM-1658.7 2279.9h169.6v22.5h-169.6z"/></g></g><g><path fill="#1EA139" d="M1331 983.8c0 83.5-77 152.1-147.9 273.5-5.6 9.5-19.3 9.4-24.6-.2-61.7-111.2-148.6-190.3-148.6-273.2 0-88.5 71.9-160.3 160.6-160.3 88.6-.1 160.5 71.6 160.5 160.2z"/><g fill="#FFF"><path d="M1102.4 1013.1c4 0 6.5 2.3 7.7 5.2 1.3 3.1.9 6.7-2.3 9 3.6 1.5 4.9 4.9 4.9 7.9 0 4.8-3.1 9.6-9.2 9.6h-14.3v-31.7h13.2zm-8.7 12.6h8.6c5 0 5.1-8.2.1-8.2h-8.7v8.2zm0 14.7h9.8c3.1 0 4.6-2.6 4.6-5.1s-1.5-5-4.6-5h-9.8v10.1zM1119.7 1013.1h3.8v31.7h-3.8zM1134.6 1017.7c2.8-2.9 6.7-4.7 11-4.7 7.2 0 13 4.5 14.8 11.7h-4.5c-1.7-4.8-5.6-7.2-10.2-7.2-3 0-5.8 1.3-7.8 3.4-2 2.1-3.3 4.9-3.3 8.2 0 3.2 1.3 6 3.3 8.1 2 2.1 4.8 3.4 7.8 3.4 4.8 0 8.9-2.8 10.5-7.6h4.5c-1.8 7.2-7.6 12.1-15 12.1-4.3 0-8.2-1.8-11-4.7-2.7-2.9-4.5-6.9-4.5-11.3-.2-4.6 1.6-8.5 4.4-11.4zM1166 1013.1l8.7 13.9 8.7-13.9h5.4l-11.8 18.8v12.9h-4.6v-12.9l-11.7-18.8h5.3zM1193 1017.7c2.8-2.9 6.7-4.7 11-4.7 7.2 0 13 4.5 14.8 11.7h-4.5c-1.7-4.8-5.6-7.2-10.2-7.2-3 0-5.8 1.3-7.8 3.4-2 2.1-3.3 4.9-3.3 8.2 0 3.2 1.3 6 3.3 8.1 2 2.1 4.8 3.4 7.8 3.4 4.8 0 8.9-2.8 10.5-7.6h4.5c-1.8 7.2-7.6 12.1-15 12.1-4.3 0-8.2-1.8-11-4.7-2.7-2.9-4.5-6.9-4.5-11.3-.1-4.6 1.7-8.5 4.4-11.4zM1228.5 1040.2h14.9v4.6h-19.5v-31.7h4.6v27.1zM1251.6 1040.2h14.7v4.6H1247v-31.7h19.3v4.6h-14.7v8.9h14.4v4.6h-14.4v9zM1139.4 1126.3h-4.6v-31.7h3.7l10.5 15.4 10.5-15.4h3.6v31.7h-4.5V1104l-8.3 12.3h-2.6l-8.3-12.3v22.3zM1186 1117h-11.4c-1.2 2.9-2.8 6.7-3.8 9.3h-4.9l12.7-32.1h3.4l12.7 32.1h-4.9l-3.8-9.3zm-9.7-4.3h7.9l-3.9-11.2-4 11.2zM1208.5 1094.6c6.8 0 10.3 5.3 10.3 10.6s-3.4 10.6-10.3 10.6h-7v10.6h-4.6v-31.7h11.6zm0 16.6c3.9 0 5.8-3 5.8-6s-1.9-6-5.8-6h-7v12h7z"/></g><g fill="#FFF" stroke="#1EA139" stroke-width="3" stroke-miterlimit="10"><path d="M1111.7 1061.1c-.7-3.2-4.2-4.6-7.3-4.5-2.4.1-5 .9-6.5 2.7-.7.9-1 2.1-.9 3.3.3 3.7 4.3 4.1 8.1 4.5 4.9.6 11 1.9 12.3 7.6.2.8.3 1.6.3 2.3 0 6.9-6.8 10.9-13.2 10.9-5.5 0-12.2-3.3-12.8-9.6l-.1-1 5.2-.1.1.8v-.2c.4 3.3 4.4 5 7.7 5 3.8 0 8-2.1 8-5.8 0-.4-.1-.8-.2-1.2-.6-2.7-4.3-3.2-7.8-3.5-5.6-.6-12.1-1.8-12.6-9.2v.1c-.2-2.4.4-4.8 1.9-6.8 2.4-3.1 6.7-4.7 10.8-4.7 5.5 0 11.2 2.9 12.1 9.4h-5.1zM1142.1 1077h-12.8c-1.4 3.3-3.2 7.5-4.3 10.5h-5.6l14.3-36.1h3.8l14.3 36.1h-5.5l-4.2-10.5zm-10.8-4.8h8.9l-4.4-12.6-4.5 12.6zM1159.5 1087.5h-5.1v-35.6h21.2v5.1h-16.1v10h14.3v5.2h-14.3v15.3zM1184.4 1082.4h16.6v5.1h-21.8v-35.6h21.7v5.1h-16.5v10h16.2v5.2h-16.2v10.2zM1214.3 1087.7v-30.6h-10.8v-5.2h26.7v5.2h-10.8v30.6h-5.1zM1237.3 1051.9l9.7 15.6 9.7-15.6h6.1l-13.2 21.1v14.5h-5.2V1073l-13.2-21.1h6.1z"/></g><path fill="#FFF" d="M1240.8 921.8c-7.3-2.6-14.2-2.4-20.5-.7l-18.9-43.3c-.8-1.9-2.7-3.1-4.7-3.1h-22.1c-1.5 0-2.7 1.2-2.7 2.7v4.9c0 1.5 1.2 2.7 2.7 2.7h17c1.1 0 2 .6 2.4 1.6l5.5 12.6c.8 1.8-.5 3.7-2.4 3.7h-38.6c-1.1 0-2-.6-2.4-1.6l-3.5-8h7.4c1.5 0 2.7-1.2 2.7-2.7v-4.9c0-1.5-1.2-2.7-2.7-2.7h-26.3c-1.5 0-2.7 1.2-2.7 2.7v4.9c0 1.5 1.2 2.7 2.7 2.7h6c1.1 0 2 .6 2.4 1.6l5 11.6c.4.9.3 1.9-.3 2.6l-11.1 15c-5.3-2.9-11.3-4.4-17.8-4.2-19.2.5-34.9 16.9-34.5 36.1.4 19.3 16.1 34.8 35.5 34.8 17.1 0 31.3-12.1 34.7-28.2.3-1.3 1.3-2.2 2.6-2.2h17.8c1.7 0 3.2-.8 4.2-2.2l26.3-37.7c1.2-1.7 3.8-1.4 4.6.5l1.8 4.2c-11.3 7-18.4 20.2-16.5 34.9 2 15.5 14.4 28.1 29.9 30.3 22.5 3.3 41.8-14.7 40.7-36.9-.6-14.4-10.5-26.9-24.2-31.7zm-86.5 1.1l10.3 23.6c.8 1.8-.5 3.7-2.4 3.7h-5.9c-1.3 0-2.4-.9-2.6-2.2-1.3-6.1-4.1-11.7-8.1-16.2-.9-1-1-2.4-.2-3.4l4.5-6c1-1.6 3.6-1.3 4.4.5zm-14.4 18.5c1.1 1.6 2 3.4 2.7 5.3.6 1.7-.7 3.5-2.5 3.5H1129l6.6-8.9c1.1-1.3 3.3-1.4 4.3.1zm-21 39.2c-14.1 0-25.5-11.5-25.3-25.7.2-13.1 10.9-24.2 24.1-24.8 3-.1 5.8.2 8.4 1 1.7.5 2.4 2.7 1.3 4.1l-12.6 17c-1.2 1.6-1.3 3.6-.5 5.3.9 1.7 2.6 2.8 4.6 2.8h21.2c1.8 0 3.2 1.8 2.5 3.5-3.5 9.9-12.8 16.8-23.7 16.8zm54.2-40l-10.3-23.7c-.8-1.8.5-3.7 2.4-3.7h26.9c2.2 0 3.4 2.4 2.2 4.2l-16.6 23.7c-1.2 1.7-3.8 1.4-4.6-.5zm53.9 39.9c-11.5-1.1-21-10.3-22.5-21.8-1.1-8.5 2.1-16.3 7.7-21.6 1.3-1.3 3.5-.7 4.2.9l7.4 17c.6 1.3 2.2 2 3.5 1.4l4.5-2c1.3-.6 2-2.2 1.4-3.5l-7.4-17c-.7-1.7.4-3.6 2.2-3.7 2.6-.2 5.4.1 8.2.8 9.7 2.6 17.1 11 18.4 20.9 2.3 16.3-11.3 30.2-27.6 28.6z"/><path fill="#040000" d="M1270.9 927.9c.8-1.2 2-1.2 2.8 0l3.5 5.6c.8 1.2 2.5 1.8 3.9 1.3l6.1-2.5c1.4-.6 2.4.2 2.3 1.6l-.5 6.6c-.1 1.5 1 2.9 2.4 3.3l6.4 1.6c1.4.3 1.8 1.5.9 2.7l-4.2 5c-.9 1.1-.9 2.9 0 4.1l4.2 5c.9 1.1.6 2.3-.9 2.7l-6.4 1.6c-1.4.3-2.5 1.8-2.4 3.3l.5 6.6c.1 1.5-.9 2.2-2.3 1.6l-6.1-2.5c-1.4-.6-3.1 0-3.9 1.3l-3.5 5.6c-.8 1.2-2 1.2-2.8 0l-3.5-5.6c-.8-1.2-2.5-1.8-3.9-1.3l-6.1 2.5c-1.4.6-2.4-.2-2.3-1.6l.5-6.6c.1-1.5-1-2.9-2.4-3.3l-6.4-1.6c-1.4-.3-1.8-1.5-.9-2.7l4.2-5c.9-1.1.9-2.9 0-4.1l-4.2-5c-.9-1.1-.6-2.3.9-2.7l6.4-1.6c1.4-.3 2.5-1.8 2.4-3.3l-.5-6.6c-.1-1.5.9-2.2 2.3-1.6l6.1 2.5c1.4.6 3.1 0 3.9-1.3l3.5-5.6z"/></g><g><defs><path id="r" d="M-.5-.5h499v415H-.5z"/></defs><use xlink:href="#r" overflow="visible" fill="#FDFDFD"/><clipPath id="s"><use xlink:href="#r" overflow="visible"/></clipPath><g clip-path="url(#s)"><path fill="#1EA139" d="M405.8 224.8c0 83.5-77 152.1-147.9 273.5-5.6 9.5-19.3 9.4-24.6-.2C171.5 386.9 84.6 307.8 84.6 224.8c0-88.5 71.9-160.3 160.6-160.3 88.6 0 160.6 71.8 160.6 160.3z"/></g><g fill="#FFF" clip-path="url(#s)"><path d="M177.2 254.2c4 0 6.5 2.3 7.7 5.2 1.3 3.1.9 6.8-2.3 9 3.6 1.5 4.9 4.9 4.9 7.9 0 4.8-3.1 9.6-9.2 9.6H164v-31.7h13.2zm-8.7 12.6h8.6c5 0 5.1-8.2.1-8.2h-8.7v8.2zm0 14.6h9.8c3.1 0 4.6-2.6 4.6-5.1s-1.5-5-4.6-5h-9.8v10.1zM194.5 254.2h3.8v31.7h-3.8zM209.3 258.7c2.8-2.9 6.7-4.7 11-4.7 7.2 0 13 4.5 14.8 11.7h-4.5c-1.7-4.8-5.6-7.2-10.2-7.2-3 0-5.8 1.3-7.8 3.4-2 2.1-3.3 4.9-3.3 8.2 0 3.2 1.3 6 3.3 8.1 2 2.1 4.8 3.4 7.8 3.4 4.8 0 8.9-2.8 10.5-7.6h4.5c-1.8 7.2-7.6 12.1-15 12.1-4.3 0-8.2-1.8-11-4.7-2.7-2.9-4.5-6.9-4.5-11.3-.1-4.5 1.7-8.5 4.4-11.4zM240.8 254.2l8.7 13.9 8.7-13.9h5.4L251.8 273v12.9h-4.6V273l-11.7-18.8h5.3zM267.8 258.7c2.8-2.9 6.7-4.7 11-4.7 7.2 0 13 4.5 14.8 11.7H289c-1.7-4.8-5.6-7.2-10.2-7.2-3 0-5.8 1.3-7.8 3.4-2 2.1-3.3 4.9-3.3 8.2 0 3.2 1.3 6 3.3 8.1 2 2.1 4.8 3.4 7.8 3.4 4.8 0 8.9-2.8 10.5-7.6h4.5c-1.8 7.2-7.6 12.1-15 12.1-4.3 0-8.2-1.8-11-4.7-2.7-2.9-4.5-6.9-4.5-11.3 0-4.5 1.8-8.5 4.5-11.4zM303.3 281.3h14.9v4.6h-19.5v-31.7h4.6v27.1zM326.4 281.3h14.7v4.6h-19.3v-31.7h19.3v4.6h-14.7v8.9h14.4v4.6h-14.4v9zM214.2 367.4h-4.6v-31.7h3.7l10.5 15.4 10.5-15.4h3.6v31.7h-4.5V345l-8.3 12.3h-2.6l-8.3-12.3v22.4zM260.8 358h-11.4c-1.2 2.9-2.8 6.7-3.8 9.3h-4.9l12.7-32.1h3.4l12.7 32.1h-4.9l-3.8-9.3zm-9.7-4.3h7.9l-3.9-11.2-4 11.2zM283.3 335.6c6.8 0 10.3 5.3 10.3 10.6s-3.4 10.6-10.3 10.6h-7v10.6h-4.6v-31.7h11.6zm0 16.7c3.9 0 5.8-3 5.8-6s-1.9-6-5.8-6h-7v12h7z"/></g><g clip-path="url(#s)" fill="#FFF" stroke="#1EA139" stroke-width="3" stroke-miterlimit="10"><path d="M186.5 302.1c-.7-3.2-4.2-4.6-7.3-4.5-2.4.1-5 .9-6.5 2.7-.7.9-1 2.1-.9 3.3.3 3.7 4.3 4.1 8.1 4.5 4.9.6 11 1.9 12.3 7.6.2.8.3 1.6.3 2.3 0 6.9-6.8 10.9-13.2 10.9-5.5 0-12.2-3.3-12.8-9.6l-.1-1 5.2-.1.1.8v-.2c.4 3.3 4.4 5 7.7 5 3.8 0 8-2.1 8-5.8 0-.4-.1-.8-.2-1.2-.6-2.7-4.3-3.2-7.8-3.5-5.6-.6-12.1-1.8-12.6-9.2v.1c-.2-2.4.4-4.8 1.9-6.8 2.4-3.1 6.7-4.7 10.8-4.7 5.5 0 11.2 2.9 12.1 9.4h-5.1zM216.9 318.1h-12.8c-1.4 3.3-3.2 7.5-4.3 10.5h-5.6l14.3-36.1h3.8l14.3 36.1h-5.5l-4.2-10.5zm-10.8-4.9h8.9l-4.4-12.6-4.5 12.6zM234.2 328.6h-5.1V293h21.2v5.1h-16.1v10h14.3v5.2h-14.3v15.3zM259.2 323.4h16.6v5.1H254V293h21.7v5.1h-16.5v10h16.2v5.2h-16.2v10.1zM289.1 328.7v-30.6h-10.8v-5.2H305v5.2h-10.8v30.6h-5.1zM312.1 293l9.7 15.6 9.7-15.6h6.1l-13.2 21.1v14.5h-5.2v-14.5L306 293h6.1z"/></g><g clip-path="url(#s)"><path fill="#FFF" d="M315.6 162.8c-7.3-2.6-14.2-2.4-20.5-.7l-18.9-43.3c-.8-1.9-2.7-3.1-4.7-3.1h-22.1c-1.5 0-2.7 1.2-2.7 2.7v4.9c0 1.5 1.2 2.7 2.7 2.7h17c1.1 0 2 .6 2.4 1.6l5.5 12.6c.8 1.8-.5 3.7-2.4 3.7h-38.6c-1.1 0-2-.6-2.4-1.6l-3.5-8h7.4c1.5 0 2.7-1.2 2.7-2.7v-4.9c0-1.5-1.2-2.7-2.7-2.7h-26.3c-1.5 0-2.7 1.2-2.7 2.7v4.9c0 1.5 1.2 2.7 2.7 2.7h6c1.1 0 2 .6 2.4 1.6l5 11.6c.4.9.3 1.9-.3 2.6l-11.1 15c-5.3-2.9-11.3-4.4-17.8-4.2-19.2.5-34.9 16.9-34.5 36.1.4 19.3 16.1 34.8 35.5 34.8 17.1 0 31.3-12.1 34.7-28.2.3-1.3 1.3-2.2 2.6-2.2h17.8c1.7 0 3.2-.8 4.2-2.2l26.3-37.7c1.2-1.7 3.8-1.4 4.6.5l1.8 4.2c-11.3 7-18.4 20.2-16.5 34.9 2 15.5 14.4 28.1 29.9 30.3 22.5 3.3 41.8-14.7 40.7-36.9-.7-14.3-10.5-26.9-24.2-31.7zm-86.5 1.2l10.3 23.6c-1.1 1.6-1.4 2.1-2.4 3.7h-6c-1-.8-1.6-1.3-2.6-2.1-1.3-6.2-4.2-11.8-8.2-16.3-.1-1.3-.1-2.1-.2-3.4l4.5-6c2 .2 2.5.2 4.6.5zm-14.4 18.5c1.1 1.6 2 3.4 2.7 5.3.6 1.7-.7 3.5-2.5 3.5h-11.1l6.6-8.9c1.1-1.4 3.3-1.4 4.3.1zm-21 39.2c-14.1 0-25.5-11.5-25.3-25.7.2-13.1 10.9-24.2 24.1-24.8 3-.1 5.8.2 8.4 1 1.7.5 2.4 2.7 1.3 4.1l-12.6 17c-1.2 1.6-1.3 3.6-.5 5.3.9 1.7 2.6 2.8 4.6 2.8h21.2c1.8 0 3.2 1.8 2.5 3.5-3.5 9.8-12.8 16.8-23.7 16.8zm54.2-40.1l-10.3-23.7c-.8-1.8.5-3.7 2.4-3.7h26.9c2.2 0 3.4 2.4 2.2 4.2l-16.6 23.7c-1.2 1.7-3.8 1.4-4.6-.5zm53.9 39.9c-11.5-1.1-21-10.3-22.5-21.8-1.1-8.5 2.1-16.3 7.7-21.6 1.3-1.3 3.5-.7 4.2.9l7.4 17c.6 1.3 2.2 2 3.5 1.4l4.5-2c1.3-.6 2-2.2 1.4-3.5l-7.4-17c-.7-1.7.4-3.6 2.2-3.7 2.6-.2 5.4.1 8.2.8 9.7 2.6 17.1 11 18.4 20.9 2.2 16.4-11.3 30.3-27.6 28.6z"/><path fill="#040000" d="M345.7 168.9c.8-1.2 2-1.2 2.8 0l3.5 5.6c.8 1.2 2.5 1.8 3.9 1.3l6.1-2.5c1.4-.6 2.4.2 2.3 1.6l-.5 6.6c-.1 1.5 1 2.9 2.4 3.3l6.4 1.6c1.4.3 1.8 1.5.9 2.7l-4.2 5c-.9 1.1-.9 2.9 0 4.1l4.2 5c.9 1.1.6 2.3-.9 2.7l-6.4 1.6c-1.4.3-2.5 1.8-2.4 3.3l.5 6.6c.1 1.5-.9 2.2-2.3 1.6l-6.1-2.5c-1.4-.6-3.1 0-3.9 1.3l-3.5 5.6c-.8 1.2-2 1.2-2.8 0l-3.5-5.6c-.8-1.2-2.5-1.8-3.9-1.3l-6.1 2.5c-1.4.6-2.4-.2-2.3-1.6l.5-6.6c.1-1.5-1-2.9-2.4-3.3l-6.4-1.6c-1.4-.3-1.8-1.5-.9-2.7l4.2-5c.9-1.1.9-2.9 0-4.1l-4.2-5c-.9-1.1-.6-2.3.9-2.7l6.4-1.6c1.4-.3 2.5-1.8 2.4-3.3l-.5-6.6c-.1-1.5.9-2.2 2.3-1.6l6.1 2.5c1.4.6 3.1 0 3.9-1.3l3.5-5.6z"/></g></g></g></svg>