<?xml version="1.0" encoding="utf-8"?>
<!-- Generator: Adobe Illustrator 18.1.1, SVG Export Plug-In . SVG Version: 6.00 Build 0)  -->
<!DOCTYPE svg PUBLIC "-//W3C//DTD SVG 1.1//EN" "http://www.w3.org/Graphics/SVG/1.1/DTD/svg11.dtd">
<svg version="1.1" id="レイヤー_1" xmlns="http://www.w3.org/2000/svg" xmlns:xlink="http://www.w3.org/1999/xlink" x="0px"
	 y="0px" viewBox="0 0 41.9 35.5" enable-background="new 0 0 41.9 35.5" xml:space="preserve">
<g>
	<path fill="#1EA139" d="M2.5,19.3c-0.6,0-1.3-0.2-1.8-0.7c-1-1-1-2.6,0-3.6L15,0.7c1-1,2.6-1,3.6,0c1,1,1,2.6,0,3.6L4.3,18.6
		C3.8,19.1,3.2,19.3,2.5,19.3z"/>
	<path fill="#1EA139" d="M39.4,10.3h-16c-1.4,0-2.5-1.1-2.5-2.5s1.1-2.5,2.5-2.5h16c1.4,0,2.5,1.1,2.5,2.5S40.8,10.3,39.4,10.3z"/>
	<path fill="#1EA139" d="M39.4,18.7H15.8c-1.4,0-2.5-1.1-2.5-2.5s1.1-2.5,2.5-2.5h23.6c1.4,0,2.5,1.1,2.5,2.5S40.8,18.7,39.4,18.7z"
		/>
	<path fill="#1EA139" d="M39.4,27.1H9.1c-1.4,0-2.5-1.1-2.5-2.5S7.7,22,9.1,22h30.3c1.4,0,2.5,1.1,2.5,2.5S40.8,27.1,39.4,27.1z"/>
	<path fill="#1EA139" d="M39.4,35.5H9.1c-1.4,0-2.5-1.1-2.5-2.5s1.1-2.5,2.5-2.5h30.3c1.4,0,2.5,1.1,2.5,2.5S40.8,35.5,39.4,35.5z"
		/>
</g>
</svg>
