<svg xmlns="http://www.w3.org/2000/svg" xmlns:xlink="http://www.w3.org/1999/xlink" viewBox="0 0 46.6 46.6"><text transform="translate(-2771.267 1236.288)"><tspan x="0" y="0" font-family="'KozGoPro-Light-83pv-RKSJ-H'" font-size="21">文字だけ写真なし</tspan><tspan x="0" y="73.5" font-family="'KozGoPro-Light-83pv-RKSJ-H'" font-size="21">リストでは塊として表示するか、単体で表示するか</tspan><tspan x="0" y="110.2" font-family="'KozGoPro-Light-83pv-RKSJ-H'" font-size="21">タイトルは住所にするか状況にするか</tspan></text><path fill="#FFF" d="M-476.5 1469.3h500v2000h-500z"/><path fill="#FDFDFD" d="M-476.3 2005.5H23.9v121.2h-500.2z"/><text transform="translate(-359.517 1952.29)"><tspan x="0" y="0" fill="#626161" font-family="'HelveticaNeueCE-Thin'" font-size="32" letter-spacing="1">HOME</tspan><tspan x="0" y="122" fill="#626161" font-family="'HelveticaNeueCE-Thin'" font-size="32" letter-spacing="1">SAFETY MAP</tspan><tspan x="0" y="244" fill="#626161" font-family="'HelveticaNeueCE-Thin'" font-size="32" letter-spacing="1">CONSEPT</tspan><tspan x="0" y="366" fill="#626161" font-family="'HelveticaNeueCE-Thin'" font-size="32" letter-spacing="1">HELP</tspan><tspan x="0" y="488.7" fill="#626161" font-family="'KozGoPro-ExtraLight-83pv-RKSJ-H'" font-size="32" letter-spacing="1">運営</tspan></text><path fill="#FF77D6" d="M-414.9 1929.1l10.3 7.8v14.4h-20.7v-14.4l10.4-7.8m0-8.1c-.6 0-1.2.2-1.6.5l-14.2 10.7c-.9.7-1.6 2.1-1.6 3.2v20.9c0 1.1.9 2 2 2h30.7c1.1 0 2-.9 2-2v-20.9c0-1.1-.7-2.5-1.6-3.2l-14.2-10.7c-.3-.3-.9-.5-1.5-.5z"/><circle fill="#DDB588" cx="-414.9" cy="2307.4" r="23.3"/><path fill="#FFF" d="M-413 2311.5l-3.8-.1c.1-2.9 1.8-4.7 3-6 1-1.1 1.6-1.7 1.6-2.6 0-1.5-1.2-2.7-2.7-2.7s-2.7 1.2-2.7 2.7h-3.8c0-3.6 3-6.6 6.6-6.6s6.6 3 6.6 6.6c0 2.5-1.5 4-2.7 5.2-1.3 1.4-2.1 2.2-2.1 3.5z"/><circle fill="#FFF" cx="-414.9" cy="2316.3" r="2.7"/><path fill="#38D4EA" d="M-437 2196.9c1.3 1.5 3.7 1.6 5 .1l11.3-11.6c.8-.9 2.3-.3 2.3.9v22.4c0 1.8 1.3 3.4 3.1 3.5 2 .2 3.7-1.4 3.7-3.4v-22.5c0-1.2 1.5-1.8 2.3-.9l11.3 11.6c1.4 1.4 3.7 1.4 5-.1 1.2-1.3 1-3.4-.2-4.7l-19.4-20c-.6-.7-1.5-1-2.5-1-.9 0-1.8.4-2.5 1l-19.4 20c-1 1.3-1.1 3.3 0 4.7z"/><g fill="#DDB588"><path d="M-414.9 2424.9c-5.1 0-9.3-4.2-9.3-9.3s4.2-9.3 9.3-9.3c5.1 0 9.3 4.2 9.3 9.3s-4.2 9.3-9.3 9.3zm0-12.6c-1.8 0-3.3 1.5-3.3 3.3 0 1.8 1.5 3.3 3.3 3.3s3.3-1.5 3.3-3.3c0-1.8-1.5-3.3-3.3-3.3zM-400 2448.8c-1.7 0-3-1.3-3-3 0-6.6-5.3-11.9-11.9-11.9s-11.9 5.3-11.9 11.9c0 1.7-1.3 3-3 3s-3-1.3-3-3c0-9.9 8-17.9 17.9-17.9s17.9 8 17.9 17.9c0 1.6-1.3 3-3 3z"/></g><path fill="#1EA139" d="M-414.9 2047.3c6.4 0 11.6 5.2 11.6 11.6 0 4.3-3.3 9-7.9 15.5-1.2 1.7-2.4 3.4-3.7 5.3-1.3-1.9-2.6-3.7-3.8-5.4-4.3-6.1-8-11.3-8-15.4.2-6.4 5.4-11.6 11.8-11.6m0-7c-10.3 0-18.6 8.3-18.6 18.6 0 9.6 10.1 18.8 17.3 31.7.3.6.9.8 1.4.8.6 0 1.1-.3 1.4-.8 8.2-14.1 17.2-22.1 17.2-31.7-.1-10.3-8.4-18.6-18.7-18.6z"/><defs><path id="a" d="M-476.5 1469.3h500v415h-500z"/></defs><use xlink:href="#a" overflow="visible" fill="#FDFDFD"/><clipPath id="b"><use xlink:href="#a" overflow="visible"/></clipPath><g clip-path="url(#b)"><path fill="#FF77D6" d="M-69.3 1694.6c0 83.5-77 152.1-147.9 273.5-5.6 9.5-19.3 9.4-24.6-.2-61.7-111.2-148.6-190.3-148.6-273.2 0-88.5 71.9-160.3 160.6-160.3 88.6-.1 160.5 71.6 160.5 160.2z"/><g fill="#040000"><path d="M-297.8 1723.9c4 0 6.5 2.3 7.7 5.2 1.3 3.1.9 6.8-2.3 9 3.6 1.5 4.9 4.9 4.9 7.9 0 4.8-3.1 9.6-9.2 9.6H-311v-31.7h13.2zm-8.7 12.6h8.6c5 0 5.1-8.2.1-8.2h-8.7v8.2zm0 14.7h9.8c3.1 0 4.6-2.6 4.6-5.1s-1.5-5-4.6-5h-9.8v10.1zM-280.5 1723.9h3.8v31.7h-3.8zM-265.7 1728.5c2.8-2.9 6.7-4.7 11-4.7 7.2 0 13 4.5 14.8 11.7h-4.5c-1.7-4.8-5.6-7.2-10.2-7.2-3 0-5.8 1.3-7.8 3.4-2 2.1-3.3 4.9-3.3 8.2 0 3.2 1.3 6 3.3 8.1 2 2.1 4.8 3.4 7.8 3.4 4.8 0 8.9-2.8 10.5-7.6h4.5c-1.8 7.2-7.6 12.1-15 12.1-4.3 0-8.2-1.8-11-4.7-2.7-2.9-4.5-6.9-4.5-11.3-.1-4.5 1.7-8.5 4.4-11.4zM-234.2 1723.9l8.7 13.9 8.7-13.9h5.4l-11.8 18.8v12.9h-4.6v-12.9l-11.7-18.8h5.3zM-207.2 1728.5c2.8-2.9 6.7-4.7 11-4.7 7.2 0 13 4.5 14.8 11.7h-4.5c-1.7-4.8-5.6-7.2-10.2-7.2-3 0-5.8 1.3-7.8 3.4-2 2.1-3.3 4.9-3.3 8.2 0 3.2 1.3 6 3.3 8.1 2 2.1 4.8 3.4 7.8 3.4 4.8 0 8.9-2.8 10.5-7.6h4.5c-1.8 7.2-7.6 12.1-15 12.1-4.3 0-8.2-1.8-11-4.7-2.7-2.9-4.5-6.9-4.5-11.3-.1-4.5 1.7-8.5 4.4-11.4zM-171.7 1751h14.9v4.6h-19.5v-31.7h4.6v27.1zM-148.6 1751h14.7v4.6h-19.3v-31.7h19.3v4.6h-14.7v8.9h14.4v4.6h-14.4v9zM-260.8 1837.1h-4.6v-31.7h3.7l10.5 15.4 10.5-15.4h3.6v31.7h-4.5v-22.3l-8.3 12.3h-2.6l-8.3-12.3v22.3zM-214.2 1827.8h-11.4c-1.2 2.9-2.8 6.7-3.8 9.3h-4.9l12.7-32.1h3.4l12.7 32.1h-4.9l-3.8-9.3zm-9.7-4.3h7.9l-3.9-11.2-4 11.2zM-191.7 1805.4c6.8 0 10.3 5.3 10.3 10.6s-3.4 10.6-10.3 10.6h-7v10.6h-4.6v-31.7h11.6zm0 16.7c3.9 0 5.8-3 5.8-6s-1.9-6-5.8-6h-7v12h7z"/></g><g fill="#040000" stroke="#FFF" stroke-width="3" stroke-miterlimit="10"><path d="M-288.5 1771.9c-.7-3.2-4.2-4.6-7.3-4.5-2.4.1-5 .9-6.5 2.7-.7.9-1 2.1-.9 3.3.3 3.7 4.3 4.1 8.1 4.5 4.9.6 11 1.9 12.3 7.6.2.8.3 1.6.3 2.3 0 6.9-6.8 10.9-13.2 10.9-5.5 0-12.2-3.3-12.8-9.6l-.1-1 5.2-.1.1.8v-.2c.4 3.3 4.4 5 7.7 5 3.8 0 8-2.1 8-5.8 0-.4-.1-.8-.2-1.2-.6-2.7-4.3-3.2-7.8-3.5-5.6-.6-12.1-1.8-12.6-9.2v.1c-.2-2.4.4-4.8 1.9-6.8 2.4-3.1 6.7-4.7 10.8-4.7 5.5 0 11.2 2.9 12.1 9.4h-5.1zM-258.1 1787.9h-12.8c-1.4 3.3-3.2 7.5-4.3 10.5h-5.6l14.3-36.1h3.8l14.3 36.1h-5.5l-4.2-10.5zm-10.9-4.9h8.9l-4.4-12.6-4.5 12.6zM-240.8 1798.4h-5.1v-35.6h21.2v5.1h-16.1v10h14.3v5.2h-14.3v15.3zM-215.8 1793.2h16.6v5.1H-221v-35.6h21.7v5.1h-16.5v10h16.2v5.2h-16.2v10.2zM-185.9 1798.5v-30.6h-10.8v-5.2h26.7v5.2h-10.8v30.6h-5.1zM-162.9 1762.7l9.7 15.6 9.7-15.6h6.1l-13.2 21.1v14.5h-5.2v-14.5l-13.2-21.1h6.1z"/></g><path fill="#040000" d="M-159.4 1632.6c-7.3-2.6-14.2-2.4-20.5-.7l-18.9-43.3c-.8-1.9-2.7-3.1-4.7-3.1h-22.1c-1.5 0-2.7 1.2-2.7 2.7v4.9c0 1.5 1.2 2.7 2.7 2.7h17c1.1 0 2 .6 2.4 1.6l5.5 12.6c.8 1.8-.5 3.7-2.4 3.7h-38.6c-1.1 0-2-.6-2.4-1.6l-3.5-8h7.4c1.5 0 2.7-1.2 2.7-2.7v-4.9c0-1.5-1.2-2.7-2.7-2.7h-26.3c-1.5 0-2.7 1.2-2.7 2.7v4.9c0 1.5 1.2 2.7 2.7 2.7h6c1.1 0 2 .6 2.4 1.6l5 11.6c.4.9.3 1.9-.3 2.6l-11.1 15c-5.3-2.9-11.3-4.4-17.8-4.2-19.2.5-34.9 16.9-34.5 36.1.4 19.3 16.1 34.8 35.5 34.8 17.1 0 31.3-12.1 34.7-28.2.3-1.3 1.3-2.2 2.6-2.2h17.8c1.7 0 3.2-.8 4.2-2.2l26.3-37.7c1.2-1.7 3.8-1.4 4.6.5l1.8 4.2c-11.3 7-18.4 20.2-16.5 34.9 2 15.5 14.4 28.1 29.9 30.3 22.5 3.3 41.8-14.7 40.7-36.9-.7-14.3-10.5-26.9-24.2-31.7zm-86.5 1.2l10.3 23.6c.8 1.8-.5 3.7-2.4 3.7h-5.9c-1.3 0-2.4-.9-2.6-2.2-1.3-6.1-4.1-11.7-8.1-16.2-.9-1-1-2.4-.2-3.4l4.5-6c1-1.7 3.5-1.4 4.4.5zm-14.4 18.5c1.1 1.6 2 3.4 2.7 5.3.6 1.7-.7 3.5-2.5 3.5h-11.1l6.6-8.9c1.1-1.4 3.3-1.4 4.3.1zm-21.1 39.2c-14.1 0-25.5-11.5-25.3-25.7.2-13.1 10.9-24.2 24.1-24.8 3-.1 5.8.2 8.4 1 1.7.5 2.4 2.7 1.3 4.1l-12.6 17c-1.2 1.6-1.3 3.6-.5 5.3.9 1.7 2.6 2.8 4.6 2.8h21.2c1.8 0 3.2 1.8 2.5 3.5-3.4 9.8-12.8 16.8-23.7 16.8zm54.3-40.1l-10.3-23.7c-.8-1.8.5-3.7 2.4-3.7h26.9c2.2 0 3.4 2.4 2.2 4.2l-16.6 23.7c-1.2 1.7-3.8 1.4-4.6-.5zm53.9 39.9c-11.5-1.1-21-10.3-22.5-21.8-1.1-8.5 2.1-16.3 7.7-21.6 1.3-1.3 3.5-.7 4.2.9l7.4 17c.6 1.3 2.2 2 3.5 1.4l4.5-2c1.3-.6 2-2.2 1.4-3.5l-7.4-17c-.7-1.7.4-3.6 2.2-3.7 2.6-.2 5.4.1 8.2.8 9.7 2.6 17.1 11 18.4 20.9 2.2 16.3-11.3 30.2-27.6 28.6z"/><path fill="#FFF" d="M-129.3 1638.7c.8-1.2 2-1.2 2.8 0l3.5 5.6c.8 1.2 2.5 1.8 3.9 1.3l6.1-2.5c1.4-.6 2.4.2 2.3 1.6l-.5 6.6c-.1 1.5 1 2.9 2.4 3.3l6.4 1.6c1.4.3 1.8 1.5.9 2.7l-4.2 5c-.9 1.1-.9 2.9 0 4.1l4.2 5c.9 1.1.6 2.3-.9 2.7l-6.4 1.6c-1.4.3-2.5 1.8-2.4 3.3l.5 6.6c.1 1.5-.9 2.2-2.3 1.6l-6.1-2.5c-1.4-.6-3.1 0-3.9 1.3l-3.5 5.6c-.8 1.2-2 1.2-2.8 0l-3.5-5.6c-.8-1.2-2.5-1.8-3.9-1.3l-6.1 2.5c-1.4.6-2.4-.2-2.3-1.6l.5-6.6c.1-1.5-1-2.9-2.4-3.3l-6.4-1.6c-1.4-.3-1.8-1.5-.9-2.7l4.2-5c.9-1.1.9-2.9 0-4.1l-4.2-5c-.9-1.1-.6-2.3.9-2.7l6.4-1.6c1.4-.3 2.5-1.8 2.4-3.3l-.5-6.6c-.1-1.5.9-2.2 2.3-1.6l6.1 2.5c1.4.6 3.1 0 3.9-1.3l3.5-5.6z"/></g><g fill="none" stroke="#9DA29E" stroke-width=".3" stroke-miterlimit="10"><path opacity=".6" d="M-476.5 2005.5H24M-476.5 1884.3H24M-476.5 2247.9H24M-476.5 2126.7H24M-476.5 2490.3H24M-476.5 2369.1H24"/></g><text transform="translate(-3553.267 1273.038)"><tspan x="0" y="0" font-family="'KozGoPro-Light-83pv-RKSJ-H'" font-size="21">坂</tspan><tspan x="0" y="36.8" font-family="'KozGoPro-Light-83pv-RKSJ-H'" font-size="21">交通量</tspan><tspan x="0" y="73.5" font-family="'KozGoPro-Light-83pv-RKSJ-H'" font-size="21">道幅</tspan><tspan x="0" y="110.2" font-family="'KozGoPro-Light-83pv-RKSJ-H'" font-size="21">見通し</tspan><tspan x="0" y="147" font-family="'KozGoPro-Light-83pv-RKSJ-H'" font-size="21">暗い</tspan><tspan x="0" y="183.8" font-family="'KozGoPro-Light-83pv-RKSJ-H'" font-size="21">歩行者</tspan><tspan x="0" y="220.5" font-family="'KozGoPro-Light-83pv-RKSJ-H'" font-size="21">通学路</tspan><tspan x="0" y="257.2" font-family="'KozGoPro-Light-83pv-RKSJ-H'" font-size="21">時間帯</tspan><tspan x="0" y="294" font-family="'KozGoPro-Light-83pv-RKSJ-H'" font-size="21">事故多発</tspan><tspan x="0" y="330.8" font-family="'KozGoPro-Light-83pv-RKSJ-H'" font-size="21">重大事故</tspan><tspan x="0" y="367.5" font-family="'KozGoPro-Light-83pv-RKSJ-H'" font-size="21">ヒヤリハット</tspan></text><path opacity=".6" fill="none" stroke="#283429" stroke-width=".3" stroke-miterlimit="10" d="M-2499.4 1698.3h997.4"/><text transform="translate(-2350.392 1558.288)"><tspan x="0" y="0" fill="#626262" font-family="'HelveticaNeue-Roman'" font-size="24">2014</tspan><tspan x="53.4" y="0" font-family="'HelveticaNeue-Roman'" font-size="24"> 11/12 </tspan><tspan x="128.1" y="0" fill="#626262" font-family="'HelveticaNeue-Roman'" font-size="24">10:00</tspan></text><text transform="translate(-2350.392 1604.288)" font-family="'KozGoPr6N-Regular-83pv-RKSJ-H'" font-size="32">自動車と出会いがしら衝突</text><text transform="translate(-2350.392 1646.288)"><tspan x="0" y="0" fill="#929292" font-family="'KozGoPr6N-Regular-83pv-RKSJ-H'" font-size="19">草津市野路東</tspan><tspan x="0" y="30" fill="#929292" font-family="'KozGoPr6N-Regular-83pv-RKSJ-H'" font-size="19">坂</tspan><tspan x="19" y="30" fill="#929292" font-family="'Helvetica'" font-size="19"> </tspan><tspan x="24.3" y="30" fill="#929292" font-family="'KozGoPr6N-Regular-83pv-RKSJ-H'" font-size="19">見通し</tspan><tspan x="81.3" y="30" fill="#929292" font-family="'Helvetica'" font-size="19"> </tspan><tspan x="86.6" y="30" fill="#929292" font-family="'KozGoPr6N-Regular-83pv-RKSJ-H'" font-size="19">暗い</tspan><tspan x="124.6" y="30" fill="#929292" font-family="'Helvetica'" font-size="19"> </tspan><tspan x="129.8" y="30" fill="#929292" font-family="'KozGoPr6N-Regular-83pv-RKSJ-H'" font-size="19">事故多発</tspan></text><text transform="translate(-2350.392 1844.288)"><tspan x="0" y="0" fill="#929292" font-family="'KozGoPr6N-Regular-83pv-RKSJ-H'" font-size="19">草津市野路東</tspan><tspan x="0" y="30" fill="#929292" font-family="'KozGoPr6N-Regular-83pv-RKSJ-H'" font-size="19">坂</tspan><tspan x="19" y="30" fill="#929292" font-family="'Helvetica'" font-size="19"> </tspan><tspan x="24.3" y="30" fill="#929292" font-family="'KozGoPr6N-Regular-83pv-RKSJ-H'" font-size="19">見通し</tspan><tspan x="81.3" y="30" fill="#929292" font-family="'Helvetica'" font-size="19"> </tspan><tspan x="86.6" y="30" fill="#929292" font-family="'KozGoPr6N-Regular-83pv-RKSJ-H'" font-size="19">暗い</tspan><tspan x="124.6" y="30" fill="#929292" font-family="'Helvetica'" font-size="19"> </tspan><tspan x="129.8" y="30" fill="#929292" font-family="'KozGoPr6N-Regular-83pv-RKSJ-H'" font-size="19">事故多発</tspan></text><text transform="translate(-2350.392 2054.288)"><tspan x="0" y="0" fill="#929292" font-family="'KozGoPr6N-Regular-83pv-RKSJ-H'" font-size="19">草津市野路東</tspan><tspan x="0" y="30" fill="#929292" font-family="'KozGoPr6N-Regular-83pv-RKSJ-H'" font-size="19">坂</tspan><tspan x="19" y="30" fill="#929292" font-family="'Helvetica'" font-size="19"> </tspan><tspan x="24.3" y="30" fill="#929292" font-family="'KozGoPr6N-Regular-83pv-RKSJ-H'" font-size="19">見通し</tspan><tspan x="81.3" y="30" fill="#929292" font-family="'Helvetica'" font-size="19"> </tspan><tspan x="86.6" y="30" fill="#929292" font-family="'KozGoPr6N-Regular-83pv-RKSJ-H'" font-size="19">暗い</tspan><tspan x="124.6" y="30" fill="#929292" font-family="'Helvetica'" font-size="19"> </tspan><tspan x="129.8" y="30" fill="#929292" font-family="'KozGoPr6N-Regular-83pv-RKSJ-H'" font-size="19">事故多発</tspan></text><text transform="translate(-2350.392 2266.288)"><tspan x="0" y="0" fill="#929292" font-family="'KozGoPr6N-Regular-83pv-RKSJ-H'" font-size="19">草津市野路東</tspan><tspan x="0" y="30" fill="#929292" font-family="'KozGoPr6N-Regular-83pv-RKSJ-H'" font-size="19">坂</tspan><tspan x="19" y="30" fill="#929292" font-family="'Helvetica'" font-size="19"> </tspan><tspan x="24.3" y="30" fill="#929292" font-family="'KozGoPr6N-Regular-83pv-RKSJ-H'" font-size="19">見通し</tspan><tspan x="81.3" y="30" fill="#929292" font-family="'Helvetica'" font-size="19"> </tspan><tspan x="86.6" y="30" fill="#929292" font-family="'KozGoPr6N-Regular-83pv-RKSJ-H'" font-size="19">暗い</tspan><tspan x="124.6" y="30" fill="#929292" font-family="'Helvetica'" font-size="19"> </tspan><tspan x="129.8" y="30" fill="#929292" font-family="'KozGoPr6N-Regular-83pv-RKSJ-H'" font-size="19">事故多発</tspan></text><text transform="translate(-2350.392 2482.288)"><tspan x="0" y="0" fill="#929292" font-family="'KozGoPr6N-Regular-83pv-RKSJ-H'" font-size="19">草津市野路東</tspan><tspan x="0" y="30" fill="#929292" font-family="'KozGoPr6N-Regular-83pv-RKSJ-H'" font-size="19">坂</tspan><tspan x="19" y="30" fill="#929292" font-family="'Helvetica'" font-size="19"> </tspan><tspan x="24.3" y="30" fill="#929292" font-family="'KozGoPr6N-Regular-83pv-RKSJ-H'" font-size="19">見通し</tspan><tspan x="81.3" y="30" fill="#929292" font-family="'Helvetica'" font-size="19"> </tspan><tspan x="86.6" y="30" fill="#929292" font-family="'KozGoPr6N-Regular-83pv-RKSJ-H'" font-size="19">暗い</tspan><tspan x="124.6" y="30" fill="#929292" font-family="'Helvetica'" font-size="19"> </tspan><tspan x="129.8" y="30" fill="#929292" font-family="'KozGoPr6N-Regular-83pv-RKSJ-H'" font-size="19">事故多発</tspan></text><text transform="translate(-2350.392 2690.288)"><tspan x="0" y="0" fill="#929292" font-family="'KozGoPr6N-Regular-83pv-RKSJ-H'" font-size="19">草津市野路東</tspan><tspan x="0" y="30" fill="#929292" font-family="'KozGoPr6N-Regular-83pv-RKSJ-H'" font-size="19">坂</tspan><tspan x="19" y="30" fill="#929292" font-family="'Helvetica'" font-size="19"> </tspan><tspan x="24.3" y="30" fill="#929292" font-family="'KozGoPr6N-Regular-83pv-RKSJ-H'" font-size="19">見通し</tspan><tspan x="81.3" y="30" fill="#929292" font-family="'Helvetica'" font-size="19"> </tspan><tspan x="86.6" y="30" fill="#929292" font-family="'KozGoPr6N-Regular-83pv-RKSJ-H'" font-size="19">暗い</tspan><tspan x="124.6" y="30" fill="#929292" font-family="'Helvetica'" font-size="19"> </tspan><tspan x="129.8" y="30" fill="#929292" font-family="'KozGoPr6N-Regular-83pv-RKSJ-H'" font-size="19">事故多発</tspan></text><text transform="translate(-2350.392 2902.288)"><tspan x="0" y="0" fill="#929292" font-family="'KozGoPr6N-Regular-83pv-RKSJ-H'" font-size="19">草津市野路東</tspan><tspan x="0" y="30" fill="#929292" font-family="'KozGoPr6N-Regular-83pv-RKSJ-H'" font-size="19">坂</tspan><tspan x="19" y="30" fill="#929292" font-family="'Helvetica'" font-size="19"> </tspan><tspan x="24.3" y="30" fill="#929292" font-family="'KozGoPr6N-Regular-83pv-RKSJ-H'" font-size="19">見通し</tspan><tspan x="81.3" y="30" fill="#929292" font-family="'Helvetica'" font-size="19"> </tspan><tspan x="86.6" y="30" fill="#929292" font-family="'KozGoPr6N-Regular-83pv-RKSJ-H'" font-size="19">暗い</tspan><tspan x="124.6" y="30" fill="#929292" font-family="'Helvetica'" font-size="19"> </tspan><tspan x="129.8" y="30" fill="#929292" font-family="'KozGoPr6N-Regular-83pv-RKSJ-H'" font-size="19">事故多発</tspan></text><g><path opacity=".6" fill="none" stroke="#283429" stroke-width=".3" stroke-miterlimit="10" d="M-2499.4 1916.3h997.4"/><text transform="translate(-2350.392 1760.288)"><tspan x="0" y="0" fill="#626262" font-family="'HelveticaNeue-Roman'" font-size="24">2014</tspan><tspan x="53.4" y="0" font-family="'HelveticaNeue-Roman'" font-size="24"> 11/12 </tspan><tspan x="128.1" y="0" fill="#626262" font-family="'HelveticaNeue-Roman'" font-size="24">10:00</tspan></text><text transform="translate(-2350.392 1806.288)" font-family="'KozGoPr6N-Regular-83pv-RKSJ-H'" font-size="32">自転車同士</text></g><g><path opacity=".6" fill="none" stroke="#283429" stroke-width=".3" stroke-miterlimit="10" d="M-2499.4 2118.3h997.4"/><text transform="translate(-2350.392 1974.29)"><tspan x="0" y="0" fill="#626262" font-family="'HelveticaNeue-Roman'" font-size="24">2014</tspan><tspan x="53.4" y="0" font-family="'HelveticaNeue-Roman'" font-size="24"> 11/12 </tspan><tspan x="128.1" y="0" fill="#626262" font-family="'HelveticaNeue-Roman'" font-size="24">10:00</tspan></text><text transform="translate(-2350.392 2020.29)" font-family="'KozGoPr6N-Regular-83pv-RKSJ-H'" font-size="32">物損</text></g><g><path opacity=".6" fill="none" stroke="#283429" stroke-width=".3" stroke-miterlimit="10" d="M-2499.4 2332.3h997.4"/><text transform="translate(-2350.392 2178.294)"><tspan x="0" y="0" fill="#626262" font-family="'HelveticaNeue-Roman'" font-size="24">2014</tspan><tspan x="53.4" y="0" font-family="'HelveticaNeue-Roman'" font-size="24"> 11/12 </tspan><tspan x="128.1" y="0" fill="#626262" font-family="'HelveticaNeue-Roman'" font-size="24">10:00</tspan></text><text transform="translate(-2350.392 2224.294)" font-family="'KozGoPr6N-Regular-83pv-RKSJ-H'" font-size="32">車と衝突で重症</text></g><g><path opacity=".6" fill="none" stroke="#283429" stroke-width=".3" stroke-miterlimit="10" d="M-2499.4 2546.3h997.4"/><text transform="translate(-2350.392 2394.297)"><tspan x="0" y="0" fill="#626262" font-family="'HelveticaNeue-Roman'" font-size="24">2014</tspan><tspan x="53.4" y="0" font-family="'HelveticaNeue-Roman'" font-size="24"> 11/12 </tspan><tspan x="128.1" y="0" fill="#626262" font-family="'HelveticaNeue-Roman'" font-size="24">10:00</tspan></text><text transform="translate(-2350.392 2440.297)" font-family="'KozGoPr6N-Regular-83pv-RKSJ-H'" font-size="32">刑事事件</text></g><g><path opacity=".6" fill="none" stroke="#283429" stroke-width=".3" stroke-miterlimit="10" d="M-2499.4 2760.3h997.4"/><text transform="translate(-2350.392 2602.3)"><tspan x="0" y="0" fill="#626262" font-family="'HelveticaNeue-Roman'" font-size="24">2014</tspan><tspan x="53.4" y="0" font-family="'HelveticaNeue-Roman'" font-size="24"> 11/12 </tspan><tspan x="128.1" y="0" fill="#626262" font-family="'HelveticaNeue-Roman'" font-size="24">10:00</tspan></text><text transform="translate(-2350.392 2648.3)" font-family="'KozGoPr6N-Regular-83pv-RKSJ-H'" font-size="32">盗難</text></g><g><path opacity=".6" fill="none" stroke="#283429" stroke-width=".3" stroke-miterlimit="10" d="M-2499.4 2920.3h997.4"/><text transform="translate(-2350.392 2826.303)"><tspan x="0" y="0" fill="#626262" font-family="'HelveticaNeue-Roman'" font-size="24">2014</tspan><tspan x="53.4" y="0" font-family="'HelveticaNeue-Roman'" font-size="24"> 11/12 </tspan><tspan x="128.1" y="0" fill="#626262" font-family="'HelveticaNeue-Roman'" font-size="24">10:00</tspan></text><text transform="translate(-2350.392 2872.303)" font-family="'KozGoPr6N-Regular-83pv-RKSJ-H'" font-size="32">自転車同士</text></g><g><path fill="#1EA139" d="M-1652.2 1469.3h150v150h-150z"/><g fill="#FFF"><path d="M-1614.7 1508.3h75v9.9h-75zM-1614.7 1539.3h75v9.9h-75zM-1614.7 1570.4h75v9.9h-75z"/></g></g><g><image overflow="visible" width="339" height="509" xlink:href="../../../../_design/rf_562405493.jpg" transform="matrix(.404 0 0 .404 -1680.267 1714.66)"/></g><g><image overflow="visible" width="507" height="338" xlink:href="../../../../_design/rf_144315204.jpg" transform="translate(-1709.267 2159.568) scale(.4083)"/></g><g><image overflow="visible" width="359" height="479" xlink:href="../../../../_design/rf_562796319.jpg" transform="translate(-1688.267 2349) scale(.4095)"/></g><g><path fill="#A19A9A" d="M-2403.9 1786.1c0 14-12.9 25.6-24.9 46-.9 1.6-3.2 1.6-4.1 0-10.4-18.7-25-32-25-46 0-14.9 12.1-27 27-27s27 12.1 27 27z"/><g fill="none" stroke="#000" stroke-width="3" stroke-linecap="round" stroke-linejoin="round" stroke-miterlimit="10"><path d="M-2440.1 1798.3c3.4-2.4 5.6-6.3 5.6-10.8 0-4.5-2.2-8.4-5.6-10.8M-2421.9 1776.8c-3.4 2.4-5.6 6.3-5.6 10.8 0 4.5 2.2 8.4 5.6 10.8"/></g></g><g><path fill="#A19A9A" d="M-2403.9 2634.8c0 14-12.9 25.6-24.9 46-.9 1.6-3.2 1.6-4.1 0-10.4-18.7-25-32-25-46 0-14.9 12.1-27 27-27s27 12.1 27 27z"/><g fill="none" stroke="#000" stroke-width="3" stroke-linecap="round" stroke-linejoin="round" stroke-miterlimit="10"><path d="M-2440.1 2647.1c3.4-2.4 5.6-6.3 5.6-10.8s-2.2-8.4-5.6-10.8M-2421.9 2625.5c-3.4 2.4-5.6 6.3-5.6 10.8s2.2 8.4 5.6 10.8"/></g></g><g><path d="M-2403.9 1573.9c0 14-12.9 25.6-24.9 46-.9 1.6-3.2 1.6-4.1 0-10.4-18.7-25-32-25-46 0-14.9 12.1-27 27-27s27 12.1 27 27z"/><g fill="none" stroke="#FFCF00" stroke-width="3" stroke-linecap="round" stroke-linejoin="round" stroke-miterlimit="10"><path d="M-2441.6 1568.9h19.2M-2441.6 1580.6h19.2M-2424.5 1573l4.2-4.1-4.2-4.1M-2437.5 1576.5l-4.1 4.1 4.1 4.1"/></g></g><g><path fill="#00407A" d="M-2403.9 2422.6c0 14-12.9 25.6-24.9 46-.9 1.6-3.2 1.6-4.1 0-10.4-18.7-25-32-25-46 0-14.9 12.1-27 27-27s27 12.1 27 27z"/><path fill="none" stroke="#FFF" stroke-width="3" stroke-linecap="round" stroke-linejoin="round" stroke-miterlimit="10" d="M-2430.1 2431.2c5.5 0 10.4-2.9 13.1-7.3-2.7-4.4-7.6-7.3-13.1-7.3s-10.4 2.9-13.1 7.3c2.7 4.4 7.6 7.3 13.1 7.3z"/><circle fill="#FFF" cx="-2430.1" cy="2424" r="3.9"/><g><path fill="#00407A" d="M-2447.9 2413.2h8v22.3h-8z"/><path fill="none" stroke="#FFF" stroke-width="3" stroke-linecap="round" stroke-linejoin="round" stroke-miterlimit="10" d="M-2439.9 2435.6v-22.4"/></g></g><g><path fill="#8D7EE2" d="M-2403.9 2210.4c0 14-12.9 25.6-24.9 46-.9 1.6-3.2 1.6-4.1 0-10.4-18.7-25-32-25-46 0-14.9 12.1-27 27-27 14.9.1 27 12.1 27 27z"/><g fill="none" stroke="#000" stroke-width="3" stroke-linecap="round" stroke-linejoin="round" stroke-miterlimit="10"><ellipse cx="-2431" cy="2218.5" rx="8.4" ry="2.7"/><path d="M-2439.4 2218.5l12.8-17.4 4 17.4"/></g></g><g><path fill="#FFCF00" d="M-2403.9 1998.3c0 14-12.9 25.6-24.9 46-.9 1.6-3.2 1.6-4.1 0-10.4-18.7-25-32-25-46 0-14.9 12.1-27 27-27s27 12.1 27 27z"/><path d="M-2440.4 2011.7c-3.9 0-5.4-2.7-3.5-6.1l9.4-16.3c1.9-3.3 5.1-3.3 7 0l9.4 16.3c1.9 3.3.4 6.1-3.5 6.1h-18.8z"/><path fill="#FFCF00" d="M-2432.1 2004.1h2.6v2.6h-2.6zM-2432.1 1994.3h2.6v7.2h-2.6z"/></g><g><defs><path id="c" d="M-2500.2 2829.3h498.9v141h-498.9z"/></defs><use xlink:href="#c" overflow="visible" fill="#1EA18D"/><clipPath id="d"><use xlink:href="#c" overflow="visible"/></clipPath><g clip-path="url(#d)"><path fill="#007B7E" d="M-2150.4 2857.4l148 148.1h-174.1"/><path d="M-2347.7 3026.1c-3.8 0-7-3.1-7-7v-155.8c0-3.8 3.1-7 7-7h196.2c3.8 0 7 3.1 7 7v155.8c0 3.8-3.1 7-7 7h-196.2z"/><defs><path id="e" d="M-2335.7 2875h172v111.6h-172z"/></defs><use xlink:href="#e" overflow="visible" fill="#FFF"/><clipPath id="f"><use xlink:href="#e" overflow="visible"/></clipPath><g clip-path="url(#f)"><path fill="#1CA08C" d="M-2300.4 2898.8c1.2 4.7-2.7 8.1-6.5 14.2-.6.9-1.9.9-2.5 0-3-5-6.8-8.7-6.8-12.5 0-4.6 3.9-8.3 8.6-7.9 3.5.2 6.3 2.8 7.2 6.2z"/><g fill="none" stroke="#D7D7D6" stroke-width="4" stroke-miterlimit="10"><path d="M-2289.3 2899.8h72M-2289.3 2914.3h38.6"/></g></g><g clip-path="url(#f)"><path fill="#1CA08C" d="M-2300.4 2932.8c1.2 4.7-2.7 8.1-6.5 14.2-.6.9-1.9.9-2.5 0-3-5-6.8-8.7-6.8-12.5 0-4.6 3.9-8.3 8.6-7.9 3.5.2 6.3 2.8 7.2 6.2z"/><g fill="none" stroke="#D7D7D6" stroke-width="4" stroke-miterlimit="10"><path d="M-2289.3 2933.8h72M-2289.3 2948.3h38.6"/></g></g></g><g><defs><path id="g" d="M-2001.2 2829.3h499.9v141h-499.9z"/></defs><linearGradient id="h" gradientUnits="userSpaceOnUse" x1="-2001.215" y1="2899.787" x2="-1501.267" y2="2899.787"><stop offset="0" stop-color="#3B9D00"/><stop offset="1" stop-color="#3BAA00"/></linearGradient><use xlink:href="#g" overflow="visible" fill="url(#h)"/><clipPath id="i"><use xlink:href="#g" overflow="visible"/></clipPath><g opacity=".2" clip-path="url(#i)"><path fill="#007B31" d="M-1654.9 2857.4l148.1 148.1H-1681"/><path d="M-1857.9 3026.1c-3.8 0-7-3.1-7-7v-155.8c0-3.8 3.1-7 7-7h196.2c3.8 0 7 3.1 7 7v155.8c0 3.8-3.1 7-7 7h-196.2z"/><defs><path id="j" d="M-1845.8 2875h172v111.6h-172z"/></defs><use xlink:href="#j" overflow="visible" fill="#FFF"/><clipPath id="k"><use xlink:href="#j" overflow="visible"/></clipPath><g clip-path="url(#k)"><path fill="none" stroke="#D7D7D6" stroke-width="4" stroke-miterlimit="10" d="M-1859.3 2900.3h37c3.8 0 9.2 2.2 11.9 4.9l93.1 93.1M-1708.3 2865.3l-113 113"/><path fill="none" stroke="#D7D7D6" stroke-width="4" stroke-miterlimit="10" d="M-1657.3 2936.3h-81c-3.8 0-9.2 2.2-11.9 4.9l-44.1 44.1"/></g><g clip-path="url(#k)"><linearGradient id="l" gradientUnits="userSpaceOnUse" x1="-1790.211" y1="2905.495" x2="-1771.009" y2="2905.495"><stop offset="0" stop-color="#3B9D00"/><stop offset="1" stop-color="#3BAA00"/></linearGradient><path fill="url(#l)" d="M-1771.3 2900.3c1.4 5.7-3.2 9.7-7.8 17.1-.7 1.1-2.3 1.1-3 0-3.6-6-8.1-10.4-8.1-15 0-5.5 4.7-10 10.4-9.6 4.1.3 7.5 3.5 8.5 7.5z"/><linearGradient id="m" gradientUnits="userSpaceOnUse" x1="-1712.868" y1="2905.495" x2="-1693.666" y2="2905.495"><stop offset="0" stop-color="#3B9D00"/><stop offset="1" stop-color="#3BAA00"/></linearGradient><path fill="url(#m)" d="M-1693.9 2900.3c1.4 5.7-3.2 9.7-7.8 17.1-.7 1.1-2.3 1.1-3 0-3.6-6-8.1-10.4-8.1-15 0-5.5 4.7-10 10.4-9.6 4 .3 7.5 3.5 8.5 7.5z"/><g><linearGradient id="n" gradientUnits="userSpaceOnUse" x1="-1832.411" y1="2936.395" x2="-1813.21" y2="2936.395"><stop offset="0" stop-color="#3B9D00"/><stop offset="1" stop-color="#3BAA00"/></linearGradient><path fill="url(#n)" d="M-1813.5 2931.2c1.4 5.7-3.2 9.7-7.8 17.1-.7 1.1-2.3 1.1-3 0-3.6-6-8.1-10.4-8.1-15 0-5.5 4.7-10 10.4-9.6 4.1.3 7.5 3.5 8.5 7.5z"/></g></g></g><path opacity=".6" fill="none" stroke="#283429" stroke-width=".3" stroke-miterlimit="10" d="M-2001.9 2969.3v-140"/></g></g><path opacity=".8" fill="#1EA139" d="M-1376.3-1550.7h1002v1500h-1002z"/><linearGradient id="o" gradientUnits="userSpaceOnUse" x1="-999.267" y1="-800.712" x2="-871.767" y2="-800.712"><stop offset="0" stop-opacity="0"/><stop offset=".859" stop-opacity=".172"/><stop offset="1" stop-opacity=".2"/></linearGradient><path fill="url(#o)" d="M-999.3-1550.7h127.5v1500h-127.5z"/><path fill="#FFF" d="M-873.8-1550.7h500v1501h-500z"/><g><path fill="#FDFDFD" d="M-873.5-1014.5h500.2v121.2h-500.2z"/><text transform="translate(-756.767 -1067.71)"><tspan x="0" y="0" fill="#626161" font-family="'HelveticaNeueCE-Thin'" font-size="32" letter-spacing="1">HOME</tspan><tspan x="0" y="122" fill="#626161" font-family="'HelveticaNeueCE-Thin'" font-size="32" letter-spacing="1">SAFETY MAP</tspan><tspan x="0" y="244" fill="#626161" font-family="'HelveticaNeueCE-Thin'" font-size="32" letter-spacing="1">CONSEPT</tspan><tspan x="0" y="366" fill="#626161" font-family="'HelveticaNeueCE-Thin'" font-size="32" letter-spacing="1">HELP</tspan><tspan x="0" y="488.7" fill="#626161" font-family="'KozGoPro-ExtraLight-83pv-RKSJ-H'" font-size="32" letter-spacing="1">運営</tspan></text><path fill="#1EA139" d="M-812.2-1090.9l10.3 7.8v14.4h-20.7v-14.4l10.4-7.8m0-8.1c-.6 0-1.2.2-1.6.5l-14.2 10.7c-.9.7-1.6 2.1-1.6 3.2v20.9c0 1.1.9 2 2 2h30.7c1.1 0 2-.9 2-2v-20.9c0-1.1-.7-2.5-1.6-3.2l-14.2-10.7c-.3-.3-.9-.5-1.5-.5z"/><circle fill="#1EA139" cx="-812.2" cy="-712.6" r="23.3"/><path fill="#FFF" d="M-810.2-708.5l-3.8-.1c.1-2.9 1.8-4.7 3-6 1-1.1 1.6-1.7 1.6-2.6 0-1.5-1.2-2.7-2.7-2.7-1.5 0-2.7 1.2-2.7 2.7h-3.8c0-3.6 3-6.6 6.6-6.6 3.6 0 6.6 3 6.6 6.6 0 2.5-1.5 4-2.7 5.2-1.4 1.4-2.1 2.2-2.1 3.5z"/><circle fill="#FFF" cx="-812.2" cy="-703.7" r="2.7"/><path fill="#1EA139" d="M-834.2-823.1c1.3 1.5 3.7 1.6 5 .1l11.3-11.6c.8-.9 2.3-.3 2.3.9v22.4c0 1.8 1.3 3.4 3.1 3.5 2 .2 3.7-1.4 3.7-3.4v-22.5c0-1.2 1.5-1.8 2.3-.9l11.3 11.6c1.4 1.4 3.7 1.4 5-.1 1.2-1.3 1-3.4-.2-4.7l-19.4-20c-.6-.7-1.5-1-2.5-1-.9 0-1.8.4-2.5 1l-19.4 20c-1 1.3-1.2 3.3 0 4.7z"/><g fill="#1EA139"><path d="M-812.2-595.1c-5.1 0-9.3-4.2-9.3-9.3s4.2-9.3 9.3-9.3c5.1 0 9.3 4.2 9.3 9.3s-4.1 9.3-9.3 9.3zm0-12.6c-1.8 0-3.3 1.5-3.3 3.3 0 1.8 1.5 3.3 3.3 3.3s3.3-1.5 3.3-3.3c0-1.8-1.4-3.3-3.3-3.3zM-797.2-571.2c-1.7 0-3-1.3-3-3 0-6.6-5.3-11.9-11.9-11.9s-11.9 5.3-11.9 11.9c0 1.7-1.3 3-3 3s-3-1.3-3-3c0-9.9 8-17.9 17.9-17.9s17.9 8 17.9 17.9c0 1.6-1.4 3-3 3z"/></g><path fill="#1EA139" d="M-812.2-972.7c6.4 0 11.6 5.2 11.6 11.6 0 4.3-3.3 9-7.9 15.5-1.2 1.7-2.4 3.4-3.7 5.3-1.3-1.9-2.6-3.7-3.8-5.4-4.3-6.1-8-11.3-8-15.4.2-6.4 5.4-11.6 11.8-11.6m0-7c-10.3 0-18.6 8.3-18.6 18.6 0 9.6 10.1 18.8 17.3 31.7.3.6.9.8 1.4.8.6 0 1.1-.3 1.4-.8 8.2-14.1 17.2-22.1 17.2-31.7 0-10.3-8.4-18.6-18.7-18.6z"/><g><defs><path id="p" d="M-872.8-1550.7h499v415h-499z"/></defs><use xlink:href="#p" overflow="visible" fill="#FDFDFD"/><clipPath id="q"><use xlink:href="#p" overflow="visible"/></clipPath><g clip-path="url(#q)"><path fill="#1EA139" d="M-466.5-1325.4c0 83.5-77 152.1-147.9 273.5-5.6 9.5-19.3 9.4-24.6-.2-61.7-111.2-148.6-190.3-148.6-273.2 0-88.5 71.9-160.3 160.6-160.3 88.6-.1 160.5 71.6 160.5 160.2z"/><g fill="#FFF"><path d="M-695.1-1296.1c4 0 6.5 2.3 7.7 5.2 1.3 3.1.9 6.8-2.3 9 3.6 1.5 4.9 4.9 4.9 7.9 0 4.8-3.1 9.6-9.2 9.6h-14.3v-31.7h13.2zm-8.6 12.6h8.6c5 0 5.1-8.2.1-8.2h-8.7v8.2zm0 14.7h9.8c3.1 0 4.6-2.6 4.6-5.1s-1.5-5-4.6-5h-9.8v10.1zM-677.8-1296.1h3.8v31.7h-3.8zM-662.9-1291.5c2.8-2.9 6.7-4.7 11-4.7 7.2 0 13 4.5 14.8 11.7h-4.5c-1.7-4.8-5.6-7.2-10.2-7.2-3 0-5.8 1.3-7.8 3.4-2 2.1-3.3 4.9-3.3 8.2 0 3.2 1.3 6 3.3 8.1 2 2.1 4.8 3.4 7.8 3.4 4.8 0 8.9-2.8 10.5-7.6h4.5c-1.8 7.2-7.6 12.1-15 12.1-4.3 0-8.2-1.8-11-4.7-2.7-2.9-4.5-6.9-4.5-11.3-.2-4.5 1.6-8.5 4.4-11.4zM-631.5-1296.1l8.7 13.9 8.7-13.9h5.4l-11.8 18.8v12.9h-4.6v-12.9l-11.7-18.8h5.3zM-604.5-1291.5c2.8-2.9 6.7-4.7 11-4.7 7.2 0 13 4.5 14.8 11.7h-4.5c-1.7-4.8-5.6-7.2-10.2-7.2-3 0-5.8 1.3-7.8 3.4-2 2.1-3.3 4.9-3.3 8.2 0 3.2 1.3 6 3.3 8.1 2 2.1 4.8 3.4 7.8 3.4 4.8 0 8.9-2.8 10.5-7.6h4.5c-1.8 7.2-7.6 12.1-15 12.1-4.3 0-8.2-1.8-11-4.7-2.7-2.9-4.5-6.9-4.5-11.3-.1-4.5 1.7-8.5 4.4-11.4zM-569-1269h14.9v4.6h-19.5v-31.7h4.6v27.1zM-545.9-1269h14.7v4.6h-19.3v-31.7h19.3v4.6h-14.7v8.9h14.4v4.6h-14.4v9zM-658.1-1182.9h-4.6v-31.7h3.7l10.5 15.4 10.5-15.4h3.6v31.7h-4.5v-22.3l-8.3 12.3h-2.6l-8.3-12.3v22.3zM-611.5-1192.2h-11.4c-1.2 2.9-2.8 6.7-3.8 9.3h-4.9l12.7-32.1h3.4l12.7 32.1h-4.9l-3.8-9.3zm-9.6-4.3h7.9l-3.9-11.2-4 11.2zM-589-1214.6c6.8 0 10.3 5.3 10.3 10.6s-3.4 10.6-10.3 10.6h-7v10.6h-4.6v-31.7h11.6zm0 16.7c3.9 0 5.8-3 5.8-6s-1.9-6-5.8-6h-7v12h7z"/></g><g fill="#FFF" stroke="#1EA139" stroke-width="3" stroke-miterlimit="10"><path d="M-685.8-1248.1c-.7-3.2-4.2-4.6-7.3-4.5-2.4.1-5 .9-6.5 2.7-.7.9-1 2.1-.9 3.3.3 3.7 4.3 4.1 8.1 4.5 4.9.6 11 1.9 12.3 7.6.2.8.3 1.6.3 2.3 0 6.9-6.8 10.9-13.2 10.9-5.5 0-12.2-3.3-12.8-9.6l-.1-1 5.2-.1.1.8v-.2c.4 3.3 4.4 5 7.7 5 3.8 0 8-2.1 8-5.8 0-.4-.1-.8-.2-1.2-.6-2.7-4.3-3.2-7.8-3.5-5.6-.6-12.1-1.8-12.6-9.2v.1c-.2-2.4.4-4.8 1.9-6.8 2.4-3.1 6.7-4.7 10.8-4.7 5.5 0 11.2 2.9 12.1 9.4h-5.1zM-655.3-1232.1h-12.8c-1.4 3.3-3.2 7.5-4.3 10.5h-5.6l14.3-36.1h3.8l14.3 36.1h-5.5l-4.2-10.5zm-10.9-4.9h8.9l-4.4-12.6-4.5 12.6zM-638-1221.6h-5.1v-35.6h21.2v5.1H-638v10h14.3v5.2H-638v15.3zM-613-1226.8h16.6v5.1h-21.8v-35.6h21.7v5.1H-613v10h16.2v5.2H-613v10.2zM-583.2-1221.5v-30.6H-594v-5.2h26.7v5.2H-578v30.6h-5.2zM-560.2-1257.3l9.7 15.6 9.7-15.6h6.1l-13.2 21.1v14.5h-5.2v-14.5l-13.2-21.1h6.1z"/></g><path fill="#FFF" d="M-556.7-1387.4c-7.3-2.6-14.2-2.4-20.5-.7l-18.9-43.3c-.8-1.9-2.7-3.1-4.7-3.1h-22.1c-1.5 0-2.7 1.2-2.7 2.7v4.9c0 1.5 1.2 2.7 2.7 2.7h17c1.1 0 2 .6 2.4 1.6l5.5 12.6c.8 1.8-.5 3.7-2.4 3.7H-639c-1.1 0-2-.6-2.4-1.6l-3.5-8h7.4c1.5 0 2.7-1.2 2.7-2.7v-4.9c0-1.5-1.2-2.7-2.7-2.7h-26.3c-1.5 0-2.7 1.2-2.7 2.7v4.9c0 1.5 1.2 2.7 2.7 2.7h6c1.1 0 2 .6 2.4 1.6l5 11.6c.4.9.3 1.9-.3 2.6l-11.1 15c-5.3-2.9-11.3-4.4-17.8-4.2-19.2.5-34.9 16.9-34.5 36.1.4 19.3 16.1 34.8 35.5 34.8 17.1 0 31.3-12.1 34.7-28.2.3-1.3 1.3-2.2 2.6-2.2h17.8c1.7 0 3.2-.8 4.2-2.2l26.3-37.7c1.2-1.7 3.8-1.4 4.6.5l1.8 4.2c-11.3 7-18.4 20.2-16.5 34.9 2 15.5 14.4 28.1 29.9 30.3 22.5 3.3 41.8-14.7 40.7-36.9-.6-14.3-10.5-26.9-24.2-31.7zm-86.5 1.2l10.3 23.6c.8 1.8-.5 3.7-2.4 3.7h-5.9c-1.3 0-2.4-.9-2.6-2.2-1.3-6.1-4.1-11.7-8.1-16.2-.9-1-1-2.4-.2-3.4l4.5-6c1-1.7 3.6-1.4 4.4.5zm-14.4 18.5c1.1 1.6 2 3.4 2.7 5.3.6 1.7-.7 3.5-2.5 3.5h-11.1l6.6-8.9c1.1-1.4 3.3-1.4 4.3.1zm-21 39.2c-14.1 0-25.5-11.5-25.3-25.7.2-13.1 10.9-24.2 24.1-24.8 3-.1 5.8.2 8.4 1 1.7.5 2.4 2.7 1.3 4.1l-12.6 17c-1.2 1.6-1.3 3.6-.5 5.3.9 1.7 2.6 2.8 4.6 2.8h21.2c1.8 0 3.2 1.8 2.5 3.5-3.5 9.8-12.8 16.8-23.7 16.8zm54.2-40.1l-10.3-23.7c-.8-1.8.5-3.7 2.4-3.7h26.9c2.2 0 3.4 2.4 2.2 4.2l-16.6 23.7c-1.2 1.7-3.8 1.4-4.6-.5zm54 39.9c-11.5-1.1-21-10.3-22.5-21.8-1.1-8.5 2.1-16.3 7.7-21.6 1.3-1.3 3.5-.7 4.2.9l7.4 17c.6 1.3 2.2 2 3.5 1.4l4.5-2c1.3-.6 2-2.2 1.4-3.5l-7.4-17c-.7-1.7.4-3.6 2.2-3.7 2.6-.2 5.4.1 8.2.8 9.7 2.6 17.1 11 18.4 20.9 2.2 16.3-11.4 30.2-27.6 28.6z"/><path fill="#040000" d="M-526.5-1381.3c.8-1.2 2-1.2 2.8 0l3.5 5.6c.8 1.2 2.5 1.8 3.9 1.3l6.1-2.5c1.4-.6 2.4.2 2.3 1.6l-.5 6.6c-.1 1.5 1 2.9 2.4 3.3l6.4 1.6c1.4.3 1.8 1.5.9 2.7l-4.2 5c-.9 1.1-.9 2.9 0 4.1l4.2 5c.9 1.1.6 2.3-.9 2.7l-6.4 1.6c-1.4.3-2.5 1.8-2.4 3.3l.5 6.6c.1 1.5-.9 2.2-2.3 1.6l-6.1-2.5c-1.4-.6-3.1 0-3.9 1.3l-3.5 5.6c-.8 1.2-2 1.2-2.8 0l-3.5-5.6c-.8-1.2-2.5-1.8-3.9-1.3l-6.1 2.5c-1.4.6-2.4-.2-2.3-1.6l.5-6.6c.1-1.5-1-2.9-2.4-3.3l-6.4-1.6c-1.4-.3-1.8-1.5-.9-2.7l4.2-5c.9-1.1.9-2.9 0-4.1l-4.2-5c-.9-1.1-.6-2.3.9-2.7l6.4-1.6c1.4-.3 2.5-1.8 2.4-3.3l-.5-6.6c-.1-1.5.9-2.2 2.3-1.6l6.1 2.5c1.4.6 3.1 0 3.9-1.3l3.5-5.6z"/></g></g><g fill="none" stroke="#9DA29E" stroke-width=".3" stroke-miterlimit="10"><path opacity=".6" d="M-873.8-1014.5h500.5M-873.8-1135.7h500.5M-873.8-772.1h500.5M-873.8-893.3h500.5M-873.8-529.7h500.5M-873.8-650.9h500.5"/></g></g><text transform="translate(228.684 -1054.21)"><tspan x="0" y="0" fill="#626161" font-family="'HelveticaNeueCE-Thin'" font-size="32" letter-spacing="1">HOME</tspan><tspan x="0" y="122" fill="#626161" font-family="'HelveticaNeueCE-Thin'" font-size="32" letter-spacing="1">SAFETY MAP</tspan><tspan x="0" y="244" fill="#626161" font-family="'HelveticaNeueCE-Thin'" font-size="32" letter-spacing="1">CONSEPT</tspan><tspan x="0" y="366" fill="#626161" font-family="'HelveticaNeueCE-Thin'" font-size="32" letter-spacing="1">HELP</tspan><tspan x="0" y="488.7" fill="#626161" font-family="'KozGoPro-ExtraLight-83pv-RKSJ-H'" font-size="32" letter-spacing="1">運営</tspan></text><g><path fill="#1EA139" d="M23.3-355l10.3 7.8v14.4H13v-14.4l10.3-7.8m0-8.1c-.6 0-1.2.2-1.6.5L7.6-352c-.9.7-1.6 2.1-1.6 3.2v20.9c0 1.1.9 2 2 2h30.7c1.1 0 2-.9 2-2v-20.9c0-1.1-.7-2.5-1.6-3.2l-14.2-10.7c-.4-.2-1-.4-1.6-.4z"/></g><g><circle fill="#1EA139" cx="23.3" cy="23.3" r="23.3"/><path fill="#FFF" d="M25.2 27.4l-3.8-.1c.1-2.9 1.8-4.7 3-6 1-1.1 1.6-1.7 1.6-2.6 0-1.5-1.2-2.7-2.7-2.7s-2.7 1.2-2.7 2.7h-3.8c0-3.6 3-6.6 6.6-6.6s6.6 3 6.6 6.6c0 2.5-1.5 4-2.7 5.2-1.3 1.4-2 2.2-2.1 3.5z"/><circle fill="#FFF" cx="23.3" cy="32.2" r="2.7"/></g><g><path fill="#1EA139" d="M1.2-87.2c1.3 1.5 3.7 1.6 5 .1l11.3-11.6c.8-.9 2.3-.3 2.3.9v22.4c0 1.8 1.3 3.4 3.1 3.5 2 .2 3.7-1.4 3.7-3.4v-22.5c0-1.2 1.5-1.8 2.3-.9l11.3 11.6c1.4 1.4 3.7 1.4 5-.1 1.2-1.3 1-3.4-.2-4.7l-19.4-20c-.6-.7-1.5-1-2.5-1s-1.8.4-2.5 1l-19.4 20c-1 1.3-1.1 3.3 0 4.7z"/></g><g><g fill="#1EA139"><path d="M23.3 140.7c-5.1 0-9.3-4.2-9.3-9.3 0-5.1 4.2-9.3 9.3-9.3 5.1 0 9.3 4.2 9.3 9.3 0 5.2-4.2 9.3-9.3 9.3zm0-12.5c-1.8 0-3.3 1.5-3.3 3.3 0 1.8 1.5 3.3 3.3 3.3s3.3-1.5 3.3-3.3c0-1.8-1.5-3.3-3.3-3.3zM38.2 164.7c-1.7 0-3-1.3-3-3 0-6.6-5.3-11.9-11.9-11.9s-11.9 5.3-11.9 11.9c0 1.7-1.3 3-3 3s-3-1.3-3-3c0-9.9 8-17.9 17.9-17.9s17.9 8 17.9 17.9c0 1.6-1.3 3-3 3z"/></g></g><g><path fill="#1EA139" d="M23.3-236.8c6.4 0 11.6 5.2 11.6 11.6 0 4.3-3.3 9-7.9 15.5-1.2 1.7-2.4 3.4-3.7 5.3-1.3-1.9-2.6-3.7-3.8-5.4-4.3-6.1-8-11.3-8-15.4.2-6.4 5.4-11.6 11.8-11.6m0-7c-10.3 0-18.6 8.3-18.6 18.6 0 9.6 10.1 18.8 17.3 31.7.3.6.9.8 1.4.8.6 0 1.1-.3 1.4-.8C33-207.6 42-215.6 42-225.2c-.1-10.3-8.4-18.6-18.7-18.6z"/></g><g><defs><path id="r" d="M112.7-1537.2h499v415h-499z"/></defs><use xlink:href="#r" overflow="visible" fill="#FDFDFD"/><clipPath id="s"><use xlink:href="#r" overflow="visible"/></clipPath><g clip-path="url(#s)"><path fill="#1EA139" d="M519-1311.9c0 83.5-77 152.1-147.9 273.5-5.6 9.5-19.3 9.4-24.6-.2-61.7-111.2-148.6-190.3-148.6-273.2 0-88.5 71.9-160.3 160.6-160.3 88.5-.1 160.5 71.6 160.5 160.2z"/><g fill="#FFF"><path d="M290.4-1282.6c4 0 6.5 2.3 7.7 5.2 1.3 3.1.9 6.8-2.3 9 3.6 1.5 4.9 4.9 4.9 7.9 0 4.8-3.1 9.6-9.2 9.6h-14.3v-31.7h13.2zm-8.7 12.6h8.6c5 0 5.1-8.2.1-8.2h-8.7v8.2zm0 14.7h9.8c3.1 0 4.6-2.6 4.6-5.1s-1.5-5-4.6-5h-9.8v10.1zM307.7-1282.6h3.8v31.7h-3.8zM322.5-1278c2.8-2.9 6.7-4.7 11-4.7 7.2 0 13 4.5 14.8 11.7h-4.5c-1.7-4.8-5.6-7.2-10.2-7.2-3 0-5.8 1.3-7.8 3.4-2 2.1-3.3 4.9-3.3 8.2 0 3.2 1.3 6 3.3 8.1 2 2.1 4.8 3.4 7.8 3.4 4.8 0 8.9-2.8 10.5-7.6h4.5c-1.8 7.2-7.6 12.1-15 12.1-4.3 0-8.2-1.8-11-4.7-2.7-2.9-4.5-6.9-4.5-11.3-.1-4.5 1.7-8.5 4.4-11.4zM354-1282.6l8.7 13.9 8.7-13.9h5.4l-11.8 18.8v12.9h-4.6v-12.9l-11.7-18.8h5.3zM381-1278c2.8-2.9 6.7-4.7 11-4.7 7.2 0 13 4.5 14.8 11.7h-4.5c-1.7-4.8-5.6-7.2-10.2-7.2-3 0-5.8 1.3-7.8 3.4-2 2.1-3.3 4.9-3.3 8.2 0 3.2 1.3 6 3.3 8.1 2 2.1 4.8 3.4 7.8 3.4 4.8 0 8.9-2.8 10.5-7.6h4.5c-1.8 7.2-7.6 12.1-15 12.1-4.3 0-8.2-1.8-11-4.7-2.7-2.9-4.5-6.9-4.5-11.3-.1-4.5 1.7-8.5 4.4-11.4zM416.5-1255.5h14.9v4.6h-19.5v-31.7h4.6v27.1zM439.6-1255.5h14.7v4.6H435v-31.7h19.3v4.6h-14.7v8.9H454v4.6h-14.4v9zM327.4-1169.4h-4.6v-31.7h3.7l10.5 15.4 10.5-15.4h3.6v31.7h-4.5v-22.3l-8.3 12.3h-2.6l-8.3-12.3v22.3zM374-1178.7h-11.4c-1.2 2.9-2.8 6.7-3.8 9.3h-4.9l12.7-32.1h3.4l12.7 32.1h-4.9l-3.8-9.3zm-9.7-4.3h7.9l-3.9-11.2-4 11.2zM396.5-1201.1c6.8 0 10.3 5.3 10.3 10.6s-3.4 10.6-10.3 10.6h-7v10.6h-4.6v-31.7h11.6zm0 16.7c3.9 0 5.8-3 5.8-6s-1.9-6-5.8-6h-7v12h7z"/></g><g fill="#FFF" stroke="#1EA139" stroke-width="3" stroke-miterlimit="10"><path d="M299.7-1234.6c-.7-3.2-4.2-4.6-7.3-4.5-2.4.1-5 .9-6.5 2.7-.7.9-1 2.1-.9 3.3.3 3.7 4.3 4.1 8.1 4.5 4.9.6 11 1.9 12.3 7.6.2.8.3 1.6.3 2.3 0 6.9-6.8 10.9-13.2 10.9-5.5 0-12.2-3.3-12.8-9.6l-.1-1 5.2-.1.1.8v-.2c.4 3.3 4.4 5 7.7 5 3.8 0 8-2.1 8-5.8 0-.4-.1-.8-.2-1.2-.6-2.7-4.3-3.2-7.8-3.5-5.6-.6-12.1-1.8-12.6-9.2v.1c-.2-2.4.4-4.8 1.9-6.8 2.4-3.1 6.7-4.7 10.8-4.7 5.5 0 11.2 2.9 12.1 9.4h-5.1zM330.1-1218.6h-12.8c-1.4 3.3-3.2 7.5-4.3 10.5h-5.6l14.3-36.1h3.8l14.3 36.1h-5.5l-4.2-10.5zm-10.9-4.9h8.9l-4.4-12.6-4.5 12.6zM347.4-1208.1h-5.1v-35.6h21.2v5.1h-16.1v10h14.3v5.2h-14.3v15.3zM372.4-1213.3H389v5.1h-21.8v-35.6h21.7v5.1h-16.5v10h16.2v5.2h-16.2v10.2zM402.3-1208v-30.6h-10.8v-5.2h26.7v5.2h-10.8v30.6h-5.1zM425.3-1243.8l9.7 15.6 9.7-15.6h6.1l-13.2 21.1v14.5h-5.2v-14.5l-13.2-21.1h6.1z"/></g><path fill="#FFF" d="M428.8-1373.9c-7.3-2.6-14.2-2.4-20.5-.7l-18.9-43.3c-.8-1.9-2.7-3.1-4.7-3.1h-22.1c-1.5 0-2.7 1.2-2.7 2.7v4.9c0 1.5 1.2 2.7 2.7 2.7h17c1.1 0 2 .6 2.4 1.6l5.5 12.6c.8 1.8-.5 3.7-2.4 3.7h-38.6c-1.1 0-2-.6-2.4-1.6l-3.5-8h7.4c1.5 0 2.7-1.2 2.7-2.7v-4.9c0-1.5-1.2-2.7-2.7-2.7h-26.3c-1.5 0-2.7 1.2-2.7 2.7v4.9c0 1.5 1.2 2.7 2.7 2.7h6c1.1 0 2 .6 2.4 1.6l5 11.6c.4.9.3 1.9-.3 2.6l-11.1 15c-5.3-2.9-11.3-4.4-17.8-4.2-19.2.5-34.9 16.9-34.5 36.1.4 19.3 16.1 34.8 35.5 34.8 17.1 0 31.3-12.1 34.7-28.2.3-1.3 1.3-2.2 2.6-2.2H362c1.7 0 3.2-.8 4.2-2.2l26.3-37.7c1.2-1.7 3.8-1.4 4.6.5l1.8 4.2c-11.3 7-18.4 20.2-16.5 34.9 2 15.5 14.4 28.1 29.9 30.3 22.5 3.3 41.8-14.7 40.7-36.9-.7-14.3-10.5-26.9-24.2-31.7zm-86.5 1.2l10.3 23.6c.8 1.8-.5 3.7-2.4 3.7h-5.9c-1.3 0-2.4-.9-2.6-2.2-1.3-6.1-4.1-11.7-8.1-16.2-.9-1-1-2.4-.2-3.4l4.5-6c1-1.7 3.5-1.4 4.4.5zm-14.4 18.5c1.1 1.6 2 3.4 2.7 5.3.6 1.7-.7 3.5-2.5 3.5H317l6.6-8.9c1.1-1.4 3.3-1.4 4.3.1zm-21.1 39.2c-14.1 0-25.5-11.5-25.3-25.7.2-13.1 10.9-24.2 24.1-24.8 3-.1 5.8.2 8.4 1 1.7.5 2.4 2.7 1.3 4.1l-12.6 17c-1.2 1.6-1.3 3.6-.5 5.3.9 1.7 2.6 2.8 4.6 2.8H328c1.8 0 3.2 1.8 2.5 3.5-3.4 9.8-12.8 16.8-23.7 16.8zm54.3-40.1l-10.3-23.7c-.8-1.8.5-3.7 2.4-3.7h26.9c2.2 0 3.4 2.4 2.2 4.2l-16.6 23.7c-1.2 1.7-3.8 1.4-4.6-.5zm53.9 39.9c-11.5-1.1-21-10.3-22.5-21.8-1.1-8.5 2.1-16.3 7.7-21.6 1.3-1.3 3.5-.7 4.2.9l7.4 17c.6 1.3 2.2 2 3.5 1.4l4.5-2c1.3-.6 2-2.2 1.4-3.5l-7.4-17c-.7-1.7.4-3.6 2.2-3.7 2.6-.2 5.4.1 8.2.8 9.7 2.6 17.1 11 18.4 20.9 2.2 16.3-11.3 30.2-27.6 28.6z"/><path fill="#040000" d="M458.9-1367.8c.8-1.2 2-1.2 2.8 0l3.5 5.6c.8 1.2 2.5 1.8 3.9 1.3l6.1-2.5c1.4-.6 2.4.2 2.3 1.6l-.5 6.6c-.1 1.5 1 2.9 2.4 3.3l6.4 1.6c1.4.3 1.8 1.5.9 2.7l-4.2 5c-.9 1.1-.9 2.9 0 4.1l4.2 5c.9 1.1.6 2.3-.9 2.7l-6.4 1.6c-1.4.3-2.5 1.8-2.4 3.3l.5 6.6c.1 1.5-.9 2.2-2.3 1.6l-6.1-2.5c-1.4-.6-3.1 0-3.9 1.3l-3.5 5.6c-.8 1.2-2 1.2-2.8 0l-3.5-5.6c-.8-1.2-2.5-1.8-3.9-1.3l-6.1 2.5c-1.4.6-2.4-.2-2.3-1.6l.5-6.6c.1-1.5-1-2.9-2.4-3.3l-6.4-1.6c-1.4-.3-1.8-1.5-.9-2.7l4.2-5c.9-1.1.9-2.9 0-4.1l-4.2-5c-.9-1.1-.6-2.3.9-2.7l6.4-1.6c1.4-.3 2.5-1.8 2.4-3.3l-.5-6.6c-.1-1.5.9-2.2 2.3-1.6l6.1 2.5c1.4.6 3.1 0 3.9-1.3l3.5-5.6z"/></g></g><g><path opacity=".8" fill="#1EA139" d="M-2504.3 1469.3h1002v1500h-1002z"/><linearGradient id="t" gradientUnits="userSpaceOnUse" x1="-2127.267" y1="2219.288" x2="-1999.767" y2="2219.288"><stop offset="0" stop-opacity="0"/><stop offset=".859" stop-opacity=".172"/><stop offset="1" stop-opacity=".2"/></linearGradient><path fill="url(#t)" d="M-2127.3 1469.3h127.5v1500h-127.5z"/><path fill="#FFF" d="M-2001.8 1469.3h500v1501h-500z"/><path fill="#FDFDFD" d="M-2001.5 2005.5h500.2v121.2h-500.2z"/><text transform="translate(-1884.767 1952.29)"><tspan x="0" y="0" fill="#626161" font-family="'HelveticaNeueCE-Thin'" font-size="32" letter-spacing="1">HOME</tspan><tspan x="0" y="122" fill="#626161" font-family="'HelveticaNeueCE-Thin'" font-size="32" letter-spacing="1">SAFETY MAP</tspan><tspan x="0" y="244" fill="#626161" font-family="'HelveticaNeueCE-Thin'" font-size="32" letter-spacing="1">CONSEPT</tspan><tspan x="0" y="366" fill="#626161" font-family="'HelveticaNeueCE-Thin'" font-size="32" letter-spacing="1">HELP</tspan><tspan x="0" y="488.7" fill="#626161" font-family="'KozGoPro-ExtraLight-83pv-RKSJ-H'" font-size="32" letter-spacing="1">運営</tspan></text><path fill="#1EA139" d="M-1940.2 1929.1l10.3 7.8v14.4h-20.7v-14.4l10.4-7.8m0-8.1c-.6 0-1.2.2-1.6.5l-14.2 10.7c-.9.7-1.6 2.1-1.6 3.2v20.9c0 1.1.9 2 2 2h30.7c1.1 0 2-.9 2-2v-20.9c0-1.1-.7-2.5-1.6-3.2l-14.2-10.7c-.3-.3-.9-.5-1.5-.5z"/><circle fill="#1EA139" cx="-1940.2" cy="2307.4" r="23.3"/><path fill="#FFF" d="M-1938.2 2311.5l-3.8-.1c.1-2.9 1.8-4.7 3-6 1-1.1 1.6-1.7 1.6-2.6 0-1.5-1.2-2.7-2.7-2.7-1.5 0-2.7 1.2-2.7 2.7h-3.8c0-3.6 3-6.6 6.6-6.6 3.6 0 6.6 3 6.6 6.6 0 2.5-1.5 4-2.7 5.2-1.4 1.4-2.1 2.2-2.1 3.5z"/><circle fill="#FFF" cx="-1940.2" cy="2316.3" r="2.7"/><path fill="#1EA139" d="M-1962.2 2196.9c1.3 1.5 3.7 1.6 5 .1l11.3-11.6c.8-.9 2.3-.3 2.3.9v22.4c0 1.8 1.3 3.4 3.1 3.5 2 .2 3.7-1.4 3.7-3.4v-22.5c0-1.2 1.5-1.8 2.3-.9l11.3 11.6c1.4 1.4 3.7 1.4 5-.1 1.2-1.3 1-3.4-.2-4.7l-19.4-20c-.6-.7-1.5-1-2.5-1s-1.8.4-2.5 1l-19.4 20c-1 1.3-1.2 3.3 0 4.7z"/><g fill="#1EA139"><path d="M-1940.2 2424.9c-5.1 0-9.3-4.2-9.3-9.3s4.2-9.3 9.3-9.3c5.1 0 9.3 4.2 9.3 9.3s-4.1 9.3-9.3 9.3zm0-12.6c-1.8 0-3.3 1.5-3.3 3.3 0 1.8 1.5 3.3 3.3 3.3s3.3-1.5 3.3-3.3c0-1.8-1.4-3.3-3.3-3.3zM-1925.2 2448.8c-1.7 0-3-1.3-3-3 0-6.6-5.3-11.9-11.9-11.9s-11.9 5.3-11.9 11.9c0 1.7-1.3 3-3 3s-3-1.3-3-3c0-9.9 8-17.9 17.9-17.9s17.9 8 17.9 17.9c0 1.6-1.4 3-3 3z"/></g><path fill="#1EA139" d="M-1940.2 2047.3c6.4 0 11.6 5.2 11.6 11.6 0 4.3-3.3 9-7.9 15.5-1.2 1.7-2.4 3.4-3.7 5.3-1.3-1.9-2.6-3.7-3.8-5.4-4.3-6.1-8-11.3-8-15.4.2-6.4 5.4-11.6 11.8-11.6m0-7c-10.3 0-18.6 8.3-18.6 18.6 0 9.6 10.1 18.8 17.3 31.7.3.6.9.8 1.4.8.6 0 1.1-.3 1.4-.8 8.2-14.1 17.2-22.1 17.2-31.7 0-10.3-8.4-18.6-18.7-18.6z"/><g><defs><path id="u" d="M-2000.8 1469.3h499v415h-499z"/></defs><use xlink:href="#u" overflow="visible" fill="#FDFDFD"/><clipPath id="v"><use xlink:href="#u" overflow="visible"/></clipPath><g clip-path="url(#v)"><path fill="#1EA139" d="M-1594.5 1694.6c0 83.5-77 152.1-147.9 273.5-5.6 9.5-19.3 9.4-24.6-.2-61.7-111.2-148.6-190.3-148.6-273.2 0-88.5 71.9-160.3 160.6-160.3 88.6-.1 160.5 71.6 160.5 160.2z"/><g fill="#FFF"><path d="M-1823.1 1723.9c4 0 6.5 2.3 7.7 5.2 1.3 3.1.9 6.8-2.3 9 3.6 1.5 4.9 4.9 4.9 7.9 0 4.8-3.1 9.6-9.2 9.6h-14.3v-31.7h13.2zm-8.6 12.6h8.6c5 0 5.1-8.2.1-8.2h-8.7v8.2zm0 14.7h9.8c3.1 0 4.6-2.6 4.6-5.1s-1.5-5-4.6-5h-9.8v10.1zM-1805.8 1723.9h3.8v31.7h-3.8zM-1790.9 1728.5c2.8-2.9 6.7-4.7 11-4.7 7.2 0 13 4.5 14.8 11.7h-4.5c-1.7-4.8-5.6-7.2-10.2-7.2-3 0-5.8 1.3-7.8 3.4-2 2.1-3.3 4.9-3.3 8.2 0 3.2 1.3 6 3.3 8.1 2 2.1 4.8 3.4 7.8 3.4 4.8 0 8.9-2.8 10.5-7.6h4.5c-1.8 7.2-7.6 12.1-15 12.1-4.3 0-8.2-1.8-11-4.7-2.7-2.9-4.5-6.9-4.5-11.3-.2-4.5 1.6-8.5 4.4-11.4zM-1759.5 1723.9l8.7 13.9 8.7-13.9h5.4l-11.8 18.8v12.9h-4.6v-12.9l-11.7-18.8h5.3zM-1732.5 1728.5c2.8-2.9 6.7-4.7 11-4.7 7.2 0 13 4.5 14.8 11.7h-4.5c-1.7-4.8-5.6-7.2-10.2-7.2-3 0-5.8 1.3-7.8 3.4-2 2.1-3.3 4.9-3.3 8.2 0 3.2 1.3 6 3.3 8.1 2 2.1 4.8 3.4 7.8 3.4 4.8 0 8.9-2.8 10.5-7.6h4.5c-1.8 7.2-7.6 12.1-15 12.1-4.3 0-8.2-1.8-11-4.7-2.7-2.9-4.5-6.9-4.5-11.3-.1-4.5 1.7-8.5 4.4-11.4zM-1697 1751h14.9v4.6h-19.5v-31.7h4.6v27.1zM-1673.9 1751h14.7v4.6h-19.3v-31.7h19.3v4.6h-14.7v8.9h14.4v4.6h-14.4v9zM-1786.1 1837.1h-4.6v-31.7h3.7l10.5 15.4 10.5-15.4h3.6v31.7h-4.5v-22.3l-8.3 12.3h-2.6l-8.3-12.3v22.3zM-1739.5 1827.8h-11.4c-1.2 2.9-2.8 6.7-3.8 9.3h-4.9l12.7-32.1h3.4l12.7 32.1h-4.9l-3.8-9.3zm-9.6-4.3h7.9l-3.9-11.2-4 11.2zM-1717 1805.4c6.8 0 10.3 5.3 10.3 10.6s-3.4 10.6-10.3 10.6h-7v10.6h-4.6v-31.7h11.6zm0 16.7c3.9 0 5.8-3 5.8-6s-1.9-6-5.8-6h-7v12h7z"/></g><g fill="#FFF" stroke="#1EA139" stroke-width="3" stroke-miterlimit="10"><path d="M-1813.8 1771.9c-.7-3.2-4.2-4.6-7.3-4.5-2.4.1-5 .9-6.5 2.7-.7.9-1 2.1-.9 3.3.3 3.7 4.3 4.1 8.1 4.5 4.9.6 11 1.9 12.3 7.6.2.8.3 1.6.3 2.3 0 6.9-6.8 10.9-13.2 10.9-5.5 0-12.2-3.3-12.8-9.6l-.1-1 5.2-.1.1.8v-.2c.4 3.3 4.4 5 7.7 5 3.8 0 8-2.1 8-5.8 0-.4-.1-.8-.2-1.2-.6-2.7-4.3-3.2-7.8-3.5-5.6-.6-12.1-1.8-12.6-9.2v.1c-.2-2.4.4-4.8 1.9-6.8 2.4-3.1 6.7-4.7 10.8-4.7 5.5 0 11.2 2.9 12.1 9.4h-5.1zM-1783.3 1787.9h-12.8c-1.4 3.3-3.2 7.5-4.3 10.5h-5.6l14.3-36.1h3.8l14.3 36.1h-5.5l-4.2-10.5zm-10.9-4.9h8.9l-4.4-12.6-4.5 12.6zM-1766 1798.4h-5.1v-35.6h21.2v5.1h-16.1v10h14.3v5.2h-14.3v15.3zM-1741 1793.2h16.6v5.1h-21.8v-35.6h21.7v5.1h-16.5v10h16.2v5.2h-16.2v10.2zM-1711.2 1798.5v-30.6h-10.8v-5.2h26.7v5.2h-10.8v30.6h-5.1zM-1688.2 1762.7l9.7 15.6 9.7-15.6h6.1l-13.2 21.1v14.5h-5.2v-14.5l-13.2-21.1h6.1z"/></g><path fill="#FFF" d="M-1684.7 1632.6c-7.3-2.6-14.2-2.4-20.5-.7l-18.9-43.3c-.8-1.9-2.7-3.1-4.7-3.1h-22.1c-1.5 0-2.7 1.2-2.7 2.7v4.9c0 1.5 1.2 2.7 2.7 2.7h17c1.1 0 2 .6 2.4 1.6l5.5 12.6c.8 1.8-.5 3.7-2.4 3.7h-38.6c-1.1 0-2-.6-2.4-1.6l-3.5-8h7.4c1.5 0 2.7-1.2 2.7-2.7v-4.9c0-1.5-1.2-2.7-2.7-2.7h-26.3c-1.5 0-2.7 1.2-2.7 2.7v4.9c0 1.5 1.2 2.7 2.7 2.7h6c1.1 0 2 .6 2.4 1.6l5 11.6c.4.9.3 1.9-.3 2.6l-11.1 15c-5.3-2.9-11.3-4.4-17.8-4.2-19.2.5-34.9 16.9-34.5 36.1.4 19.3 16.1 34.8 35.5 34.8 17.1 0 31.3-12.1 34.7-28.2.3-1.3 1.3-2.2 2.6-2.2h17.8c1.7 0 3.2-.8 4.2-2.2l26.3-37.7c1.2-1.7 3.8-1.4 4.6.5l1.8 4.2c-11.3 7-18.4 20.2-16.5 34.9 2 15.5 14.4 28.1 29.9 30.3 22.5 3.3 41.8-14.7 40.7-36.9-.6-14.3-10.5-26.9-24.2-31.7zm-86.5 1.2l10.3 23.6c.8 1.8-.5 3.7-2.4 3.7h-5.9c-1.3 0-2.4-.9-2.6-2.2-1.3-6.1-4.1-11.7-8.1-16.2-.9-1-1-2.4-.2-3.4l4.5-6c1-1.7 3.6-1.4 4.4.5zm-14.4 18.5c1.1 1.6 2 3.4 2.7 5.3.6 1.7-.7 3.5-2.5 3.5h-11.1l6.6-8.9c1.1-1.4 3.3-1.4 4.3.1zm-21 39.2c-14.1 0-25.5-11.5-25.3-25.7.2-13.1 10.9-24.2 24.1-24.8 3-.1 5.8.2 8.4 1 1.7.5 2.4 2.7 1.3 4.1l-12.6 17c-1.2 1.6-1.3 3.6-.5 5.3.9 1.7 2.6 2.8 4.6 2.8h21.2c1.8 0 3.2 1.8 2.5 3.5-3.5 9.8-12.8 16.8-23.7 16.8zm54.2-40.1l-10.3-23.7c-.8-1.8.5-3.7 2.4-3.7h26.9c2.2 0 3.4 2.4 2.2 4.2l-16.6 23.7c-1.2 1.7-3.8 1.4-4.6-.5zm54 39.9c-11.5-1.1-21-10.3-22.5-21.8-1.1-8.5 2.1-16.3 7.7-21.6 1.3-1.3 3.5-.7 4.2.9l7.4 17c.6 1.3 2.2 2 3.5 1.4l4.5-2c1.3-.6 2-2.2 1.4-3.5l-7.4-17c-.7-1.7.4-3.6 2.2-3.7 2.6-.2 5.4.1 8.2.8 9.7 2.6 17.1 11 18.4 20.9 2.2 16.3-11.4 30.2-27.6 28.6z"/><path fill="#040000" d="M-1654.5 1638.7c.8-1.2 2-1.2 2.8 0l3.5 5.6c.8 1.2 2.5 1.8 3.9 1.3l6.1-2.5c1.4-.6 2.4.2 2.3 1.6l-.5 6.6c-.1 1.5 1 2.9 2.4 3.3l6.4 1.6c1.4.3 1.8 1.5.9 2.7l-4.2 5c-.9 1.1-.9 2.9 0 4.1l4.2 5c.9 1.1.6 2.3-.9 2.7l-6.4 1.6c-1.4.3-2.5 1.8-2.4 3.3l.5 6.6c.1 1.5-.9 2.2-2.3 1.6l-6.1-2.5c-1.4-.6-3.1 0-3.9 1.3l-3.5 5.6c-.8 1.2-2 1.2-2.8 0l-3.5-5.6c-.8-1.2-2.5-1.8-3.9-1.3l-6.1 2.5c-1.4.6-2.4-.2-2.3-1.6l.5-6.6c.1-1.5-1-2.9-2.4-3.3l-6.4-1.6c-1.4-.3-1.8-1.5-.9-2.7l4.2-5c.9-1.1.9-2.9 0-4.1l-4.2-5c-.9-1.1-.6-2.3.9-2.7l6.4-1.6c1.4-.3 2.5-1.8 2.4-3.3l-.5-6.6c-.1-1.5.9-2.2 2.3-1.6l6.1 2.5c1.4.6 3.1 0 3.9-1.3l3.5-5.6z"/></g></g><g fill="none" stroke="#9DA29E" stroke-width=".3" stroke-miterlimit="10"><path opacity=".6" d="M-2001.8 2005.5h500.5M-2001.8 1884.3h500.5M-2001.8 2247.9h500.5M-2001.8 2126.7h500.5M-2001.8 2490.3h500.5M-2001.8 2369.1h500.5"/></g><g><path fill="#FFF" d="M-2053.7 2015.3h52v386h-52c-11 0-20-9-20-20v-346c0-11.1 8.9-20 20-20z"/><path fill="none" stroke="#1EA139" stroke-width="3" stroke-miterlimit="10" d="M-2043.2 2223.8l14.7-14.8-14.7-14.7"/></g><g><text transform="translate(-2363.407 2325.817)" fill="#FFF" font-family="'KozGoPro-Heavy-83pv-RKSJ-H'" font-size="41.423" letter-spacing="1">メニュー</text><g fill="#FFF"><path d="M-2362.9 2088.8h169.6v22.5h-169.6zM-2362.9 2159h169.6v22.5h-169.6zM-2362.9 2229.2h169.6v22.5h-169.6z"/></g></g><g><g fill="#FFF"><path d="M-3842.2 2298.9c3.1 1.3 6.5 3 9.9 4.8 1.9-3 4.7-8.3 6.7-13.1l7.8 3.3c-.2.5-.8.7-1.7.7-1.9 3.9-4.6 8.9-7 12.5 1.9 1.2 5 3.2 7.4 5.2l-4.2 6.1c-1.8-1.7-4.3-3.8-7.1-5.7-4.1 5.5-9.6 11-15.5 14.8-1.1-1.3-3.7-3.6-5.3-4.6 5.6-3.4 11.2-8.3 15.2-13.5-3.2-1.9-6.6-3.6-9.7-5.1l3.5-5.4zM-3773.4 2317.2v6.1h-34.6v-6.1h34.6zm-4.2-21.1v6.1h-26.2v-6.1h26.2zM-3733.4 2319.5v4.9h-28.3v-4.9h15.7c.6-3.6 1.2-9.2 1.7-12.6h-14.3v-4.9h16l.9-.3 4 1.7c-.1.3-.4.6-.7.7-.5 3.8-1.7 11.6-2.3 15.4h7.3zM-3722 2305.3h34.6v6.3h-32.8c-.3.4-.9.7-1.5.8l-.3-7.1z"/></g><g fill="#FFF"><path d="M-3853.9 2087.8h169.6v22.5h-169.6zM-3853.9 2158h169.6v22.5h-169.6zM-3853.9 2228.2h169.6v22.5h-169.6z"/></g></g></g></svg>