<svg xmlns="http://www.w3.org/2000/svg" xmlns:xlink="http://www.w3.org/1999/xlink" viewBox="0 0 34.7 37.3"><text transform="translate(-2777.22 1599.39)"><tspan x="0" y="0" font-family="'KozGoPro-Light-83pv-RKSJ-H'" font-size="21">文字だけ写真なし</tspan><tspan x="0" y="73.5" font-family="'KozGoPro-Light-83pv-RKSJ-H'" font-size="21">リストでは塊として表示するか、単体で表示するか</tspan><tspan x="0" y="110.2" font-family="'KozGoPro-Light-83pv-RKSJ-H'" font-size="21">タイトルは住所にするか状況にするか</tspan></text><path fill="#FFF" d="M-482.5 1832.4h500v2000h-500z"/><path fill="#FDFDFD" d="M-482.2 2368.6H18v121.2h-500.2z"/><text transform="translate(-365.47 2315.394)"><tspan x="0" y="0" fill="#626161" font-family="'HelveticaNeueCE-Thin'" font-size="32" letter-spacing="1">HOME</tspan><tspan x="0" y="122" fill="#626161" font-family="'HelveticaNeueCE-Thin'" font-size="32" letter-spacing="1">SAFETY MAP</tspan><tspan x="0" y="244" fill="#626161" font-family="'HelveticaNeueCE-Thin'" font-size="32" letter-spacing="1">CONSEPT</tspan><tspan x="0" y="366" fill="#626161" font-family="'HelveticaNeueCE-Thin'" font-size="32" letter-spacing="1">HELP</tspan><tspan x="0" y="488.7" fill="#626161" font-family="'KozGoPro-ExtraLight-83pv-RKSJ-H'" font-size="32" letter-spacing="1">運営</tspan></text><path fill="#FF77D6" d="M-420.9 2292.2l10.3 7.8v14.4h-20.7V2300l10.4-7.8m0-8.1c-.6 0-1.2.2-1.6.5l-14.2 10.7c-.9.7-1.6 2.1-1.6 3.2v20.9c0 1.1.9 2 2 2h30.7c1.1 0 2-.9 2-2v-20.9c0-1.1-.7-2.5-1.6-3.2l-14.2-10.7c-.3-.3-.9-.5-1.5-.5z"/><circle fill="#DDB588" cx="-420.9" cy="2670.5" r="23.3"/><path fill="#FFF" d="M-418.9 2674.6l-3.8-.1c.1-2.9 1.8-4.7 3-6 1-1.1 1.6-1.7 1.6-2.6 0-1.5-1.2-2.7-2.7-2.7-1.5 0-2.7 1.2-2.7 2.7h-3.8c0-3.6 3-6.6 6.6-6.6 3.6 0 6.6 3 6.6 6.6 0 2.5-1.5 4-2.7 5.2-1.4 1.4-2.1 2.2-2.1 3.5z"/><circle fill="#FFF" cx="-420.9" cy="2679.4" r="2.7"/><path fill="#38D4EA" d="M-442.9 2560c1.3 1.5 3.7 1.6 5 .1l11.3-11.6c.8-.9 2.3-.3 2.3.9v22.4c0 1.8 1.3 3.4 3.1 3.5 2 .2 3.7-1.4 3.7-3.4v-22.5c0-1.2 1.5-1.8 2.3-.9l11.3 11.6c1.4 1.4 3.7 1.4 5-.1 1.2-1.3 1-3.4-.2-4.7l-19.4-20c-.6-.7-1.5-1-2.5-1s-1.8.4-2.5 1l-19.4 20c-1 1.3-1.2 3.3 0 4.7z"/><g fill="#DDB588"><path d="M-420.9 2788c-5.1 0-9.3-4.2-9.3-9.3s4.2-9.3 9.3-9.3c5.1 0 9.3 4.2 9.3 9.3s-4.1 9.3-9.3 9.3zm0-12.6c-1.8 0-3.3 1.5-3.3 3.3 0 1.8 1.5 3.3 3.3 3.3s3.3-1.5 3.3-3.3c0-1.8-1.5-3.3-3.3-3.3zM-405.9 2811.9c-1.7 0-3-1.3-3-3 0-6.6-5.3-11.9-11.9-11.9s-11.9 5.3-11.9 11.9c0 1.7-1.3 3-3 3s-3-1.3-3-3c0-9.9 8-17.9 17.9-17.9s17.9 8 17.9 17.9c0 1.7-1.4 3-3 3z"/></g><path fill="#1EA139" d="M-420.9 2410.4c6.4 0 11.6 5.2 11.6 11.6 0 4.3-3.3 9-7.9 15.5-1.2 1.7-2.4 3.4-3.7 5.3-1.3-1.9-2.6-3.7-3.8-5.4-4.3-6.1-8-11.3-8-15.4.2-6.4 5.4-11.6 11.8-11.6m0-7c-10.3 0-18.6 8.3-18.6 18.6 0 9.6 10.1 18.8 17.3 31.7.3.6.9.8 1.4.8.6 0 1.1-.3 1.4-.8 8.2-14.1 17.2-22.1 17.2-31.7 0-10.3-8.4-18.6-18.7-18.6z"/><defs><path id="a" d="M-482.5 1832.4h500v415h-500z"/></defs><use xlink:href="#a" overflow="visible" fill="#FDFDFD"/><clipPath id="b"><use xlink:href="#a" overflow="visible"/></clipPath><g clip-path="url(#b)"><path fill="#FF77D6" d="M-75.2 2057.7c0 83.5-77 152.1-147.9 273.5-5.6 9.5-19.3 9.4-24.6-.2-61.7-111.2-148.6-190.3-148.6-273.2 0-88.5 71.9-160.3 160.6-160.3 88.6-.1 160.5 71.6 160.5 160.2z"/><g fill="#040000"><path d="M-303.8 2087.1c4 0 6.5 2.3 7.7 5.2 1.3 3.1.9 6.8-2.3 9 3.6 1.5 4.9 4.9 4.9 7.9 0 4.8-3.1 9.6-9.2 9.6H-317v-31.7h13.2zm-8.7 12.5h8.6c5 0 5.1-8.2.1-8.2h-8.7v8.2zm0 14.7h9.8c3.1 0 4.6-2.6 4.6-5.1s-1.5-5-4.6-5h-9.8v10.1zM-286.5 2087.1h3.8v31.7h-3.8zM-271.6 2091.6c2.8-2.9 6.7-4.7 11-4.7 7.2 0 13 4.5 14.8 11.7h-4.5c-1.7-4.8-5.6-7.2-10.2-7.2-3 0-5.8 1.3-7.8 3.4-2 2.1-3.3 4.9-3.3 8.2 0 3.2 1.3 6 3.3 8.1 2 2.1 4.8 3.4 7.8 3.4 4.8 0 8.9-2.8 10.5-7.6h4.5c-1.8 7.2-7.6 12.1-15 12.1-4.3 0-8.2-1.8-11-4.7-2.7-2.9-4.5-6.9-4.5-11.3-.2-4.5 1.6-8.5 4.4-11.4zM-240.2 2087.1l8.7 13.9 8.7-13.9h5.4l-11.8 18.8v12.9h-4.6v-12.9l-11.7-18.8h5.3zM-213.2 2091.6c2.8-2.9 6.7-4.7 11-4.7 7.2 0 13 4.5 14.8 11.7h-4.5c-1.7-4.8-5.6-7.2-10.2-7.2-3 0-5.8 1.3-7.8 3.4-2 2.1-3.3 4.9-3.3 8.2 0 3.2 1.3 6 3.3 8.1 2 2.1 4.8 3.4 7.8 3.4 4.8 0 8.9-2.8 10.5-7.6h4.5c-1.8 7.2-7.6 12.1-15 12.1-4.3 0-8.2-1.8-11-4.7-2.7-2.9-4.5-6.9-4.5-11.3-.1-4.5 1.7-8.5 4.4-11.4zM-177.7 2114.1h14.9v4.6h-19.5V2087h4.6v27.1zM-154.6 2114.1h14.7v4.6h-19.3V2087h19.3v4.6h-14.7v8.9h14.4v4.6h-14.4v9zM-266.8 2200.2h-4.6v-31.7h3.7l10.5 15.4 10.5-15.4h3.6v31.7h-4.5v-22.3l-8.3 12.3h-2.6l-8.3-12.3v22.3zM-220.2 2190.9h-11.4c-1.2 2.9-2.8 6.7-3.8 9.3h-4.9l12.7-32.1h3.4l12.7 32.1h-4.9l-3.8-9.3zm-9.6-4.3h7.9l-3.9-11.2-4 11.2zM-197.7 2168.5c6.8 0 10.3 5.3 10.3 10.6s-3.4 10.6-10.3 10.6h-7v10.6h-4.6v-31.7h11.6zm0 16.7c3.9 0 5.8-3 5.8-6s-1.9-6-5.8-6h-7v12h7z"/></g><g fill="#040000" stroke="#FFF" stroke-width="3" stroke-miterlimit="10"><path d="M-294.5 2135c-.7-3.2-4.2-4.6-7.3-4.5-2.4.1-5 .9-6.5 2.7-.7.9-1 2.1-.9 3.3.3 3.7 4.3 4.1 8.1 4.5 4.9.6 11 1.9 12.3 7.6.2.8.3 1.6.3 2.3 0 6.9-6.8 10.9-13.2 10.9-5.5 0-12.2-3.3-12.8-9.6l-.1-1 5.2-.1.1.8v-.2c.4 3.3 4.4 5 7.7 5 3.8 0 8-2.1 8-5.8 0-.4-.1-.8-.2-1.2-.6-2.7-4.3-3.2-7.8-3.5-5.6-.6-12.1-1.8-12.6-9.2v.1c-.2-2.4.4-4.8 1.9-6.8 2.4-3.1 6.7-4.7 10.8-4.7 5.5 0 11.2 2.9 12.1 9.4h-5.1zM-264.1 2151h-12.8c-1.4 3.3-3.2 7.5-4.3 10.5h-5.6l14.3-36.1h3.8l14.3 36.1h-5.5l-4.2-10.5zm-10.8-4.9h8.9l-4.4-12.6-4.5 12.6zM-246.7 2161.5h-5.1v-35.6h21.2v5.1h-16.1v10h14.3v5.2h-14.3v15.3zM-221.8 2156.3h16.6v5.1H-227v-35.6h21.7v5.1h-16.5v10h16.2v5.2h-16.2v10.2zM-191.9 2161.6V2131h-10.8v-5.2h26.7v5.2h-10.8v30.6h-5.1zM-168.9 2125.9l9.7 15.6 9.7-15.6h6.1l-13.2 21.1v14.5h-5.2V2147l-13.2-21.1h6.1z"/></g><path fill="#040000" d="M-165.4 1995.7c-7.3-2.6-14.2-2.4-20.5-.7l-18.9-43.3c-.8-1.9-2.7-3.1-4.7-3.1h-22.1c-1.5 0-2.7 1.2-2.7 2.7v4.9c0 1.5 1.2 2.7 2.7 2.7h17c1.1 0 2 .6 2.4 1.6l5.5 12.6c.8 1.8-.5 3.7-2.4 3.7h-38.6c-1.1 0-2-.6-2.4-1.6l-3.5-8h7.4c1.5 0 2.7-1.2 2.7-2.7v-4.9c0-1.5-1.2-2.7-2.7-2.7h-26.3c-1.5 0-2.7 1.2-2.7 2.7v4.9c0 1.5 1.2 2.7 2.7 2.7h6c1.1 0 2 .6 2.4 1.6l5 11.6c.4.9.3 1.9-.3 2.6l-11.1 15c-5.3-2.9-11.3-4.4-17.8-4.2-19.2.5-34.9 16.9-34.5 36.1.4 19.3 16.1 34.8 35.5 34.8 17.1 0 31.3-12.1 34.7-28.2.3-1.3 1.3-2.2 2.6-2.2h17.8c1.7 0 3.2-.8 4.2-2.2l26.3-37.7c1.2-1.7 3.8-1.4 4.6.5l1.8 4.2c-11.3 7-18.4 20.2-16.5 34.9 2 15.5 14.4 28.1 29.9 30.3 22.5 3.3 41.8-14.7 40.7-36.9-.6-14.3-10.5-26.9-24.2-31.7zm-86.5 1.2l10.3 23.6c.8 1.8-.5 3.7-2.4 3.7h-5.9c-1.3 0-2.4-.9-2.6-2.2-1.3-6.1-4.1-11.7-8.1-16.2-.9-1-1-2.4-.2-3.4l4.5-6c1-1.7 3.6-1.4 4.4.5zm-14.4 18.5c1.1 1.6 2 3.4 2.7 5.3.6 1.7-.7 3.5-2.5 3.5h-11.1l6.6-8.9c1.1-1.4 3.3-1.4 4.3.1zm-21 39.2c-14.1 0-25.5-11.5-25.3-25.7.2-13.1 10.9-24.2 24.1-24.8 3-.1 5.8.2 8.4 1 1.7.5 2.4 2.7 1.3 4.1l-12.6 17c-1.2 1.6-1.3 3.6-.5 5.3.9 1.7 2.6 2.8 4.6 2.8h21.2c1.8 0 3.2 1.8 2.5 3.5-3.5 9.8-12.8 16.8-23.7 16.8zm54.2-40.1l-10.3-23.7c-.8-1.8.5-3.7 2.4-3.7h26.9c2.2 0 3.4 2.4 2.2 4.2l-16.6 23.7c-1.2 1.7-3.8 1.4-4.6-.5zm53.9 39.9c-11.5-1.1-21-10.3-22.5-21.8-1.1-8.5 2.1-16.3 7.7-21.6 1.3-1.3 3.5-.7 4.2.9l7.4 17c.6 1.3 2.2 2 3.5 1.4l4.5-2c1.3-.6 2-2.2 1.4-3.5l-7.4-17c-.7-1.7.4-3.6 2.2-3.7 2.6-.2 5.4.1 8.2.8 9.7 2.6 17.1 11 18.4 20.9 2.3 16.4-11.3 30.3-27.6 28.6z"/><path fill="#FFF" d="M-135.3 2001.8c.8-1.2 2-1.2 2.8 0l3.5 5.6c.8 1.2 2.5 1.8 3.9 1.3l6.1-2.5c1.4-.6 2.4.2 2.3 1.6l-.5 6.6c-.1 1.5 1 2.9 2.4 3.3l6.4 1.6c1.4.3 1.8 1.5.9 2.7l-4.2 5c-.9 1.1-.9 2.9 0 4.1l4.2 5c.9 1.1.6 2.3-.9 2.7l-6.4 1.6c-1.4.3-2.5 1.8-2.4 3.3l.5 6.6c.1 1.5-.9 2.2-2.3 1.6l-6.1-2.5c-1.4-.6-3.1 0-3.9 1.3l-3.5 5.6c-.8 1.2-2 1.2-2.8 0l-3.5-5.6c-.8-1.2-2.5-1.8-3.9-1.3l-6.1 2.5c-1.4.6-2.4-.2-2.3-1.6l.5-6.6c.1-1.5-1-2.9-2.4-3.3l-6.4-1.6c-1.4-.3-1.8-1.5-.9-2.7l4.2-5c.9-1.1.9-2.9 0-4.1l-4.2-5c-.9-1.1-.6-2.3.9-2.7l6.4-1.6c1.4-.3 2.5-1.8 2.4-3.3l-.5-6.6c-.1-1.5.9-2.2 2.3-1.6l6.1 2.5c1.4.6 3.1 0 3.9-1.3l3.5-5.6z"/></g><g fill="none" stroke="#9DA29E" stroke-width=".3" stroke-miterlimit="10"><path opacity=".6" d="M-482.5 2368.6H18M-482.5 2247.4H18M-482.5 2611H18M-482.5 2489.8H18M-482.5 2853.4H18M-482.5 2732.2H18"/></g><text transform="translate(-3559.22 1636.14)"><tspan x="0" y="0" font-family="'KozGoPro-Light-83pv-RKSJ-H'" font-size="21">坂</tspan><tspan x="0" y="36.8" font-family="'KozGoPro-Light-83pv-RKSJ-H'" font-size="21">交通量</tspan><tspan x="0" y="73.5" font-family="'KozGoPro-Light-83pv-RKSJ-H'" font-size="21">道幅</tspan><tspan x="0" y="110.2" font-family="'KozGoPro-Light-83pv-RKSJ-H'" font-size="21">見通し</tspan><tspan x="0" y="147" font-family="'KozGoPro-Light-83pv-RKSJ-H'" font-size="21">暗い</tspan><tspan x="0" y="183.8" font-family="'KozGoPro-Light-83pv-RKSJ-H'" font-size="21">歩行者</tspan><tspan x="0" y="220.5" font-family="'KozGoPro-Light-83pv-RKSJ-H'" font-size="21">通学路</tspan><tspan x="0" y="257.2" font-family="'KozGoPro-Light-83pv-RKSJ-H'" font-size="21">時間帯</tspan><tspan x="0" y="294" font-family="'KozGoPro-Light-83pv-RKSJ-H'" font-size="21">事故多発</tspan><tspan x="0" y="330.8" font-family="'KozGoPro-Light-83pv-RKSJ-H'" font-size="21">重大事故</tspan><tspan x="0" y="367.5" font-family="'KozGoPro-Light-83pv-RKSJ-H'" font-size="21">ヒヤリハット</tspan></text><path opacity=".6" fill="none" stroke="#283429" stroke-width=".3" stroke-miterlimit="10" d="M-2505.3 2061.4h997.3"/><text transform="translate(-2356.346 1921.39)"><tspan x="0" y="0" fill="#626262" font-family="'HelveticaNeue-Roman'" font-size="24">2014</tspan><tspan x="53.4" y="0" font-family="'HelveticaNeue-Roman'" font-size="24"> 11/12 </tspan><tspan x="128.1" y="0" fill="#626262" font-family="'HelveticaNeue-Roman'" font-size="24">10:00</tspan></text><text transform="translate(-2356.346 1967.39)" font-family="'KozGoPr6N-Regular-83pv-RKSJ-H'" font-size="32">自動車と出会いがしら衝突</text><text transform="translate(-2356.346 2009.39)"><tspan x="0" y="0" fill="#929292" font-family="'KozGoPr6N-Regular-83pv-RKSJ-H'" font-size="19">草津市野路東</tspan><tspan x="0" y="30" fill="#929292" font-family="'KozGoPr6N-Regular-83pv-RKSJ-H'" font-size="19">坂</tspan><tspan x="19" y="30" fill="#929292" font-family="'Helvetica'" font-size="19"> </tspan><tspan x="24.3" y="30" fill="#929292" font-family="'KozGoPr6N-Regular-83pv-RKSJ-H'" font-size="19">見通し</tspan><tspan x="81.3" y="30" fill="#929292" font-family="'Helvetica'" font-size="19"> </tspan><tspan x="86.6" y="30" fill="#929292" font-family="'KozGoPr6N-Regular-83pv-RKSJ-H'" font-size="19">暗い</tspan><tspan x="124.6" y="30" fill="#929292" font-family="'Helvetica'" font-size="19"> </tspan><tspan x="129.8" y="30" fill="#929292" font-family="'KozGoPr6N-Regular-83pv-RKSJ-H'" font-size="19">事故多発</tspan></text><text transform="translate(-2356.346 2207.39)"><tspan x="0" y="0" fill="#929292" font-family="'KozGoPr6N-Regular-83pv-RKSJ-H'" font-size="19">草津市野路東</tspan><tspan x="0" y="30" fill="#929292" font-family="'KozGoPr6N-Regular-83pv-RKSJ-H'" font-size="19">坂</tspan><tspan x="19" y="30" fill="#929292" font-family="'Helvetica'" font-size="19"> </tspan><tspan x="24.3" y="30" fill="#929292" font-family="'KozGoPr6N-Regular-83pv-RKSJ-H'" font-size="19">見通し</tspan><tspan x="81.3" y="30" fill="#929292" font-family="'Helvetica'" font-size="19"> </tspan><tspan x="86.6" y="30" fill="#929292" font-family="'KozGoPr6N-Regular-83pv-RKSJ-H'" font-size="19">暗い</tspan><tspan x="124.6" y="30" fill="#929292" font-family="'Helvetica'" font-size="19"> </tspan><tspan x="129.8" y="30" fill="#929292" font-family="'KozGoPr6N-Regular-83pv-RKSJ-H'" font-size="19">事故多発</tspan></text><text transform="translate(-2356.346 2417.39)"><tspan x="0" y="0" fill="#929292" font-family="'KozGoPr6N-Regular-83pv-RKSJ-H'" font-size="19">草津市野路東</tspan><tspan x="0" y="30" fill="#929292" font-family="'KozGoPr6N-Regular-83pv-RKSJ-H'" font-size="19">坂</tspan><tspan x="19" y="30" fill="#929292" font-family="'Helvetica'" font-size="19"> </tspan><tspan x="24.3" y="30" fill="#929292" font-family="'KozGoPr6N-Regular-83pv-RKSJ-H'" font-size="19">見通し</tspan><tspan x="81.3" y="30" fill="#929292" font-family="'Helvetica'" font-size="19"> </tspan><tspan x="86.6" y="30" fill="#929292" font-family="'KozGoPr6N-Regular-83pv-RKSJ-H'" font-size="19">暗い</tspan><tspan x="124.6" y="30" fill="#929292" font-family="'Helvetica'" font-size="19"> </tspan><tspan x="129.8" y="30" fill="#929292" font-family="'KozGoPr6N-Regular-83pv-RKSJ-H'" font-size="19">事故多発</tspan></text><text transform="translate(-2356.346 2629.39)"><tspan x="0" y="0" fill="#929292" font-family="'KozGoPr6N-Regular-83pv-RKSJ-H'" font-size="19">草津市野路東</tspan><tspan x="0" y="30" fill="#929292" font-family="'KozGoPr6N-Regular-83pv-RKSJ-H'" font-size="19">坂</tspan><tspan x="19" y="30" fill="#929292" font-family="'Helvetica'" font-size="19"> </tspan><tspan x="24.3" y="30" fill="#929292" font-family="'KozGoPr6N-Regular-83pv-RKSJ-H'" font-size="19">見通し</tspan><tspan x="81.3" y="30" fill="#929292" font-family="'Helvetica'" font-size="19"> </tspan><tspan x="86.6" y="30" fill="#929292" font-family="'KozGoPr6N-Regular-83pv-RKSJ-H'" font-size="19">暗い</tspan><tspan x="124.6" y="30" fill="#929292" font-family="'Helvetica'" font-size="19"> </tspan><tspan x="129.8" y="30" fill="#929292" font-family="'KozGoPr6N-Regular-83pv-RKSJ-H'" font-size="19">事故多発</tspan></text><text transform="translate(-2356.346 2845.39)"><tspan x="0" y="0" fill="#929292" font-family="'KozGoPr6N-Regular-83pv-RKSJ-H'" font-size="19">草津市野路東</tspan><tspan x="0" y="30" fill="#929292" font-family="'KozGoPr6N-Regular-83pv-RKSJ-H'" font-size="19">坂</tspan><tspan x="19" y="30" fill="#929292" font-family="'Helvetica'" font-size="19"> </tspan><tspan x="24.3" y="30" fill="#929292" font-family="'KozGoPr6N-Regular-83pv-RKSJ-H'" font-size="19">見通し</tspan><tspan x="81.3" y="30" fill="#929292" font-family="'Helvetica'" font-size="19"> </tspan><tspan x="86.6" y="30" fill="#929292" font-family="'KozGoPr6N-Regular-83pv-RKSJ-H'" font-size="19">暗い</tspan><tspan x="124.6" y="30" fill="#929292" font-family="'Helvetica'" font-size="19"> </tspan><tspan x="129.8" y="30" fill="#929292" font-family="'KozGoPr6N-Regular-83pv-RKSJ-H'" font-size="19">事故多発</tspan></text><text transform="translate(-2356.346 3053.39)"><tspan x="0" y="0" fill="#929292" font-family="'KozGoPr6N-Regular-83pv-RKSJ-H'" font-size="19">草津市野路東</tspan><tspan x="0" y="30" fill="#929292" font-family="'KozGoPr6N-Regular-83pv-RKSJ-H'" font-size="19">坂</tspan><tspan x="19" y="30" fill="#929292" font-family="'Helvetica'" font-size="19"> </tspan><tspan x="24.3" y="30" fill="#929292" font-family="'KozGoPr6N-Regular-83pv-RKSJ-H'" font-size="19">見通し</tspan><tspan x="81.3" y="30" fill="#929292" font-family="'Helvetica'" font-size="19"> </tspan><tspan x="86.6" y="30" fill="#929292" font-family="'KozGoPr6N-Regular-83pv-RKSJ-H'" font-size="19">暗い</tspan><tspan x="124.6" y="30" fill="#929292" font-family="'Helvetica'" font-size="19"> </tspan><tspan x="129.8" y="30" fill="#929292" font-family="'KozGoPr6N-Regular-83pv-RKSJ-H'" font-size="19">事故多発</tspan></text><text transform="translate(-2356.346 3265.39)"><tspan x="0" y="0" fill="#929292" font-family="'KozGoPr6N-Regular-83pv-RKSJ-H'" font-size="19">草津市野路東</tspan><tspan x="0" y="30" fill="#929292" font-family="'KozGoPr6N-Regular-83pv-RKSJ-H'" font-size="19">坂</tspan><tspan x="19" y="30" fill="#929292" font-family="'Helvetica'" font-size="19"> </tspan><tspan x="24.3" y="30" fill="#929292" font-family="'KozGoPr6N-Regular-83pv-RKSJ-H'" font-size="19">見通し</tspan><tspan x="81.3" y="30" fill="#929292" font-family="'Helvetica'" font-size="19"> </tspan><tspan x="86.6" y="30" fill="#929292" font-family="'KozGoPr6N-Regular-83pv-RKSJ-H'" font-size="19">暗い</tspan><tspan x="124.6" y="30" fill="#929292" font-family="'Helvetica'" font-size="19"> </tspan><tspan x="129.8" y="30" fill="#929292" font-family="'KozGoPr6N-Regular-83pv-RKSJ-H'" font-size="19">事故多発</tspan></text><g><path opacity=".6" fill="none" stroke="#283429" stroke-width=".3" stroke-miterlimit="10" d="M-2505.3 2279.4h997.3"/><text transform="translate(-2356.346 2123.39)"><tspan x="0" y="0" fill="#626262" font-family="'HelveticaNeue-Roman'" font-size="24">2014</tspan><tspan x="53.4" y="0" font-family="'HelveticaNeue-Roman'" font-size="24"> 11/12 </tspan><tspan x="128.1" y="0" fill="#626262" font-family="'HelveticaNeue-Roman'" font-size="24">10:00</tspan></text><text transform="translate(-2356.346 2169.39)" font-family="'KozGoPr6N-Regular-83pv-RKSJ-H'" font-size="32">自転車同士</text></g><g><path opacity=".6" fill="none" stroke="#283429" stroke-width=".3" stroke-miterlimit="10" d="M-2505.3 2481.4h997.3"/><text transform="translate(-2356.346 2337.394)"><tspan x="0" y="0" fill="#626262" font-family="'HelveticaNeue-Roman'" font-size="24">2014</tspan><tspan x="53.4" y="0" font-family="'HelveticaNeue-Roman'" font-size="24"> 11/12 </tspan><tspan x="128.1" y="0" fill="#626262" font-family="'HelveticaNeue-Roman'" font-size="24">10:00</tspan></text><text transform="translate(-2356.346 2383.394)" font-family="'KozGoPr6N-Regular-83pv-RKSJ-H'" font-size="32">物損</text></g><g><path opacity=".6" fill="none" stroke="#283429" stroke-width=".3" stroke-miterlimit="10" d="M-2505.3 2695.4h997.3"/><text transform="translate(-2356.346 2541.398)"><tspan x="0" y="0" fill="#626262" font-family="'HelveticaNeue-Roman'" font-size="24">2014</tspan><tspan x="53.4" y="0" font-family="'HelveticaNeue-Roman'" font-size="24"> 11/12 </tspan><tspan x="128.1" y="0" fill="#626262" font-family="'HelveticaNeue-Roman'" font-size="24">10:00</tspan></text><text transform="translate(-2356.346 2587.398)" font-family="'KozGoPr6N-Regular-83pv-RKSJ-H'" font-size="32">車と衝突で重症</text></g><g><path opacity=".6" fill="none" stroke="#283429" stroke-width=".3" stroke-miterlimit="10" d="M-2505.3 2909.4h997.3"/><text transform="translate(-2356.346 2757.4)"><tspan x="0" y="0" fill="#626262" font-family="'HelveticaNeue-Roman'" font-size="24">2014</tspan><tspan x="53.4" y="0" font-family="'HelveticaNeue-Roman'" font-size="24"> 11/12 </tspan><tspan x="128.1" y="0" fill="#626262" font-family="'HelveticaNeue-Roman'" font-size="24">10:00</tspan></text><text transform="translate(-2356.346 2803.4)" font-family="'KozGoPr6N-Regular-83pv-RKSJ-H'" font-size="32">刑事事件</text></g><g><path opacity=".6" fill="none" stroke="#283429" stroke-width=".3" stroke-miterlimit="10" d="M-2505.3 3123.4h997.3"/><text transform="translate(-2356.346 2965.404)"><tspan x="0" y="0" fill="#626262" font-family="'HelveticaNeue-Roman'" font-size="24">2014</tspan><tspan x="53.4" y="0" font-family="'HelveticaNeue-Roman'" font-size="24"> 11/12 </tspan><tspan x="128.1" y="0" fill="#626262" font-family="'HelveticaNeue-Roman'" font-size="24">10:00</tspan></text><text transform="translate(-2356.346 3011.404)" font-family="'KozGoPr6N-Regular-83pv-RKSJ-H'" font-size="32">盗難</text></g><g><path opacity=".6" fill="none" stroke="#283429" stroke-width=".3" stroke-miterlimit="10" d="M-2505.3 3283.4h997.3"/><text transform="translate(-2356.346 3189.407)"><tspan x="0" y="0" fill="#626262" font-family="'HelveticaNeue-Roman'" font-size="24">2014</tspan><tspan x="53.4" y="0" font-family="'HelveticaNeue-Roman'" font-size="24"> 11/12 </tspan><tspan x="128.1" y="0" fill="#626262" font-family="'HelveticaNeue-Roman'" font-size="24">10:00</tspan></text><text transform="translate(-2356.346 3235.407)" font-family="'KozGoPr6N-Regular-83pv-RKSJ-H'" font-size="32">自転車同士</text></g><g><path fill="#1EA139" d="M-1658.2 1832.4h150v150h-150z"/><g fill="#FFF"><path d="M-1620.7 1871.4h75v9.9h-75zM-1620.7 1902.4h75v9.9h-75zM-1620.7 1933.5h75v9.9h-75z"/></g></g><g><image overflow="visible" width="339" height="509" xlink:href="../../../../_design/rf_562405493.jpg" transform="matrix(.404 0 0 .404 -1686.22 2077.763)"/></g><g><image overflow="visible" width="507" height="338" xlink:href="../../../../_design/rf_144315204.jpg" transform="translate(-1715.22 2522.67) scale(.4083)"/></g><g><image overflow="visible" width="359" height="479" xlink:href="../../../../_design/rf_562796319.jpg" transform="translate(-1694.22 2712.103) scale(.4095)"/></g><g><path fill="#A19A9A" d="M-2409.9 2149.2c0 14-12.9 25.6-24.9 46-.9 1.6-3.2 1.6-4.1 0-10.4-18.7-25-32-25-46 0-14.9 12.1-27 27-27s27 12.1 27 27z"/><g fill="none" stroke="#000" stroke-width="3" stroke-linecap="round" stroke-linejoin="round" stroke-miterlimit="10"><path d="M-2446 2161.5c3.4-2.4 5.6-6.3 5.6-10.8s-2.2-8.4-5.6-10.8M-2427.8 2139.9c-3.4 2.4-5.6 6.3-5.6 10.8s2.2 8.4 5.6 10.8"/></g></g><g><path fill="#A19A9A" d="M-2409.9 2997.9c0 14-12.9 25.6-24.9 46-.9 1.6-3.2 1.6-4.1 0-10.4-18.7-25-32-25-46 0-14.9 12.1-27 27-27s27 12.1 27 27z"/><g fill="none" stroke="#000" stroke-width="3" stroke-linecap="round" stroke-linejoin="round" stroke-miterlimit="10"><path d="M-2446 3010.2c3.4-2.4 5.6-6.3 5.6-10.8s-2.2-8.4-5.6-10.8M-2427.8 2988.6c-3.4 2.4-5.6 6.3-5.6 10.8s2.2 8.4 5.6 10.8"/></g></g><g><path d="M-2409.9 1937c0 14-12.9 25.6-24.9 46-.9 1.6-3.2 1.6-4.1 0-10.4-18.7-25-32-25-46 0-14.9 12.1-27 27-27s27 12.1 27 27z"/><g fill="none" stroke="#FFCF00" stroke-width="3" stroke-linecap="round" stroke-linejoin="round" stroke-miterlimit="10"><path d="M-2447.6 1932h19.2M-2447.6 1943.7h19.2M-2430.4 1936.1l4.1-4.1-4.1-4.1M-2443.4 1939.6l-4.2 4.1 4.2 4.1"/></g></g><g><path fill="#00407A" d="M-2409.9 2785.7c0 14-12.9 25.6-24.9 46-.9 1.6-3.2 1.6-4.1 0-10.4-18.7-25-32-25-46 0-14.9 12.1-27 27-27s27 12.1 27 27z"/><path fill="none" stroke="#FFF" stroke-width="3" stroke-linecap="round" stroke-linejoin="round" stroke-miterlimit="10" d="M-2436 2794.3c5.5 0 10.4-2.9 13.1-7.3-2.7-4.4-7.6-7.3-13.1-7.3s-10.4 2.9-13.1 7.3c2.7 4.4 7.5 7.3 13.1 7.3z"/><circle fill="#FFF" cx="-2436" cy="2787.1" r="3.9"/><g><path fill="#00407A" d="M-2453.8 2776.3h8v22.3h-8z"/><path fill="none" stroke="#FFF" stroke-width="3" stroke-linecap="round" stroke-linejoin="round" stroke-miterlimit="10" d="M-2445.8 2798.7v-22.4"/></g></g><g><path fill="#8D7EE2" d="M-2409.9 2573.5c0 14-12.9 25.6-24.9 46-.9 1.6-3.2 1.6-4.1 0-10.4-18.7-25-32-25-46 0-14.9 12.1-27 27-27 14.9.1 27 12.1 27 27z"/><g fill="none" stroke="#000" stroke-width="3" stroke-linecap="round" stroke-linejoin="round" stroke-miterlimit="10"><ellipse cx="-2436.9" cy="2581.6" rx="8.4" ry="2.7"/><path d="M-2445.3 2581.6l12.7-17.4 4.1 17.4"/></g></g><g><path fill="#FFCF00" d="M-2409.9 2361.4c0 14-12.9 25.6-24.9 46-.9 1.6-3.2 1.6-4.1 0-10.4-18.7-25-32-25-46 0-14.9 12.1-27 27-27s27 12.1 27 27z"/><path d="M-2446.3 2374.8c-3.9 0-5.4-2.7-3.5-6.1l9.4-16.3c1.9-3.3 5.1-3.3 7 0l9.4 16.3c1.9 3.3.4 6.1-3.5 6.1h-18.8z"/><path fill="#FFCF00" d="M-2438 2367.2h2.6v2.6h-2.6zM-2438 2357.4h2.6v7.2h-2.6z"/></g><g><defs><path id="c" d="M-2506.1 3192.4h498.9v141h-498.9z"/></defs><use xlink:href="#c" overflow="visible" fill="#1EA18D"/><clipPath id="d"><use xlink:href="#c" overflow="visible"/></clipPath><g clip-path="url(#d)"><path fill="#007B7E" d="M-2156.4 3220.5l148.1 148.1h-174.2"/><path d="M-2353.7 3389.2c-3.8 0-7-3.1-7-7v-155.8c0-3.8 3.1-7 7-7h196.2c3.8 0 7 3.1 7 7v155.8c0 3.8-3.1 7-7 7h-196.2z"/><defs><path id="e" d="M-2341.6 3238.1h172v111.6h-172z"/></defs><use xlink:href="#e" overflow="visible" fill="#FFF"/><clipPath id="f"><use xlink:href="#e" overflow="visible"/></clipPath><g clip-path="url(#f)"><path fill="#1CA08C" d="M-2306.4 3261.9c1.2 4.7-2.7 8.1-6.5 14.2-.6.9-1.9.9-2.5 0-3-5-6.8-8.7-6.8-12.5 0-4.6 3.9-8.3 8.6-7.9 3.5.2 6.4 2.8 7.2 6.2z"/><g fill="none" stroke="#D7D7D6" stroke-width="4" stroke-miterlimit="10"><path d="M-2295.2 3262.9h72M-2295.2 3277.4h38.6"/></g></g><g clip-path="url(#f)"><path fill="#1CA08C" d="M-2306.4 3295.9c1.2 4.7-2.7 8.1-6.5 14.2-.6.9-1.9.9-2.5 0-3-5-6.8-8.7-6.8-12.5 0-4.6 3.9-8.3 8.6-7.9 3.5.2 6.4 2.8 7.2 6.2z"/><g fill="none" stroke="#D7D7D6" stroke-width="4" stroke-miterlimit="10"><path d="M-2295.2 3296.9h72M-2295.2 3311.4h38.6"/></g></g></g><g><defs><path id="g" d="M-2007.2 3192.4h499.9v141h-499.9z"/></defs><linearGradient id="h" gradientUnits="userSpaceOnUse" x1="-2007.169" y1="3262.89" x2="-1507.221" y2="3262.89"><stop offset="0" stop-color="#3B9D00"/><stop offset="1" stop-color="#3BAA00"/></linearGradient><use xlink:href="#g" overflow="visible" fill="url(#h)"/><clipPath id="i"><use xlink:href="#g" overflow="visible"/></clipPath><g opacity=".2" clip-path="url(#i)"><path fill="#007B31" d="M-1660.8 3220.5l148 148.1h-174.1"/><path d="M-1863.9 3389.2c-3.8 0-7-3.1-7-7v-155.8c0-3.8 3.1-7 7-7h196.2c3.8 0 7 3.1 7 7v155.8c0 3.8-3.1 7-7 7h-196.2z"/><defs><path id="j" d="M-1851.8 3238.1h172v111.6h-172z"/></defs><use xlink:href="#j" overflow="visible" fill="#FFF"/><clipPath id="k"><use xlink:href="#j" overflow="visible"/></clipPath><g clip-path="url(#k)"><path fill="none" stroke="#D7D7D6" stroke-width="4" stroke-miterlimit="10" d="M-1865.2 3263.4h37c3.8 0 9.2 2.2 11.9 4.9l93.1 93.1M-1714.2 3228.4l-113 113"/><path fill="none" stroke="#D7D7D6" stroke-width="4" stroke-miterlimit="10" d="M-1663.2 3299.4h-81c-3.8 0-9.2 2.2-11.9 4.9l-44.1 44.1"/></g><g clip-path="url(#k)"><linearGradient id="l" gradientUnits="userSpaceOnUse" x1="-1796.165" y1="3268.599" x2="-1776.963" y2="3268.599"><stop offset="0" stop-color="#3B9D00"/><stop offset="1" stop-color="#3BAA00"/></linearGradient><path fill="url(#l)" d="M-1777.2 3263.4c1.4 5.7-3.2 9.7-7.8 17.1-.7 1.1-2.3 1.1-3 0-3.6-6-8.1-10.4-8.1-15 0-5.5 4.7-10 10.4-9.6 4 .3 7.5 3.5 8.5 7.5z"/><linearGradient id="m" gradientUnits="userSpaceOnUse" x1="-1718.822" y1="3268.599" x2="-1699.621" y2="3268.599"><stop offset="0" stop-color="#3B9D00"/><stop offset="1" stop-color="#3BAA00"/></linearGradient><path fill="url(#m)" d="M-1699.9 3263.4c1.4 5.7-3.2 9.7-7.8 17.1-.7 1.1-2.3 1.1-3 0-3.6-6-8.1-10.4-8.1-15 0-5.5 4.7-10 10.4-9.6 4.1.3 7.5 3.5 8.5 7.5z"/><g><linearGradient id="n" gradientUnits="userSpaceOnUse" x1="-1838.366" y1="3299.498" x2="-1819.164" y2="3299.498"><stop offset="0" stop-color="#3B9D00"/><stop offset="1" stop-color="#3BAA00"/></linearGradient><path fill="url(#n)" d="M-1819.4 3294.3c1.4 5.7-3.2 9.7-7.8 17.1-.7 1.1-2.3 1.1-3 0-3.6-6-8.1-10.4-8.1-15 0-5.5 4.7-10 10.4-9.6 4 .3 7.5 3.5 8.5 7.5z"/></g></g></g><path opacity=".6" fill="none" stroke="#283429" stroke-width=".3" stroke-miterlimit="10" d="M-2007.9 3332.4v-140"/></g></g><path opacity=".8" fill="#1EA139" d="M-1382.2-1187.6h1002v1500h-1002z"/><linearGradient id="o" gradientUnits="userSpaceOnUse" x1="-1005.221" y1="-437.609" x2="-877.721" y2="-437.609"><stop offset="0" stop-opacity="0"/><stop offset=".859" stop-opacity=".172"/><stop offset="1" stop-opacity=".2"/></linearGradient><path fill="url(#o)" d="M-1005.2-1187.6h127.5v1500h-127.5z"/><path fill="#FFF" d="M-879.7-1187.6h500v1501h-500z"/><g><path fill="#FDFDFD" d="M-879.5-651.4h500.2v121.2h-500.2z"/><text transform="translate(-762.72 -704.606)"><tspan x="0" y="0" fill="#626161" font-family="'HelveticaNeueCE-Thin'" font-size="32" letter-spacing="1">HOME</tspan><tspan x="0" y="122" fill="#626161" font-family="'HelveticaNeueCE-Thin'" font-size="32" letter-spacing="1">SAFETY MAP</tspan><tspan x="0" y="244" fill="#626161" font-family="'HelveticaNeueCE-Thin'" font-size="32" letter-spacing="1">CONSEPT</tspan><tspan x="0" y="366" fill="#626161" font-family="'HelveticaNeueCE-Thin'" font-size="32" letter-spacing="1">HELP</tspan><tspan x="0" y="488.7" fill="#626161" font-family="'KozGoPro-ExtraLight-83pv-RKSJ-H'" font-size="32" letter-spacing="1">運営</tspan></text><path fill="#1EA139" d="M-818.1-727.8l10.3 7.8v14.4h-20.7V-720l10.4-7.8m0-8.1c-.6 0-1.2.2-1.6.5l-14.2 10.7c-.9.7-1.6 2.1-1.6 3.2v20.9c0 1.1.9 2 2 2h30.7c1.1 0 2-.9 2-2v-20.9c0-1.1-.7-2.5-1.6-3.2l-14.2-10.7c-.4-.3-.9-.5-1.5-.5z"/><circle fill="#1EA139" cx="-818.1" cy="-349.5" r="23.3"/><path fill="#FFF" d="M-816.2-345.4l-3.8-.1c.1-2.9 1.8-4.7 3-6 1-1.1 1.6-1.7 1.6-2.6 0-1.5-1.2-2.7-2.7-2.7s-2.7 1.2-2.7 2.7h-3.8c0-3.6 3-6.6 6.6-6.6s6.6 3 6.6 6.6c0 2.5-1.5 4-2.7 5.2-1.3 1.4-2.1 2.2-2.1 3.5z"/><circle fill="#FFF" cx="-818.1" cy="-340.6" r="2.7"/><path fill="#1EA139" d="M-840.2-460c1.3 1.5 3.7 1.6 5 .1l11.3-11.6c.8-.9 2.3-.3 2.3.9v22.4c0 1.8 1.3 3.4 3.1 3.5 2 .2 3.7-1.4 3.7-3.4v-22.5c0-1.2 1.5-1.8 2.3-.9l11.3 11.6c1.4 1.4 3.7 1.4 5-.1 1.2-1.3 1-3.4-.2-4.7l-19.4-20c-.6-.7-1.5-1-2.5-1-.9 0-1.8.4-2.5 1l-19.4 20c-1 1.3-1.1 3.3 0 4.7z"/><g fill="#1EA139"><path d="M-818.1-232c-5.1 0-9.3-4.2-9.3-9.3s4.2-9.3 9.3-9.3c5.1 0 9.3 4.2 9.3 9.3s-4.2 9.3-9.3 9.3zm0-12.6c-1.8 0-3.3 1.5-3.3 3.3 0 1.8 1.5 3.3 3.3 3.3s3.3-1.5 3.3-3.3c0-1.8-1.5-3.3-3.3-3.3zM-803.2-208.1c-1.7 0-3-1.3-3-3 0-6.6-5.3-11.9-11.9-11.9s-11.9 5.3-11.9 11.9c0 1.7-1.3 3-3 3s-3-1.3-3-3c0-9.9 8-17.9 17.9-17.9s17.9 8 17.9 17.9c0 1.7-1.3 3-3 3z"/></g><path fill="#1EA139" d="M-818.1-609.6c6.4 0 11.6 5.2 11.6 11.6 0 4.3-3.3 9-7.9 15.5-1.2 1.7-2.4 3.4-3.7 5.3-1.3-1.9-2.6-3.7-3.8-5.4-4.3-6.1-8-11.3-8-15.4.2-6.4 5.4-11.6 11.8-11.6m0-7c-10.3 0-18.6 8.3-18.6 18.6 0 9.6 10.1 18.8 17.3 31.7.3.6.9.8 1.4.8.6 0 1.1-.3 1.4-.8 8.2-14.1 17.2-22.1 17.2-31.7-.1-10.3-8.4-18.6-18.7-18.6z"/><g><defs><path id="p" d="M-878.7-1187.6h499v415h-499z"/></defs><use xlink:href="#p" overflow="visible" fill="#FDFDFD"/><clipPath id="q"><use xlink:href="#p" overflow="visible"/></clipPath><g clip-path="url(#q)"><path fill="#1EA139" d="M-472.5-962.3c0 83.5-77 152.1-147.9 273.5-5.6 9.5-19.3 9.4-24.6-.2-61.7-111.2-148.6-190.3-148.6-273.2 0-88.5 71.9-160.3 160.6-160.3 88.6-.1 160.5 71.6 160.5 160.2z"/><g fill="#FFF"><path d="M-701-932.9c4 0 6.5 2.3 7.7 5.2 1.3 3.1.9 6.8-2.3 9 3.6 1.5 4.9 4.9 4.9 7.9 0 4.8-3.1 9.6-9.2 9.6h-14.3v-31.7h13.2zm-8.7 12.5h8.6c5 0 5.1-8.2.1-8.2h-8.7v8.2zm0 14.7h9.8c3.1 0 4.6-2.6 4.6-5.1s-1.5-5-4.6-5h-9.8v10.1zM-683.7-932.9h3.8v31.7h-3.8zM-668.9-928.4c2.8-2.9 6.7-4.7 11-4.7 7.2 0 13 4.5 14.8 11.7h-4.5c-1.7-4.8-5.6-7.2-10.2-7.2-3 0-5.8 1.3-7.8 3.4-2 2.1-3.3 4.9-3.3 8.2 0 3.2 1.3 6 3.3 8.1 2 2.1 4.8 3.4 7.8 3.4 4.8 0 8.9-2.8 10.5-7.6h4.5c-1.8 7.2-7.6 12.1-15 12.1-4.3 0-8.2-1.8-11-4.7-2.7-2.9-4.5-6.9-4.5-11.3-.1-4.5 1.7-8.5 4.4-11.4zM-637.5-932.9l8.7 13.9 8.7-13.9h5.4l-11.8 18.8v12.9h-4.6v-12.9l-11.7-18.8h5.3zM-610.4-928.4c2.8-2.9 6.7-4.7 11-4.7 7.2 0 13 4.5 14.8 11.7h-4.5c-1.7-4.8-5.6-7.2-10.2-7.2-3 0-5.8 1.3-7.8 3.4-2 2.1-3.3 4.9-3.3 8.2 0 3.2 1.3 6 3.3 8.1 2 2.1 4.8 3.4 7.8 3.4 4.8 0 8.9-2.8 10.5-7.6h4.5c-1.8 7.2-7.6 12.1-15 12.1-4.3 0-8.2-1.8-11-4.7-2.7-2.9-4.5-6.9-4.5-11.3-.1-4.5 1.7-8.5 4.4-11.4zM-574.9-905.9h14.9v4.6h-19.5V-933h4.6v27.1zM-551.8-905.9h14.7v4.6h-19.3V-933h19.3v4.6h-14.7v8.9h14.4v4.6h-14.4v9zM-664-819.8h-4.6v-31.7h3.7l10.5 15.4 10.5-15.4h3.6v31.7h-4.5v-22.3l-8.3 12.3h-2.6l-8.3-12.3v22.3zM-617.4-829.1h-11.4c-1.2 2.9-2.8 6.7-3.8 9.3h-4.9l12.7-32.1h3.4l12.7 32.1h-4.9l-3.8-9.3zm-9.7-4.3h7.9l-3.9-11.2-4 11.2zM-594.9-851.5c6.8 0 10.3 5.3 10.3 10.6s-3.4 10.6-10.3 10.6h-7v10.6h-4.6v-31.7h11.6zm0 16.7c3.9 0 5.8-3 5.8-6s-1.9-6-5.8-6h-7v12h7z"/></g><g fill="#FFF" stroke="#1EA139" stroke-width="3" stroke-miterlimit="10"><path d="M-691.7-885c-.7-3.2-4.2-4.6-7.3-4.5-2.4.1-5 .9-6.5 2.7-.7.9-1 2.1-.9 3.3.3 3.7 4.3 4.1 8.1 4.5 4.9.6 11 1.9 12.3 7.6.2.8.3 1.6.3 2.3 0 6.9-6.8 10.9-13.2 10.9-5.5 0-12.2-3.3-12.8-9.6l-.1-1 5.2-.1.1.8v-.2c.4 3.3 4.4 5 7.7 5 3.8 0 8-2.1 8-5.8 0-.4-.1-.8-.2-1.2-.6-2.7-4.3-3.2-7.8-3.5-5.6-.6-12.1-1.8-12.6-9.2v.1c-.2-2.4.4-4.8 1.9-6.8 2.4-3.1 6.7-4.7 10.8-4.7 5.5 0 11.2 2.9 12.1 9.4h-5.1zM-661.3-869h-12.8c-1.4 3.3-3.2 7.5-4.3 10.5h-5.6l14.3-36.1h3.8l14.3 36.1h-5.5l-4.2-10.5zm-10.9-4.9h8.9l-4.4-12.6-4.5 12.6zM-644-858.5h-5.1v-35.6h21.2v5.1H-644v10h14.3v5.2H-644v15.3zM-619-863.7h16.6v5.1h-21.8v-35.6h21.7v5.1H-619v10h16.2v5.2H-619v10.2zM-589.1-858.4V-889h-10.8v-5.2h26.7v5.2H-584v30.6h-5.1zM-566.2-894.1l9.7 15.6 9.7-15.6h6.1l-13.2 21.1v14.5h-5.2V-873l-13.2-21.1h6.1z"/></g><path fill="#FFF" d="M-562.6-1024.3c-7.3-2.6-14.2-2.4-20.5-.7l-18.9-43.3c-.8-1.9-2.7-3.1-4.7-3.1h-22.1c-1.5 0-2.7 1.2-2.7 2.7v4.9c0 1.5 1.2 2.7 2.7 2.7h17c1.1 0 2 .6 2.4 1.6l5.5 12.6c.8 1.8-.5 3.7-2.4 3.7H-645c-1.1 0-2-.6-2.4-1.6l-3.5-8h7.4c1.5 0 2.7-1.2 2.7-2.7v-4.9c0-1.5-1.2-2.7-2.7-2.7h-26.3c-1.5 0-2.7 1.2-2.7 2.7v4.9c0 1.5 1.2 2.7 2.7 2.7h6c1.1 0 2 .6 2.4 1.6l5 11.6c.4.9.3 1.9-.3 2.6l-11.1 15c-5.3-2.9-11.3-4.4-17.8-4.2-19.2.5-34.9 16.9-34.5 36.1.4 19.3 16.1 34.8 35.5 34.8 17.1 0 31.3-12.1 34.7-28.2.3-1.3 1.3-2.2 2.6-2.2h17.8c1.7 0 3.2-.8 4.2-2.2l26.3-37.7c1.2-1.7 3.8-1.4 4.6.5l1.8 4.2c-11.3 7-18.4 20.2-16.5 34.9 2 15.5 14.4 28.1 29.9 30.3 22.5 3.3 41.8-14.7 40.7-36.9-.6-14.3-10.5-26.9-24.1-31.7zm-86.6 1.2l10.3 23.6c.8 1.8-.5 3.7-2.4 3.7h-5.9c-1.3 0-2.4-.9-2.6-2.2-1.3-6.1-4.1-11.7-8.1-16.2-.9-1-1-2.4-.2-3.4l4.5-6c1.1-1.7 3.6-1.4 4.4.5zm-14.3 18.5c1.1 1.6 2 3.4 2.7 5.3.6 1.7-.7 3.5-2.5 3.5h-11.1l6.6-8.9c1-1.4 3.3-1.4 4.3.1zm-21.1 39.2c-14.1 0-25.5-11.5-25.3-25.7.2-13.1 10.9-24.2 24.1-24.8 3-.1 5.8.2 8.4 1 1.7.5 2.4 2.7 1.3 4.1l-12.6 17c-1.2 1.6-1.3 3.6-.5 5.3.9 1.7 2.6 2.8 4.6 2.8h21.2c1.8 0 3.2 1.8 2.5 3.5-3.4 9.8-12.8 16.8-23.7 16.8zm54.3-40.1l-10.3-23.7c-.8-1.8.5-3.7 2.4-3.7h26.9c2.2 0 3.4 2.4 2.2 4.2l-16.6 23.7c-1.2 1.7-3.8 1.4-4.6-.5zm53.9 39.9c-11.5-1.1-21-10.3-22.5-21.8-1.1-8.5 2.1-16.3 7.7-21.6 1.3-1.3 3.5-.7 4.2.9l7.4 17c.6 1.3 2.2 2 3.5 1.4l4.5-2c1.3-.6 2-2.2 1.4-3.5l-7.4-17c-.7-1.7.4-3.6 2.2-3.7 2.6-.2 5.4.1 8.2.8 9.7 2.6 17.1 11 18.4 20.9 2.2 16.4-11.3 30.3-27.6 28.6z"/><path fill="#040000" d="M-532.5-1018.2c.8-1.2 2-1.2 2.8 0l3.5 5.6c.8 1.2 2.5 1.8 3.9 1.3l6.1-2.5c1.4-.6 2.4.2 2.3 1.6l-.5 6.6c-.1 1.5 1 2.9 2.4 3.3l6.4 1.6c1.4.3 1.8 1.5.9 2.7l-4.2 5c-.9 1.1-.9 2.9 0 4.1l4.2 5c.9 1.1.6 2.3-.9 2.7l-6.4 1.6c-1.4.3-2.5 1.8-2.4 3.3l.5 6.6c.1 1.5-.9 2.2-2.3 1.6l-6.1-2.5c-1.4-.6-3.1 0-3.9 1.3l-3.5 5.6c-.8 1.2-2 1.2-2.8 0l-3.5-5.6c-.8-1.2-2.5-1.8-3.9-1.3l-6.1 2.5c-1.4.6-2.4-.2-2.3-1.6l.5-6.6c.1-1.5-1-2.9-2.4-3.3l-6.4-1.6c-1.4-.3-1.8-1.5-.9-2.7l4.2-5c.9-1.1.9-2.9 0-4.1l-4.2-5c-.9-1.1-.6-2.3.9-2.7l6.4-1.6c1.4-.3 2.5-1.8 2.4-3.3l-.5-6.6c-.1-1.5.9-2.2 2.3-1.6l6.1 2.5c1.4.6 3.1 0 3.9-1.3l3.5-5.6z"/></g></g><g fill="none" stroke="#9DA29E" stroke-width=".3" stroke-miterlimit="10"><path opacity=".6" d="M-879.7-651.4h500.5M-879.7-772.6h500.5M-879.7-409h500.5M-879.7-530.2h500.5M-879.7-166.6h500.5M-879.7-287.8h500.5"/></g></g><text transform="translate(222.73 -691.106)"><tspan x="0" y="0" fill="#626161" font-family="'HelveticaNeueCE-Thin'" font-size="32" letter-spacing="1">HOME</tspan><tspan x="0" y="122" fill="#626161" font-family="'HelveticaNeueCE-Thin'" font-size="32" letter-spacing="1">SAFETY MAP</tspan><tspan x="0" y="244" fill="#626161" font-family="'HelveticaNeueCE-Thin'" font-size="32" letter-spacing="1">CONSEPT</tspan><tspan x="0" y="366" fill="#626161" font-family="'HelveticaNeueCE-Thin'" font-size="32" letter-spacing="1">HELP</tspan><tspan x="0" y="488.7" fill="#626161" font-family="'KozGoPro-ExtraLight-83pv-RKSJ-H'" font-size="32" letter-spacing="1">運営</tspan></text><g><path fill="#1EA139" d="M17.3 8.1l10.3 7.8v14.4H7V15.8l10.3-7.7m0-8.1c-.6 0-1.2.2-1.6.5L1.6 11.2c-.9.6-1.6 2.1-1.6 3.2v20.9c0 1.1.9 2 2 2h30.7c1.1 0 2-.9 2-2V14.4c0-1.1-.7-2.5-1.6-3.2L18.9.5c-.4-.3-1-.5-1.6-.5z"/></g><g><circle fill="#1EA139" cx="17.3" cy="386.4" r="23.3"/><path fill="#FFF" d="M19.3 390.5l-3.8-.1c.1-2.9 1.8-4.7 3-6 1-1.1 1.6-1.7 1.6-2.6 0-1.5-1.2-2.7-2.7-2.7s-2.7 1.2-2.7 2.7h-3.8c0-3.6 3-6.6 6.6-6.6s6.6 3 6.6 6.6c0 2.5-1.5 4-2.7 5.2-1.4 1.4-2.1 2.2-2.1 3.5z"/><circle fill="#FFF" cx="17.3" cy="395.3" r="2.7"/></g><g><path fill="#1EA139" d="M-4.7 275.9c1.3 1.5 3.7 1.6 5 .1l11.3-11.6c.8-.9 2.3-.3 2.3.9v22.4c0 1.8 1.3 3.4 3.1 3.5 2 .2 3.7-1.4 3.7-3.4v-22.5c0-1.2 1.5-1.8 2.3-.9L34.4 276c1.4 1.4 3.7 1.4 5-.1 1.2-1.3 1-3.4-.2-4.7l-19.4-20c-.6-.7-1.5-1-2.5-1s-1.8.4-2.5 1l-19.4 20c-1.1 1.3-1.3 3.3-.1 4.7z"/></g><g><g fill="#1EA139"><path d="M17.3 503.9c-5.1 0-9.3-4.2-9.3-9.3s4.2-9.3 9.3-9.3c5.1 0 9.3 4.2 9.3 9.3s-4.1 9.3-9.3 9.3zm0-12.6c-1.8 0-3.3 1.5-3.3 3.3 0 1.8 1.5 3.3 3.3 3.3s3.3-1.5 3.3-3.3c0-1.8-1.4-3.3-3.3-3.3zM32.3 527.8c-1.7 0-3-1.3-3-3 0-6.6-5.3-11.9-11.9-11.9s-11.9 5.3-11.9 11.9c0 1.7-1.3 3-3 3s-3-1.3-3-3c0-9.9 8-17.9 17.9-17.9s17.9 8 17.9 17.9c0 1.6-1.4 3-3 3z"/></g></g><g><path fill="#1EA139" d="M17.3 126.3c6.4 0 11.6 5.2 11.6 11.6 0 4.3-3.3 9-7.9 15.5-1.2 1.7-2.4 3.4-3.7 5.3-1.3-1.9-2.6-3.7-3.8-5.4-4.3-6.1-8-11.3-8-15.4.2-6.4 5.4-11.6 11.8-11.6m0-7c-10.3 0-18.6 8.3-18.6 18.6 0 9.6 10.1 18.8 17.3 31.7.3.6.9.8 1.4.8.6 0 1.1-.3 1.4-.8C27 155.5 36 147.5 36 137.9c0-10.3-8.4-18.6-18.7-18.6z"/></g><g><defs><path id="r" d="M106.7-1174.1h499v415h-499z"/></defs><use xlink:href="#r" overflow="visible" fill="#FDFDFD"/><clipPath id="s"><use xlink:href="#r" overflow="visible"/></clipPath><g clip-path="url(#s)"><path fill="#1EA139" d="M513-948.8c0 83.5-77 152.1-147.9 273.5-5.6 9.5-19.3 9.4-24.6-.2-61.7-111.2-148.6-190.3-148.6-273.2 0-88.5 71.9-160.3 160.6-160.3 88.6-.1 160.5 71.6 160.5 160.2z"/><g fill="#FFF"><path d="M284.4-919.4c4 0 6.5 2.3 7.7 5.2 1.3 3.1.9 6.8-2.3 9 3.6 1.5 4.9 4.9 4.9 7.9 0 4.8-3.1 9.6-9.2 9.6h-14.3v-31.7h13.2zm-8.6 12.5h8.6c5 0 5.1-8.2.1-8.2h-8.7v8.2zm0 14.7h9.8c3.1 0 4.6-2.6 4.6-5.1s-1.5-5-4.6-5h-9.8v10.1zM301.7-919.4h3.8v31.7h-3.8zM316.6-914.9c2.8-2.9 6.7-4.7 11-4.7 7.2 0 13 4.5 14.8 11.7h-4.5c-1.7-4.8-5.6-7.2-10.2-7.2-3 0-5.8 1.3-7.8 3.4-2 2.1-3.3 4.9-3.3 8.2 0 3.2 1.3 6 3.3 8.1 2 2.1 4.8 3.4 7.8 3.4 4.8 0 8.9-2.8 10.5-7.6h4.5c-1.8 7.2-7.6 12.1-15 12.1-4.3 0-8.2-1.8-11-4.7-2.7-2.9-4.5-6.9-4.5-11.3-.2-4.5 1.6-8.5 4.4-11.4zM348-919.4l8.7 13.9 8.7-13.9h5.4L359-900.7v12.9h-4.6v-12.9l-11.7-18.8h5.3zM375-914.9c2.8-2.9 6.7-4.7 11-4.7 7.2 0 13 4.5 14.8 11.7h-4.5c-1.7-4.8-5.6-7.2-10.2-7.2-3 0-5.8 1.3-7.8 3.4-2 2.1-3.3 4.9-3.3 8.2 0 3.2 1.3 6 3.3 8.1 2 2.1 4.8 3.4 7.8 3.4 4.8 0 8.9-2.8 10.5-7.6h4.5c-1.8 7.2-7.6 12.1-15 12.1-4.3 0-8.2-1.8-11-4.7-2.7-2.9-4.5-6.9-4.5-11.3-.1-4.5 1.7-8.5 4.4-11.4zM410.5-892.4h14.9v4.6h-19.5v-31.7h4.6v27.1zM433.6-892.4h14.7v4.6H429v-31.7h19.3v4.6h-14.7v8.9H448v4.6h-14.4v9zM321.4-806.3h-4.6V-838h3.7l10.5 15.4 10.5-15.4h3.6v31.7h-4.5v-22.3l-8.3 12.3h-2.6l-8.3-12.3v22.3zM368-815.6h-11.4c-1.2 2.9-2.8 6.7-3.8 9.3h-4.9l12.7-32.1h3.4l12.7 32.1h-4.9l-3.8-9.3zm-9.6-4.3h7.9l-3.9-11.2-4 11.2zM390.5-838c6.8 0 10.3 5.3 10.3 10.6s-3.4 10.6-10.3 10.6h-7v10.6h-4.6V-838h11.6zm0 16.7c3.9 0 5.8-3 5.8-6s-1.9-6-5.8-6h-7v12h7z"/></g><g fill="#FFF" stroke="#1EA139" stroke-width="3" stroke-miterlimit="10"><path d="M293.7-871.5c-.7-3.2-4.2-4.6-7.3-4.5-2.4.1-5 .9-6.5 2.7-.7.9-1 2.1-.9 3.3.3 3.7 4.3 4.1 8.1 4.5 4.9.6 11 1.9 12.3 7.6.2.8.3 1.6.3 2.3 0 6.9-6.8 10.9-13.2 10.9-5.5 0-12.2-3.3-12.8-9.6l-.1-1 5.2-.1.1.8v-.2c.4 3.3 4.4 5 7.7 5 3.8 0 8-2.1 8-5.8 0-.4-.1-.8-.2-1.2-.6-2.7-4.3-3.2-7.8-3.5-5.6-.6-12.1-1.8-12.6-9.2v.1c-.2-2.4.4-4.8 1.9-6.8 2.4-3.1 6.7-4.7 10.8-4.7 5.5 0 11.2 2.9 12.1 9.4h-5.1zM324.1-855.5h-12.8c-1.4 3.3-3.2 7.5-4.3 10.5h-5.6l14.3-36.1h3.8l14.3 36.1h-5.5l-4.2-10.5zm-10.8-4.9h8.9l-4.4-12.6-4.5 12.6zM341.5-845h-5.1v-35.6h21.2v5.1h-16.1v10h14.3v5.2h-14.3v15.3zM366.4-850.2H383v5.1h-21.8v-35.6H383v5.1h-16.5v10h16.2v5.2h-16.2v10.2zM396.3-844.9v-30.6h-10.8v-5.2h26.7v5.2h-10.8v30.6h-5.1zM419.3-880.6L429-865l9.7-15.6h6.1l-13.2 21.1v14.5h-5.2v-14.5l-13.2-21.1h6.1z"/></g><path fill="#FFF" d="M422.8-1010.8c-7.3-2.6-14.2-2.4-20.5-.7l-18.9-43.3c-.8-1.9-2.7-3.1-4.7-3.1h-22.1c-1.5 0-2.7 1.2-2.7 2.7v4.9c0 1.5 1.2 2.7 2.7 2.7h17c1.1 0 2 .6 2.4 1.6l5.5 12.6c.8 1.8-.5 3.7-2.4 3.7h-38.6c-1.1 0-2-.6-2.4-1.6l-3.5-8h7.4c1.5 0 2.7-1.2 2.7-2.7v-4.9c0-1.5-1.2-2.7-2.7-2.7h-26.3c-1.5 0-2.7 1.2-2.7 2.7v4.9c0 1.5 1.2 2.7 2.7 2.7h6c1.1 0 2 .6 2.4 1.6l5 11.6c.4.9.3 1.9-.3 2.6l-11.1 15c-5.3-2.9-11.3-4.4-17.8-4.2-19.2.5-34.9 16.9-34.5 36.1.4 19.3 16.1 34.8 35.5 34.8 17.1 0 31.3-12.1 34.7-28.2.3-1.3 1.3-2.2 2.6-2.2H356c1.7 0 3.2-.8 4.2-2.2l26.3-37.7c1.2-1.7 3.8-1.4 4.6.5l1.8 4.2c-11.3 7-18.4 20.2-16.5 34.9 2 15.5 14.4 28.1 29.9 30.3 22.5 3.3 41.8-14.7 40.7-36.9-.6-14.3-10.5-26.9-24.2-31.7zm-86.5 1.2l10.3 23.6c.8 1.8-.5 3.7-2.4 3.7h-5.9c-1.3 0-2.4-.9-2.6-2.2-1.3-6.1-4.1-11.7-8.1-16.2-.9-1-1-2.4-.2-3.4l4.5-6c1-1.7 3.6-1.4 4.4.5zm-14.4 18.5c1.1 1.6 2 3.4 2.7 5.3.6 1.7-.7 3.5-2.5 3.5H311l6.6-8.9c1.1-1.4 3.3-1.4 4.3.1zm-21 39.2c-14.1 0-25.5-11.5-25.3-25.7.2-13.1 10.9-24.2 24.1-24.8 3-.1 5.8.2 8.4 1 1.7.5 2.4 2.7 1.3 4.1l-12.6 17c-1.2 1.6-1.3 3.6-.5 5.3.9 1.7 2.6 2.8 4.6 2.8h21.2c1.8 0 3.2 1.8 2.5 3.5-3.5 9.8-12.8 16.8-23.7 16.8zm54.2-40.1l-10.3-23.7c-.8-1.8.5-3.7 2.4-3.7h26.9c2.2 0 3.4 2.4 2.2 4.2l-16.6 23.7c-1.2 1.7-3.8 1.4-4.6-.5zm53.9 39.9c-11.5-1.1-21-10.3-22.5-21.8-1.1-8.5 2.1-16.3 7.7-21.6 1.3-1.3 3.5-.7 4.2.9l7.4 17c.6 1.3 2.2 2 3.5 1.4l4.5-2c1.3-.6 2-2.2 1.4-3.5l-7.4-17c-.7-1.7.4-3.6 2.2-3.7 2.6-.2 5.4.1 8.2.8 9.7 2.6 17.1 11 18.4 20.9 2.3 16.4-11.3 30.3-27.6 28.6z"/><path fill="#040000" d="M453-1004.7c.8-1.2 2-1.2 2.8 0l3.5 5.6c.8 1.2 2.5 1.8 3.9 1.3l6.1-2.5c1.4-.6 2.4.2 2.3 1.6l-.5 6.6c-.1 1.5 1 2.9 2.4 3.3l6.4 1.6c1.4.3 1.8 1.5.9 2.7l-4.2 5c-.9 1.1-.9 2.9 0 4.1l4.2 5c.9 1.1.6 2.3-.9 2.7l-6.4 1.6c-1.4.3-2.5 1.8-2.4 3.3l.5 6.6c.1 1.5-.9 2.2-2.3 1.6l-6.1-2.5c-1.4-.6-3.1 0-3.9 1.3l-3.5 5.6c-.8 1.2-2 1.2-2.8 0l-3.5-5.6c-.8-1.2-2.5-1.8-3.9-1.3l-6.1 2.5c-1.4.6-2.4-.2-2.3-1.6l.5-6.6c.1-1.5-1-2.9-2.4-3.3l-6.4-1.6c-1.4-.3-1.8-1.5-.9-2.7l4.2-5c.9-1.1.9-2.9 0-4.1l-4.2-5c-.9-1.1-.6-2.3.9-2.7l6.4-1.6c1.4-.3 2.5-1.8 2.4-3.3l-.5-6.6c-.1-1.5.9-2.2 2.3-1.6l6.1 2.5c1.4.6 3.1 0 3.9-1.3l3.5-5.6z"/></g></g><g><path opacity=".8" fill="#1EA139" d="M-2510.2 1832.4h1002v1500h-1002z"/><linearGradient id="t" gradientUnits="userSpaceOnUse" x1="-2133.221" y1="2582.391" x2="-2005.721" y2="2582.391"><stop offset="0" stop-opacity="0"/><stop offset=".859" stop-opacity=".172"/><stop offset="1" stop-opacity=".2"/></linearGradient><path fill="url(#t)" d="M-2133.2 1832.4h127.5v1500h-127.5z"/><path fill="#FFF" d="M-2007.7 1832.4h500v1501h-500z"/><path fill="#FDFDFD" d="M-2007.5 2368.6h500.2v121.2h-500.2z"/><text transform="translate(-1890.72 2315.394)"><tspan x="0" y="0" fill="#626161" font-family="'HelveticaNeueCE-Thin'" font-size="32" letter-spacing="1">HOME</tspan><tspan x="0" y="122" fill="#626161" font-family="'HelveticaNeueCE-Thin'" font-size="32" letter-spacing="1">SAFETY MAP</tspan><tspan x="0" y="244" fill="#626161" font-family="'HelveticaNeueCE-Thin'" font-size="32" letter-spacing="1">CONSEPT</tspan><tspan x="0" y="366" fill="#626161" font-family="'HelveticaNeueCE-Thin'" font-size="32" letter-spacing="1">HELP</tspan><tspan x="0" y="488.7" fill="#626161" font-family="'KozGoPro-ExtraLight-83pv-RKSJ-H'" font-size="32" letter-spacing="1">運営</tspan></text><path fill="#1EA139" d="M-1946.1 2292.2l10.3 7.8v14.4h-20.7V2300l10.4-7.8m0-8.1c-.6 0-1.2.2-1.6.5l-14.2 10.7c-.9.7-1.6 2.1-1.6 3.2v20.9c0 1.1.9 2 2 2h30.7c1.1 0 2-.9 2-2v-20.9c0-1.1-.7-2.5-1.6-3.2l-14.2-10.7c-.4-.3-.9-.5-1.5-.5z"/><circle fill="#1EA139" cx="-1946.1" cy="2670.5" r="23.3"/><path fill="#FFF" d="M-1944.2 2674.6l-3.8-.1c.1-2.9 1.8-4.7 3-6 1-1.1 1.6-1.7 1.6-2.6 0-1.5-1.2-2.7-2.7-2.7-1.5 0-2.7 1.2-2.7 2.7h-3.8c0-3.6 3-6.6 6.6-6.6 3.6 0 6.6 3 6.6 6.6 0 2.5-1.5 4-2.7 5.2-1.3 1.4-2.1 2.2-2.1 3.5z"/><circle fill="#FFF" cx="-1946.1" cy="2679.4" r="2.7"/><path fill="#1EA139" d="M-1968.2 2560c1.3 1.5 3.7 1.6 5 .1l11.3-11.6c.8-.9 2.3-.3 2.3.9v22.4c0 1.8 1.3 3.4 3.1 3.5 2 .2 3.7-1.4 3.7-3.4v-22.5c0-1.2 1.5-1.8 2.3-.9l11.3 11.6c1.4 1.4 3.7 1.4 5-.1 1.2-1.3 1-3.4-.2-4.7l-19.4-20c-.6-.7-1.5-1-2.5-1-.9 0-1.8.4-2.5 1l-19.4 20c-1 1.3-1.1 3.3 0 4.7z"/><g fill="#1EA139"><path d="M-1946.1 2788c-5.1 0-9.3-4.2-9.3-9.3s4.2-9.3 9.3-9.3c5.1 0 9.3 4.2 9.3 9.3s-4.2 9.3-9.3 9.3zm0-12.6c-1.8 0-3.3 1.5-3.3 3.3 0 1.8 1.5 3.3 3.3 3.3s3.3-1.5 3.3-3.3c0-1.8-1.5-3.3-3.3-3.3zM-1931.2 2811.9c-1.7 0-3-1.3-3-3 0-6.6-5.3-11.9-11.9-11.9s-11.9 5.3-11.9 11.9c0 1.7-1.3 3-3 3s-3-1.3-3-3c0-9.9 8-17.9 17.9-17.9s17.9 8 17.9 17.9c0 1.7-1.3 3-3 3z"/></g><path fill="#1EA139" d="M-1946.1 2410.4c6.4 0 11.6 5.2 11.6 11.6 0 4.3-3.3 9-7.9 15.5-1.2 1.7-2.4 3.4-3.7 5.3-1.3-1.9-2.6-3.7-3.8-5.4-4.3-6.1-8-11.3-8-15.4.2-6.4 5.4-11.6 11.8-11.6m0-7c-10.3 0-18.6 8.3-18.6 18.6 0 9.6 10.1 18.8 17.3 31.7.3.6.9.8 1.4.8.6 0 1.1-.3 1.4-.8 8.2-14.1 17.2-22.1 17.2-31.7-.1-10.3-8.4-18.6-18.7-18.6z"/><g><defs><path id="u" d="M-2006.7 1832.4h499v415h-499z"/></defs><use xlink:href="#u" overflow="visible" fill="#FDFDFD"/><clipPath id="v"><use xlink:href="#u" overflow="visible"/></clipPath><g clip-path="url(#v)"><path fill="#1EA139" d="M-1600.5 2057.7c0 83.5-77 152.1-147.9 273.5-5.6 9.5-19.3 9.4-24.6-.2-61.7-111.2-148.6-190.3-148.6-273.2 0-88.5 71.9-160.3 160.6-160.3 88.6-.1 160.5 71.6 160.5 160.2z"/><g fill="#FFF"><path d="M-1829 2087.1c4 0 6.5 2.3 7.7 5.2 1.3 3.1.9 6.8-2.3 9 3.6 1.5 4.9 4.9 4.9 7.9 0 4.8-3.1 9.6-9.2 9.6h-14.3v-31.7h13.2zm-8.7 12.5h8.6c5 0 5.1-8.2.1-8.2h-8.7v8.2zm0 14.7h9.8c3.1 0 4.6-2.6 4.6-5.1s-1.5-5-4.6-5h-9.8v10.1zM-1811.7 2087.1h3.8v31.7h-3.8zM-1796.9 2091.6c2.8-2.9 6.7-4.7 11-4.7 7.2 0 13 4.5 14.8 11.7h-4.5c-1.7-4.8-5.6-7.2-10.2-7.2-3 0-5.8 1.3-7.8 3.4-2 2.1-3.3 4.9-3.3 8.2 0 3.2 1.3 6 3.3 8.1 2 2.1 4.8 3.4 7.8 3.4 4.8 0 8.9-2.8 10.5-7.6h4.5c-1.8 7.2-7.6 12.1-15 12.1-4.3 0-8.2-1.8-11-4.7-2.7-2.9-4.5-6.9-4.5-11.3-.1-4.5 1.7-8.5 4.4-11.4zM-1765.5 2087.1l8.7 13.9 8.7-13.9h5.4l-11.8 18.8v12.9h-4.6v-12.9l-11.7-18.8h5.3zM-1738.4 2091.6c2.8-2.9 6.7-4.7 11-4.7 7.2 0 13 4.5 14.8 11.7h-4.5c-1.7-4.8-5.6-7.2-10.2-7.2-3 0-5.8 1.3-7.8 3.4-2 2.1-3.3 4.9-3.3 8.2 0 3.2 1.3 6 3.3 8.1 2 2.1 4.8 3.4 7.8 3.4 4.8 0 8.9-2.8 10.5-7.6h4.5c-1.8 7.2-7.6 12.1-15 12.1-4.3 0-8.2-1.8-11-4.7-2.7-2.9-4.5-6.9-4.5-11.3-.1-4.5 1.7-8.5 4.4-11.4zM-1702.9 2114.1h14.9v4.6h-19.5V2087h4.6v27.1zM-1679.8 2114.1h14.7v4.6h-19.3V2087h19.3v4.6h-14.7v8.9h14.4v4.6h-14.4v9zM-1792 2200.2h-4.6v-31.7h3.7l10.5 15.4 10.5-15.4h3.6v31.7h-4.5v-22.3l-8.3 12.3h-2.6l-8.3-12.3v22.3zM-1745.4 2190.9h-11.4c-1.2 2.9-2.8 6.7-3.8 9.3h-4.9l12.7-32.1h3.4l12.7 32.1h-4.9l-3.8-9.3zm-9.7-4.3h7.9l-3.9-11.2-4 11.2zM-1722.9 2168.5c6.8 0 10.3 5.3 10.3 10.6s-3.4 10.6-10.3 10.6h-7v10.6h-4.6v-31.7h11.6zm0 16.7c3.9 0 5.8-3 5.8-6s-1.9-6-5.8-6h-7v12h7z"/></g><g fill="#FFF" stroke="#1EA139" stroke-width="3" stroke-miterlimit="10"><path d="M-1819.7 2135c-.7-3.2-4.2-4.6-7.3-4.5-2.4.1-5 .9-6.5 2.7-.7.9-1 2.1-.9 3.3.3 3.7 4.3 4.1 8.1 4.5 4.9.6 11 1.9 12.3 7.6.2.8.3 1.6.3 2.3 0 6.9-6.8 10.9-13.2 10.9-5.5 0-12.2-3.3-12.8-9.6l-.1-1 5.2-.1.1.8v-.2c.4 3.3 4.4 5 7.7 5 3.8 0 8-2.1 8-5.8 0-.4-.1-.8-.2-1.2-.6-2.7-4.3-3.2-7.8-3.5-5.6-.6-12.1-1.8-12.6-9.2v.1c-.2-2.4.4-4.8 1.9-6.8 2.4-3.1 6.7-4.7 10.8-4.7 5.5 0 11.2 2.9 12.1 9.4h-5.1zM-1789.3 2151h-12.8c-1.4 3.3-3.2 7.5-4.3 10.5h-5.6l14.3-36.1h3.8l14.3 36.1h-5.5l-4.2-10.5zm-10.9-4.9h8.9l-4.4-12.6-4.5 12.6zM-1772 2161.5h-5.1v-35.6h21.2v5.1h-16.1v10h14.3v5.2h-14.3v15.3zM-1747 2156.3h16.6v5.1h-21.8v-35.6h21.7v5.1h-16.5v10h16.2v5.2h-16.2v10.2zM-1717.1 2161.6V2131h-10.8v-5.2h26.7v5.2h-10.8v30.6h-5.1zM-1694.2 2125.9l9.7 15.6 9.7-15.6h6.1l-13.2 21.1v14.5h-5.2V2147l-13.2-21.1h6.1z"/></g><path fill="#FFF" d="M-1690.6 1995.7c-7.3-2.6-14.2-2.4-20.5-.7l-18.9-43.3c-.8-1.9-2.7-3.1-4.7-3.1h-22.1c-1.5 0-2.7 1.2-2.7 2.7v4.9c0 1.5 1.2 2.7 2.7 2.7h17c1.1 0 2 .6 2.4 1.6l5.5 12.6c.8 1.8-.5 3.7-2.4 3.7h-38.6c-1.1 0-2-.6-2.4-1.6l-3.5-8h7.4c1.5 0 2.7-1.2 2.7-2.7v-4.9c0-1.5-1.2-2.7-2.7-2.7h-26.3c-1.5 0-2.7 1.2-2.7 2.7v4.9c0 1.5 1.2 2.7 2.7 2.7h6c1.1 0 2 .6 2.4 1.6l5 11.6c.4.9.3 1.9-.3 2.6l-11.1 15c-5.3-2.9-11.3-4.4-17.8-4.2-19.2.5-34.9 16.9-34.5 36.1.4 19.3 16.1 34.8 35.5 34.8 17.1 0 31.3-12.1 34.7-28.2.3-1.3 1.3-2.2 2.6-2.2h17.8c1.7 0 3.2-.8 4.2-2.2l26.3-37.7c1.2-1.7 3.8-1.4 4.6.5l1.8 4.2c-11.3 7-18.4 20.2-16.5 34.9 2 15.5 14.4 28.1 29.9 30.3 22.5 3.3 41.8-14.7 40.7-36.9-.7-14.3-10.6-26.9-24.2-31.7zm-86.6 1.2l10.3 23.6c.8 1.8-.5 3.7-2.4 3.7h-5.9c-1.3 0-2.4-.9-2.6-2.2-1.3-6.1-4.1-11.7-8.1-16.2-.9-1-1-2.4-.2-3.4l4.5-6c1.1-1.7 3.6-1.4 4.4.5zm-14.3 18.5c1.1 1.6 2 3.4 2.7 5.3.6 1.7-.7 3.5-2.5 3.5h-11.1l6.6-8.9c1-1.4 3.3-1.4 4.3.1zm-21.1 39.2c-14.1 0-25.5-11.5-25.3-25.7.2-13.1 10.9-24.2 24.1-24.8 3-.1 5.8.2 8.4 1 1.7.5 2.4 2.7 1.3 4.1l-12.6 17c-1.2 1.6-1.3 3.6-.5 5.3.9 1.7 2.6 2.8 4.6 2.8h21.2c1.8 0 3.2 1.8 2.5 3.5-3.4 9.8-12.8 16.8-23.7 16.8zm54.3-40.1l-10.3-23.7c-.8-1.8.5-3.7 2.4-3.7h26.9c2.2 0 3.4 2.4 2.2 4.2l-16.6 23.7c-1.2 1.7-3.8 1.4-4.6-.5zm53.9 39.9c-11.5-1.1-21-10.3-22.5-21.8-1.1-8.5 2.1-16.3 7.7-21.6 1.3-1.3 3.5-.7 4.2.9l7.4 17c.6 1.3 2.2 2 3.5 1.4l4.5-2c1.3-.6 2-2.2 1.4-3.5l-7.4-17c-.7-1.7.4-3.6 2.2-3.7 2.6-.2 5.4.1 8.2.8 9.7 2.6 17.1 11 18.4 20.9 2.2 16.4-11.3 30.3-27.6 28.6z"/><path fill="#040000" d="M-1660.5 2001.8c.8-1.2 2-1.2 2.8 0l3.5 5.6c.8 1.2 2.5 1.8 3.9 1.3l6.1-2.5c1.4-.6 2.4.2 2.3 1.6l-.5 6.6c-.1 1.5 1 2.9 2.4 3.3l6.4 1.6c1.4.3 1.8 1.5.9 2.7l-4.2 5c-.9 1.1-.9 2.9 0 4.1l4.2 5c.9 1.1.6 2.3-.9 2.7l-6.4 1.6c-1.4.3-2.5 1.8-2.4 3.3l.5 6.6c.1 1.5-.9 2.2-2.3 1.6l-6.1-2.5c-1.4-.6-3.1 0-3.9 1.3l-3.5 5.6c-.8 1.2-2 1.2-2.8 0l-3.5-5.6c-.8-1.2-2.5-1.8-3.9-1.3l-6.1 2.5c-1.4.6-2.4-.2-2.3-1.6l.5-6.6c.1-1.5-1-2.9-2.4-3.3l-6.4-1.6c-1.4-.3-1.8-1.5-.9-2.7l4.2-5c.9-1.1.9-2.9 0-4.1l-4.2-5c-.9-1.1-.6-2.3.9-2.7l6.4-1.6c1.4-.3 2.5-1.8 2.4-3.3l-.5-6.6c-.1-1.5.9-2.2 2.3-1.6l6.1 2.5c1.4.6 3.1 0 3.9-1.3l3.5-5.6z"/></g></g><g fill="none" stroke="#9DA29E" stroke-width=".3" stroke-miterlimit="10"><path opacity=".6" d="M-2007.7 2368.6h500.5M-2007.7 2247.4h500.5M-2007.7 2611h500.5M-2007.7 2489.8h500.5M-2007.7 2853.4h500.5M-2007.7 2732.2h500.5"/></g><g><path fill="#FFF" d="M-2059.7 2378.4h52v386h-52c-11 0-20-9-20-20v-346c0-11.1 9-20 20-20z"/><path fill="none" stroke="#1EA139" stroke-width="3" stroke-miterlimit="10" d="M-2049.2 2586.9l14.8-14.8-14.8-14.7"/></g><g><text transform="translate(-2369.36 2688.92)" fill="#FFF" font-family="'KozGoPro-Heavy-83pv-RKSJ-H'" font-size="41.423" letter-spacing="1">メニュー</text><g fill="#FFF"><path d="M-2368.8 2451.9h169.6v22.5h-169.6zM-2368.8 2522.1h169.6v22.5h-169.6zM-2368.8 2592.3h169.6v22.5h-169.6z"/></g></g><g><g fill="#FFF"><path d="M-3848.1 2662c3.1 1.3 6.5 3 9.9 4.8 1.9-3 4.7-8.3 6.7-13.1l7.8 3.3c-.2.5-.8.7-1.7.7-1.9 3.9-4.6 8.9-7 12.5 1.9 1.2 5 3.2 7.4 5.2l-4.2 6.1c-1.8-1.7-4.3-3.8-7.1-5.7-4.1 5.5-9.6 11-15.5 14.8-1.1-1.3-3.7-3.6-5.3-4.6 5.6-3.4 11.2-8.3 15.2-13.5-3.2-1.9-6.6-3.6-9.7-5.1l3.5-5.4zM-3779.4 2680.3v6.1h-34.6v-6.1h34.6zm-4.2-21v6.1h-26.2v-6.1h26.2zM-3739.4 2682.6v4.9h-28.3v-4.9h15.7c.6-3.6 1.2-9.2 1.7-12.6h-14.3v-4.9h16l.9-.3 4 1.7c-.1.3-.4.6-.7.7-.5 3.8-1.7 11.6-2.3 15.4h7.3zM-3728 2668.4h34.6v6.3h-32.8c-.3.4-.9.7-1.5.8l-.3-7.1z"/></g><g fill="#FFF"><path d="M-3859.8 2450.9h169.6v22.5h-169.6zM-3859.8 2521.1h169.6v22.5h-169.6zM-3859.8 2591.3h169.6v22.5h-169.6z"/></g></g></g></svg>