<?xml version="1.0" encoding="utf-8"?>
<!-- Generator: Adobe Illustrator 18.1.1, SVG Export Plug-In . SVG Version: 6.00 Build 0)  -->
<!DOCTYPE svg PUBLIC "-//W3C//DTD SVG 1.1//EN" "http://www.w3.org/Graphics/SVG/1.1/DTD/svg11.dtd">
<svg version="1.1" id="レイヤー_1" xmlns="http://www.w3.org/2000/svg" xmlns:xlink="http://www.w3.org/1999/xlink" x="0px"
	 y="0px" viewBox="0 0 50.5 49" enable-background="new 0 0 50.5 49" xml:space="preserve">
<g>
	<g>
		<g>
			<path fill="#1EA139" d="M24.3,18.4c0,3.2-3,5.9-5.7,10.5c-0.2,0.4-0.7,0.4-0.9,0c-2.4-4.3-5.7-7.3-5.7-10.5
				c0-3.4,2.8-6.2,6.2-6.2C21.5,12.2,24.3,15,24.3,18.4z"/>
		</g>
	</g>
	<path fill="#1EA139" d="M25.3,49c-1.5,0-2.8-0.8-3.6-2.1c-0.6-1.1-1.3-2.3-2.1-3.5H2.8c-1.5,0-2.8-1.2-2.8-2.8V2.8
		C0,1.2,1.2,0,2.8,0h45c1.5,0,2.8,1.2,2.8,2.8v37.9c0,1.5-1.2,2.8-2.8,2.8H31c-0.8,1.3-1.5,2.4-2.2,3.6C28.1,48.2,26.8,49,25.3,49z
		 M5.5,37.9h15.6c0.9,0,1.8,0.5,2.3,1.2c0.7,1,1.3,2,1.9,2.9c0.6-0.9,1.2-1.9,1.9-2.9c0.5-0.8,1.4-1.2,2.3-1.2H45V5.5H5.5V37.9z"/>
	<g>
		<rect x="29.1" y="15.3" fill="#1EA139" width="7.4" height="1.6"/>
		<rect x="29.1" y="20.7" fill="#1EA139" width="11.1" height="1.6"/>
		<rect x="29.1" y="26" fill="#1EA139" width="7.4" height="1.6"/>
	</g>
</g>
</svg>
