<svg xmlns="http://www.w3.org/2000/svg" xmlns:xlink="http://www.w3.org/1999/xlink" viewBox="0 0 37.3 51.2"><text transform="translate(-2775.93 1480.098)"><tspan x="0" y="0" font-family="'KozGoPro-Light-83pv-RKSJ-H'" font-size="21">文字だけ写真なし</tspan><tspan x="0" y="73.5" font-family="'KozGoPro-Light-83pv-RKSJ-H'" font-size="21">リストでは塊として表示するか、単体で表示するか</tspan><tspan x="0" y="110.2" font-family="'KozGoPro-Light-83pv-RKSJ-H'" font-size="21">タイトルは住所にするか状況にするか</tspan></text><path fill="#FFF" d="M-481.2 1713.1h500v2000h-500z"/><path fill="#FDFDFD" d="M-480.9 2249.3H19.3v121.2h-500.2z"/><text transform="translate(-364.18 2196.1)"><tspan x="0" y="0" fill="#626161" font-family="'HelveticaNeueCE-Thin'" font-size="32" letter-spacing="1">HOME</tspan><tspan x="0" y="122" fill="#626161" font-family="'HelveticaNeueCE-Thin'" font-size="32" letter-spacing="1">SAFETY MAP</tspan><tspan x="0" y="244" fill="#626161" font-family="'HelveticaNeueCE-Thin'" font-size="32" letter-spacing="1">CONSEPT</tspan><tspan x="0" y="366" fill="#626161" font-family="'HelveticaNeueCE-Thin'" font-size="32" letter-spacing="1">HELP</tspan><tspan x="0" y="488.7" fill="#626161" font-family="'KozGoPro-ExtraLight-83pv-RKSJ-H'" font-size="32" letter-spacing="1">運営</tspan></text><path fill="#FF77D6" d="M-419.6 2172.9l10.3 7.8v14.4H-430v-14.4l10.4-7.8m0-8.1c-.6 0-1.2.2-1.6.5l-14.2 10.7c-.9.7-1.6 2.1-1.6 3.2v20.9c0 1.1.9 2 2 2h30.7c1.1 0 2-.9 2-2v-20.9c0-1.1-.7-2.5-1.6-3.2l-14.2-10.7c-.3-.3-.9-.5-1.5-.5z"/><circle fill="#DDB588" cx="-419.6" cy="2551.2" r="23.3"/><path fill="#FFF" d="M-417.6 2555.3l-3.8-.1c.1-2.9 1.8-4.7 3-6 1-1.1 1.6-1.7 1.6-2.6 0-1.5-1.2-2.7-2.7-2.7-1.5 0-2.7 1.2-2.7 2.7h-3.8c0-3.6 3-6.6 6.6-6.6 3.6 0 6.6 3 6.6 6.6 0 2.5-1.5 4-2.7 5.2-1.4 1.4-2.1 2.2-2.1 3.5z"/><circle fill="#FFF" cx="-419.6" cy="2560.1" r="2.7"/><path fill="#38D4EA" d="M-441.6 2440.7c1.3 1.5 3.7 1.6 5 .1l11.3-11.6c.8-.9 2.3-.3 2.3.9v22.4c0 1.8 1.3 3.4 3.1 3.5 2 .2 3.7-1.4 3.7-3.4v-22.5c0-1.2 1.5-1.8 2.3-.9l11.3 11.6c1.4 1.4 3.7 1.4 5-.1 1.2-1.3 1-3.4-.2-4.7l-19.4-20c-.6-.7-1.5-1-2.5-1s-1.8.4-2.5 1l-19.4 20c-1 1.3-1.2 3.3 0 4.7z"/><g fill="#DDB588"><path d="M-419.6 2668.7c-5.1 0-9.3-4.2-9.3-9.3s4.2-9.3 9.3-9.3c5.1 0 9.3 4.2 9.3 9.3s-4.2 9.3-9.3 9.3zm0-12.6c-1.8 0-3.3 1.5-3.3 3.3 0 1.8 1.5 3.3 3.3 3.3s3.3-1.5 3.3-3.3c0-1.8-1.5-3.3-3.3-3.3zM-404.7 2692.6c-1.7 0-3-1.3-3-3 0-6.6-5.3-11.9-11.9-11.9s-11.9 5.3-11.9 11.9c0 1.7-1.3 3-3 3s-3-1.3-3-3c0-9.9 8-17.9 17.9-17.9s17.9 8 17.9 17.9c0 1.7-1.3 3-3 3z"/></g><path fill="#1EA139" d="M-419.6 2291.1c6.4 0 11.6 5.2 11.6 11.6 0 4.3-3.3 9-7.9 15.5-1.2 1.7-2.4 3.4-3.7 5.3-1.3-1.9-2.6-3.7-3.8-5.4-4.3-6.1-8-11.3-8-15.4.2-6.4 5.4-11.6 11.8-11.6m0-7c-10.3 0-18.6 8.3-18.6 18.6 0 9.6 10.1 18.8 17.3 31.7.3.6.9.8 1.4.8.6 0 1.1-.3 1.4-.8 8.2-14.1 17.2-22.1 17.2-31.7 0-10.3-8.4-18.6-18.7-18.6z"/><defs><path id="a" d="M-481.2 1713.1h500v415h-500z"/></defs><use xlink:href="#a" overflow="visible" fill="#FDFDFD"/><clipPath id="b"><use xlink:href="#a" overflow="visible"/></clipPath><g clip-path="url(#b)"><path fill="#FF77D6" d="M-73.9 1938.4c0 83.5-77 152.1-147.9 273.5-5.6 9.5-19.3 9.4-24.6-.2-61.7-111.2-148.6-190.3-148.6-273.2 0-88.5 71.9-160.3 160.6-160.3 88.6-.1 160.5 71.7 160.5 160.2z"/><g fill="#040000"><path d="M-302.5 1967.8c4 0 6.5 2.3 7.7 5.2 1.3 3.1.9 6.8-2.3 9 3.6 1.5 4.9 4.9 4.9 7.9 0 4.8-3.1 9.6-9.2 9.6h-14.3v-31.7h13.2zm-8.7 12.6h8.6c5 0 5.1-8.2.1-8.2h-8.7v8.2zm0 14.6h9.8c3.1 0 4.6-2.6 4.6-5.1s-1.5-5-4.6-5h-9.8v10.1zM-285.2 1967.8h3.8v31.7h-3.8zM-270.3 1972.3c2.8-2.9 6.7-4.7 11-4.7 7.2 0 13 4.5 14.8 11.7h-4.5c-1.7-4.8-5.6-7.2-10.2-7.2-3 0-5.8 1.3-7.8 3.4-2 2.1-3.3 4.9-3.3 8.2 0 3.2 1.3 6 3.3 8.1 2 2.1 4.8 3.4 7.8 3.4 4.8 0 8.9-2.8 10.5-7.6h4.5c-1.8 7.2-7.6 12.1-15 12.1-4.3 0-8.2-1.8-11-4.7-2.7-2.9-4.5-6.9-4.5-11.3-.2-4.5 1.6-8.5 4.4-11.4zM-238.9 1967.8l8.7 13.9 8.7-13.9h5.4l-11.8 18.8v12.9h-4.6v-12.9l-11.7-18.8h5.3zM-211.9 1972.3c2.8-2.9 6.7-4.7 11-4.7 7.2 0 13 4.5 14.8 11.7h-4.5c-1.7-4.8-5.6-7.2-10.2-7.2-3 0-5.8 1.3-7.8 3.4-2 2.1-3.3 4.9-3.3 8.2 0 3.2 1.3 6 3.3 8.1 2 2.1 4.8 3.4 7.8 3.4 4.8 0 8.9-2.8 10.5-7.6h4.5c-1.8 7.2-7.6 12.1-15 12.1-4.3 0-8.2-1.8-11-4.7-2.7-2.9-4.5-6.9-4.5-11.3-.1-4.5 1.7-8.5 4.4-11.4zM-176.4 1994.9h14.9v4.6H-181v-31.7h4.6v27.1zM-153.3 1994.9h14.7v4.6h-19.3v-31.7h19.3v4.6h-14.7v8.9h14.4v4.6h-14.4v9zM-265.5 2081h-4.6v-31.7h3.7l10.5 15.4 10.5-15.4h3.6v31.7h-4.5v-22.3l-8.3 12.3h-2.6l-8.3-12.3v22.3zM-218.9 2071.6h-11.4c-1.2 2.9-2.8 6.7-3.8 9.3h-4.9l12.7-32.1h3.4l12.7 32.1h-4.9l-3.8-9.3zm-9.7-4.3h7.9l-3.9-11.2-4 11.2zM-196.4 2049.2c6.8 0 10.3 5.3 10.3 10.6s-3.4 10.6-10.3 10.6h-7v10.6h-4.6v-31.7h11.6zm0 16.7c3.9 0 5.8-3 5.8-6s-1.9-6-5.8-6h-7v12h7z"/></g><g fill="#040000" stroke="#FFF" stroke-width="3" stroke-miterlimit="10"><path d="M-293.2 2015.7c-.7-3.2-4.2-4.6-7.3-4.5-2.4.1-5 .9-6.5 2.7-.7.9-1 2.1-.9 3.3.3 3.7 4.3 4.1 8.1 4.5 4.9.6 11 1.9 12.3 7.6.2.8.3 1.6.3 2.3 0 6.9-6.8 10.9-13.2 10.9-5.5 0-12.2-3.3-12.8-9.6l-.1-1 5.2-.1.1.8v-.2c.4 3.3 4.4 5 7.7 5 3.8 0 8-2.1 8-5.8 0-.4-.1-.8-.2-1.2-.6-2.7-4.3-3.2-7.8-3.5-5.6-.6-12.1-1.8-12.6-9.2v.1c-.2-2.4.4-4.8 1.9-6.8 2.4-3.1 6.7-4.7 10.8-4.7 5.5 0 11.2 2.9 12.1 9.4h-5.1zM-262.8 2031.7h-12.8c-1.4 3.3-3.2 7.5-4.3 10.5h-5.6l14.3-36.1h3.8l14.3 36.1h-5.5l-4.2-10.5zm-10.8-4.9h8.9l-4.4-12.6-4.5 12.6zM-245.4 2042.2h-5.1v-35.6h21.2v5.1h-16.1v10h14.3v5.2h-14.3v15.3zM-220.5 2037h16.6v5.1h-21.8v-35.6h21.7v5.1h-16.5v10h16.2v5.2h-16.2v10.2zM-190.6 2042.3v-30.6h-10.8v-5.2h26.7v5.2h-10.8v30.6h-5.1zM-167.6 2006.6l9.7 15.6 9.7-15.6h6.1l-13.2 21.1v14.5h-5.2v-14.5l-13.2-21.1h6.1z"/></g><path fill="#040000" d="M-164.1 1876.4c-7.3-2.6-14.2-2.4-20.5-.7l-18.9-43.3c-.8-1.9-2.7-3.1-4.7-3.1h-22.1c-1.5 0-2.7 1.2-2.7 2.7v4.9c0 1.5 1.2 2.7 2.7 2.7h17c1.1 0 2 .6 2.4 1.6l5.5 12.6c.8 1.8-.5 3.7-2.4 3.7h-38.6c-1.1 0-2-.6-2.4-1.6l-3.5-8h7.4c1.5 0 2.7-1.2 2.7-2.7v-4.9c0-1.5-1.2-2.7-2.7-2.7h-26.3c-1.5 0-2.7 1.2-2.7 2.7v4.9c0 1.5 1.2 2.7 2.7 2.7h6c1.1 0 2 .6 2.4 1.6l5 11.6c.4.9.3 1.9-.3 2.6l-11.1 15c-5.3-2.9-11.3-4.4-17.8-4.2-19.2.5-34.9 16.9-34.5 36.1.4 19.3 16.1 34.8 35.5 34.8 17.1 0 31.3-12.1 34.7-28.2.3-1.3 1.3-2.2 2.6-2.2h17.8c1.7 0 3.2-.8 4.2-2.2l26.3-37.7c1.2-1.7 3.8-1.4 4.6.5l1.8 4.2c-11.3 7-18.4 20.2-16.5 34.9 2 15.5 14.4 28.1 29.9 30.3 22.5 3.3 41.8-14.7 40.7-36.9-.6-14.3-10.5-26.9-24.2-31.7zm-86.5 1.2l10.3 23.6c.8 1.8-.5 3.7-2.4 3.7h-5.9c-1.3 0-2.4-.9-2.6-2.2-1.3-6.1-4.1-11.7-8.1-16.2-.9-1-1-2.4-.2-3.4l4.5-6c1-1.7 3.6-1.4 4.4.5zm-14.4 18.5c1.1 1.6 2 3.4 2.7 5.3.6 1.7-.7 3.5-2.5 3.5h-11.1l6.6-8.9c1.1-1.4 3.3-1.4 4.3.1zm-21 39.2c-14.1 0-25.5-11.5-25.3-25.7.2-13.1 10.9-24.2 24.1-24.8 3-.1 5.8.2 8.4 1 1.7.5 2.4 2.7 1.3 4.1l-12.6 17c-1.2 1.6-1.3 3.6-.5 5.3.9 1.7 2.6 2.8 4.6 2.8h21.2c1.8 0 3.2 1.8 2.5 3.5-3.5 9.8-12.8 16.8-23.7 16.8zm54.2-40.1l-10.3-23.7c-.8-1.8.5-3.7 2.4-3.7h26.9c2.2 0 3.4 2.4 2.2 4.2l-16.6 23.7c-1.2 1.7-3.8 1.4-4.6-.5zm53.9 39.9c-11.5-1.1-21-10.3-22.5-21.8-1.1-8.5 2.1-16.3 7.7-21.6 1.3-1.3 3.5-.7 4.2.9l7.4 17c.6 1.3 2.2 2 3.5 1.4l4.5-2c1.3-.6 2-2.2 1.4-3.5l-7.4-17c-.7-1.7.4-3.6 2.2-3.7 2.6-.2 5.4.1 8.2.8 9.7 2.6 17.1 11 18.4 20.9 2.3 16.4-11.3 30.3-27.6 28.6z"/><path fill="#FFF" d="M-134 1882.5c.8-1.2 2-1.2 2.8 0l3.5 5.6c.8 1.2 2.5 1.8 3.9 1.3l6.1-2.5c1.4-.6 2.4.2 2.3 1.6l-.5 6.6c-.1 1.5 1 2.9 2.4 3.3l6.4 1.6c1.4.3 1.8 1.5.9 2.7l-4.2 5c-.9 1.1-.9 2.9 0 4.1l4.2 5c.9 1.1.6 2.3-.9 2.7l-6.4 1.6c-1.4.3-2.5 1.8-2.4 3.3l.5 6.6c.1 1.5-.9 2.2-2.3 1.6l-6.1-2.5c-1.4-.6-3.1 0-3.9 1.3l-3.5 5.6c-.8 1.2-2 1.2-2.8 0l-3.5-5.6c-.8-1.2-2.5-1.8-3.9-1.3l-6.1 2.5c-1.4.6-2.4-.2-2.3-1.6l.5-6.6c.1-1.5-1-2.9-2.4-3.3l-6.4-1.6c-1.4-.3-1.8-1.5-.9-2.7l4.2-5c.9-1.1.9-2.9 0-4.1l-4.2-5c-.9-1.1-.6-2.3.9-2.7l6.4-1.6c1.4-.3 2.5-1.8 2.4-3.3l-.5-6.6c-.1-1.5.9-2.2 2.3-1.6l6.1 2.5c1.4.6 3.1 0 3.9-1.3l3.5-5.6z"/></g><g fill="none" stroke="#9DA29E" stroke-width=".3" stroke-miterlimit="10"><path opacity=".6" d="M-481.2 2249.3H19.3M-481.2 2128.1H19.3M-481.2 2491.7H19.3M-481.2 2370.5H19.3M-481.2 2734.1H19.3M-481.2 2612.9H19.3"/></g><text transform="translate(-3557.93 1516.848)"><tspan x="0" y="0" font-family="'KozGoPro-Light-83pv-RKSJ-H'" font-size="21">坂</tspan><tspan x="0" y="36.8" font-family="'KozGoPro-Light-83pv-RKSJ-H'" font-size="21">交通量</tspan><tspan x="0" y="73.5" font-family="'KozGoPro-Light-83pv-RKSJ-H'" font-size="21">道幅</tspan><tspan x="0" y="110.2" font-family="'KozGoPro-Light-83pv-RKSJ-H'" font-size="21">見通し</tspan><tspan x="0" y="147" font-family="'KozGoPro-Light-83pv-RKSJ-H'" font-size="21">暗い</tspan><tspan x="0" y="183.8" font-family="'KozGoPro-Light-83pv-RKSJ-H'" font-size="21">歩行者</tspan><tspan x="0" y="220.5" font-family="'KozGoPro-Light-83pv-RKSJ-H'" font-size="21">通学路</tspan><tspan x="0" y="257.2" font-family="'KozGoPro-Light-83pv-RKSJ-H'" font-size="21">時間帯</tspan><tspan x="0" y="294" font-family="'KozGoPro-Light-83pv-RKSJ-H'" font-size="21">事故多発</tspan><tspan x="0" y="330.8" font-family="'KozGoPro-Light-83pv-RKSJ-H'" font-size="21">重大事故</tspan><tspan x="0" y="367.5" font-family="'KozGoPro-Light-83pv-RKSJ-H'" font-size="21">ヒヤリハット</tspan></text><path opacity=".6" fill="none" stroke="#283429" stroke-width=".3" stroke-miterlimit="10" d="M-2504.1 1942.1h997.4"/><text transform="translate(-2355.054 1802.098)"><tspan x="0" y="0" fill="#626262" font-family="'HelveticaNeue-Roman'" font-size="24">2014</tspan><tspan x="53.4" y="0" font-family="'HelveticaNeue-Roman'" font-size="24"> 11/12 </tspan><tspan x="128.1" y="0" fill="#626262" font-family="'HelveticaNeue-Roman'" font-size="24">10:00</tspan></text><text transform="translate(-2355.054 1848.098)" font-family="'KozGoPr6N-Regular-83pv-RKSJ-H'" font-size="32">自動車と出会いがしら衝突</text><text transform="translate(-2355.054 1890.098)"><tspan x="0" y="0" fill="#929292" font-family="'KozGoPr6N-Regular-83pv-RKSJ-H'" font-size="19">草津市野路東</tspan><tspan x="0" y="30" fill="#929292" font-family="'KozGoPr6N-Regular-83pv-RKSJ-H'" font-size="19">坂</tspan><tspan x="19" y="30" fill="#929292" font-family="'Helvetica'" font-size="19"> </tspan><tspan x="24.3" y="30" fill="#929292" font-family="'KozGoPr6N-Regular-83pv-RKSJ-H'" font-size="19">見通し</tspan><tspan x="81.3" y="30" fill="#929292" font-family="'Helvetica'" font-size="19"> </tspan><tspan x="86.6" y="30" fill="#929292" font-family="'KozGoPr6N-Regular-83pv-RKSJ-H'" font-size="19">暗い</tspan><tspan x="124.6" y="30" fill="#929292" font-family="'Helvetica'" font-size="19"> </tspan><tspan x="129.8" y="30" fill="#929292" font-family="'KozGoPr6N-Regular-83pv-RKSJ-H'" font-size="19">事故多発</tspan></text><text transform="translate(-2355.054 2088.098)"><tspan x="0" y="0" fill="#929292" font-family="'KozGoPr6N-Regular-83pv-RKSJ-H'" font-size="19">草津市野路東</tspan><tspan x="0" y="30" fill="#929292" font-family="'KozGoPr6N-Regular-83pv-RKSJ-H'" font-size="19">坂</tspan><tspan x="19" y="30" fill="#929292" font-family="'Helvetica'" font-size="19"> </tspan><tspan x="24.3" y="30" fill="#929292" font-family="'KozGoPr6N-Regular-83pv-RKSJ-H'" font-size="19">見通し</tspan><tspan x="81.3" y="30" fill="#929292" font-family="'Helvetica'" font-size="19"> </tspan><tspan x="86.6" y="30" fill="#929292" font-family="'KozGoPr6N-Regular-83pv-RKSJ-H'" font-size="19">暗い</tspan><tspan x="124.6" y="30" fill="#929292" font-family="'Helvetica'" font-size="19"> </tspan><tspan x="129.8" y="30" fill="#929292" font-family="'KozGoPr6N-Regular-83pv-RKSJ-H'" font-size="19">事故多発</tspan></text><text transform="translate(-2355.054 2298.098)"><tspan x="0" y="0" fill="#929292" font-family="'KozGoPr6N-Regular-83pv-RKSJ-H'" font-size="19">草津市野路東</tspan><tspan x="0" y="30" fill="#929292" font-family="'KozGoPr6N-Regular-83pv-RKSJ-H'" font-size="19">坂</tspan><tspan x="19" y="30" fill="#929292" font-family="'Helvetica'" font-size="19"> </tspan><tspan x="24.3" y="30" fill="#929292" font-family="'KozGoPr6N-Regular-83pv-RKSJ-H'" font-size="19">見通し</tspan><tspan x="81.3" y="30" fill="#929292" font-family="'Helvetica'" font-size="19"> </tspan><tspan x="86.6" y="30" fill="#929292" font-family="'KozGoPr6N-Regular-83pv-RKSJ-H'" font-size="19">暗い</tspan><tspan x="124.6" y="30" fill="#929292" font-family="'Helvetica'" font-size="19"> </tspan><tspan x="129.8" y="30" fill="#929292" font-family="'KozGoPr6N-Regular-83pv-RKSJ-H'" font-size="19">事故多発</tspan></text><text transform="translate(-2355.054 2510.098)"><tspan x="0" y="0" fill="#929292" font-family="'KozGoPr6N-Regular-83pv-RKSJ-H'" font-size="19">草津市野路東</tspan><tspan x="0" y="30" fill="#929292" font-family="'KozGoPr6N-Regular-83pv-RKSJ-H'" font-size="19">坂</tspan><tspan x="19" y="30" fill="#929292" font-family="'Helvetica'" font-size="19"> </tspan><tspan x="24.3" y="30" fill="#929292" font-family="'KozGoPr6N-Regular-83pv-RKSJ-H'" font-size="19">見通し</tspan><tspan x="81.3" y="30" fill="#929292" font-family="'Helvetica'" font-size="19"> </tspan><tspan x="86.6" y="30" fill="#929292" font-family="'KozGoPr6N-Regular-83pv-RKSJ-H'" font-size="19">暗い</tspan><tspan x="124.6" y="30" fill="#929292" font-family="'Helvetica'" font-size="19"> </tspan><tspan x="129.8" y="30" fill="#929292" font-family="'KozGoPr6N-Regular-83pv-RKSJ-H'" font-size="19">事故多発</tspan></text><text transform="translate(-2355.054 2726.098)"><tspan x="0" y="0" fill="#929292" font-family="'KozGoPr6N-Regular-83pv-RKSJ-H'" font-size="19">草津市野路東</tspan><tspan x="0" y="30" fill="#929292" font-family="'KozGoPr6N-Regular-83pv-RKSJ-H'" font-size="19">坂</tspan><tspan x="19" y="30" fill="#929292" font-family="'Helvetica'" font-size="19"> </tspan><tspan x="24.3" y="30" fill="#929292" font-family="'KozGoPr6N-Regular-83pv-RKSJ-H'" font-size="19">見通し</tspan><tspan x="81.3" y="30" fill="#929292" font-family="'Helvetica'" font-size="19"> </tspan><tspan x="86.6" y="30" fill="#929292" font-family="'KozGoPr6N-Regular-83pv-RKSJ-H'" font-size="19">暗い</tspan><tspan x="124.6" y="30" fill="#929292" font-family="'Helvetica'" font-size="19"> </tspan><tspan x="129.8" y="30" fill="#929292" font-family="'KozGoPr6N-Regular-83pv-RKSJ-H'" font-size="19">事故多発</tspan></text><text transform="translate(-2355.054 2934.098)"><tspan x="0" y="0" fill="#929292" font-family="'KozGoPr6N-Regular-83pv-RKSJ-H'" font-size="19">草津市野路東</tspan><tspan x="0" y="30" fill="#929292" font-family="'KozGoPr6N-Regular-83pv-RKSJ-H'" font-size="19">坂</tspan><tspan x="19" y="30" fill="#929292" font-family="'Helvetica'" font-size="19"> </tspan><tspan x="24.3" y="30" fill="#929292" font-family="'KozGoPr6N-Regular-83pv-RKSJ-H'" font-size="19">見通し</tspan><tspan x="81.3" y="30" fill="#929292" font-family="'Helvetica'" font-size="19"> </tspan><tspan x="86.6" y="30" fill="#929292" font-family="'KozGoPr6N-Regular-83pv-RKSJ-H'" font-size="19">暗い</tspan><tspan x="124.6" y="30" fill="#929292" font-family="'Helvetica'" font-size="19"> </tspan><tspan x="129.8" y="30" fill="#929292" font-family="'KozGoPr6N-Regular-83pv-RKSJ-H'" font-size="19">事故多発</tspan></text><text transform="translate(-2355.054 3146.098)"><tspan x="0" y="0" fill="#929292" font-family="'KozGoPr6N-Regular-83pv-RKSJ-H'" font-size="19">草津市野路東</tspan><tspan x="0" y="30" fill="#929292" font-family="'KozGoPr6N-Regular-83pv-RKSJ-H'" font-size="19">坂</tspan><tspan x="19" y="30" fill="#929292" font-family="'Helvetica'" font-size="19"> </tspan><tspan x="24.3" y="30" fill="#929292" font-family="'KozGoPr6N-Regular-83pv-RKSJ-H'" font-size="19">見通し</tspan><tspan x="81.3" y="30" fill="#929292" font-family="'Helvetica'" font-size="19"> </tspan><tspan x="86.6" y="30" fill="#929292" font-family="'KozGoPr6N-Regular-83pv-RKSJ-H'" font-size="19">暗い</tspan><tspan x="124.6" y="30" fill="#929292" font-family="'Helvetica'" font-size="19"> </tspan><tspan x="129.8" y="30" fill="#929292" font-family="'KozGoPr6N-Regular-83pv-RKSJ-H'" font-size="19">事故多発</tspan></text><g><path opacity=".6" fill="none" stroke="#283429" stroke-width=".3" stroke-miterlimit="10" d="M-2504.1 2160.1h997.4"/><text transform="translate(-2355.054 2004.098)"><tspan x="0" y="0" fill="#626262" font-family="'HelveticaNeue-Roman'" font-size="24">2014</tspan><tspan x="53.4" y="0" font-family="'HelveticaNeue-Roman'" font-size="24"> 11/12 </tspan><tspan x="128.1" y="0" fill="#626262" font-family="'HelveticaNeue-Roman'" font-size="24">10:00</tspan></text><text transform="translate(-2355.054 2050.098)" font-family="'KozGoPr6N-Regular-83pv-RKSJ-H'" font-size="32">自転車同士</text></g><g><path opacity=".6" fill="none" stroke="#283429" stroke-width=".3" stroke-miterlimit="10" d="M-2504.1 2362.1h997.4"/><text transform="translate(-2355.054 2218.1)"><tspan x="0" y="0" fill="#626262" font-family="'HelveticaNeue-Roman'" font-size="24">2014</tspan><tspan x="53.4" y="0" font-family="'HelveticaNeue-Roman'" font-size="24"> 11/12 </tspan><tspan x="128.1" y="0" fill="#626262" font-family="'HelveticaNeue-Roman'" font-size="24">10:00</tspan></text><text transform="translate(-2355.054 2264.1)" font-family="'KozGoPr6N-Regular-83pv-RKSJ-H'" font-size="32">物損</text></g><g><path opacity=".6" fill="none" stroke="#283429" stroke-width=".3" stroke-miterlimit="10" d="M-2504.1 2576.1h997.4"/><text transform="translate(-2355.054 2422.104)"><tspan x="0" y="0" fill="#626262" font-family="'HelveticaNeue-Roman'" font-size="24">2014</tspan><tspan x="53.4" y="0" font-family="'HelveticaNeue-Roman'" font-size="24"> 11/12 </tspan><tspan x="128.1" y="0" fill="#626262" font-family="'HelveticaNeue-Roman'" font-size="24">10:00</tspan></text><text transform="translate(-2355.054 2468.104)" font-family="'KozGoPr6N-Regular-83pv-RKSJ-H'" font-size="32">車と衝突で重症</text></g><g><path opacity=".6" fill="none" stroke="#283429" stroke-width=".3" stroke-miterlimit="10" d="M-2504.1 2790.1h997.4"/><text transform="translate(-2355.054 2638.108)"><tspan x="0" y="0" fill="#626262" font-family="'HelveticaNeue-Roman'" font-size="24">2014</tspan><tspan x="53.4" y="0" font-family="'HelveticaNeue-Roman'" font-size="24"> 11/12 </tspan><tspan x="128.1" y="0" fill="#626262" font-family="'HelveticaNeue-Roman'" font-size="24">10:00</tspan></text><text transform="translate(-2355.054 2684.108)" font-family="'KozGoPr6N-Regular-83pv-RKSJ-H'" font-size="32">刑事事件</text></g><g><path opacity=".6" fill="none" stroke="#283429" stroke-width=".3" stroke-miterlimit="10" d="M-2504.1 3004.1h997.4"/><text transform="translate(-2355.054 2846.11)"><tspan x="0" y="0" fill="#626262" font-family="'HelveticaNeue-Roman'" font-size="24">2014</tspan><tspan x="53.4" y="0" font-family="'HelveticaNeue-Roman'" font-size="24"> 11/12 </tspan><tspan x="128.1" y="0" fill="#626262" font-family="'HelveticaNeue-Roman'" font-size="24">10:00</tspan></text><text transform="translate(-2355.054 2892.11)" font-family="'KozGoPr6N-Regular-83pv-RKSJ-H'" font-size="32">盗難</text></g><g><path opacity=".6" fill="none" stroke="#283429" stroke-width=".3" stroke-miterlimit="10" d="M-2504.1 3164.1h997.4"/><text transform="translate(-2355.054 3070.113)"><tspan x="0" y="0" fill="#626262" font-family="'HelveticaNeue-Roman'" font-size="24">2014</tspan><tspan x="53.4" y="0" font-family="'HelveticaNeue-Roman'" font-size="24"> 11/12 </tspan><tspan x="128.1" y="0" fill="#626262" font-family="'HelveticaNeue-Roman'" font-size="24">10:00</tspan></text><text transform="translate(-2355.054 3116.113)" font-family="'KozGoPr6N-Regular-83pv-RKSJ-H'" font-size="32">自転車同士</text></g><g><path fill="#1EA139" d="M-1656.9 1713.1h150v150h-150z"/><g fill="#FFF"><path d="M-1619.4 1752.1h75v9.9h-75zM-1619.4 1783.2h75v9.9h-75zM-1619.4 1814.2h75v9.9h-75z"/></g></g><g><image overflow="visible" width="339" height="509" xlink:href="../../../../_design/rf_562405493.jpg" transform="matrix(.404 0 0 .404 -1684.93 1958.47)"/></g><g><image overflow="visible" width="507" height="338" xlink:href="../../../../_design/rf_144315204.jpg" transform="translate(-1713.93 2403.378) scale(.4083)"/></g><g><image overflow="visible" width="359" height="479" xlink:href="../../../../_design/rf_562796319.jpg" transform="translate(-1692.93 2592.81) scale(.4095)"/></g><g><path fill="#A19A9A" d="M-2408.6 2029.9c0 14-12.9 25.6-24.9 46-.9 1.6-3.2 1.6-4.1 0-10.4-18.7-25-32-25-46 0-14.9 12.1-27 27-27s27 12.1 27 27z"/><g fill="none" stroke="#000" stroke-width="3" stroke-linecap="round" stroke-linejoin="round" stroke-miterlimit="10"><path d="M-2444.7 2042.2c3.4-2.4 5.6-6.3 5.6-10.8s-2.2-8.4-5.6-10.8M-2426.5 2020.6c-3.4 2.4-5.6 6.3-5.6 10.8s2.2 8.4 5.6 10.8"/></g></g><g><path fill="#A19A9A" d="M-2408.6 2878.6c0 14-12.9 25.6-24.9 46-.9 1.6-3.2 1.6-4.1 0-10.4-18.7-25-32-25-46 0-14.9 12.1-27 27-27s27 12.1 27 27z"/><g fill="none" stroke="#000" stroke-width="3" stroke-linecap="round" stroke-linejoin="round" stroke-miterlimit="10"><path d="M-2444.7 2890.9c3.4-2.4 5.6-6.3 5.6-10.8s-2.2-8.4-5.6-10.8M-2426.5 2869.3c-3.4 2.4-5.6 6.3-5.6 10.8s2.2 8.4 5.6 10.8"/></g></g><g><path d="M-2408.6 1817.7c0 14-12.9 25.6-24.9 46-.9 1.6-3.2 1.6-4.1 0-10.4-18.7-25-32-25-46 0-14.9 12.1-27 27-27s27 12.1 27 27z"/><g fill="none" stroke="#FFCF00" stroke-width="3" stroke-linecap="round" stroke-linejoin="round" stroke-miterlimit="10"><path d="M-2446.3 1812.7h19.2M-2446.3 1824.4h19.2M-2429.1 1816.8l4.1-4.1-4.1-4.1M-2442.1 1820.3l-4.2 4.1 4.2 4.1"/></g></g><g><path fill="#00407A" d="M-2408.6 2666.4c0 14-12.9 25.6-24.9 46-.9 1.6-3.2 1.6-4.1 0-10.4-18.7-25-32-25-46 0-14.9 12.1-27 27-27 14.9.1 27 12.1 27 27z"/><path fill="none" stroke="#FFF" stroke-width="3" stroke-linecap="round" stroke-linejoin="round" stroke-miterlimit="10" d="M-2434.7 2675c5.5 0 10.4-2.9 13.1-7.3-2.7-4.4-7.6-7.3-13.1-7.3s-10.4 2.9-13.1 7.3c2.7 4.4 7.5 7.3 13.1 7.3z"/><circle fill="#FFF" cx="-2434.7" cy="2667.8" r="3.9"/><g><path fill="#00407A" d="M-2452.5 2657h8v22.3h-8z"/><path fill="none" stroke="#FFF" stroke-width="3" stroke-linecap="round" stroke-linejoin="round" stroke-miterlimit="10" d="M-2444.5 2679.4V2657"/></g></g><g><path fill="#8D7EE2" d="M-2408.6 2454.2c0 14-12.9 25.6-24.9 46-.9 1.6-3.2 1.6-4.1 0-10.4-18.7-25-32-25-46 0-14.9 12.1-27 27-27 14.9.1 27 12.2 27 27z"/><g fill="none" stroke="#000" stroke-width="3" stroke-linecap="round" stroke-linejoin="round" stroke-miterlimit="10"><ellipse cx="-2435.6" cy="2462.3" rx="8.4" ry="2.7"/><path d="M-2444 2462.3l12.7-17.4 4.1 17.4"/></g></g><g><path fill="#FFCF00" d="M-2408.6 2242.1c0 14-12.9 25.6-24.9 46-.9 1.6-3.2 1.6-4.1 0-10.4-18.7-25-32-25-46 0-14.9 12.1-27 27-27s27 12.1 27 27z"/><path d="M-2445 2255.6c-3.9 0-5.4-2.7-3.5-6.1l9.4-16.3c1.9-3.3 5.1-3.3 7 0l9.4 16.3c1.9 3.3.4 6.1-3.5 6.1h-18.8z"/><path fill="#FFCF00" d="M-2436.8 2247.9h2.6v2.6h-2.6zM-2436.8 2238.1h2.6v7.2h-2.6z"/></g><g><defs><path id="c" d="M-2504.8 3073.1h498.9v141h-498.9z"/></defs><use xlink:href="#c" overflow="visible" fill="#1EA18D"/><clipPath id="d"><use xlink:href="#c" overflow="visible"/></clipPath><g clip-path="url(#d)"><path fill="#007B7E" d="M-2155.1 3101.2l148.1 148.1h-174.2"/><path d="M-2352.4 3269.9c-3.8 0-7-3.1-7-7v-155.8c0-3.8 3.1-7 7-7h196.2c3.8 0 7 3.1 7 7V3263c0 3.8-3.1 7-7 7h-196.2z"/><defs><path id="e" d="M-2340.3 3118.9h172v111.6h-172z"/></defs><use xlink:href="#e" overflow="visible" fill="#FFF"/><clipPath id="f"><use xlink:href="#e" overflow="visible"/></clipPath><g clip-path="url(#f)"><path fill="#1CA08C" d="M-2305.1 3142.6c1.2 4.7-2.7 8.1-6.5 14.2-.6.9-1.9.9-2.5 0-3-5-6.8-8.7-6.8-12.5 0-4.6 3.9-8.3 8.6-7.9 3.5.2 6.4 2.8 7.2 6.2z"/><g fill="none" stroke="#D7D7D6" stroke-width="4" stroke-miterlimit="10"><path d="M-2293.9 3143.6h72M-2293.9 3158.1h38.5"/></g></g><g clip-path="url(#f)"><path fill="#1CA08C" d="M-2305.1 3176.6c1.2 4.7-2.7 8.1-6.5 14.2-.6.9-1.9.9-2.5 0-3-5-6.8-8.7-6.8-12.5 0-4.6 3.9-8.3 8.6-7.9 3.5.2 6.4 2.8 7.2 6.2z"/><g fill="none" stroke="#D7D7D6" stroke-width="4" stroke-miterlimit="10"><path d="M-2293.9 3177.6h72M-2293.9 3192.1h38.5"/></g></g></g><g><defs><path id="g" d="M-2005.9 3073.1h499.9v141h-499.9z"/></defs><linearGradient id="h" gradientUnits="userSpaceOnUse" x1="-2005.878" y1="3143.597" x2="-1505.929" y2="3143.597"><stop offset="0" stop-color="#3B9D00"/><stop offset="1" stop-color="#3BAA00"/></linearGradient><use xlink:href="#g" overflow="visible" fill="url(#h)"/><clipPath id="i"><use xlink:href="#g" overflow="visible"/></clipPath><g opacity=".2" clip-path="url(#i)"><path fill="#007B31" d="M-1659.5 3101.2l148 148.1h-174.2"/><path d="M-1862.6 3269.9c-3.8 0-7-3.1-7-7v-155.8c0-3.8 3.1-7 7-7h196.2c3.8 0 7 3.1 7 7V3263c0 3.8-3.1 7-7 7h-196.2z"/><defs><path id="j" d="M-1850.5 3118.9h172v111.6h-172z"/></defs><use xlink:href="#j" overflow="visible" fill="#FFF"/><clipPath id="k"><use xlink:href="#j" overflow="visible"/></clipPath><g clip-path="url(#k)"><path fill="none" stroke="#D7D7D6" stroke-width="4" stroke-miterlimit="10" d="M-1863.9 3144.1h37c3.8 0 9.2 2.2 11.9 4.9l93.1 93.1M-1712.9 3109.1l-113 113"/><path fill="none" stroke="#D7D7D6" stroke-width="4" stroke-miterlimit="10" d="M-1661.9 3180.1h-81c-3.8 0-9.2 2.2-11.9 4.9l-44.1 44.1"/></g><g clip-path="url(#k)"><linearGradient id="l" gradientUnits="userSpaceOnUse" x1="-1794.873" y1="3149.306" x2="-1775.672" y2="3149.306"><stop offset="0" stop-color="#3B9D00"/><stop offset="1" stop-color="#3BAA00"/></linearGradient><path fill="url(#l)" d="M-1775.9 3144.1c1.4 5.7-3.2 9.7-7.8 17.1-.7 1.1-2.3 1.1-3 0-3.6-6-8.1-10.4-8.1-15 0-5.5 4.7-10 10.4-9.6 4 .3 7.5 3.5 8.5 7.5z"/><linearGradient id="m" gradientUnits="userSpaceOnUse" x1="-1717.53" y1="3149.306" x2="-1698.329" y2="3149.306"><stop offset="0" stop-color="#3B9D00"/><stop offset="1" stop-color="#3BAA00"/></linearGradient><path fill="url(#m)" d="M-1698.6 3144.1c1.4 5.7-3.2 9.7-7.8 17.1-.7 1.1-2.3 1.1-3 0-3.6-6-8.1-10.4-8.1-15 0-5.5 4.7-10 10.4-9.6 4.1.3 7.5 3.5 8.5 7.5z"/><g><linearGradient id="n" gradientUnits="userSpaceOnUse" x1="-1837.074" y1="3180.205" x2="-1817.872" y2="3180.205"><stop offset="0" stop-color="#3B9D00"/><stop offset="1" stop-color="#3BAA00"/></linearGradient><path fill="url(#n)" d="M-1818.1 3175c1.4 5.7-3.2 9.7-7.8 17.1-.7 1.1-2.3 1.1-3 0-3.6-6-8.1-10.4-8.1-15 0-5.5 4.7-10 10.4-9.6 4 .3 7.5 3.5 8.5 7.5z"/></g></g></g><path opacity=".6" fill="none" stroke="#283429" stroke-width=".3" stroke-miterlimit="10" d="M-2006.6 3213.1v-140"/></g></g><path opacity=".8" fill="#1EA139" d="M-1380.9-1306.9h1002v1500h-1002z"/><linearGradient id="o" gradientUnits="userSpaceOnUse" x1="-1003.929" y1="-556.902" x2="-876.429" y2="-556.902"><stop offset="0" stop-opacity="0"/><stop offset=".859" stop-opacity=".172"/><stop offset="1" stop-opacity=".2"/></linearGradient><path fill="url(#o)" d="M-1003.9-1306.9h127.5v1500h-127.5z"/><path fill="#FFF" d="M-878.4-1306.9h500v1501h-500z"/><g><path fill="#FDFDFD" d="M-878.2-770.7H-378v121.2h-500.2z"/><text transform="translate(-761.43 -823.9)"><tspan x="0" y="0" fill="#626161" font-family="'HelveticaNeueCE-Thin'" font-size="32" letter-spacing="1">HOME</tspan><tspan x="0" y="122" fill="#626161" font-family="'HelveticaNeueCE-Thin'" font-size="32" letter-spacing="1">SAFETY MAP</tspan><tspan x="0" y="244" fill="#626161" font-family="'HelveticaNeueCE-Thin'" font-size="32" letter-spacing="1">CONSEPT</tspan><tspan x="0" y="366" fill="#626161" font-family="'HelveticaNeueCE-Thin'" font-size="32" letter-spacing="1">HELP</tspan><tspan x="0" y="488.7" fill="#626161" font-family="'KozGoPro-ExtraLight-83pv-RKSJ-H'" font-size="32" letter-spacing="1">運営</tspan></text><path fill="#1EA139" d="M-816.8-847.1l10.3 7.8v14.4h-20.7v-14.4l10.4-7.8m0-8.1c-.6 0-1.2.2-1.6.5l-14.2 10.7c-.9.7-1.6 2.1-1.6 3.2v20.9c0 1.1.9 2 2 2h30.7c1.1 0 2-.9 2-2v-20.9c0-1.1-.7-2.5-1.6-3.2l-14.2-10.7c-.4-.3-.9-.5-1.5-.5z"/><circle fill="#1EA139" cx="-816.8" cy="-468.8" r="23.3"/><path fill="#FFF" d="M-814.9-464.7l-3.8-.1c.1-2.9 1.8-4.7 3-6 1-1.1 1.6-1.7 1.6-2.6 0-1.5-1.2-2.7-2.7-2.7s-2.7 1.2-2.7 2.7h-3.8c0-3.6 3-6.6 6.6-6.6s6.6 3 6.6 6.6c0 2.5-1.5 4-2.7 5.2-1.3 1.4-2.1 2.2-2.1 3.5z"/><circle fill="#FFF" cx="-816.8" cy="-459.9" r="2.7"/><path fill="#1EA139" d="M-838.9-579.3c1.3 1.5 3.7 1.6 5 .1l11.3-11.6c.8-.9 2.3-.3 2.3.9v22.4c0 1.8 1.3 3.4 3.1 3.5 2 .2 3.7-1.4 3.7-3.4v-22.5c0-1.2 1.5-1.8 2.3-.9l11.3 11.6c1.4 1.4 3.7 1.4 5-.1 1.2-1.3 1-3.4-.2-4.7l-19.4-20c-.6-.7-1.5-1-2.5-1-.9 0-1.8.4-2.5 1l-19.4 20c-1 1.3-1.1 3.3 0 4.7z"/><g fill="#1EA139"><path d="M-816.8-351.3c-5.1 0-9.3-4.2-9.3-9.3s4.2-9.3 9.3-9.3c5.1 0 9.3 4.2 9.3 9.3s-4.2 9.3-9.3 9.3zm0-12.6c-1.8 0-3.3 1.5-3.3 3.3 0 1.8 1.5 3.3 3.3 3.3s3.3-1.5 3.3-3.3c0-1.8-1.5-3.3-3.3-3.3zM-801.9-327.4c-1.7 0-3-1.3-3-3 0-6.6-5.3-11.9-11.9-11.9s-11.9 5.3-11.9 11.9c0 1.7-1.3 3-3 3s-3-1.3-3-3c0-9.9 8-17.9 17.9-17.9s17.9 8 17.9 17.9c0 1.7-1.3 3-3 3z"/></g><path fill="#1EA139" d="M-816.8-728.9c6.4 0 11.6 5.2 11.6 11.6 0 4.3-3.3 9-7.9 15.5-1.2 1.7-2.4 3.4-3.7 5.3-1.3-1.9-2.6-3.7-3.8-5.4-4.3-6.1-8-11.3-8-15.4.1-6.4 5.4-11.6 11.8-11.6m0-7c-10.3 0-18.6 8.3-18.6 18.6 0 9.6 10.1 18.8 17.3 31.7.3.6.9.8 1.4.8.6 0 1.1-.3 1.4-.8 8.2-14.1 17.2-22.1 17.2-31.7-.1-10.3-8.4-18.6-18.7-18.6z"/><g><defs><path id="p" d="M-877.4-1306.9h499v415h-499z"/></defs><use xlink:href="#p" overflow="visible" fill="#FDFDFD"/><clipPath id="q"><use xlink:href="#p" overflow="visible"/></clipPath><g clip-path="url(#q)"><path fill="#1EA139" d="M-471.2-1081.6c0 83.5-77 152.1-147.9 273.5-5.6 9.5-19.3 9.4-24.6-.2-61.7-111.2-148.6-190.3-148.6-273.2 0-88.5 71.9-160.3 160.6-160.3 88.6-.1 160.5 71.7 160.5 160.2z"/><g fill="#FFF"><path d="M-699.8-1052.2c4 0 6.5 2.3 7.7 5.2 1.3 3.1.9 6.8-2.3 9 3.6 1.5 4.9 4.9 4.9 7.9 0 4.8-3.1 9.6-9.2 9.6H-713v-31.7h13.2zm-8.6 12.6h8.6c5 0 5.1-8.2.1-8.2h-8.7v8.2zm0 14.6h9.8c3.1 0 4.6-2.6 4.6-5.1s-1.5-5-4.6-5h-9.8v10.1zM-682.4-1052.2h3.8v31.7h-3.8zM-667.6-1047.7c2.8-2.9 6.7-4.7 11-4.7 7.2 0 13 4.5 14.8 11.7h-4.5c-1.7-4.8-5.6-7.2-10.2-7.2-3 0-5.8 1.3-7.8 3.4-2 2.1-3.3 4.9-3.3 8.2 0 3.2 1.3 6 3.3 8.1 2 2.1 4.8 3.4 7.8 3.4 4.8 0 8.9-2.8 10.5-7.6h4.5c-1.8 7.2-7.6 12.1-15 12.1-4.3 0-8.2-1.8-11-4.7-2.7-2.9-4.5-6.9-4.5-11.3-.1-4.5 1.7-8.5 4.4-11.4zM-636.2-1052.2l8.7 13.9 8.7-13.9h5.4l-11.8 18.8v12.9h-4.6v-12.9l-11.7-18.8h5.3zM-609.1-1047.7c2.8-2.9 6.7-4.7 11-4.7 7.2 0 13 4.5 14.8 11.7h-4.5c-1.7-4.8-5.6-7.2-10.2-7.2-3 0-5.8 1.3-7.8 3.4-2 2.1-3.3 4.9-3.3 8.2 0 3.2 1.3 6 3.3 8.1 2 2.1 4.8 3.4 7.8 3.4 4.8 0 8.9-2.8 10.5-7.6h4.5c-1.8 7.2-7.6 12.1-15 12.1-4.3 0-8.2-1.8-11-4.7-2.7-2.9-4.5-6.9-4.5-11.3-.1-4.5 1.7-8.5 4.4-11.4zM-573.6-1025.1h14.9v4.6h-19.5v-31.7h4.6v27.1zM-550.5-1025.1h14.7v4.6h-19.3v-31.7h19.3v4.6h-14.7v8.9h14.4v4.6h-14.4v9zM-662.7-939h-4.6v-31.7h3.7l10.5 15.4 10.5-15.4h3.6v31.7h-4.5v-22.3l-8.3 12.3h-2.6l-8.3-12.3v22.3zM-616.2-948.4h-11.4c-1.2 2.9-2.8 6.7-3.8 9.3h-4.9l12.7-32.1h3.4l12.7 32.1h-4.9l-3.8-9.3zm-9.6-4.3h7.9l-3.9-11.2-4 11.2zM-593.6-970.8c6.8 0 10.3 5.3 10.3 10.6s-3.4 10.6-10.3 10.6h-7v10.6h-4.6v-31.7h11.6zm0 16.7c3.9 0 5.8-3 5.8-6s-1.9-6-5.8-6h-7v12h7z"/></g><g fill="#FFF" stroke="#1EA139" stroke-width="3" stroke-miterlimit="10"><path d="M-690.4-1004.3c-.7-3.2-4.2-4.6-7.3-4.5-2.4.1-5 .9-6.5 2.7-.7.9-1 2.1-.9 3.3.3 3.7 4.3 4.1 8.1 4.5 4.9.6 11 1.9 12.3 7.6.2.8.3 1.6.3 2.3 0 6.9-6.8 10.9-13.2 10.9-5.5 0-12.2-3.3-12.8-9.6l-.1-1 5.2-.1.1.8v-.2c.4 3.3 4.4 5 7.7 5 3.8 0 8-2.1 8-5.8 0-.4-.1-.8-.2-1.2-.6-2.7-4.3-3.2-7.8-3.5-5.6-.6-12.1-1.8-12.6-9.2v.1c-.2-2.4.4-4.8 1.9-6.8 2.4-3.1 6.7-4.7 10.8-4.7 5.5 0 11.2 2.9 12.1 9.4h-5.1zM-660-988.3h-12.8c-1.4 3.3-3.2 7.5-4.3 10.5h-5.6l14.3-36.1h3.8l14.3 36.1h-5.5l-4.2-10.5zm-10.9-4.9h8.9l-4.4-12.6-4.5 12.6zM-642.7-977.8h-5.1v-35.6h21.2v5.1h-16.1v10h14.3v5.2h-14.3v15.3zM-617.7-983h16.6v5.1h-21.8v-35.6h21.7v5.1h-16.5v10h16.2v5.2h-16.2v10.2zM-587.8-977.7v-30.6h-10.8v-5.2h26.7v5.2h-10.8v30.6h-5.1zM-564.9-1013.4l9.7 15.6 9.7-15.6h6.1l-13.2 21.1v14.5h-5.2v-14.5l-13.2-21.1h6.1z"/></g><path fill="#FFF" d="M-561.3-1143.6c-7.3-2.6-14.2-2.4-20.5-.7l-18.9-43.3c-.8-1.9-2.7-3.1-4.7-3.1h-22.1c-1.5 0-2.7 1.2-2.7 2.7v4.9c0 1.5 1.2 2.7 2.7 2.7h17c1.1 0 2 .6 2.4 1.6l5.5 12.6c.8 1.8-.5 3.7-2.4 3.7h-38.6c-1.1 0-2-.6-2.4-1.6l-3.5-8h7.4c1.5 0 2.7-1.2 2.7-2.7v-4.9c0-1.5-1.2-2.7-2.7-2.7h-26.3c-1.5 0-2.7 1.2-2.7 2.7v4.9c0 1.5 1.2 2.7 2.7 2.7h6c1.1 0 2 .6 2.4 1.6l5 11.6c.4.9.3 1.9-.3 2.6l-11.1 15c-5.3-2.9-11.3-4.4-17.8-4.2-19.2.5-34.9 16.9-34.5 36.1.4 19.3 16.1 34.8 35.5 34.8 17.1 0 31.3-12.1 34.7-28.2.3-1.3 1.3-2.2 2.6-2.2h17.8c1.7 0 3.2-.8 4.2-2.2l26.3-37.7c1.2-1.7 3.8-1.4 4.6.5l1.8 4.2c-11.3 7-18.4 20.2-16.5 34.9 2 15.5 14.4 28.1 29.9 30.3 22.5 3.3 41.8-14.7 40.7-36.9-.7-14.3-10.6-26.9-24.2-31.7zm-86.6 1.2l10.3 23.6c.8 1.8-.5 3.7-2.4 3.7h-5.9c-1.3 0-2.4-.9-2.6-2.2-1.3-6.1-4.1-11.7-8.1-16.2-.9-1-1-2.4-.2-3.4l4.5-6c1.1-1.7 3.6-1.4 4.4.5zm-14.3 18.5c1.1 1.6 2 3.4 2.7 5.3.6 1.7-.7 3.5-2.5 3.5h-11.1l6.6-8.9c1-1.4 3.3-1.4 4.3.1zm-21.1 39.2c-14.1 0-25.5-11.5-25.3-25.7.2-13.1 10.9-24.2 24.1-24.8 3-.1 5.8.2 8.4 1 1.7.5 2.4 2.7 1.3 4.1l-12.6 17c-1.2 1.6-1.3 3.6-.5 5.3.9 1.7 2.6 2.8 4.6 2.8h21.2c1.8 0 3.2 1.8 2.5 3.5-3.5 9.8-12.8 16.8-23.7 16.8zm54.3-40.1l-10.3-23.7c-.8-1.8.5-3.7 2.4-3.7h26.9c2.2 0 3.4 2.4 2.2 4.2l-16.6 23.7c-1.2 1.7-3.8 1.4-4.6-.5zm53.9 39.9c-11.5-1.1-21-10.3-22.5-21.8-1.1-8.5 2.1-16.3 7.7-21.6 1.3-1.3 3.5-.7 4.2.9l7.4 17c.6 1.3 2.2 2 3.5 1.4l4.5-2c1.3-.6 2-2.2 1.4-3.5l-7.4-17c-.7-1.7.4-3.6 2.2-3.7 2.6-.2 5.4.1 8.2.8 9.7 2.6 17.1 11 18.4 20.9 2.2 16.4-11.3 30.3-27.6 28.6z"/><path fill="#040000" d="M-531.2-1137.5c.8-1.2 2-1.2 2.8 0l3.5 5.6c.8 1.2 2.5 1.8 3.9 1.3l6.1-2.5c1.4-.6 2.4.2 2.3 1.6l-.5 6.6c-.1 1.5 1 2.9 2.4 3.3l6.4 1.6c1.4.3 1.8 1.5.9 2.7l-4.2 5c-.9 1.1-.9 2.9 0 4.1l4.2 5c.9 1.1.6 2.3-.9 2.7l-6.4 1.6c-1.4.3-2.5 1.8-2.4 3.3l.5 6.6c.1 1.5-.9 2.2-2.3 1.6l-6.1-2.5c-1.4-.6-3.1 0-3.9 1.3l-3.5 5.6c-.8 1.2-2 1.2-2.8 0l-3.5-5.6c-.8-1.2-2.5-1.8-3.9-1.3l-6.1 2.5c-1.4.6-2.4-.2-2.3-1.6l.5-6.6c.1-1.5-1-2.9-2.4-3.3l-6.4-1.6c-1.4-.3-1.8-1.5-.9-2.7l4.2-5c.9-1.1.9-2.9 0-4.1l-4.2-5c-.9-1.1-.6-2.3.9-2.7l6.4-1.6c1.4-.3 2.5-1.8 2.4-3.3l-.5-6.6c-.1-1.5.9-2.2 2.3-1.6l6.1 2.5c1.4.6 3.1 0 3.9-1.3l3.5-5.6z"/></g></g><g fill="none" stroke="#9DA29E" stroke-width=".3" stroke-miterlimit="10"><path opacity=".6" d="M-878.4-770.7h500.5M-878.4-891.9h500.5M-878.4-528.3h500.5M-878.4-649.5h500.5M-878.4-285.9h500.5M-878.4-407.1h500.5"/></g></g><text transform="translate(224.02 -810.4)"><tspan x="0" y="0" fill="#626161" font-family="'HelveticaNeueCE-Thin'" font-size="32" letter-spacing="1">HOME</tspan><tspan x="0" y="122" fill="#626161" font-family="'HelveticaNeueCE-Thin'" font-size="32" letter-spacing="1">SAFETY MAP</tspan><tspan x="0" y="244" fill="#626161" font-family="'HelveticaNeueCE-Thin'" font-size="32" letter-spacing="1">CONSEPT</tspan><tspan x="0" y="366" fill="#626161" font-family="'HelveticaNeueCE-Thin'" font-size="32" letter-spacing="1">HELP</tspan><tspan x="0" y="488.7" fill="#626161" font-family="'KozGoPro-ExtraLight-83pv-RKSJ-H'" font-size="32" letter-spacing="1">運営</tspan></text><g><path fill="#1EA139" d="M18.6-111.2l10.3 7.8V-89H8.3v-14.4l10.3-7.8m0-8.1c-.6 0-1.2.2-1.6.5L2.9-108.1c-.9.7-1.6 2.1-1.6 3.2V-84c0 1.1.9 2 2 2H34c1.1 0 2-.9 2-2v-20.9c0-1.1-.7-2.5-1.6-3.2l-14.2-10.7c-.4-.3-1-.5-1.6-.5z"/></g><g><circle fill="#1EA139" cx="18.6" cy="267.1" r="23.3"/><path fill="#FFF" d="M20.6 271.2l-3.8-.1c.1-2.9 1.8-4.7 3-6 1-1.1 1.6-1.7 1.6-2.6 0-1.5-1.2-2.7-2.7-2.7S16 261 16 262.5h-4c0-3.6 3-6.6 6.6-6.6s6.6 3 6.6 6.6c0 2.5-1.5 4-2.7 5.2-1.2 1.4-1.9 2.2-1.9 3.5z"/><circle fill="#FFF" cx="18.6" cy="276" r="2.7"/></g><g><path fill="#1EA139" d="M-3.4 156.6c1.3 1.5 3.7 1.6 5 .1l11.3-11.6c.8-.9 2.3-.3 2.3.9v22.4c0 1.8 1.3 3.4 3.1 3.5 2 .2 3.7-1.4 3.7-3.4V146c0-1.2 1.5-1.8 2.3-.9l11.3 11.6c1.4 1.4 3.7 1.4 5-.1 1.2-1.3 1-3.4-.2-4.7l-19.4-20c-.6-.7-1.5-1-2.5-1s-1.8.4-2.5 1l-19.4 20c-1 1.3-1.2 3.3 0 4.7z"/></g><g><g fill="#1EA139"><path d="M18.6 384.6c-5.1 0-9.3-4.2-9.3-9.3s4.2-9.3 9.3-9.3c5.1 0 9.3 4.2 9.3 9.3s-4.1 9.3-9.3 9.3zm0-12.6c-1.8 0-3.3 1.5-3.3 3.3 0 1.8 1.5 3.3 3.3 3.3s3.3-1.5 3.3-3.3c0-1.8-1.5-3.3-3.3-3.3zM33.6 408.5c-1.7 0-3-1.3-3-3 0-6.6-5.3-11.9-11.9-11.9s-11.9 5.3-11.9 11.9c0 1.7-1.3 3-3 3s-3-1.3-3-3c0-9.9 8-17.9 17.9-17.9s17.9 8 17.9 17.9c0 1.7-1.4 3-3 3z"/></g></g><g><path fill="#1EA139" d="M18.6 7c6.4 0 11.6 5.2 11.6 11.6 0 4.3-3.3 9-7.9 15.5-1.2 1.7-2.4 3.4-3.7 5.3-1.3-1.9-2.6-3.7-3.8-5.4-4.3-6.1-8-11.3-8-15.4C7 12.2 12.2 7 18.6 7m0-7C8.3 0 0 8.3 0 18.6c0 9.6 10.1 18.8 17.3 31.7.3.6.9.8 1.4.8.6 0 1.1-.3 1.4-.8 8.2-14.1 17.2-22.1 17.2-31.7C37.3 8.3 28.9 0 18.6 0z"/></g><g><defs><path id="r" d="M108-1293.4h499v415H108z"/></defs><use xlink:href="#r" overflow="visible" fill="#FDFDFD"/><clipPath id="s"><use xlink:href="#r" overflow="visible"/></clipPath><g clip-path="url(#s)"><path fill="#1EA139" d="M514.3-1068.1c0 83.5-77 152.1-147.9 273.5-5.6 9.5-19.3 9.4-24.6-.2-61.8-111.3-148.7-190.3-148.7-273.3 0-88.5 71.9-160.3 160.6-160.3 88.7 0 160.6 71.8 160.6 160.3z"/><g fill="#FFF"><path d="M285.7-1038.7c4 0 6.5 2.3 7.7 5.2 1.3 3.1.9 6.8-2.3 9 3.6 1.5 4.9 4.9 4.9 7.9 0 4.8-3.1 9.6-9.2 9.6h-14.3v-31.7h13.2zm-8.7 12.6h8.6c5 0 5.1-8.2.1-8.2H277v8.2zm0 14.6h9.8c3.1 0 4.6-2.6 4.6-5.1s-1.5-5-4.6-5H277v10.1zM303-1038.7h3.8v31.7H303zM317.9-1034.2c2.8-2.9 6.7-4.7 11-4.7 7.2 0 13 4.5 14.8 11.7h-4.5c-1.7-4.8-5.6-7.2-10.2-7.2-3 0-5.8 1.3-7.8 3.4-2 2.1-3.3 4.9-3.3 8.2 0 3.2 1.3 6 3.3 8.1 2 2.1 4.8 3.4 7.8 3.4 4.8 0 8.9-2.8 10.5-7.6h4.5c-1.8 7.2-7.6 12.1-15 12.1-4.3 0-8.2-1.8-11-4.7-2.7-2.9-4.5-6.9-4.5-11.3-.2-4.5 1.6-8.5 4.4-11.4zM349.3-1038.7l8.7 13.9 8.7-13.9h5.4l-11.8 18.8v12.9h-4.6v-12.9l-11.7-18.8h5.3zM376.3-1034.2c2.8-2.9 6.7-4.7 11-4.7 7.2 0 13 4.5 14.8 11.7h-4.5c-1.7-4.8-5.6-7.2-10.2-7.2-3 0-5.8 1.3-7.8 3.4-2 2.1-3.3 4.9-3.3 8.2 0 3.2 1.3 6 3.3 8.1 2 2.1 4.8 3.4 7.8 3.4 4.8 0 8.9-2.8 10.5-7.6h4.5c-1.8 7.2-7.6 12.1-15 12.1-4.3 0-8.2-1.8-11-4.7-2.7-2.9-4.5-6.9-4.5-11.3-.1-4.5 1.7-8.5 4.4-11.4zM411.8-1011.6h14.9v4.6h-19.5v-31.7h4.6v27.1zM434.9-1011.6h14.7v4.6h-19.3v-31.7h19.3v4.6h-14.7v8.9h14.4v4.6h-14.4v9zM322.7-925.5h-4.6v-31.7h3.7l10.5 15.4 10.5-15.4h3.6v31.7h-4.5v-22.3l-8.3 12.3H331l-8.3-12.3v22.3zM369.3-934.9h-11.4c-1.2 2.9-2.8 6.7-3.8 9.3h-4.9l12.7-32.1h3.4l12.7 32.1h-4.9l-3.8-9.3zm-9.7-4.3h7.9l-3.9-11.2-4 11.2zM391.8-957.3c6.8 0 10.3 5.3 10.3 10.6s-3.4 10.6-10.3 10.6h-7v10.6h-4.6v-31.7h11.6zm0 16.7c3.9 0 5.8-3 5.8-6s-1.9-6-5.8-6h-7v12h7z"/></g><g fill="#FFF" stroke="#1EA139" stroke-width="3" stroke-miterlimit="10"><path d="M295-990.8c-.7-3.2-4.2-4.6-7.3-4.5-2.4.1-5 .9-6.5 2.7-.7.9-1 2.1-.9 3.3.3 3.7 4.3 4.1 8.1 4.5 4.9.6 11 1.9 12.3 7.6.2.8.3 1.6.3 2.3 0 6.9-6.8 10.9-13.2 10.9-5.5 0-12.2-3.3-12.8-9.6l-.1-1 5.2-.1.1.8v-.2c.4 3.3 4.4 5 7.7 5 3.8 0 8-2.1 8-5.8 0-.4-.1-.8-.2-1.2-.6-2.7-4.3-3.2-7.8-3.5-5.6-.6-12.1-1.8-12.6-9.2v.1c-.2-2.4.4-4.8 1.9-6.8 2.4-3.1 6.7-4.7 10.8-4.7 5.5 0 11.2 2.9 12.1 9.4H295zM325.4-974.8h-12.8c-1.4 3.3-3.2 7.5-4.3 10.5h-5.6l14.3-36.1h3.8l14.3 36.1h-5.5l-4.2-10.5zm-10.8-4.9h8.9l-4.4-12.6-4.5 12.6zM342.8-964.3h-5.1v-35.6h21.2v5.1h-16.1v10H357v5.2h-14.3v15.3zM367.7-969.5h16.6v5.1h-21.8v-35.6h21.7v5.1h-16.5v10h16.2v5.2h-16.2v10.2zM397.6-964.2v-30.6h-10.8v-5.2h26.7v5.2h-10.8v30.6h-5.1zM420.6-999.9l9.7 15.6 9.7-15.6h6.1l-13.2 21.1v14.5h-5.2v-14.5l-13.2-21.1h6.1z"/></g><path fill="#FFF" d="M424.1-1130.1c-7.3-2.6-14.2-2.4-20.5-.7l-18.9-43.3c-.8-1.9-2.7-3.1-4.7-3.1h-22.1c-1.5 0-2.7 1.2-2.7 2.7v4.9c0 1.5 1.2 2.7 2.7 2.7h17c1.1 0 2 .6 2.4 1.6l5.5 12.6c.8 1.8-.5 3.7-2.4 3.7h-38.6c-1.1 0-2-.6-2.4-1.6l-3.5-8h7.4c1.5 0 2.7-1.2 2.7-2.7v-4.9c0-1.5-1.2-2.7-2.7-2.7H317c-1.5 0-2.7 1.2-2.7 2.7v4.9c0 1.5 1.2 2.7 2.7 2.7h6c1.1 0 2 .6 2.4 1.6l5 11.6c.4.9.3 1.9-.3 2.6l-11.1 15c-5.3-2.9-11.3-4.4-17.8-4.2-19.2.5-34.9 16.9-34.5 36.1.4 19.3 16.1 34.8 35.5 34.8 17.1 0 31.3-12.1 34.7-28.2.3-1.3 1.3-2.2 2.6-2.2h17.8c1.7 0 3.2-.8 4.2-2.2l26.3-37.7c1.2-1.7 3.8-1.4 4.6.5l1.8 4.2c-11.3 7-18.4 20.2-16.5 34.9 2 15.5 14.4 28.1 29.9 30.3 22.5 3.3 41.8-14.7 40.7-36.9-.6-14.3-10.5-26.9-24.2-31.7zm-86.5 1.2l10.3 23.6c.8 1.8-.5 3.7-2.4 3.7h-5.9c-1.3 0-2.4-.9-2.6-2.2-1.3-6.1-4.1-11.7-8.1-16.2-.9-1-1-2.4-.2-3.4l4.5-6c1-1.7 3.6-1.4 4.4.5zm-14.4 18.5c1.1 1.6 2 3.4 2.7 5.3.6 1.7-.7 3.5-2.5 3.5h-11.1l6.6-8.9c1.1-1.4 3.3-1.4 4.3.1zm-21 39.2c-14.1 0-25.5-11.5-25.3-25.7.2-13.1 10.9-24.2 24.1-24.8 3-.1 5.8.2 8.4 1 1.7.5 2.4 2.7 1.3 4.1l-12.6 17c-1.2 1.6-1.3 3.6-.5 5.3.9 1.7 2.6 2.8 4.6 2.8h21.2c1.8 0 3.2 1.8 2.5 3.5-3.5 9.8-12.8 16.8-23.7 16.8zm54.2-40.1l-10.3-23.7c-.8-1.8.5-3.7 2.4-3.7h26.9c2.2 0 3.4 2.4 2.2 4.2l-16.6 23.7c-1.2 1.7-3.8 1.4-4.6-.5zm53.9 39.9c-11.5-1.1-21-10.3-22.5-21.8-1.1-8.5 2.1-16.3 7.7-21.6 1.3-1.3 3.5-.7 4.2.9l7.4 17c.6 1.3 2.2 2 3.5 1.4l4.5-2c1.3-.6 2-2.2 1.4-3.5l-7.4-17c-.7-1.7.4-3.6 2.2-3.7 2.6-.2 5.4.1 8.2.8 9.7 2.6 17.1 11 18.4 20.9 2.3 16.4-11.3 30.3-27.6 28.6z"/><path fill="#040000" d="M454.2-1124c.8-1.2 2-1.2 2.8 0l3.5 5.6c.8 1.2 2.5 1.8 3.9 1.3l6.1-2.5c1.4-.6 2.4.2 2.3 1.6l-.5 6.6c-.1 1.5 1 2.9 2.4 3.3l6.4 1.6c1.4.3 1.8 1.5.9 2.7l-4.2 5c-.9 1.1-.9 2.9 0 4.1l4.2 5c.9 1.1.6 2.3-.9 2.7l-6.4 1.6c-1.4.3-2.5 1.8-2.4 3.3l.5 6.6c.1 1.5-.9 2.2-2.3 1.6l-6.1-2.5c-1.4-.6-3.1 0-3.9 1.3l-3.5 5.6c-.8 1.2-2 1.2-2.8 0l-3.5-5.6c-.8-1.2-2.5-1.8-3.9-1.3l-6.1 2.5c-1.4.6-2.4-.2-2.3-1.6l.5-6.6c.1-1.5-1-2.9-2.4-3.3l-6.4-1.6c-1.4-.3-1.8-1.5-.9-2.7l4.2-5c.9-1.1.9-2.9 0-4.1l-4.2-5c-.9-1.1-.6-2.3.9-2.7l6.4-1.6c1.4-.3 2.5-1.8 2.4-3.3l-.5-6.6c-.1-1.5.9-2.2 2.3-1.6l6.1 2.5c1.4.6 3.1 0 3.9-1.3l3.5-5.6z"/></g></g><g><path opacity=".8" fill="#1EA139" d="M-2508.9 1713.1h1002v1500h-1002z"/><linearGradient id="t" gradientUnits="userSpaceOnUse" x1="-2131.929" y1="2463.098" x2="-2004.429" y2="2463.098"><stop offset="0" stop-opacity="0"/><stop offset=".859" stop-opacity=".172"/><stop offset="1" stop-opacity=".2"/></linearGradient><path fill="url(#t)" d="M-2131.9 1713.1h127.5v1500h-127.5z"/><path fill="#FFF" d="M-2006.4 1713.1h500v1501h-500z"/><path fill="#FDFDFD" d="M-2006.2 2249.3h500.2v121.2h-500.2z"/><text transform="translate(-1889.43 2196.1)"><tspan x="0" y="0" fill="#626161" font-family="'HelveticaNeueCE-Thin'" font-size="32" letter-spacing="1">HOME</tspan><tspan x="0" y="122" fill="#626161" font-family="'HelveticaNeueCE-Thin'" font-size="32" letter-spacing="1">SAFETY MAP</tspan><tspan x="0" y="244" fill="#626161" font-family="'HelveticaNeueCE-Thin'" font-size="32" letter-spacing="1">CONSEPT</tspan><tspan x="0" y="366" fill="#626161" font-family="'HelveticaNeueCE-Thin'" font-size="32" letter-spacing="1">HELP</tspan><tspan x="0" y="488.7" fill="#626161" font-family="'KozGoPro-ExtraLight-83pv-RKSJ-H'" font-size="32" letter-spacing="1">運営</tspan></text><path fill="#1EA139" d="M-1944.8 2172.9l10.3 7.8v14.4h-20.7v-14.4l10.4-7.8m0-8.1c-.6 0-1.2.2-1.6.5l-14.2 10.7c-.9.7-1.6 2.1-1.6 3.2v20.9c0 1.1.9 2 2 2h30.7c1.1 0 2-.9 2-2v-20.9c0-1.1-.7-2.5-1.6-3.2l-14.2-10.7c-.4-.3-.9-.5-1.5-.5z"/><circle fill="#1EA139" cx="-1944.8" cy="2551.2" r="23.3"/><path fill="#FFF" d="M-1942.9 2555.3l-3.8-.1c.1-2.9 1.8-4.7 3-6 1-1.1 1.6-1.7 1.6-2.6 0-1.5-1.2-2.7-2.7-2.7-1.5 0-2.7 1.2-2.7 2.7h-3.8c0-3.6 3-6.6 6.6-6.6 3.6 0 6.6 3 6.6 6.6 0 2.5-1.5 4-2.7 5.2-1.3 1.4-2.1 2.2-2.1 3.5z"/><circle fill="#FFF" cx="-1944.8" cy="2560.1" r="2.7"/><path fill="#1EA139" d="M-1966.9 2440.7c1.3 1.5 3.7 1.6 5 .1l11.3-11.6c.8-.9 2.3-.3 2.3.9v22.4c0 1.8 1.3 3.4 3.1 3.5 2 .2 3.7-1.4 3.7-3.4v-22.5c0-1.2 1.5-1.8 2.3-.9l11.3 11.6c1.4 1.4 3.7 1.4 5-.1 1.2-1.3 1-3.4-.2-4.7l-19.4-20c-.6-.7-1.5-1-2.5-1-.9 0-1.8.4-2.5 1l-19.4 20c-1 1.3-1.1 3.3 0 4.7z"/><g fill="#1EA139"><path d="M-1944.8 2668.7c-5.1 0-9.3-4.2-9.3-9.3s4.2-9.3 9.3-9.3c5.1 0 9.3 4.2 9.3 9.3s-4.2 9.3-9.3 9.3zm0-12.6c-1.8 0-3.3 1.5-3.3 3.3 0 1.8 1.5 3.3 3.3 3.3s3.3-1.5 3.3-3.3c0-1.8-1.5-3.3-3.3-3.3zM-1929.9 2692.6c-1.7 0-3-1.3-3-3 0-6.6-5.3-11.9-11.9-11.9s-11.9 5.3-11.9 11.9c0 1.7-1.3 3-3 3s-3-1.3-3-3c0-9.9 8-17.9 17.9-17.9s17.9 8 17.9 17.9c0 1.7-1.3 3-3 3z"/></g><path fill="#1EA139" d="M-1944.8 2291.1c6.4 0 11.6 5.2 11.6 11.6 0 4.3-3.3 9-7.9 15.5-1.2 1.7-2.4 3.4-3.7 5.3-1.3-1.9-2.6-3.7-3.8-5.4-4.3-6.1-8-11.3-8-15.4.1-6.4 5.4-11.6 11.8-11.6m0-7c-10.3 0-18.6 8.3-18.6 18.6 0 9.6 10.1 18.8 17.3 31.7.3.6.9.8 1.4.8.6 0 1.1-.3 1.4-.8 8.2-14.1 17.2-22.1 17.2-31.7-.1-10.3-8.4-18.6-18.7-18.6z"/><g><defs><path id="u" d="M-2005.4 1713.1h499v415h-499z"/></defs><use xlink:href="#u" overflow="visible" fill="#FDFDFD"/><clipPath id="v"><use xlink:href="#u" overflow="visible"/></clipPath><g clip-path="url(#v)"><path fill="#1EA139" d="M-1599.2 1938.4c0 83.5-77 152.1-147.9 273.5-5.6 9.5-19.3 9.4-24.6-.2-61.7-111.2-148.6-190.3-148.6-273.2 0-88.5 71.9-160.3 160.6-160.3 88.6-.1 160.5 71.7 160.5 160.2z"/><g fill="#FFF"><path d="M-1827.8 1967.8c4 0 6.5 2.3 7.7 5.2 1.3 3.1.9 6.8-2.3 9 3.6 1.5 4.9 4.9 4.9 7.9 0 4.8-3.1 9.6-9.2 9.6h-14.3v-31.7h13.2zm-8.6 12.6h8.6c5 0 5.1-8.2.1-8.2h-8.7v8.2zm0 14.6h9.8c3.1 0 4.6-2.6 4.6-5.1s-1.5-5-4.6-5h-9.8v10.1zM-1810.4 1967.8h3.8v31.7h-3.8zM-1795.6 1972.3c2.8-2.9 6.7-4.7 11-4.7 7.2 0 13 4.5 14.8 11.7h-4.5c-1.7-4.8-5.6-7.2-10.2-7.2-3 0-5.8 1.3-7.8 3.4-2 2.1-3.3 4.9-3.3 8.2 0 3.2 1.3 6 3.3 8.1 2 2.1 4.8 3.4 7.8 3.4 4.8 0 8.9-2.8 10.5-7.6h4.5c-1.8 7.2-7.6 12.1-15 12.1-4.3 0-8.2-1.8-11-4.7-2.7-2.9-4.5-6.9-4.5-11.3-.1-4.5 1.7-8.5 4.4-11.4zM-1764.2 1967.8l8.7 13.9 8.7-13.9h5.4l-11.8 18.8v12.9h-4.6v-12.9l-11.7-18.8h5.3zM-1737.1 1972.3c2.8-2.9 6.7-4.7 11-4.7 7.2 0 13 4.5 14.8 11.7h-4.5c-1.7-4.8-5.6-7.2-10.2-7.2-3 0-5.8 1.3-7.8 3.4-2 2.1-3.3 4.9-3.3 8.2 0 3.2 1.3 6 3.3 8.1 2 2.1 4.8 3.4 7.8 3.4 4.8 0 8.9-2.8 10.5-7.6h4.5c-1.8 7.2-7.6 12.1-15 12.1-4.3 0-8.2-1.8-11-4.7-2.7-2.9-4.5-6.9-4.5-11.3-.1-4.5 1.7-8.5 4.4-11.4zM-1701.6 1994.9h14.9v4.6h-19.5v-31.7h4.6v27.1zM-1678.5 1994.9h14.7v4.6h-19.3v-31.7h19.3v4.6h-14.7v8.9h14.4v4.6h-14.4v9zM-1790.7 2081h-4.6v-31.7h3.7l10.5 15.4 10.5-15.4h3.6v31.7h-4.5v-22.3l-8.3 12.3h-2.6l-8.3-12.3v22.3zM-1744.2 2071.6h-11.4c-1.2 2.9-2.8 6.7-3.8 9.3h-4.9l12.7-32.1h3.4l12.7 32.1h-4.9l-3.8-9.3zm-9.6-4.3h7.9l-3.9-11.2-4 11.2zM-1721.6 2049.2c6.8 0 10.3 5.3 10.3 10.6s-3.4 10.6-10.3 10.6h-7v10.6h-4.6v-31.7h11.6zm0 16.7c3.9 0 5.8-3 5.8-6s-1.9-6-5.8-6h-7v12h7z"/></g><g fill="#FFF" stroke="#1EA139" stroke-width="3" stroke-miterlimit="10"><path d="M-1818.4 2015.7c-.7-3.2-4.2-4.6-7.3-4.5-2.4.1-5 .9-6.5 2.7-.7.9-1 2.1-.9 3.3.3 3.7 4.3 4.1 8.1 4.5 4.9.6 11 1.9 12.3 7.6.2.8.3 1.6.3 2.3 0 6.9-6.8 10.9-13.2 10.9-5.5 0-12.2-3.3-12.8-9.6l-.1-1 5.2-.1.1.8v-.2c.4 3.3 4.4 5 7.7 5 3.8 0 8-2.1 8-5.8 0-.4-.1-.8-.2-1.2-.6-2.7-4.3-3.2-7.8-3.5-5.6-.6-12.1-1.8-12.6-9.2v.1c-.2-2.4.4-4.8 1.9-6.8 2.4-3.1 6.7-4.7 10.8-4.7 5.5 0 11.2 2.9 12.1 9.4h-5.1zM-1788 2031.7h-12.8c-1.4 3.3-3.2 7.5-4.3 10.5h-5.6l14.3-36.1h3.8l14.3 36.1h-5.5l-4.2-10.5zm-10.9-4.9h8.9l-4.4-12.6-4.5 12.6zM-1770.7 2042.2h-5.1v-35.6h21.2v5.1h-16.1v10h14.3v5.2h-14.3v15.3zM-1745.7 2037h16.6v5.1h-21.8v-35.6h21.7v5.1h-16.5v10h16.2v5.2h-16.2v10.2zM-1715.8 2042.3v-30.6h-10.8v-5.2h26.7v5.2h-10.8v30.6h-5.1zM-1692.9 2006.6l9.7 15.6 9.7-15.6h6.1l-13.2 21.1v14.5h-5.2v-14.5l-13.2-21.1h6.1z"/></g><path fill="#FFF" d="M-1689.3 1876.4c-7.3-2.6-14.2-2.4-20.5-.7l-18.9-43.3c-.8-1.9-2.7-3.1-4.7-3.1h-22.1c-1.5 0-2.7 1.2-2.7 2.7v4.9c0 1.5 1.2 2.7 2.7 2.7h17c1.1 0 2 .6 2.4 1.6l5.5 12.6c.8 1.8-.5 3.7-2.4 3.7h-38.6c-1.1 0-2-.6-2.4-1.6l-3.5-8h7.4c1.5 0 2.7-1.2 2.7-2.7v-4.9c0-1.5-1.2-2.7-2.7-2.7h-26.3c-1.5 0-2.7 1.2-2.7 2.7v4.9c0 1.5 1.2 2.7 2.7 2.7h6c1.1 0 2 .6 2.4 1.6l5 11.6c.4.9.3 1.9-.3 2.6l-11.1 15c-5.3-2.9-11.3-4.4-17.8-4.2-19.2.5-34.9 16.9-34.5 36.1.4 19.3 16.1 34.8 35.5 34.8 17.1 0 31.3-12.1 34.7-28.2.3-1.3 1.3-2.2 2.6-2.2h17.8c1.7 0 3.2-.8 4.2-2.2l26.3-37.7c1.2-1.7 3.8-1.4 4.6.5l1.8 4.2c-11.3 7-18.4 20.2-16.5 34.9 2 15.5 14.4 28.1 29.9 30.3 22.5 3.3 41.8-14.7 40.7-36.9-.7-14.3-10.6-26.9-24.2-31.7zm-86.6 1.2l10.3 23.6c.8 1.8-.5 3.7-2.4 3.7h-5.9c-1.3 0-2.4-.9-2.6-2.2-1.3-6.1-4.1-11.7-8.1-16.2-.9-1-1-2.4-.2-3.4l4.5-6c1.1-1.7 3.6-1.4 4.4.5zm-14.3 18.5c1.1 1.6 2 3.4 2.7 5.3.6 1.7-.7 3.5-2.5 3.5h-11.1l6.6-8.9c1-1.4 3.3-1.4 4.3.1zm-21.1 39.2c-14.1 0-25.5-11.5-25.3-25.7.2-13.1 10.9-24.2 24.1-24.8 3-.1 5.8.2 8.4 1 1.7.5 2.4 2.7 1.3 4.1l-12.6 17c-1.2 1.6-1.3 3.6-.5 5.3.9 1.7 2.6 2.8 4.6 2.8h21.2c1.8 0 3.2 1.8 2.5 3.5-3.5 9.8-12.8 16.8-23.7 16.8zm54.3-40.1l-10.3-23.7c-.8-1.8.5-3.7 2.4-3.7h26.9c2.2 0 3.4 2.4 2.2 4.2l-16.6 23.7c-1.2 1.7-3.8 1.4-4.6-.5zm53.9 39.9c-11.5-1.1-21-10.3-22.5-21.8-1.1-8.5 2.1-16.3 7.7-21.6 1.3-1.3 3.5-.7 4.2.9l7.4 17c.6 1.3 2.2 2 3.5 1.4l4.5-2c1.3-.6 2-2.2 1.4-3.5l-7.4-17c-.7-1.7.4-3.6 2.2-3.7 2.6-.2 5.4.1 8.2.8 9.7 2.6 17.1 11 18.4 20.9 2.2 16.4-11.3 30.3-27.6 28.6z"/><path fill="#040000" d="M-1659.2 1882.5c.8-1.2 2-1.2 2.8 0l3.5 5.6c.8 1.2 2.5 1.8 3.9 1.3l6.1-2.5c1.4-.6 2.4.2 2.3 1.6l-.5 6.6c-.1 1.5 1 2.9 2.4 3.3l6.4 1.6c1.4.3 1.8 1.5.9 2.7l-4.2 5c-.9 1.1-.9 2.9 0 4.1l4.2 5c.9 1.1.6 2.3-.9 2.7l-6.4 1.6c-1.4.3-2.5 1.8-2.4 3.3l.5 6.6c.1 1.5-.9 2.2-2.3 1.6l-6.1-2.5c-1.4-.6-3.1 0-3.9 1.3l-3.5 5.6c-.8 1.2-2 1.2-2.8 0l-3.5-5.6c-.8-1.2-2.5-1.8-3.9-1.3l-6.1 2.5c-1.4.6-2.4-.2-2.3-1.6l.5-6.6c.1-1.5-1-2.9-2.4-3.3l-6.4-1.6c-1.4-.3-1.8-1.5-.9-2.7l4.2-5c.9-1.1.9-2.9 0-4.1l-4.2-5c-.9-1.1-.6-2.3.9-2.7l6.4-1.6c1.4-.3 2.5-1.8 2.4-3.3l-.5-6.6c-.1-1.5.9-2.2 2.3-1.6l6.1 2.5c1.4.6 3.1 0 3.9-1.3l3.5-5.6z"/></g></g><g fill="none" stroke="#9DA29E" stroke-width=".3" stroke-miterlimit="10"><path opacity=".6" d="M-2006.4 2249.3h500.5M-2006.4 2128.1h500.5M-2006.4 2491.7h500.5M-2006.4 2370.5h500.5M-2006.4 2734.1h500.5M-2006.4 2612.9h500.5"/></g><g><path fill="#FFF" d="M-2058.4 2259.1h52v386h-52c-11 0-20-9-20-20v-346c0-11.1 8.9-20 20-20z"/><path fill="none" stroke="#1EA139" stroke-width="3" stroke-miterlimit="10" d="M-2047.9 2467.6l14.8-14.8-14.8-14.7"/></g><g><text transform="translate(-2368.07 2569.627)" fill="#FFF" font-family="'KozGoPro-Heavy-83pv-RKSJ-H'" font-size="41.423" letter-spacing="1">メニュー</text><g fill="#FFF"><path d="M-2367.5 2332.7h169.6v22.5h-169.6zM-2367.5 2402.8h169.6v22.5h-169.6zM-2367.5 2473h169.6v22.5h-169.6z"/></g></g><g><g fill="#FFF"><path d="M-3846.8 2542.7c3.1 1.3 6.5 3 9.9 4.8 1.9-3 4.7-8.3 6.7-13.1l7.8 3.3c-.2.5-.8.7-1.7.7-1.9 3.9-4.6 8.9-7 12.5 1.9 1.2 5 3.2 7.4 5.2l-4.2 6.1c-1.8-1.7-4.3-3.8-7.1-5.7-4.1 5.5-9.6 11-15.5 14.8-1.1-1.3-3.7-3.6-5.3-4.6 5.6-3.4 11.2-8.3 15.2-13.5-3.2-1.9-6.6-3.6-9.7-5.1l3.5-5.4zM-3778.1 2561v6.1h-34.6v-6.1h34.6zm-4.2-21v6.1h-26.2v-6.1h26.2zM-3738.1 2563.3v4.9h-28.3v-4.9h15.7c.6-3.6 1.2-9.2 1.7-12.6h-14.3v-4.9h16l.9-.3 4 1.7c-.1.3-.4.6-.7.7-.5 3.8-1.7 11.6-2.3 15.4h7.3zM-3726.7 2549.2h34.6v6.3h-32.8c-.3.4-.9.7-1.5.8l-.3-7.1z"/></g><g fill="#FFF"><path d="M-3858.5 2331.7h169.6v22.5h-169.6zM-3858.5 2401.8h169.6v22.5h-169.6zM-3858.5 2472h169.6v22.5h-169.6z"/></g></g></g></svg>