<svg xmlns="http://www.w3.org/2000/svg" xmlns:xlink="http://www.w3.org/1999/xlink" viewBox="0 0 151.2 160.9"><defs><path id="a" d="M69.3 4.2c3.5-5.6 9.2-5.6 12.6 0l5.5 8.9c3.5 5.6 11.3 8.2 17.4 5.7l9.7-4c6.1-2.5 10.7.8 10.2 7.4l-.7 10.5c-.5 6.6 4.4 13.3 10.8 14.8L145 50c6.4 1.6 8.2 7 3.9 12l-6.8 8c-4.3 5-4.3 13.3 0 18.3l6.8 8c4.3 5 2.5 10.4-3.9 12l-10.2 2.5c-6.4 1.6-11.3 8.2-10.8 14.8l.8 10.4c.5 6.6-4.1 9.9-10.2 7.4l-9.7-4c-6.1-2.5-13.8.2-17 5.9l-6.3 11.1c-3.3 5.7-8.6 5.7-11.9 0l-6.3-11.1c-3.3-5.7-10.9-8.4-17-5.9l-9.7 4c-6.1 2.5-10.7-.8-10.2-7.4l.8-10.4c.5-6.6-4.4-13.3-10.8-14.8l-10.2-2.5c-6.4-1.6-8.2-7-3.9-12l6.8-8c4.3-5 4.3-13.3 0-18.3l-6.8-8c-4.3-5-2.5-10.4 3.9-12l10.2-2.5c6.4-1.6 11.3-8.2 10.8-14.8l-.8-10.4c-.5-6.6 4.1-9.9 10.2-7.4l9.7 4c6.1 2.5 14-.1 17.4-5.7l5.5-9z"/></defs><clipPath id="b"><use xlink:href="#a" overflow="visible"/></clipPath><linearGradient id="c" gradientUnits="userSpaceOnUse" x1="-5.05" y1="147.851" x2="159.351" y2="147.851"><stop offset="0" stop-color="#3B9D00"/><stop offset="1" stop-color="#3BAA00"/></linearGradient><path clip-path="url(#b)" fill="url(#c)" d="M159.4 167.6c0 3.7-3 6.7-6.7 6.7H1.6c-3.7 0-6.7-3-6.7-6.7v-39.4c0-3.7 3-6.7 6.7-6.7h151c3.7 0 6.7 3 6.7 6.7v39.4z"/><path clip-path="url(#b)" fill="#283429" d="M159.4.9c0-3.7-3-6.7-6.7-6.7H1.6C-2-5.7-5-2.7-5 .9v113.8c0 3.7 3 6.7 6.7 6.7h151c3.7 0 6.7-3 6.7-6.7V.9z"/><g clip-path="url(#b)"><path fill="#FFF" d="M36 103.9c-5.7 0-8-4-5.2-8.9l13.8-24c2.8-4.9 7.5-4.9 10.3 0l13.8 23.9c2.8 4.9.5 8.9-5.2 8.9H36z"/><g fill="#283429"><path d="M48.1 92.7h3.8v3.8h-3.8zM48.1 78.2h3.8v10.6h-3.8z"/></g><g><path fill="#FFF" d="M87.6 103.9c-5.7 0-8-4-5.2-8.9l13.8-24c2.8-4.9 7.5-4.9 10.3 0l13.8 23.9c2.8 4.9.5 8.9-5.2 8.9H87.6z"/><g fill="#283429"><path d="M99.7 92.7h3.8v3.8h-3.8zM99.7 78.2h3.8v10.6h-3.8z"/></g></g></g><g clip-path="url(#b)"><path fill="#FFF" d="M61.8 60.7c-5.7 0-8-4-5.2-8.9l13.8-23.9c2.8-4.9 7.5-4.9 10.3 0l13.8 23.9c2.8 4.9.5 8.9-5.2 8.9H61.8z"/><g fill="#283429"><path d="M73.9 49.5h3.8v3.8h-3.8zM73.9 35h3.8v10.6h-3.8z"/></g></g></svg>