<svg xmlns="http://www.w3.org/2000/svg" viewBox="0 0 170.3 153"><path fill="#F1D1A6" d="M137.4 91.5c0-2.4.2-6.4.4-8.8l3.3-40.2c.2-2.4 1.8-3 3.5-1.3l22.5 22.5c1.7 1.7 3.1 5.1 3.1 7.6v76.3c0 2.4-2 4.4-4.4 4.4h-24.2c-2.4 0-4.4-2-4.4-4.4l.2-56.1z"/><circle fill="#E6AD61" cx="134.2" cy="73" r="18.7"/><path d="M79 108c-2.4 0-4.4-2-4.4-4.4V4.4C74.6 2 76.6 0 79 0h61.3c2.4 0 4.4 2 4.4 4.4v99.2c0 2.4-2 4.4-4.4 4.4H79z"/><path fill="#FFF" d="M86.7 11.9h45.9v71H86.7z"/><linearGradient id="a" gradientUnits="userSpaceOnUse" x1="109.438" y1="32.74" x2="122.478" y2="32.74"><stop offset="0" stop-color="#3B9D00"/><stop offset="1" stop-color="#3BAA00"/></linearGradient><path fill="url(#a)" d="M122.3 29.2c1 3.9-2.2 6.6-5.3 11.6-.5.8-1.6.8-2 0-2.4-4.1-5.5-7.1-5.5-10.2 0-3.8 3.2-6.8 7-6.5 2.8.2 5.1 2.4 5.8 5.1z"/><linearGradient id="b" gradientUnits="userSpaceOnUse" x1="99.688" y1="56.231" x2="112.728" y2="56.231"><stop offset="0" stop-color="#3B9D00"/><stop offset="1" stop-color="#3BAA00"/></linearGradient><path fill="url(#b)" d="M112.6 52.7c1 3.9-2.2 6.6-5.3 11.6-.5.8-1.6.8-2 0-2.4-4.1-5.5-7.1-5.5-10.2 0-3.8 3.2-6.8 7-6.5 2.7.2 5.1 2.4 5.8 5.1z"/><radialGradient id="c" cx="109.624" cy="99.692" r="5.365" gradientTransform="matrix(1 0 0 .998 0 -3.95)" gradientUnits="userSpaceOnUse"><stop offset="0" stop-color="#F5F2EB"/><stop offset="1" stop-color="#EFEADF"/></radialGradient><ellipse fill="url(#c)" cx="109.6" cy="95.5" rx="5.4" ry="5.4"/><g><path fill="#F1D1A6" d="M142.7 126.2c-2.4-.6-5.3-2.9-6.5-5l-9.1-15.9c-1.2-2.1-2.6-5.8-3-8.2L117 60.8c-.5-2.4.7-5.6 2.6-7.1l.3-.3c1.9-1.5 4.9-1.4 6.6.3l24.2 23.6c1.7 1.7 3.2 5.1 3.2 7.5l.4 40c0 2.4-1.9 3.9-4.2 3.3l-7.4-1.9z"/></g><g><path fill="#F1D1A6" d="M32.8 110.3c0-2.4-.2-6.4-.4-8.8l-3.3-40.2c-.2-2.4-1.8-3-3.5-1.3L3.1 82.4C1.4 84.2 0 87.6 0 90v58.6c0 2.4 2 4.4 4.4 4.4h24.2c2.4 0 4.4-2 4.4-4.4l-.2-38.3z"/><circle fill="#E6AD61" cx="34.6" cy="92.2" r="18.7"/><path d="M29.3 140.4c-2.4 0-4.4-2-4.4-4.4V36.8c0-2.4 2-4.4 4.4-4.4h61.3c2.4 0 4.4 2 4.4 4.4V136c0 2.4-2 4.4-4.4 4.4H29.3z"/><linearGradient id="d" gradientUnits="userSpaceOnUse" x1="36.947" y1="79.709" x2="82.814" y2="79.709"><stop offset="0" stop-color="#3B9D00"/><stop offset="1" stop-color="#3BAA00"/></linearGradient><path fill="url(#d)" d="M36.9 44.2h45.9v71H36.9z"/><radialGradient id="e" cx="60.647" cy="77.511" r="7.658" gradientTransform="matrix(1 0 0 .998 0 .155)" gradientUnits="userSpaceOnUse"><stop offset="0" stop-color="#F5F2EB"/><stop offset="1" stop-color="#EFEADF"/></radialGradient><path fill="url(#e)" d="M67 74c1 3.9-2.2 6.6-5.3 11.6-.5.8-1.6.8-2 0-2.4-4.1-5.5-7.1-5.5-10.2 0-3.8 3.2-6.8 7-6.5 2.8.2 5.1 2.3 5.8 5.1z"/><radialGradient id="f" cx="59.88" cy="132.093" r="5.365" gradientTransform="matrix(1 0 0 .998 0 -3.95)" gradientUnits="userSpaceOnUse"><stop offset="0" stop-color="#F5F2EB"/><stop offset="1" stop-color="#EFEADF"/></radialGradient><ellipse fill="url(#f)" cx="59.9" cy="127.9" rx="5.4" ry="5.4"/><g><path fill="#F1D1A6" d="M24.1 144.2c2.4-.1 5.4-2 6.6-4.1l9.1-15.9c1.2-2.1 2.6-5.8 3-8.2l7.1-36.4c.5-2.4-.7-5.6-2.6-7.1l-.3-.2c-1.9-1.5-4.9-1.4-6.6.3L16.1 96.3c-1.7 1.7-3.2 5.1-3.2 7.5l-.4 36.6c0 2.4 1.9 4.3 4.4 4.2l7.2-.4z"/></g></g></svg>