<svg xmlns="http://www.w3.org/2000/svg" viewBox="0 0 161.7 137.9"><path fill="#283429" d="M118 35.3c-5.5-1.9-10.7-1.8-15.4-.5L88.5 2.3C87.9.9 86.5 0 85 0H68.4c-1.1 0-2 .9-2 2v3.7c0 1.1.9 2 2 2h12.8c.8 0 1.5.5 1.8 1.2l4.1 9.4c.6 1.3-.4 2.8-1.8 2.8h-29c-.8 0-1.5-.5-1.8-1.2l-2.6-6h5.6c1.1 0 2-.9 2-2V8.2c0-1.1-.9-2-2-2H37.7c-1.1 0-2 .9-2 2v3.7c0 1.1.9 2 2 2h4.5c.8 0 1.5.5 1.8 1.2l3.8 8.7c.3.7.2 1.4-.2 2L39.2 37c-4-2.1-8.5-3.3-13.3-3.2C11.5 34.2-.3 46.5 0 60.9.3 75.3 12.1 87 26.6 87c12.8 0 23.5-9.1 26-21.1.2-.9 1-1.6 2-1.6h13.3c1.3 0 2.4-.6 3.1-1.6l19.7-28.2c.9-1.3 2.8-1.1 3.5.3l1.4 3.1C87.1 43.1 81.8 53 83.3 64c1.5 11.6 10.7 21 22.3 22.7 16.9 2.5 31.3-11 30.5-27.6-.4-10.9-7.8-20.3-18.1-23.8zm-64.9.8l7.7 17.7c.6 1.3-.4 2.8-1.8 2.8h-4.4c-1 0-1.8-.7-2-1.6-1-4.6-3.1-8.8-6.1-12.1-.6-.7-.7-1.8-.2-2.6l3.4-4.5c.9-1.3 2.8-1.1 3.4.3zM42.4 50c.8 1.2 1.5 2.6 2 4 .5 1.3-.5 2.6-1.9 2.6h-8.3l4.9-6.6c.9-1.2 2.5-1.2 3.3 0zM26.6 79.3c-10.5 0-19.1-8.7-18.9-19.2.1-9.8 8.2-18.1 18-18.6 2.2-.1 4.3.2 6.3.8 1.3.4 1.8 2 1 3.1l-9.5 12.8c-.9 1.2-1 2.7-.3 4 .7 1.3 2 2.1 3.4 2.1h15.9c1.4 0 2.4 1.3 1.9 2.6-2.6 7.2-9.6 12.4-17.8 12.4zm40.7-30l-7.7-17.8c-.6-1.3.4-2.8 1.8-2.8h20.1c1.6 0 2.6 1.8 1.6 3.1L70.7 49.7c-.9 1.2-2.8 1.1-3.4-.4zm40.4 29.9c-8.6-.9-15.7-7.7-16.8-16.3-.8-6.4 1.6-12.2 5.7-16.2 1-.9 2.6-.6 3.2.7l5.5 12.7c.4 1 1.6 1.5 2.6 1l3.4-1.5c1-.4 1.5-1.6 1-2.6l-5.6-12.8c-.5-1.2.3-2.7 1.6-2.8 2-.1 4 .1 6.1.6 7.3 1.9 12.8 8.2 13.8 15.7 1.8 12.3-8.3 22.8-20.5 21.5z"/><path fill="#FF77D6" d="M140.6 39.8c.6-.9 1.5-.9 2.1 0l2.6 4.2c.6.9 1.9 1.4 2.9.9l4.6-1.9c1-.4 1.8.1 1.7 1.2l-.4 4.9c-.1 1.1.7 2.2 1.8 2.5l4.8 1.2c1.1.3 1.4 1.2.6 2l-3.2 3.8c-.7.8-.7 2.2 0 3l3.2 3.8c.7.8.4 1.7-.6 2l-4.8 1.2c-1.1.3-1.9 1.4-1.8 2.5l.4 4.9c.1 1.1-.7 1.7-1.7 1.2l-4.6-1.9c-1-.4-2.3 0-2.9.9l-2.6 4.2c-.6.9-1.5.9-2.1 0l-2.6-4.2c-.6-.9-1.9-1.4-2.9-.9l-4.6 1.9c-1 .4-1.8-.1-1.7-1.2l.4-4.9c.1-1.1-.7-2.2-1.8-2.5l-4.8-1.2c-1.1-.3-1.4-1.2-.6-2l3.2-3.8c.7-.8.7-2.2 0-3l-3.2-3.8c-.7-.8-.4-1.7.6-2l4.8-1.2c1.1-.3 1.9-1.4 1.8-2.5l-.4-4.9c-.1-1.1.7-1.7 1.7-1.2l4.6 1.9c1 .4 2.3 0 2.9-.9l2.6-4.2z"/><path fill="#38D4EA" d="M99.8 99.5c-2.4-2.7-6.5-2.8-8.9-.3L78 112.6c-1.5 1.6-4.1.5-4.1-1.7V85.5c0-3.1-2.3-5.9-5.4-6.2-3.6-.3-6.6 2.5-6.6 6V111c0 2.2-2.6 3.2-4.1 1.7L44.9 99.2c-2.4-2.5-6.6-2.5-8.9.2-2.1 2.4-1.8 6 .4 8.3L63.6 136c1.1 1.2 2.7 1.9 4.3 1.9s3.2-.7 4.3-1.9l27.2-28.3c2.2-2.3 2.5-5.9.4-8.2z"/></svg>