<svg xmlns="http://www.w3.org/2000/svg" viewBox="0 0 761 286.9"><g fill="#FFF"><path d="M0 178h23.6c4.5 0 8.2 1.2 11.1 3.5s4.3 5.7 4.3 10.1c0 3.4-1.1 6.3-3.3 8.8-2.2 2.5-5 3.7-8.3 3.7 3.7.1 6.8 1.4 9.4 3.9 2.6 2.5 3.9 5.8 3.9 9.9 0 4.8-1.7 8.5-5 11.1-3.3 2.6-7.7 3.8-13.1 3.8H0V178zm1.5 25.5h22c3.9 0 7.2-1 9.9-3.1 2.7-2 4-5 4-8.8 0-3.9-1.3-6.9-3.9-9-2.6-2.1-5.9-3.1-10-3.1h-22v24zm0 27.8h21.8c4.7 0 8.5-1.1 11.4-3.4 2.9-2.3 4.4-5.6 4.4-9.9 0-4.5-1.5-7.7-4.5-9.8-3-2.1-6.7-3.1-11.1-3.1h-22v26.2zM50.5 178H52v54.8h-1.5V178zM110.1 211.3c-1 6.9-3.5 12.4-7.7 16.6-4.2 4.1-9.6 6.2-16.4 6.2-7.3 0-13.3-2.6-17.9-7.9-4.6-5.3-6.9-12.1-6.9-20.3 0-7.7 2.1-14.5 6.4-20.4 4.3-5.9 10.7-8.8 19.4-8.8 6.6 0 11.9 1.9 15.9 5.8s6 7.9 6 11.9h-1.5c-.4-4.2-2.4-8-6.1-11.3s-8.5-4.9-14.2-4.9c-8.2 0-14.3 2.9-18.3 8.6-4 5.8-6 12.1-6 19 0 7.4 2.1 13.7 6.3 18.9 4.2 5.2 9.9 7.8 17 7.8 6.3 0 11.5-2 15.4-5.9 3.9-3.9 6.3-9 7.2-15.4h1.4zM156.7 178h1.9l-22.2 31.7v23.1h-1.5v-23.1L112.6 178h1.9l21 30.2 21.2-30.2zM210.1 211.3c-1 6.9-3.5 12.4-7.7 16.6-4.2 4.1-9.6 6.2-16.4 6.2-7.3 0-13.3-2.6-17.9-7.9-4.6-5.3-6.9-12.1-6.9-20.3 0-7.7 2.1-14.5 6.4-20.4 4.3-5.9 10.7-8.8 19.4-8.8 6.6 0 11.9 1.9 15.9 5.8s6 7.9 6 11.9h-1.5c-.4-4.2-2.4-8-6.1-11.3s-8.5-4.9-14.2-4.9c-8.2 0-14.3 2.9-18.3 8.6-4 5.8-6 12.1-6 19 0 7.4 2.1 13.7 6.3 18.9 4.2 5.2 9.9 7.8 17 7.8 6.3 0 11.5-2 15.4-5.9 3.9-3.9 6.3-9 7.2-15.4h1.4zM252.7 231.3v1.5h-33.6V178h1.5v53.3h32.1zM260.7 231.3h35.2v1.5h-36.7V178h36.4v1.5h-34.9v24h32.8v1.5h-32.8v26.3zM311.4 214.5c0 2.1.4 3.9 1.1 5.4.7 1.5 1.7 2.7 3 3.6 1.3.9 2.8 1.6 4.4 2.1 1.7.4 3.5.7 5.4.7 2.1 0 3.9-.2 5.4-.7s2.7-1.1 3.6-1.9c.9-.8 1.6-1.7 2-2.6.4-1 .6-2 .6-3 0-2.1-.5-3.6-1.4-4.6-.9-1-2-1.7-3.1-2.1-1.9-.7-4.2-1.4-6.8-2-2.6-.6-5.8-1.5-9.6-2.5-2.4-.6-4.3-1.4-5.9-2.4-1.6-1-2.8-2.1-3.7-3.3-.9-1.2-1.6-2.5-2-3.9s-.6-2.8-.6-4.2c0-2.8.6-5.2 1.7-7.2 1.2-2 2.7-3.7 4.6-5 1.9-1.3 4-2.3 6.4-3 2.4-.6 4.8-1 7.3-1 2.9 0 5.6.4 8.1 1.1 2.5.7 4.8 1.9 6.7 3.3 1.9 1.5 3.4 3.3 4.6 5.5 1.1 2.2 1.7 4.7 1.7 7.6h-9.6c-.3-3.5-1.5-6-3.6-7.5s-4.9-2.2-8.2-2.2c-1.1 0-2.3.1-3.5.3-1.2.2-2.3.6-3.2 1.2-1 .5-1.8 1.3-2.4 2.2-.6.9-1 2.1-1 3.5 0 1.9.6 3.5 1.8 4.6 1.2 1.1 2.8 1.9 4.7 2.5.2.1 1 .3 2.4.7 1.4.4 3 .8 4.7 1.3 1.7.5 3.4.9 5.1 1.3 1.7.4 2.9.8 3.6 1 1.8.6 3.4 1.3 4.7 2.3 1.3 1 2.4 2.1 3.3 3.3.9 1.3 1.6 2.6 2 4 .4 1.4.7 2.9.7 4.3 0 3.1-.6 5.7-1.9 7.9-1.3 2.2-2.9 4-5 5.3-2 1.4-4.4 2.4-7 3s-5.3 1-8 1c-3.1 0-6.1-.4-8.8-1.2-2.8-.8-5.2-1.9-7.2-3.5s-3.7-3.6-4.9-6.1c-1.2-2.5-1.9-5.4-1.9-8.8h9.7zM372.6 178h10.2l21.1 54.8h-10.3l-5.1-14.5h-21.9l-5.1 14.5h-9.9l21-54.8zm-3.4 33H386l-8.2-23.6h-.2l-8.4 23.6zM412.2 178h37.9v8.3h-28.3v14.4h24.8v7.8h-24.8v24.3h-9.6V178zM460.8 178h39.5v8.3h-29.9v14.4H498v7.8h-27.6v16h30.4v8.3h-40V178zM507 178h44.4v8.3H534v46.5h-9.6v-46.5H507V178zM575.1 211.3L554.5 178h11.1l14.5 24.6 14.3-24.6h10.7l-20.5 33.3v21.5H575v-21.5zM661 178h2.5v54.8H662v-52.9l-23.4 52.9h-1.7l-23.3-52.9-.2 52.9H612V178h2.5l23.2 52.8L661 178zM678.9 214.8l-7.3 18h-1.7l22.3-54.8h2l21.7 54.8h-1.7l-7.2-18.1h-28.1zm27.3-1.6l-13.1-33.7-13.7 33.7h26.8zM723.7 232.8h-1.5V178h22.2c5.3 0 9.4 1.3 12.3 3.8 2.9 2.6 4.4 6.3 4.4 11.1 0 4.7-1.6 8.4-4.8 11-3.2 2.6-7.4 3.9-12.6 3.9h-19.9v25zm0-26.5h20.7c4.4 0 8-1.2 10.9-3.6s4.3-5.6 4.3-9.8c0-9-5-13.4-15.1-13.4h-20.7v26.8z"/></g><g fill="#FFF"><path d="M167.8 267.6c-.1.4-.4.6-.9.6-.3 1.6-.8 3.8-1.3 5.7 1.4.6 3 1.3 4.4 2.1l-1.6 3.6c-1.4-.7-2.6-1.4-3.9-2.1-1.4 3.8-3.3 6.8-6.1 8.7-.7-.7-2.2-1.6-3.1-2.1 2.7-1.8 4.5-4.5 5.8-8.2-2.2-.9-4.1-1.5-5.9-1.8-2.1 7.2-4.3 9-7.8 9-4 0-4.8-3.2-4.8-5.4 0-4.7 5-7.1 9.8-7.1.5-2 1-4.5 1.3-6.8-1.4.1-5.1.5-7.4.6-.2.3-.4.4-.7.5l-.4-3.9c3.2-.1 8.4-.5 9.8-.6.3-.1.6-.2.8-.4l3 1.5c-.1.2-.4.4-.8.6-.4 2.6-1.2 6.4-1.9 8.8 1.8.2 3.8.8 6 1.6.4-1.5.9-3.8 1.2-5.9l4.5 1zm-16.2 6.3c-3.2 0-5.7 1.6-5.7 3.9 0 1.2.6 2 1.5 2 1.5 0 2.7-.7 4.2-5.9zM172.3 284.3c1.8-5.4 5.6-16.3 6.6-19.1.6-1.7 1.5-4.6 1.8-5.5l5.1 1.2c-.1.4-.5.7-1.3.7-1.2 2.8-3.6 9-4.6 11.9 1.6-1.6 3.7-2.4 5.4-2.4 2.5 0 3.9 1.7 3.9 4.4 0 .5-.1 3.2-.1 3.8 0 1.7.7 2.5 1.9 2.5 2.2 0 4-2.6 5.3-7.5 1.1.8 2.3 1.5 3.5 2.1-1.8 5.7-4.6 9.3-8.9 9.3-3.6 0-5.8-1.9-5.8-5.1 0-.5.1-3.2.1-3.8 0-1.4-.4-2-1.2-2-2.8 0-5.7 4.1-6.5 6.6-.4 1.2-.9 2.7-1.3 4.1l-3.9-1.2zM214.5 259.7c-.1.3-.4.6-.9.6-.1 1.1-.4 2.5-.6 3.4 2.1-.1 5.1-.7 7.3-1.4l.4 3.5c-2.6.6-5.5 1-8.5 1.3-1.4 5.4-3.2 10-5.7 14.2l-3.7-1.3c2.5-3.7 4.4-8.2 5.4-12.8h-5.1v-3.4H208.8c.3-1.4.5-3 .6-4.6l5.1.5zm7.6 13c0 1.8.1 3.5.3 5.2 1.6.7 4.2 1.9 5.8 3l-1.8 3.5c-1.1-.9-2.9-2-4-2.6 0 .6-.1.9-.2 1.2-.6 1.9-2.2 3.3-5.8 3.3-2.7 0-6-1.3-6-4.8.1-3.1 3.1-4.8 6-4.8.7 0 1.5.1 2.3.2-.1-1.4-.1-2.9-.1-3.9l3.5-.3zm-3.2 7.5c-.8-.3-1.9-.5-2.6-.5-1.5 0-2.7.7-2.7 1.8s1.1 1.8 2.8 1.8c1.4 0 2.6-.7 2.6-2.2v-.9zm8.9-9.7c-3.2 0-7.1.4-10.4 1.2l-.5-3.2c3.4-.9 7.4-1.5 10.7-1.5l.2 3.5zM232.8 262.4c.9 0 2.3 0 3.1-.1 3.4-.2 16.3-1 21.3-1.3l.1 4c-2.6-.1-4.1.1-6.5 1.8-3.3 2.2-7.3 6.3-7.3 9.7 0 3.4 3 5.4 9.5 6l-1.8 3.7c-8.5-1-11.8-4.6-11.8-9.7 0-3.6 3.3-8.3 7.8-11.5-3.7.3-10.6.9-13.3 1.2-.1.2-.4.4-.7.5l-.4-4.3zm19.9 7.1c1.3 1 2.8 2.8 3.6 4l-1.8 1.4c-.7-1.2-2.4-3.2-3.5-4.1l1.7-1.3zm3.6-2.7c1.3 1.1 2.9 2.7 3.6 4l-1.7 1.4c-.7-1.1-2.4-3.1-3.5-4l1.6-1.4zM261.9 266.8c.9-.2 1.8-.4 3.4-.9 5.1-1.5 9.6-2.7 13.1-2.7 5.2 0 9.8 2.4 9.8 9 0 7.6-6.8 10.7-17.6 11.7-.2-.8-.9-2.7-1.5-3.6 9.6-.8 15-3.2 15-7.8 0-3.8-2.8-5.4-6-5.4-2.9 0-7.2 1-11.8 2.6-.7.3-1.5.6-2.2.9 0 .4-.3.7-.6.8l-1.6-4.6zM309.3 286.6c-2.6-3-7-7.1-11.5-10.5-1.8-1.4-2.2-2.2-2.2-3.7 0-1 .3-1.9 1.4-2.9 3-2.8 8.3-8 10.6-10.4l4.3 2.7c-.3.3-.6.4-1.2.3-2.7 2.5-6.9 6.2-9.4 8.5-.7.7-1.3 1.2-1.3 1.7s.7 1.1 1.8 1.8c3.6 2.6 7.8 6.1 11.3 9.6l-3.8 2.9zM339.2 260l2.7 2.9c-.2.2-.5.3-.8.3-2.2 1.7-7.2 6.5-9 8.3 1.9-.9 4.3-1.5 6.4-1.5 4.4 0 7.6 2.6 7.6 7.1 0 5.7-5.1 8.3-15.1 8.7-.2-1-.8-2.7-1.3-3.5 8.9-.3 12.4-1.9 12.4-5.2 0-2.4-2-3.9-4.9-3.9-3 0-6.9 1.2-9.5 3.6-.6.5-1.8 1.7-2.7 2.7l-2.6-2.6c2.4-2.7 9.4-9.7 12.8-13.1-1.6.2-6.5.6-8.7.7-.1.2-.4.4-.7.5l-.3-4.1c4.3 0 12.7-.6 13.4-.9h.3zM353.8 269.5c4.6-1.2 10.3-2.5 12.6-2.5 4.1 0 7.6 2.1 7.6 7.3 0 5.8-4.3 9.6-12.5 12.1-.5-.9-1.7-2.4-2.5-3.3 7.1-1.7 10.9-4.9 10.9-8.6 0-2.4-1.2-3.9-3.6-3.9-2.6 0-6.5 1-10.4 2.4 0 .3-.3.6-.6.7l-1.5-4.2zm4.9-10.1c4.2.2 8.7 1 11.8 2l-1 3.8c-3.2-1.1-8-1.9-11.7-2.2l.9-3.6zM396.8 259.6c-.1.2-.4.4-.8.4-.3.8-.7 1.7-1.1 2.6h9.9v24.1H401v-1.5h-13.6v1.5h-3.6v-24.2h7.2c.4-1.3.8-2.7 1-3.9l4.8 1zm4.2 6.5h-13.6v3H401v-3zm0 6.4h-13.6v3.1H401v-3.1zm-13.6 9.5H401v-3.1h-13.6v3.1zM423.5 282h-5.1v4.8h-3.3V282h-5.3v-3.1h5.3v-1.8h-4.3v-10.9h4.3v-1.6h-4.9v-3.1h4.9v-2.8l4.1.2c0 .3-.2.4-.8.5v2.1h4.8v3.1h-4.8v1.6h4.4v10.9h-4.5v1.8h5.1v3.1zm-9.8-13.2v1.8h1.9v-1.8h-1.9zm0 4.1v1.8h1.9v-1.8h-1.9zm6.4-2.3v-1.8h-2v1.8h2zm0 4.1v-1.8h-2v1.8h2zm14.5 1.3c1.6 2.9 3.1 6.8 3.6 9.4l-3.2 1.4c-.1-.6-.3-1.2-.4-2-3.7.5-7.4.9-9.9 1.2-.1.3-.3.4-.5.5l-1.1-3.9c.7 0 1.6-.1 2.5-.1.7-2.6 1.4-6.2 1.8-9.4h-3.7v-3.4H438v3.4h-7.1c-.5 2.9-1.3 6.4-2.1 9.2l4.8-.3c-.6-1.6-1.3-3.2-2-4.6l3-1.4zm2.2-15.4v3.4H425v-3.4h11.8zM467.3 279.6v3.2h-12v4h-3.7v-4H440v-3.2h11.6V278H443v-12.1h8.6v-1.5h-10.9v-3.2h10.9v-2.5l4.5.3c0 .3-.3.5-.8.6v1.6h11.1v3.2h-11.1v1.5h8.9V278h-8.9v1.6h12zm-20.9-10.8v1.8h5.2v-1.8h-5.2zm0 6.3h5.2v-1.9h-5.2v1.9zm14.2-6.3h-5.3v1.8h5.3v-1.8zm0 6.3v-1.9h-5.3v1.9h5.3zM497 273.9h-5.1c-.1.1-.4.2-.7.3-.8 2.5-1.9 4.5-3.4 6.2 3 1.1 5.8 2.4 7.8 3.5l-2.8 3c-1.9-1.2-4.8-2.6-8-3.9-3.1 2-7.1 3.2-12 3.9-.3-.9-1.2-2.4-1.9-3.1 3.9-.4 7.2-1.1 9.8-2.3-1.1-.4-2.2-.7-3.2-1.1l-.4.7-3.8-1c.9-1.7 2-3.9 3.1-6.2h-6.5v-3.4h8c.7-1.7 1.4-3.3 2-4.9l4.4.8c-.1.3-.3.4-.9.4-.4 1.1-1 2.3-1.5 3.6H497v3.5zm-22.8-8.4v3.9h-3.6v-7.2h10.8v-3.4l4.7.2c0 .3-.3.5-.9.6v2.6h10.9v7.2h-3.8v-3.9h-18.1zm6.2 8.4c-.5 1.2-1.1 2.4-1.6 3.5 1.7.4 3.5 1 5.4 1.6 1.4-1.3 2.4-3 3-5.1h-6.8zM521.9 272.7h-7v3.5h8.4v3.1h-8.4v3.6H526v3.2h-25.6v-3.2h10.7v-3.6h-8.3v-3.1h8.3v-3.5h-6.8v-2.4c-1.1.7-2.2 1.5-3.3 2.1-.5-.8-1.5-2.1-2.2-2.9 5.1-2.6 10.1-7.3 12.3-11l4.8.3c-.1.3-.4.5-.8.6 2.9 3.9 8 7.8 12.5 9.7-.9.9-1.7 2.1-2.4 3.2-1.1-.6-2.2-1.3-3.2-2v2.4zm-1-3.1c-3.2-2.3-6.1-5-7.9-7.4-1.7 2.4-4.4 5.1-7.6 7.4h15.5zM555.8 265.1c-.1.2-.3.4-.6.5-2.5 3.7-6.9 8.1-11 11.2 1.8 1.4 4 3.4 5.3 4.8l-3.3 2.9c-3.3-3.8-8.6-8.1-13.1-10.7l2.6-2.7c1.8 1 3.7 2.3 5.5 3.5 3.1-2.3 6.2-5.4 8-7.8H530v-3.5h22.2l.5-.3 3.1 2.1zM565.3 267.6c.8 1.8 1.7 4.5 2.1 6.3l-2.9.8c-.4-1.8-1.2-4.5-2-6.3l2.8-.8zm17.3.6c-.1.2-.4.4-.7.4-2.4 8.8-7.1 14-13.8 16.7-.4-.6-1.3-1.8-2-2.4 6.4-2.4 10.8-7.1 12.8-15.9l3.7 1.2zm-10.2-1.9c.6 1.8 1.2 4.7 1.4 6.5l-3 .6c-.2-2-.8-4.7-1.5-6.6l3.1-.5zM591.2 263.1h18.6l.3-.1 3.3 2.4c-.1.1-.3.3-.5.4-2.6 11.1-7.7 16.5-16.8 20.1-.5-1-1.6-2.4-2.4-3.1 8.1-3 13.1-8.2 14.6-15.9h-17.1v-3.8zm22.8-4.9c1.8 0 3.2 1.4 3.2 3.2 0 1.8-1.4 3.2-3.2 3.2-1.8 0-3.2-1.5-3.2-3.2 0-1.9 1.5-3.2 3.2-3.2zm2.1 3.2c0-1.2-.9-2.1-2.1-2.1-1.1 0-2.1.9-2.1 2.1s1 2.1 2.1 2.1c1.2-.1 2.1-1 2.1-2.1z"/></g><path fill="#FFF" d="M437.4 56.5c0 29.4-27.1 53.6-52.1 96.4-2 3.3-6.8 3.3-8.7-.1-21.8-39.2-52.4-67.1-52.4-96.3 0-31.2 25.3-56.5 56.6-56.5 31.2 0 56.6 25.3 56.6 56.5z"/><path fill="#283429" d="M404.1 51.3c-2.7-1-5.3-.9-7.7-.2l-7.1-16.3c-.3-.7-1-1.2-1.8-1.2h-8.3c-.6 0-1 .4-1 1v1.8c0 .6.4 1 1 1h6.4c.4 0 .8.2.9.6l2.1 4.7c.3.7-.2 1.4-.9 1.4h-14.5c-.4 0-.8-.2-.9-.6l-1.3-3h2.8c.6 0 1-.4 1-1v-1.8c0-.6-.4-1-1-1h-9.9c-.6 0-1 .4-1 1v1.8c0 .6.4 1 1 1h2.2c.4 0 .8.2.9.6l1.9 4.3c.1.3.1.7-.1 1l-4.2 5.6c-2-1.1-4.3-1.7-6.7-1.6-7.2.2-13.1 6.4-13 13.6.1 7.2 6.1 13.1 13.3 13.1 6.4 0 11.8-4.6 13-10.6.1-.5.5-.8 1-.8h6.7c.6 0 1.2-.3 1.6-.8l9.9-14.2c.4-.6 1.4-.5 1.7.2l.7 1.6c-4.2 2.6-6.9 7.6-6.2 13.1.8 5.8 5.4 10.6 11.2 11.4 8.5 1.2 15.7-5.5 15.3-13.8-.1-5.4-3.9-10.1-9-11.9zm-32.5.4l3.9 8.9c.3.7-.2 1.4-.9 1.4h-2.2c-.5 0-.9-.4-1-.8-.5-2.3-1.6-4.4-3.1-6.1-.3-.4-.4-.9-.1-1.3l1.7-2.3c.4-.6 1.4-.5 1.7.2zm-5.4 6.9c.4.6.8 1.3 1 2 .2.6-.3 1.3-1 1.3H362l2.5-3.3c.5-.5 1.3-.5 1.7 0zm-7.9 14.8c-5.3 0-9.6-4.3-9.5-9.6.1-4.9 4.1-9.1 9-9.3 1.1-.1 2.2.1 3.2.4.7.2.9 1 .5 1.5l-4.7 6.4c-.4.6-.5 1.4-.2 2 .3.6 1 1.1 1.7 1.1h8c.7 0 1.2.7 1 1.3-1.4 3.6-4.9 6.2-9 6.2zm20.4-15.1l-3.9-8.9c-.3-.7.2-1.4.9-1.4h10.1c.8 0 1.3.9.8 1.6l-6.2 8.9c-.4.6-1.4.5-1.7-.2zm20.2 15c-4.3-.4-7.9-3.9-8.4-8.2-.4-3.2.8-6.1 2.9-8.1.5-.5 1.3-.3 1.6.3l2.8 6.4c.2.5.8.7 1.3.5l1.7-.7c.5-.2.7-.8.5-1.3l-2.8-6.4c-.3-.6.1-1.4.8-1.4 1-.1 2 0 3.1.3 3.6 1 6.4 4.1 6.9 7.8.8 6.2-4.3 11.4-10.4 10.8z"/><path fill="#283429" d="M415.4 53.5c.3-.5.8-.5 1.1 0l1.3 2.1c.3.5.9.7 1.5.5l2.3-.9c.5-.2.9.1.9.6l-.2 2.5c0 .5.4 1.1.9 1.2l2.4.6c.5.1.7.6.3 1l-1.6 1.9c-.4.4-.4 1.1 0 1.5l1.6 1.9c.4.4.2.9-.3 1l-2.4.6c-.5.1-.9.7-.9 1.2l.2 2.5c0 .5-.3.8-.9.6l-2.3-.9c-.5-.2-1.2 0-1.5.5l-1.3 2.1c-.3.5-.8.5-1.1 0l-1.3-2.1c-.3-.5-.9-.7-1.5-.5l-2.3.9c-.5.2-.9-.1-.9-.6l.2-2.5c0-.5-.4-1.1-.9-1.2l-2.4-.6c-.5-.1-.7-.6-.3-1l1.6-1.9c.4-.4.4-1.1 0-1.5l-1.6-1.9c-.4-.4-.2-.9.3-1l2.4-.6c.5-.1.9-.7.9-1.2l-.2-2.5c0-.5.3-.8.9-.6l2.3.9c.5.2 1.2 0 1.5-.5l1.3-2.1z"/></svg>