<?xml version="1.0" standalone="no"?>
<!DOCTYPE svg PUBLIC "-//W3C//DTD SVG 20010904//EN"
 "http://www.w3.org/TR/2001/REC-SVG-20010904/DTD/svg10.dtd">
<svg version="1.0" xmlns="http://www.w3.org/2000/svg"
 width="1024.000000pt" height="1024.000000pt" viewBox="0 0 1024.000000 1024.000000"
 preserveAspectRatio="xMidYMid meet">
<metadata>
Created by potrace 1.11, written by Peter Selinger 2001-2013
</metadata>
<g transform="translate(0.000000,1024.000000) scale(0.100000,-0.100000)"
fill="#000000" stroke="none">
<path d="M1658 10229 c-709 -55 -1326 -537 -1562 -1218 -20 -58 -49 -161 -64
-230 l-27 -126 0 -3540 0 -3540 23 -115 c72 -355 232 -664 475 -917 255 -265
599 -454 950 -522 l108 -21 3565 0 c3557 0 3566 0 3667 21 292 59 570 193 814
394 329 272 567 704 623 1130 8 67 10 975 8 3625 l-3 3535 -29 114 c-57 231
-142 428 -264 611 -278 416 -690 683 -1202 782 l-115 22 -3430 2 c-1886 1
-3478 -2 -3537 -7z m4309 -3035 c19 -9 44 -31 57 -48 13 -17 168 -365 346
-774 178 -409 326 -745 329 -747 4 -2 33 3 66 12 97 24 343 29 450 9 258 -49
492 -174 675 -361 80 -81 81 -80 -98 -125 -125 -31 -162 -49 -162 -77 0 -9
-19 1 -49 26 -102 86 -242 155 -372 186 -99 22 -220 30 -263 15 -37 -12 -66
-51 -66 -89 0 -11 61 -160 135 -330 74 -170 135 -317 135 -326 0 -45 -29 -72
-123 -113 -109 -48 -148 -52 -180 -19 -12 12 -83 161 -157 330 -142 327 -148
337 -215 337 -50 0 -167 -133 -232 -265 -215 -432 -42 -949 392 -1167 28 -14
88 -38 135 -53 112 -36 296 -46 412 -22 329 68 580 300 673 623 14 47 25 100
25 118 0 48 10 57 47 41 59 -25 68 -61 55 -222 -9 -118 -9 -141 4 -160 18 -28
48 -29 110 -3 26 11 49 18 52 15 8 -8 -57 -139 -109 -220 -146 -225 -378 -406
-629 -489 -700 -232 -1426 182 -1583 904 -27 127 -29 357 -3 478 65 306 225
559 471 744 44 34 79 66 77 71 -2 5 -19 45 -38 87 -44 95 -83 119 -146 89 -13
-6 -217 -288 -486 -674 -255 -365 -472 -671 -482 -680 -44 -40 -83 -44 -423
-45 -204 0 -336 -4 -347 -10 -27 -15 -39 -39 -66 -144 -48 -179 -155 -364
-292 -508 -172 -180 -382 -297 -634 -355 -107 -24 -375 -24 -488 1 -432 93
-784 411 -914 824 -140 444 -16 921 321 1243 185 177 393 283 638 326 67 11
130 14 245 10 177 -6 293 -30 433 -92 45 -20 87 -37 94 -38 13 -2 388 500 404
539 8 23 -4 57 -83 243 -55 127 -104 227 -120 244 -26 27 -27 27 -163 27 -131
0 -137 1 -160 25 -24 23 -25 30 -25 144 0 66 3 127 6 136 17 43 38 45 529 45
523 0 515 1 536 -68 6 -22 10 -80 8 -135 -6 -140 -7 -141 -198 -147 l-149 -5
62 -144 c35 -81 73 -152 85 -163 22 -17 57 -18 718 -18 478 0 701 3 715 11 11
6 26 26 34 46 15 34 14 37 -71 235 -125 291 -125 291 -165 310 -31 16 -70 18
-348 18 l-313 0 -24 25 c-24 23 -25 30 -25 143 0 113 1 121 25 146 l24 26 422
0 c369 0 425 -2 456 -16z m1828 -2333 c15 -22 25 -44 24 -50 -2 -5 -16 12 -31
40 -34 59 -31 63 7 10z"/>
<path d="M4763 5888 c-27 -13 -56 -72 -48 -97 3 -11 87 -205 185 -433 123
-283 188 -420 205 -435 29 -26 80 -30 107 -9 10 7 151 203 313 436 326 467
324 463 266 521 l-29 29 -489 -1 c-322 0 -495 -4 -510 -11z"/>
<path d="M4301 5604 c-38 -27 -201 -255 -201 -282 0 -30 13 -53 64 -117 101
-123 185 -290 225 -447 11 -40 22 -81 26 -91 15 -36 58 -47 190 -47 126 0 127
0 156 29 19 19 29 40 29 59 0 25 -299 733 -360 852 -29 56 -84 75 -129 44z"/>
<path d="M3104 5310 c-360 -50 -654 -323 -740 -686 -11 -44 -16 -111 -16 -184
1 -387 259 -722 639 -832 113 -33 343 -33 456 0 259 75 470 262 576 510 26 63
22 102 -16 132 -25 19 -40 20 -412 20 -235 0 -401 4 -423 10 -83 23 -137 107
-124 194 6 37 41 90 232 348 124 166 233 317 241 334 19 39 8 79 -28 106 -55
40 -258 66 -385 48z"/>
<path d="M3825 4955 c-18 -10 -74 -75 -142 -169 -62 -85 -113 -157 -113 -160
0 -3 88 -6 195 -6 217 0 242 6 265 60 15 36 0 83 -55 185 -52 95 -93 119 -150
90z"/>
</g>
</svg>
